<svg width="246" height="62" viewBox="0 0 246 62" fill="none" xmlns="http://www.w3.org/2000/svg">
<path d="M30.8882 56.9745H29.5293V61.3392H30.8882C32.3222 61.3392 33.2051 60.5188 33.2051 59.1662C33.2051 57.8136 32.3222 56.9745 30.8882 56.9745ZM30.0991 60.8695V57.4379H30.8882C32.0278 57.4379 32.6227 58.1017 32.6227 59.1662C32.6227 60.2308 32.0278 60.8695 30.8882 60.8695H30.0991Z" fill="white"/>
<path d="M36.305 61.3392H36.8748V56.9745H36.305V61.3392Z" fill="white"/>
<path d="M42.1731 56.9244C40.9457 56.9244 39.9814 57.845 39.9814 59.1537C39.9814 60.4625 40.9457 61.3767 42.1731 61.3767C43.3566 61.3767 44.2145 60.5063 44.3147 59.423V58.9846H41.9665V59.448H43.7073C43.6196 60.3122 43.031 60.8633 42.1731 60.8633C41.2526 60.8633 40.5638 60.1995 40.5638 59.1537C40.5638 58.1017 41.2526 57.4379 42.1731 57.4379C42.7868 57.4379 43.2627 57.7322 43.5007 58.2395H44.1832C43.8576 57.4004 43.0936 56.9244 42.1731 56.9244Z" fill="white"/>
<path d="M47.4164 61.3392H47.9863V56.9745H47.4164V61.3392Z" fill="white"/>
<path d="M51.0365 57.4379H52.2325V61.3392H52.8023V57.4379H53.9921V56.9745H51.0365V57.4379Z" fill="white"/>
<path d="M59.9725 61.3392H60.5736L59.0018 56.9996H58.3443L56.7663 61.3392H57.3675L57.7181 60.3686H59.6218L59.9725 61.3392ZM59.459 59.9052H57.8809L58.67 57.7009L59.459 59.9052Z" fill="white"/>
<path d="M63.6096 56.9745V61.3392H65.7074V60.8758H64.1795V56.9745H63.6096Z" fill="white"/>
<path d="M72.6785 61.3392H73.2484V58.1017L74.6949 61.3392H75.0957L76.5359 58.108V61.3392H77.1058V57.0058H76.4984L74.8953 60.5877L73.2922 57.0058H72.6785V61.3392Z" fill="white"/>
<path d="M83.3511 61.3392H83.9522L82.3805 56.9996H81.723L80.1449 61.3392H80.7461L81.0967 60.3686H83.0004L83.3511 61.3392ZM82.8376 59.9052H81.2596L82.0486 57.7009L82.8376 59.9052Z" fill="white"/>
<path d="M89.324 58.2582C89.324 58.7467 89.0422 59.0974 88.3972 59.0974H87.5581V57.4442H88.3972C89.0484 57.4442 89.324 57.7635 89.324 58.2582ZM86.9882 56.9745V61.3392H87.5581V59.5545H88.2469L89.2864 61.3392H89.969L88.8731 59.5107C89.6058 59.3478 89.9126 58.8156 89.9126 58.2582C89.9126 57.5444 89.4242 56.9745 88.3972 56.9745H86.9882Z" fill="white"/>
<path d="M95.5133 61.3392H96.2585L94.2609 59.16L96.2397 56.9745H95.5196L93.7161 58.9972V56.9745H93.1463V61.3392H93.7161V59.3478L95.5133 61.3392Z" fill="white"/>
<path d="M101.591 56.9683H99.2432V61.3392H101.591V60.8695H99.8131V59.3666H101.404V58.897H99.8131V57.4379H101.591V56.9683Z" fill="white"/>
<path d="M104.533 57.4379H105.729V61.3392H106.299V57.4379H107.488V56.9745H104.533V57.4379Z" fill="white"/>
<path d="M110.538 61.3392H111.108V56.9745H110.538V61.3392Z" fill="white"/>
<path d="M117.289 56.9683V60.4374L114.997 56.9683H114.427V61.3392H114.997V57.8637L117.289 61.3392H117.859V56.9683H117.289Z" fill="white"/>
<path d="M123.157 56.9244C121.93 56.9244 120.966 57.845 120.966 59.1537C120.966 60.4625 121.93 61.3767 123.157 61.3767C124.341 61.3767 125.199 60.5063 125.299 59.423V58.9846H122.951V59.448H124.692C124.604 60.3122 124.015 60.8633 123.157 60.8633C122.237 60.8633 121.548 60.1995 121.548 59.1537C121.548 58.1017 122.237 57.4379 123.157 57.4379C123.771 57.4379 124.247 57.7322 124.485 58.2395H125.168C124.842 57.4004 124.078 56.9244 123.157 56.9244Z" fill="white"/>
<path d="M132.149 57.4379H133.345V61.3392H133.915V57.4379H135.105V56.9745H132.149V57.4379Z" fill="white"/>
<path d="M140.947 61.3392H141.517V56.9745H140.947V58.8907H138.724V56.9745H138.155V61.3392H138.724V59.3604H140.947V61.3392Z" fill="white"/>
<path d="M149.003 59.1537C149.003 57.845 148.045 56.9244 146.811 56.9244C145.584 56.9244 144.62 57.845 144.62 59.1537C144.62 60.4625 145.584 61.383 146.811 61.383C148.045 61.383 149.003 60.4625 149.003 59.1537ZM145.202 59.1537C145.202 58.0829 145.891 57.4191 146.811 57.4191C147.732 57.4191 148.421 58.0829 148.421 59.1537C148.421 60.2183 147.732 60.8883 146.811 60.8883C145.891 60.8883 145.202 60.2183 145.202 59.1537Z" fill="white"/>
<path d="M152.091 59.7298C152.091 60.8633 152.83 61.383 153.732 61.383C154.633 61.383 155.379 60.8633 155.379 59.7298V56.9745H154.809V59.7361C154.809 60.5376 154.383 60.882 153.738 60.882C153.093 60.882 152.661 60.5376 152.661 59.7361V56.9745H152.091V59.7298Z" fill="white"/>
<path d="M160.656 56.9244C159.429 56.9244 158.464 57.845 158.464 59.1537C158.464 60.4625 159.429 61.3767 160.656 61.3767C161.84 61.3767 162.698 60.5063 162.798 59.423V58.9846H160.45V59.448H162.19C162.103 60.3122 161.514 60.8633 160.656 60.8633C159.736 60.8633 159.047 60.1995 159.047 59.1537C159.047 58.1017 159.736 57.4379 160.656 57.4379C161.27 57.4379 161.746 57.7322 161.984 58.2395H162.666C162.341 57.4004 161.577 56.9244 160.656 56.9244Z" fill="white"/>
<path d="M168.692 61.3392H169.262V56.9745H168.692V58.8907H166.469V56.9745H165.899V61.3392H166.469V59.3604H168.692V61.3392Z" fill="white"/>
<path d="M172.308 57.4379H173.504V61.3392H174.074V57.4379H175.264V56.9745H172.308V57.4379Z" fill="white"/>
<path d="M182.331 56.9745V61.3392H184.429V60.8758H182.901V56.9745H182.331Z" fill="white"/>
<path d="M189.731 56.9683H187.382V61.3392H189.731V60.8695H187.952V59.3666H189.543V58.897H187.952V57.4379H189.731V56.9683Z" fill="white"/>
<path d="M195.872 61.3392H196.473L194.901 56.9996H194.244L192.666 61.3392H193.267L193.617 60.3686H195.521L195.872 61.3392ZM195.358 59.9052H193.78L194.569 57.7009L195.358 59.9052Z" fill="white"/>
<path d="M200.868 56.9745H199.509V61.3392H200.868C202.302 61.3392 203.185 60.5188 203.185 59.1662C203.185 57.8136 202.302 56.9745 200.868 56.9745ZM200.079 60.8695V57.4379H200.868C202.007 57.4379 202.602 58.1017 202.602 59.1662C202.602 60.2308 202.007 60.8695 200.868 60.8695H200.079Z" fill="white"/>
<path d="M208.633 56.9683H206.285V61.3392H208.633V60.8695H206.854V59.3666H208.445V58.897H206.854V57.4379H208.633V56.9683Z" fill="white"/>
<path d="M214.179 58.2582C214.179 58.7467 213.897 59.0974 213.252 59.0974H212.413V57.4442H213.252C213.904 57.4442 214.179 57.7635 214.179 58.2582ZM211.843 56.9745V61.3392H212.413V59.5545H213.102L214.142 61.3392H214.824L213.728 59.5107C214.461 59.3478 214.768 58.8156 214.768 58.2582C214.768 57.5444 214.279 56.9745 213.252 56.9745H211.843Z" fill="white"/>
<path d="M114.773 45.1922H114.236L127.605 13.8932L128.097 13.6697L139.365 45.1922H135.564L132.077 35.3554H119.021L114.773 45.1922ZM126.219 18.7222L119.199 34.9082H131.943L126.219 18.7222Z" fill="white"/>
<path d="M160.338 15.7712C157.626 14.7279 155.062 14.2062 152.648 14.2062C150.263 14.2062 148.4 14.713 147.059 15.7265C145.717 16.74 145.047 18.141 145.047 19.9295C145.047 22.1055 146.179 23.7897 148.445 24.982C149.458 25.4887 150.561 25.9657 151.753 26.4128C152.976 26.8301 154.198 27.3071 155.42 27.8436C156.642 28.3802 157.76 28.9913 158.773 29.6768C159.787 30.3624 160.607 31.3163 161.233 32.5385C161.859 33.7308 162.172 35.2659 162.172 37.1439C162.172 38.992 161.65 40.5718 160.607 41.8834C159.563 43.195 158.296 44.0893 156.806 44.5662C155.345 45.0133 153.631 45.2369 151.664 45.2369C147.998 45.2369 144.868 44.3277 142.274 42.5094L142.498 42.1517C143.482 42.9267 144.748 43.5676 146.299 44.0744C147.878 44.5513 149.488 44.7898 151.127 44.7898C153.542 44.7898 155.599 44.2383 157.298 43.1354C159.027 42.0027 159.891 40.3483 159.891 38.1723C159.891 35.7876 158.758 33.9246 156.493 32.5832C155.48 31.987 154.362 31.4355 153.14 30.9288C151.947 30.4221 150.74 29.9004 149.518 29.3639C148.296 28.7975 147.178 28.1715 146.164 27.4859C143.899 25.9955 142.766 23.8791 142.766 21.1367C142.766 18.9607 143.497 17.202 144.957 15.8606C146.418 14.4894 148.609 13.8038 151.53 13.8038C154.481 13.8038 157.477 14.3106 160.517 15.324L160.338 15.7712Z" fill="white"/>
<path d="M183.842 45.1922H166.851V13.8932H170.562V44.745H183.842V45.1922Z" fill="white"/>
<path d="M187.082 45.1922H186.545L199.914 13.8932L200.406 13.6697L211.674 45.1922H207.873L204.386 35.3554H191.329L187.082 45.1922ZM198.528 18.7222L191.508 34.9082H204.251L198.528 18.7222Z" fill="white"/>
<path d="M216.506 45.1922H215.925L219.815 13.8932H221.29L230.68 42.8224L240.025 13.8932H241.5L245.39 45.1922H241.679L238.594 20.153L230.501 45.1922H227.684L219.502 20.466L216.506 45.1922Z" fill="white"/>
<path fill-rule="evenodd" clip-rule="evenodd" d="M25.6019 31.5225H25.0653L38.4344 0.223564L38.9263 0L50.1939 31.5225H46.3933L42.9057 21.6857H29.8496L25.6019 31.5225ZM37.0484 5.05254L30.0285 21.2386H42.7716L37.0484 5.05254ZM3.71116 0.223564V19.9866L18.1534 0.223564L18.5111 0.536554L10.5075 11.4465L22.4011 31.5225H18.2428L8.22715 14.5764L3.71116 20.7914V31.5225H0V0.223564H3.71116ZM63.4767 0.536554C65.8912 0.536554 68.4548 1.0582 71.1673 2.1015L71.3462 1.65437C68.3057 0.640883 65.31 0.134139 62.3589 0.134139C59.4377 0.134139 57.2468 0.819734 55.7861 2.19093C54.3255 3.53231 53.5952 5.29101 53.5952 7.46703C53.5952 10.2094 54.7279 12.3258 56.9934 13.8162C58.0069 14.5018 59.1247 15.1278 60.3468 15.6942C61.569 16.2307 62.7762 16.7524 63.9686 17.2591C65.1907 17.7659 66.3085 18.3173 67.322 18.9135C69.5875 20.2549 70.7202 22.1179 70.7202 24.5026C70.7202 26.6786 69.8557 28.333 68.1269 29.4657C66.4278 30.5686 64.371 31.1201 61.9565 31.1201C60.317 31.1201 58.7074 30.8816 57.1275 30.4047C55.5775 29.8979 54.3106 29.257 53.3269 28.482L53.1034 28.8397C55.6967 30.658 58.8266 31.5672 62.493 31.5672C64.4604 31.5672 66.1744 31.3436 67.635 30.8965C69.1254 30.4196 70.3923 29.5253 71.4356 28.2137C72.4789 26.9022 73.0005 25.3223 73.0005 23.4742C73.0005 21.5963 72.6875 20.0611 72.0616 18.8688C71.4356 17.6466 70.6159 16.6928 69.6024 16.0072C68.5889 15.3216 67.4711 14.7105 66.2489 14.1739C65.0268 13.6374 63.8046 13.1605 62.5825 12.7431C61.3901 12.296 60.2872 11.8191 59.2737 11.3123C57.0083 10.12 55.8756 8.43581 55.8756 6.25979C55.8756 4.47128 56.5463 3.07028 57.8876 2.05679C59.229 1.0433 61.092 0.536554 63.4767 0.536554ZM77.6797 0.67069V0.223564H85.6385V0.67069H83.4476V31.0754H85.6385V31.5225H77.6797V31.0754H79.7364V0.67069H77.6797ZM91.6908 31.5225H92.2721L95.2678 6.79634L103.45 31.5225H106.267L114.36 6.48335L116.766 26.0105L119.638 19.3069L117.267 0.223564H115.791L106.446 29.1527L97.0563 0.223564H95.5808L91.6908 31.5225Z" fill="white"/>
</svg>
