<svg width="213" height="12" viewBox="0 0 213 12" fill="none" xmlns="http://www.w3.org/2000/svg">
<path d="M200.161 6.2607C199.87 6.2699 199.575 6.2764 199.289 6.28994C199.104 6.29841 199.024 6.27467 198.9 6.26241C198.859 6.25814 198.815 6.24954 198.776 6.25069C198.488 6.25989 198.199 6.27018 197.91 6.28046C197.822 6.30179 197.766 6.33012 197.63 6.34067C197.498 6.35068 197.341 6.35096 197.194 6.35611C197 6.36243 196.805 6.36874 196.611 6.37452C196.513 6.37741 196.434 6.38786 196.402 6.40746C196.396 6.41073 196.46 6.41875 196.496 6.42358C196.614 6.43965 196.729 6.4579 196.858 6.47015C196.982 6.48187 197.135 6.46206 197.268 6.47702C197.566 6.51068 197.569 6.51013 197.796 6.50321C197.99 6.4969 198.185 6.49003 198.379 6.48534C198.417 6.48419 198.462 6.49225 198.503 6.49652C198.627 6.50824 198.706 6.53524 198.889 6.5246C199.027 6.51621 199.181 6.51431 199.325 6.50971C199.446 6.52523 199.561 6.54294 199.687 6.5552C199.808 6.56692 199.844 6.57609 199.779 6.59194C199.72 6.6067 199.638 6.61282 199.528 6.6141C199.431 6.61482 199.334 6.61988 199.237 6.62277C199.19 6.62448 199.14 6.62565 199.092 6.62737C198.907 6.63367 198.907 6.63367 198.568 6.59954C198.435 6.5862 198.285 6.60547 198.158 6.59267C198.073 6.58414 197.999 6.57124 197.916 6.56216C197.881 6.55843 197.825 6.55798 197.781 6.55915C197.634 6.56321 197.486 6.56619 197.345 6.5735C197.245 6.57856 197.186 6.59387 197.198 6.60904C197.2 6.61501 197.271 6.62357 197.312 6.62404C197.407 6.62495 197.507 6.61717 197.598 6.62081C197.687 6.62445 197.778 6.63514 197.843 6.64697C197.976 6.6717 198.126 6.64918 198.253 6.65546C198.385 6.66228 198.494 6.6838 198.621 6.6966C198.656 6.6998 198.715 6.69426 198.765 6.69254C198.91 6.68849 199.054 6.68497 199.199 6.68091C199.319 6.69644 199.449 6.71032 199.558 6.72804C199.756 6.76025 199.968 6.77236 200.224 6.75616C200.369 6.74721 200.51 6.75022 200.625 6.77118C200.743 6.79268 200.878 6.79027 201.029 6.78566C201.167 6.78107 201.309 6.76887 201.45 6.78382C201.757 6.81692 201.76 6.81855 202.122 6.80487C202.231 6.80088 202.314 6.79964 202.396 6.81198C202.473 6.82324 202.555 6.83286 202.635 6.84358C202.779 6.83952 202.927 6.83546 203.071 6.83086C203.257 6.82455 203.36 6.83197 203.404 6.86229C203.431 6.88069 203.442 6.8975 203.507 6.90987C203.584 6.92493 203.666 6.92424 203.778 6.9197C203.884 6.91571 203.961 6.9096 204.005 6.88998C204.023 6.88181 204.058 6.87414 204.091 6.86757C204.117 6.86264 204.158 6.85497 204.182 6.85601C204.226 6.8581 204.285 6.86397 204.3 6.871C204.444 6.93642 204.444 6.93696 204.592 6.95569C204.754 6.97657 204.922 6.99527 205.069 7.01889C205.202 7.03982 205.334 7.03036 205.479 7.0301C205.588 7.0299 205.659 7.04389 205.65 7.05802C205.644 7.06617 205.603 7.07819 205.567 7.07934C205.279 7.09071 204.987 7.10046 204.698 7.10857C204.663 7.10972 204.619 7.10003 204.577 7.09522C204.495 7.0856 204.421 7.07053 204.333 7.06743C204.244 7.06433 204.141 7.07266 204.044 7.07555C203.947 7.07843 203.843 7.08567 203.755 7.08149C203.667 7.07731 203.596 7.06169 203.513 7.05153C203.475 7.04671 203.422 7.03975 203.39 7.04143C203.174 7.05485 203.015 7.03722 202.862 7.01415C202.83 7.00932 202.774 7.00617 202.732 7.00733C202.391 7.01717 202.052 7.02863 201.71 7.03955C201.571 7.04414 201.459 7.02534 201.43 6.99337C201.415 6.97549 201.386 6.95763 201.386 6.93972C201.386 6.90715 201.223 6.88953 201.106 6.89354C200.911 6.89931 200.714 6.90401 200.522 6.91249C200.366 6.91928 200.233 6.91301 200.127 6.89366C200.003 6.87162 199.862 6.87622 199.72 6.88244C199.614 6.88697 199.585 6.90494 199.591 6.94998C199.597 6.98634 199.547 6.99782 199.355 7.00414C199.114 7.01217 198.869 7.02021 198.625 7.02661C198.586 7.02777 198.542 7.01862 198.504 7.0138C198.421 7.00418 198.347 6.98857 198.259 6.98547C198.171 6.98183 198.068 6.99016 197.97 6.99359C197.873 6.99648 197.77 7.00426 197.682 7.00062C197.593 6.99698 197.519 6.98082 197.44 6.97065C197.402 6.96584 197.354 6.95887 197.316 6.96002C197.122 6.96471 196.927 6.97157 196.733 6.97789C196.515 6.98479 196.515 6.98479 196.205 6.95169C196.064 6.93675 195.922 6.94894 195.784 6.95353C195.636 6.95814 195.498 6.96056 195.38 6.93906C195.303 6.92508 195.218 6.91655 195.126 6.91942C194.882 6.92638 194.64 6.93495 194.396 6.9419C194.354 6.94306 194.298 6.94045 194.266 6.93562C194.11 6.9131 193.957 6.89546 193.739 6.90725C193.55 6.91736 193.347 6.91826 193.158 6.92783C193.055 6.9329 193.008 6.95035 193.028 6.96389C193.04 6.97092 193.102 6.97895 193.143 6.97888C193.238 6.97925 193.341 6.97093 193.429 6.97402C193.612 6.98021 193.703 7.02564 193.942 7.01273C194.083 7.00488 194.231 7.0019 194.378 6.99947C194.416 6.9994 194.458 7.0091 194.499 7.01445C194.617 7.02889 194.72 7.04771 194.891 7.03763C195.032 7.02978 195.183 7.02734 195.327 7.02274C195.557 7.01527 195.557 7.01582 195.855 7.04839C195.996 7.06388 196.137 7.05114 196.276 7.0471C196.379 7.0442 196.476 7.0386 196.556 7.04605C196.683 7.05723 196.774 7.08312 196.93 7.08121C197.078 7.07932 197.222 7.07146 197.369 7.06848C197.461 7.06669 197.546 7.07522 197.62 7.08975C197.696 7.10426 197.779 7.11063 197.879 7.10719C198.024 7.10259 198.171 7.0969 198.318 7.09393C198.359 7.09331 198.407 7.09811 198.445 7.10238C198.527 7.11201 198.607 7.12326 198.687 7.13343C198.831 7.12992 198.978 7.12857 199.12 7.1218C199.229 7.11672 199.305 7.11876 199.394 7.12945C199.506 7.14391 199.597 7.1698 199.78 7.15699C199.871 7.15086 199.977 7.15229 200.069 7.1467C200.181 7.13945 200.257 7.14202 200.337 7.15817C200.487 7.18884 200.676 7.18904 200.87 7.17675C201.082 7.16335 201.242 7.17826 201.401 7.20186C201.569 7.22653 201.569 7.22598 201.699 7.286C201.737 7.3033 201.846 7.31125 201.937 7.30783C202.09 7.30213 202.223 7.3046 202.335 7.32503C202.453 7.34707 202.594 7.34411 202.739 7.33788C202.93 7.32939 203.122 7.32199 203.278 7.3532C203.355 7.36826 203.437 7.37191 203.54 7.36793C203.832 7.35763 204.127 7.35114 204.413 7.33868C204.587 7.33077 204.687 7.34796 204.805 7.36241C204.964 7.38221 205.135 7.39981 205.138 7.44269C205.138 7.44975 205.179 7.45781 205.214 7.46264C205.291 7.4739 205.374 7.48352 205.453 7.49423C205.571 7.51031 205.686 7.52367 205.848 7.5147C205.99 7.50739 206.14 7.50495 206.284 7.4998C206.429 7.49466 206.561 7.49171 206.691 7.5121C206.841 7.53518 207 7.55715 207.171 7.57421C207.292 7.58648 207.451 7.56502 207.581 7.58162C207.66 7.59179 207.737 7.60359 207.823 7.61213C207.858 7.61586 207.914 7.61305 207.961 7.61188C208.058 7.60953 208.159 7.60773 208.253 7.60213C208.362 7.59596 208.444 7.5969 208.527 7.60924C208.604 7.6205 208.68 7.6361 208.769 7.6392C208.901 7.64385 209.048 7.62188 209.181 7.64661C209.249 7.65897 209.334 7.67076 209.423 7.6744C209.511 7.67804 209.614 7.66972 209.709 7.67009C209.75 7.67002 209.8 7.67861 209.824 7.68563C209.838 7.6894 209.818 7.69975 209.797 7.70521C209.771 7.71177 209.732 7.72053 209.694 7.72168C209.402 7.73197 209.111 7.74064 208.819 7.75039C208.703 7.75421 208.528 7.74494 208.294 7.72256C208.212 7.71456 208.12 7.71635 208.017 7.72034C207.879 7.72547 207.737 7.73495 207.593 7.72544C207.404 7.68887 207.171 7.68602 206.924 7.70058C206.821 7.70674 206.727 7.7069 206.65 7.69673C206.488 7.67639 206.317 7.6577 206.172 7.63353C206.06 7.61473 206.007 7.6132 205.96 7.63934C205.946 7.64751 205.931 7.65622 205.937 7.66381C205.954 7.69091 205.987 7.71745 206.005 7.74456C206.011 7.75215 205.987 7.76088 205.972 7.76905C205.925 7.79193 205.863 7.79041 205.76 7.7716C205.657 7.75278 205.533 7.74052 205.368 7.7495C205.227 7.75735 205.073 7.75654 204.932 7.76494C204.714 7.77727 204.561 7.76017 204.405 7.73711C204.372 7.73228 204.316 7.72967 204.275 7.73083C203.836 7.7441 203.4 7.75899 202.961 7.77226C202.866 7.77514 202.781 7.76715 202.707 7.75263C202.631 7.73811 202.545 7.73066 202.451 7.73355C202.062 7.74564 201.673 7.75665 201.284 7.77146C201.125 7.77771 200.998 7.77088 200.889 7.75208C200.806 7.73812 200.73 7.73391 200.627 7.73572C200.515 7.73755 200.435 7.74312 200.379 7.75896C200.326 7.77426 200.365 7.78342 200.482 7.79515C200.609 7.80795 200.727 7.82456 200.848 7.83954C200.945 7.8372 201.042 7.83268 201.137 7.83306C201.178 7.83298 201.216 7.84269 201.258 7.84804C201.375 7.86357 201.484 7.87912 201.652 7.87013C201.794 7.86228 201.944 7.86038 202.089 7.85524C202.289 7.84891 202.289 7.84891 202.613 7.88253C202.696 7.89106 202.784 7.89036 202.89 7.88529C202.981 7.88132 203.076 7.88875 203.141 7.90492C203.167 7.91139 203.158 7.92226 203.102 7.95818C203.102 7.98478 203.164 7.97273 203.185 7.95532C203.217 7.9303 203.155 7.92227 203.038 7.93605C202.955 7.94596 202.914 7.96015 202.934 7.97151C202.946 7.97746 203.002 7.98496 203.102 7.95818C203.362 7.92515 203.559 7.921 203.748 7.91198C203.86 7.90689 203.93 7.90894 204.019 7.92289C204.125 7.93953 204.231 7.95725 204.405 7.94826C204.593 7.93815 204.794 7.9367 204.985 7.92822C205.162 7.92031 205.254 7.94402 205.366 7.95794C205.501 7.97452 205.651 7.95525 205.775 7.9648C205.905 7.97434 205.996 7.99806 206.147 8.00214C206.365 7.98709 206.503 8.01398 206.668 8.0316C206.798 8.04494 206.951 8.03272 207.09 8.0265C207.246 8.01971 207.375 8.02599 207.484 8.04479C207.608 8.06683 207.747 8.0617 207.888 8.05656C208.218 8.04511 208.23 8.04346 208.422 8.07297C208.56 8.09444 208.693 8.08443 208.831 8.08147C208.952 8.09591 209.07 8.11144 209.197 8.12424C209.229 8.12744 209.291 8.1219 209.341 8.12018C209.485 8.11558 209.633 8.11097 209.777 8.10637C209.874 8.10349 209.978 8.09516 210.066 8.09826C210.154 8.1019 210.228 8.11751 210.308 8.12768C210.387 8.13785 210.47 8.14802 210.546 8.15874C210.664 8.17481 210.776 8.18818 210.941 8.17974C211.083 8.17243 211.23 8.17 211.377 8.16485C211.563 8.15855 211.557 8.16018 211.902 8.19214C212.088 8.20972 212.279 8.18766 212.468 8.18515C212.562 8.1839 212.653 8.18971 212.718 8.20533C212.745 8.2118 212.736 8.22267 212.745 8.23188C212.259 8.24741 211.77 8.26076 211.289 8.27954C211.104 8.28692 211.006 8.26756 210.906 8.25145C210.741 8.22569 210.523 8.26408 210.367 8.23125C210.272 8.21133 210.137 8.20018 209.975 8.21024C209.881 8.21583 209.78 8.21547 209.683 8.22053C209.436 8.23291 209.209 8.23386 209.011 8.19676C208.943 8.18386 208.846 8.17697 208.775 8.16462C208.693 8.15119 208.613 8.14374 208.516 8.14662C208.077 8.16044 207.641 8.17424 207.205 8.18914C207.166 8.19029 207.128 8.1985 207.096 8.20453C207.013 8.21987 207.04 8.23177 207.172 8.2413C207.217 8.24448 207.252 8.25147 207.293 8.25683C207.373 8.267 207.447 8.28315 207.535 8.28679C207.623 8.29043 207.727 8.28265 207.824 8.27976C207.921 8.27687 208.024 8.26855 208.113 8.27165C208.201 8.27529 208.275 8.2909 208.357 8.30052C208.396 8.30534 208.443 8.31339 208.481 8.31278C208.675 8.30918 208.867 8.30286 209.061 8.29763C209.182 8.31207 209.285 8.33306 209.43 8.33768C209.521 8.34078 209.619 8.33463 209.713 8.33555C209.754 8.33602 209.81 8.34406 209.828 8.35108C209.84 8.3554 209.801 8.36633 209.772 8.37181C209.66 8.39264 209.507 8.38911 209.368 8.39587C209.218 8.4032 209.082 8.40127 208.967 8.3803C208.891 8.36633 208.805 8.35888 208.711 8.36177C208.466 8.36926 208.225 8.37783 207.98 8.38424C207.939 8.3854 207.889 8.3806 207.85 8.37687C207.541 8.34432 207.541 8.34323 207.323 8.35068C207.109 8.35794 206.93 8.3521 206.787 8.33318C206.745 8.32783 206.701 8.31759 206.666 8.3182C206.324 8.3275 205.985 8.33679 205.646 8.34988C205.534 8.35388 205.458 8.35401 205.375 8.34005C205.304 8.32823 205.222 8.31481 205.133 8.31171C205.042 8.30862 204.942 8.31694 204.845 8.31983C204.747 8.32271 204.644 8.32995 204.559 8.32577C204.47 8.32158 204.394 8.30652 204.317 8.2958C204.238 8.28454 204.152 8.28524 204.043 8.28978C203.707 8.30286 203.704 8.30124 203.371 8.26818C203.333 8.26445 203.283 8.2602 203.241 8.26136C202.997 8.26831 202.755 8.27688 202.511 8.28383C202.416 8.28672 202.325 8.27982 202.26 8.2642C202.234 8.25773 202.242 8.24686 202.225 8.22572C202.204 8.22087 202.225 8.22952 202.234 8.23765C202.278 8.23648 202.331 8.23747 202.363 8.23307C202.446 8.22261 202.487 8.20897 202.466 8.19761C202.455 8.19166 202.399 8.18416 202.363 8.18422C202.298 8.18434 202.242 8.19638 202.225 8.22572C202.039 8.24397 201.842 8.24812 201.65 8.25715C201.538 8.26277 201.467 8.26019 201.379 8.24623C201.273 8.22905 201.164 8.21242 200.99 8.22142C200.801 8.23152 200.601 8.23351 200.407 8.24146C200.183 8.25054 200.085 8.20187 199.897 8.20329C199.702 8.20472 199.508 8.2143 199.313 8.22116C199.142 8.22689 199.142 8.22689 198.789 8.19224C198.659 8.17945 198.506 8.19872 198.379 8.18538C198.294 8.17684 198.22 8.16395 198.137 8.15487C198.102 8.15113 198.046 8.15123 198.002 8.1524C197.757 8.15935 197.51 8.16413 197.274 8.1765C197.006 8.19109 196.803 8.17625 196.611 8.14457C196.369 8.15097 196.125 8.15467 195.886 8.16541C195.712 8.17332 195.612 8.15558 195.494 8.14114C195.453 8.13633 195.417 8.12825 195.373 8.12616C195.329 8.12407 195.276 8.1285 195.229 8.13022C195.034 8.13653 194.834 8.13961 194.645 8.14971C194.413 8.16261 194.324 8.11826 194.144 8.11316C194.024 8.13997 193.959 8.17645 193.72 8.17959C193.526 8.18211 193.331 8.19115 193.137 8.19746C193.039 8.20035 192.942 8.20378 192.845 8.20667C192.689 8.21183 192.615 8.23313 192.648 8.26564C192.665 8.28352 192.68 8.30141 192.695 8.3193C192.724 8.35127 192.651 8.37854 192.527 8.38256C192.185 8.39349 191.846 8.40495 191.505 8.41479C191.413 8.41766 191.325 8.40859 191.251 8.39407C191.174 8.37955 191.089 8.37319 190.995 8.37607C190.653 8.387 190.314 8.39846 189.972 8.4083C189.934 8.40945 189.881 8.40412 189.846 8.39984C189.763 8.39022 189.683 8.37896 189.604 8.36879C189.409 8.37402 189.218 8.37762 189.026 8.38448C188.717 8.3948 188.717 8.39534 188.49 8.3659C188.449 8.36054 188.407 8.3503 188.369 8.35091C188.222 8.35335 188.077 8.35903 187.93 8.36418C187.497 8.37907 187.497 8.37907 187.37 8.36301C187.255 8.34802 187.152 8.32975 186.978 8.33875C186.79 8.34885 186.589 8.35247 186.395 8.35824C186.25 8.3623 186.106 8.3669 185.962 8.36825C185.923 8.36831 185.882 8.35862 185.841 8.35326C185.723 8.33665 185.608 8.32328 185.446 8.3328C185.351 8.3384 185.251 8.33966 185.154 8.34255C184.985 8.34792 184.762 8.33999 184.485 8.31878C184.444 8.31559 184.394 8.31188 184.352 8.31359C184.011 8.32397 183.672 8.33543 183.33 8.34527C183.289 8.34643 183.239 8.34326 183.197 8.34062C182.887 8.32019 182.567 8.31533 182.237 8.32605C182.048 8.33182 182.042 8.334 181.845 8.30559C181.756 8.29326 181.686 8.28742 181.579 8.2914C181.191 8.30513 180.799 8.31451 180.413 8.3304C180.239 8.33723 180.139 8.32112 180.021 8.30668C179.979 8.30187 179.935 8.29109 179.9 8.2917C179.511 8.3027 179.122 8.31588 178.733 8.32689C178.698 8.32804 178.653 8.31726 178.612 8.31245C178.533 8.30282 178.456 8.28831 178.367 8.28521C178.276 8.28211 178.176 8.29043 178.076 8.29333C177.831 8.30082 177.831 8.30028 177.548 8.26876C177.51 8.26449 177.46 8.2586 177.421 8.25976C177.033 8.27131 176.641 8.28124 176.255 8.29767C176.034 8.30675 175.883 8.29128 175.727 8.26876C175.695 8.26393 175.639 8.26186 175.597 8.26302C175.158 8.27629 174.722 8.29118 174.283 8.30445C174.192 8.30733 174.103 8.29826 174.03 8.28428C173.915 8.26223 173.773 8.2652 173.626 8.27034C173.287 8.28235 173.284 8.28181 173.084 8.25612C173.043 8.25076 173.007 8.24377 172.963 8.24113C172.922 8.23849 172.869 8.24022 172.824 8.24138C172.63 8.24716 172.435 8.25348 172.241 8.25979C172.047 8.26611 171.849 8.26972 171.658 8.27929C171.422 8.29111 171.31 8.25603 171.145 8.24004C170.903 8.24753 170.656 8.25232 170.417 8.26414C170.234 8.27315 170.149 8.24942 170.028 8.23715C169.987 8.23289 169.942 8.22374 169.904 8.22489C169.465 8.23762 169.026 8.25143 168.59 8.26687C168.484 8.27031 168.413 8.2661 168.325 8.25323C168.127 8.22427 168.118 8.22537 167.788 8.23682C167.644 8.24196 167.505 8.24655 167.382 8.22452C167.273 8.20463 167.14 8.19998 166.984 8.20677C166.792 8.21526 166.595 8.21995 166.4 8.22573C166.206 8.23205 166.011 8.24054 165.817 8.2436C165.661 8.24659 165.566 8.22125 165.443 8.20844C165.404 8.20471 165.351 8.20426 165.307 8.20543C165.113 8.21066 164.912 8.21482 164.724 8.22438C164.494 8.23619 164.367 8.20657 164.205 8.18949C164.17 8.18575 164.111 8.18803 164.066 8.18973C163.725 8.20012 163.386 8.21158 163.044 8.2225C162.923 8.20806 162.799 8.19417 162.678 8.17973C162.484 8.18551 162.289 8.19183 162.095 8.1976C161.948 8.20221 161.797 8.2041 161.659 8.21249C161.479 8.22367 161.391 8.19832 161.27 8.18605C161.229 8.18178 161.184 8.17263 161.146 8.17379C160.902 8.1802 160.657 8.18715 160.415 8.19681C160.185 8.20644 160.094 8.15776 159.905 8.15864C159.711 8.15898 159.511 8.16694 159.322 8.17705C159.104 8.18884 158.951 8.17174 158.794 8.14868C158.762 8.14385 158.706 8.14124 158.665 8.1424C158.42 8.14935 158.179 8.15792 157.934 8.16488C157.893 8.16603 157.843 8.16341 157.801 8.16023C157.336 8.12903 157.336 8.12849 157.132 8.13537C156.988 8.13997 156.841 8.14566 156.693 8.14864C156.652 8.1498 156.602 8.145 156.564 8.14073C156.257 8.10817 156.257 8.10762 156.036 8.11453C155.842 8.12085 155.647 8.12717 155.453 8.13349C155.332 8.11905 155.208 8.10516 155.087 8.09072C154.846 8.09821 154.598 8.10408 154.359 8.11427C154.247 8.11882 154.174 8.11732 154.088 8.1039C153.982 8.08781 153.876 8.069 153.699 8.07854C153.511 8.08865 153.31 8.0901 153.119 8.09858C152.889 8.10876 152.795 8.05954 152.609 8.06041C152.414 8.06076 152.214 8.06871 152.026 8.07882C151.807 8.09061 151.654 8.07352 151.498 8.05045C151.466 8.04563 151.41 8.04301 151.368 8.04417C150.832 8.06087 150.299 8.07757 149.762 8.09535C149.542 8.10262 149.223 8.09686 148.805 8.07807C148.76 8.07598 148.713 8.07389 148.669 8.07505C148.475 8.08029 148.274 8.08444 148.086 8.09401C147.856 8.10582 147.729 8.07673 147.567 8.05911C147.532 8.05538 147.476 8.05765 147.428 8.05936C147.281 8.06342 147.137 8.06857 146.989 8.07317C146.795 8.07949 146.6 8.08581 146.406 8.09213C146.285 8.07823 146.161 8.0638 146.041 8.0499C145.799 8.05739 145.551 8.06163 145.313 8.07346C145.13 8.08247 145.045 8.05982 144.924 8.04701C144.882 8.04274 144.838 8.03359 144.8 8.03421C144.361 8.04693 143.922 8.0602 143.486 8.07618C143.306 8.08301 143.223 8.05874 143.103 8.04647C143.061 8.04274 143.014 8.03577 142.976 8.03693C142.684 8.04505 142.392 8.05479 142.101 8.06454C141.991 8.06836 141.816 8.05926 141.576 8.03726C141.535 8.03353 141.488 8.02982 141.446 8.03097C140.521 8.05977 139.599 8.09019 138.674 8.11898C138.579 8.12186 138.494 8.11387 138.42 8.09935C138.343 8.08483 138.258 8.07739 138.164 8.08027C137.775 8.09236 137.383 8.10338 136.997 8.11818C136.838 8.12443 136.711 8.1176 136.602 8.0988C136.519 8.08484 136.443 8.07955 136.34 8.08299C136.145 8.08985 135.951 8.09562 135.756 8.10194C135.562 8.10826 135.367 8.11458 135.173 8.1209C134.978 8.12722 134.781 8.13083 134.589 8.1404C134.354 8.15222 134.239 8.11877 134.077 8.10223C133.785 8.1109 133.493 8.11956 133.204 8.12876C132.815 8.14085 132.426 8.15403 132.037 8.16558C132.002 8.16673 131.958 8.15704 131.917 8.15223C131.796 8.13888 131.707 8.12004 131.528 8.12633C130.655 8.15666 129.777 8.18265 128.902 8.21244C128.719 8.21874 128.64 8.19554 128.516 8.18328C128.475 8.17955 128.428 8.17204 128.389 8.17319C127.903 8.18763 127.417 8.2037 126.931 8.21923C126.799 8.22344 126.623 8.21453 126.403 8.19249C126.365 8.18875 126.315 8.18396 126.274 8.18512C125.64 8.20471 125.009 8.22537 124.376 8.24551C124.282 8.24839 124.196 8.24094 124.119 8.22642C124.046 8.2119 123.957 8.20392 123.866 8.20679C123.283 8.22521 122.696 8.24308 122.116 8.26312C121.96 8.26882 121.83 8.26363 121.718 8.24483C121.638 8.23086 121.559 8.22503 121.459 8.22847C120.583 8.25663 119.708 8.2837 118.833 8.3135C118.665 8.31922 118.547 8.30912 118.441 8.2914C118.356 8.27744 118.282 8.27486 118.176 8.27722C118.064 8.28013 117.996 8.28622 117.934 8.30262C117.855 8.32393 117.805 8.35062 117.616 8.35258C117.422 8.35456 117.224 8.36142 117.033 8.37099C116.85 8.38055 116.764 8.35627 116.65 8.34182C116.564 8.33166 116.484 8.33018 116.375 8.33526C116.275 8.33978 116.213 8.34912 116.154 8.36659C116.025 8.40373 116.013 8.40376 115.854 8.3807C115.768 8.36837 115.692 8.35874 115.598 8.36107C115.209 8.37263 114.82 8.38526 114.431 8.39844C114.207 8.4059 114.204 8.40699 114.036 8.38015C113.953 8.36673 113.874 8.36036 113.776 8.36379C112.707 8.39827 111.637 8.43166 110.568 8.46777C110.403 8.47349 110.291 8.4623 110.173 8.44622C110.134 8.44086 110.096 8.43333 110.052 8.43124C110.008 8.42915 109.957 8.43141 109.91 8.43258C109.132 8.45731 108.352 8.48096 107.577 8.5084C107.4 8.51469 107.305 8.49749 107.185 8.48359C107.143 8.47878 107.108 8.47124 107.064 8.46915C107.02 8.4676 106.967 8.4715 106.919 8.47321C106.141 8.49794 105.361 8.52159 104.586 8.54903C104.4 8.55533 104.32 8.53268 104.2 8.52095C104.158 8.51668 104.114 8.50862 104.076 8.50978C103.831 8.51618 103.59 8.52476 103.345 8.53225C102.762 8.55121 102.178 8.56908 101.595 8.58857C101.371 8.59603 101.273 8.5479 101.085 8.55041C100.84 8.55356 100.599 8.56484 100.354 8.57288C100.16 8.5792 99.9651 8.58498 99.7706 8.59184C99.6429 8.59605 99.4199 8.58794 99.1016 8.56752C99.0604 8.56488 99.0103 8.56117 98.969 8.56233C98.2884 8.58363 97.6047 8.60494 96.927 8.62786C96.7708 8.63302 96.6412 8.63054 96.5292 8.61066C96.4496 8.59669 96.3671 8.58978 96.2698 8.59321C95.2473 8.62598 94.2278 8.65874 93.2053 8.69097C93.167 8.69212 93.1169 8.68678 93.0786 8.68251C92.996 8.67288 92.9165 8.66163 92.8369 8.65146C92.778 8.66405 92.7014 8.67558 92.6631 8.68976C92.6101 8.70886 92.5394 8.71441 92.4274 8.71787C92.3154 8.72132 92.2447 8.72037 92.1563 8.70641C92.0501 8.68923 91.9411 8.67586 91.7672 8.6816C90.7006 8.7177 89.628 8.75056 88.5583 8.78612C88.3815 8.79186 88.299 8.76813 88.1752 8.75587C88.1339 8.75214 88.0868 8.74626 88.0485 8.74741C87.6094 8.76068 87.1733 8.77503 86.7343 8.78884C85.5173 8.82793 84.3003 8.86538 83.0863 8.90664C82.8653 8.91409 82.715 8.90079 82.5588 8.87772C82.5264 8.8729 82.4704 8.87028 82.4291 8.87144C80.726 8.92551 79.0228 8.98012 77.3226 9.03473C77.2312 9.0376 77.1428 9.02908 77.0691 9.0151C76.9925 9.00058 76.907 8.99368 76.8127 8.99656C76.0348 9.02129 75.2569 9.04602 74.479 9.07129C74.2845 9.07761 74.2816 9.07816 74.0811 9.05247C74.0399 9.04711 73.9956 9.03688 73.9632 9.03802C73.8955 9.04086 73.8307 9.05454 73.7835 9.07308C73.7364 9.0927 73.6628 9.09826 73.5537 9.10226C73.4418 9.10626 73.3681 9.10476 73.2826 9.09189C73.1736 9.0758 73.0733 9.06024 72.8965 9.06598C70.66 9.13946 68.4235 9.21022 66.187 9.28315C66.0073 9.2889 65.9247 9.26625 65.8009 9.25399C65.7597 9.25026 65.7184 9.24491 65.6742 9.24391C65.6271 9.2429 65.577 9.24625 65.5298 9.24796C61.8819 9.36467 58.2339 9.48193 54.586 9.59863C54.4406 9.60324 54.2894 9.62232 54.1323 9.6559C54.1028 9.66192 54.0645 9.67013 54.0233 9.67129C52.9065 9.70802 51.7868 9.74368 50.6671 9.77934C50.1809 9.79486 49.6947 9.81093 49.2085 9.82591C49.0346 9.83111 49.0346 9.83111 48.6192 9.89047C48.5839 9.89542 48.5426 9.90201 48.5014 9.90317C46.5566 9.96581 44.6118 10.0284 42.6641 10.09C42.5108 10.0946 42.3871 10.1046 42.3164 10.1308C42.2664 10.1493 42.2015 10.1603 42.1043 10.1637C40.743 10.2074 39.3816 10.2517 38.0173 10.2943C37.8552 10.2994 37.758 10.3148 37.6785 10.3378C37.652 10.3454 37.6284 10.3541 37.5901 10.3596C37.5548 10.3646 37.5017 10.3663 37.4575 10.368C36.2907 10.4054 35.1238 10.4438 33.954 10.4796C33.7801 10.4848 33.7094 10.505 33.624 10.5263C33.5946 10.5334 33.574 10.5432 33.5357 10.5482C33.4974 10.5526 33.4414 10.5527 33.3942 10.5538C32.4218 10.5849 31.4494 10.6165 30.477 10.6475C30.2884 10.6452 30.2472 10.6767 30.1559 10.6959C30.1235 10.7025 30.1 10.7112 30.0617 10.7156C30.0204 10.72 29.9674 10.7196 29.9173 10.7207C29.1394 10.7455 28.3615 10.7718 27.5835 10.7949C27.4038 10.8001 27.3685 10.8279 27.2713 10.847C27.2389 10.8531 27.2065 10.8624 27.1682 10.8641C26.682 10.8807 26.1958 10.8962 25.7096 10.9112C25.5475 10.9164 25.5475 10.9158 25.2618 10.9701C25.2294 10.9761 25.1911 10.9827 25.1498 10.9844C24.422 11.0085 23.6912 11.0315 22.9605 11.055C22.8662 11.0579 22.7984 11.0711 22.7542 11.0896C22.7071 11.1082 22.6394 11.1202 22.5451 11.1231C21.9616 11.1421 21.3782 11.1616 20.7948 11.1789C20.6327 11.1835 20.5266 11.1973 20.456 11.2218C20.403 11.2404 20.3381 11.2497 20.235 11.2532C19.6516 11.2716 19.0681 11.2916 18.4818 11.3079C18.3108 11.3125 18.2225 11.3311 18.1518 11.354C18.0958 11.3726 18.031 11.3792 17.922 11.3827C16.8524 11.4161 15.7798 11.4495 14.7131 11.4861C14.5334 11.4924 14.442 11.4736 14.3241 11.4602C14.1561 11.4415 13.9999 11.4212 13.9998 11.3788C13.9998 11.3723 13.9497 11.3648 13.9143 11.3594C13.6519 11.3192 13.6519 11.3192 13.6106 11.2759C13.587 11.2493 13.5604 11.2222 13.5397 11.1951C13.5014 11.1507 13.407 11.1394 13.1359 11.1481C13.0387 11.151 12.9415 11.1549 12.8442 11.1573C12.6998 11.1613 12.5908 11.1436 12.5642 11.1111C12.5494 11.0932 12.5317 11.0753 12.517 11.0574C12.6643 11.0528 12.6613 11.0523 12.9205 10.9862C13.0295 10.9583 13.0295 10.9583 12.8203 10.931C12.7407 10.9208 12.664 10.9095 12.5786 10.8999C12.5402 10.8956 12.4901 10.893 12.4489 10.8942C12.2043 10.9011 11.9627 10.9092 11.7211 10.9172C11.4618 10.9256 11.2005 10.9116 10.9371 10.8752C10.9047 10.8709 10.8546 10.8628 10.8605 10.8585C10.8929 10.8383 10.9724 10.8295 11.0726 10.8272C11.2199 10.8236 11.3643 10.818 11.5087 10.8134L11.8004 10.8041C11.8917 10.7834 11.986 10.7631 12.0714 10.7418C12.2069 10.709 12.2069 10.7079 12.0212 10.6854C11.9033 10.671 11.7766 10.6571 11.6557 10.6432C11.5114 10.6478 11.364 10.6529 11.2196 10.657C11.0369 10.6622 10.9633 10.652 10.916 10.6168C10.8747 10.586 10.9248 10.5593 11.0662 10.5525C11.2106 10.5457 11.3461 10.5412 11.4198 10.5133C11.4904 10.4866 11.6142 10.4761 11.7674 10.4736C11.8647 10.4718 11.9619 10.4679 12.0591 10.4644C12.1858 10.4599 12.2536 10.4321 12.227 10.4012C12.2122 10.3811 12.1827 10.3643 12.0678 10.3602C11.558 10.3421 11.5521 10.3427 11.2986 10.3062C11.275 10.303 11.2573 10.2933 11.2661 10.2884C11.2809 10.2802 11.3132 10.2682 11.3486 10.2665C11.6875 10.254 12.0263 10.2425 12.3652 10.2337C12.4772 10.2308 12.5597 10.2269 12.5979 10.2067C12.6509 10.179 12.6273 10.1535 12.5241 10.1347C12.4917 10.1288 12.4387 10.1213 12.4033 10.1219C12.0143 10.1323 11.6283 10.1455 11.2394 10.156C11.204 10.1571 11.1392 10.148 11.1244 10.141C11.0949 10.128 11.1391 10.1106 11.2422 10.1044C11.3778 10.096 11.5163 10.0952 11.6076 10.0679C11.7342 10.0292 11.8903 9.9936 12.0317 9.95643C12.0553 9.94988 12.0906 9.93733 12.0847 9.93626C12.011 9.92445 11.9256 9.91537 11.8489 9.90411C11.7192 9.88534 11.7192 9.85875 11.7486 9.83318C11.7721 9.81251 11.8605 9.80421 11.9696 9.80402C12.0167 9.80394 12.0756 9.80383 12.1139 9.79888C12.2141 9.78676 12.2465 9.7715 12.1964 9.76019C12.1669 9.75373 12.1138 9.7446 12.0785 9.74575C11.4479 9.76479 10.8144 9.78329 10.1867 9.80666C10.0011 9.81351 9.91561 9.79304 9.8036 9.77858C9.71812 9.76734 9.63855 9.76314 9.53248 9.77147C9.4323 9.77925 9.33505 9.77508 9.27314 9.75728C9.22301 9.74271 9.3114 9.73007 9.55006 9.71553C9.59426 9.71273 9.64435 9.71102 9.67676 9.70553C10.0185 9.6463 10.0185 9.64576 10.2542 9.63773C10.484 9.63027 10.484 9.62972 10.6048 9.59803C10.6608 9.58327 10.7226 9.56851 10.7756 9.55321C10.7963 9.5472 10.8316 9.53628 10.8198 9.53305C10.755 9.51634 10.6636 9.5127 10.5634 9.51668C10.3336 9.52632 10.0625 9.51921 9.94173 9.57099C9.89462 9.59061 9.82096 9.59617 9.71488 9.59962C8.64819 9.63301 7.58151 9.66857 6.51187 9.70088C6.33802 9.70607 6.25849 9.7263 6.19075 9.74867C6.13185 9.76723 6.06703 9.77278 5.95506 9.77624C5.84309 9.77969 5.75469 9.78148 5.68982 9.76368C5.6515 9.7529 5.68388 9.73764 5.77226 9.72228C5.89893 9.70035 5.87531 9.67325 5.83401 9.64781C5.80451 9.63104 5.71314 9.61926 5.6159 9.62052C5.47151 9.62295 5.33302 9.62916 5.21216 9.60767C5.14142 9.59531 5.053 9.58679 4.97341 9.57607C4.82014 9.55409 4.66686 9.53157 4.45177 9.54661C4.30442 9.54144 4.20125 9.52209 4.08335 9.5071C3.88587 9.48248 3.86818 9.47872 4.00958 9.45187C4.1716 9.42172 4.04482 9.38287 4.13317 9.3534C4.22741 9.32175 4.35702 9.29383 4.4719 9.26432C4.50135 9.25667 4.52786 9.24956 4.55731 9.24191C4.48952 9.23118 4.42761 9.21772 4.34803 9.21026C4.24488 9.20068 4.19181 9.18883 4.19765 9.15516C4.17701 9.15032 4.18587 9.16278 4.20945 9.166C4.23598 9.16921 4.30081 9.16638 4.33321 9.16252C4.41571 9.15206 4.45694 9.13842 4.43629 9.12706C4.42449 9.12111 4.36849 9.11361 4.33313 9.11367C4.2683 9.11379 4.21233 9.12583 4.1947 9.15517C3.8647 9.17801 3.52289 9.18948 3.18108 9.19878C3.14572 9.19993 3.10149 9.18915 3.06023 9.18379C2.92464 9.16558 2.92464 9.16613 2.52682 9.16141C2.48556 9.16094 2.42956 9.15344 2.40892 9.14588C2.3234 9.11292 2.32628 9.07655 2.28496 9.04134C2.36154 9.01841 2.43812 8.99602 2.51764 8.97362C2.67669 8.92828 2.88289 8.88829 3.00657 8.83867C2.98 8.81212 2.94459 8.78559 3.07421 8.76365C3.44251 8.73585 3.43957 8.73586 3.53971 8.70962C3.82542 8.63529 4.10818 8.56042 4.40568 8.48716C4.48521 8.46802 4.48519 8.4577 4.34373 8.44981C4.29952 8.44772 4.25237 8.44726 4.20522 8.44843C4.05789 8.4525 3.91057 8.46253 3.76617 8.46062C3.62178 8.45925 3.51565 8.43555 3.39775 8.42111C3.2769 8.40613 3.15606 8.3906 3.03521 8.37508C2.89671 8.37695 2.75824 8.3924 2.6197 8.36822C2.51358 8.34941 2.38095 8.33608 2.2601 8.32055C2.35138 8.27914 2.52224 8.24735 2.65478 8.21075C2.77554 8.17742 2.77848 8.17796 3.10259 8.15187C3.2558 8.13965 3.30873 8.07822 3.17904 8.06054C3.02282 8.03911 2.85776 8.01932 2.6986 7.99898C2.5601 8.00086 2.41868 8.01576 2.28603 7.99158C2.18286 7.9733 2.06497 7.96103 1.89407 7.96839C1.6053 7.98085 1.31063 7.98735 1.01891 7.99764C0.918729 8.00108 0.809693 7.9991 0.765458 7.98072C0.735967 7.96775 0.821392 7.94969 0.91863 7.94571C1.06596 7.94002 1.19855 7.93327 1.27218 7.906C1.34285 7.87873 1.4725 7.87036 1.62572 7.86628C1.66698 7.86513 1.71411 7.85853 1.73473 7.85198C1.84076 7.82031 1.95858 7.79295 2.18549 7.79364C2.27977 7.78261 2.32984 7.76895 2.30035 7.75598C2.28265 7.74895 2.22075 7.73984 2.18539 7.74098C1.94082 7.74685 1.69624 7.75271 1.45757 7.76291C1.3456 7.76745 1.26014 7.76869 1.18939 7.75253C1.13928 7.74177 1.16577 7.72707 1.26004 7.71116C1.34253 7.69744 1.36607 7.68166 1.36015 7.66321C1.34534 7.62036 1.25691 7.60803 0.974021 7.61125C0.770696 7.61379 0.720588 7.60682 0.676319 7.56999C0.664517 7.56132 0.635027 7.54944 0.655644 7.54343C0.782291 7.50629 0.86472 7.46055 1.10338 7.44275C1.19767 7.43607 1.29786 7.43589 1.35677 7.42167C1.41568 7.40746 1.46869 7.39108 1.53055 7.3774C1.60714 7.36098 1.66015 7.34568 1.62477 7.33543C1.5658 7.31708 1.4715 7.31562 1.36248 7.32233C1.2682 7.32793 1.16801 7.32865 1.07077 7.33208C0.896916 7.33836 0.755444 7.3245 0.734774 7.30066C0.678672 7.23779 0.619625 7.17548 0.569416 7.1126C0.563509 7.10502 0.578226 7.09522 0.601788 7.08866C0.684258 7.06572 0.772623 7.04385 0.858041 7.02144C0.958187 6.99575 1.11732 7.00035 1.25287 6.99522C1.4444 6.98783 1.4444 6.98837 1.70068 6.9358C1.80083 6.915 1.97471 6.92283 2.07781 6.90419C2.11022 6.89816 2.16029 6.8883 2.15144 6.88289C2.13964 6.87585 2.0807 6.87053 2.03649 6.86735C1.99523 6.86417 1.94513 6.86263 1.90093 6.86434C1.36464 6.88104 0.8313 6.89882 0.295009 6.91497C0.203663 6.91785 0.103451 6.90609 0.0710057 6.88932C0.0385628 6.87364 0.0473692 6.85462 0.0414436 6.83672C0.126861 6.81432 0.224069 6.79352 0.297696 6.7695C0.353652 6.75095 0.418467 6.74269 0.530444 6.7414C0.677781 6.73951 0.822163 6.73274 0.987175 6.72756C1.2935 6.64776 1.59393 6.56418 1.92383 6.48434C2.05638 6.45208 2.0239 6.41957 2.05036 6.38533C2.07683 6.3538 2.27427 6.35833 2.40686 6.34941C2.51293 6.34162 2.54826 6.32419 2.50699 6.31232C2.4834 6.3053 2.43034 6.29726 2.38909 6.29733C2.29184 6.2975 2.19461 6.30256 2.09737 6.30545C2.00013 6.30834 1.88815 6.30691 1.8086 6.31628C1.732 6.3251 1.68194 6.34365 1.63187 6.35948C1.57886 6.37694 1.50225 6.38305 1.39027 6.38434C1.24588 6.38568 1.1015 6.39082 0.957112 6.39488C0.797947 6.374 0.632889 6.35366 0.479616 6.33168C0.45014 6.32739 0.444224 6.31492 0.447156 6.30677C0.453012 6.28559 0.408787 6.27265 0.311524 6.26251C0.228998 6.25397 0.161199 6.24161 0.0845625 6.23089C0.143472 6.21613 0.208277 6.2019 0.255398 6.18607C0.358476 6.15278 0.488093 6.12866 0.712052 6.12935C0.800418 6.10802 0.871095 6.08184 0.985994 6.06698C1.095 6.05267 1.28067 6.06645 1.36313 6.03428C1.40435 6.01847 1.46621 6.00044 1.54576 5.99379C1.67245 5.98325 1.83748 5.98838 1.9111 5.95785C1.95527 5.9404 2.02007 5.92455 2.10552 5.92005C2.20276 5.91499 2.30295 5.91373 2.37365 5.90329C2.41195 5.89779 2.45319 5.88903 2.45317 5.88144C2.45317 5.87601 2.39422 5.86906 2.35296 5.86587C2.31464 5.86214 2.26454 5.85952 2.22034 5.86068C2.07301 5.8642 1.92862 5.87043 1.78129 5.87395C1.74004 5.87511 1.69288 5.8714 1.64867 5.86822C1.519 5.85977 1.52782 5.84889 1.63092 5.82917C1.73403 5.80999 1.80765 5.78543 1.89307 5.76302C1.98736 5.75905 2.10523 5.76047 2.17005 5.75004C2.27905 5.73302 2.35562 5.70846 2.44399 5.68713C2.54123 5.6837 2.64142 5.68244 2.73276 5.6763C2.77106 5.67406 2.78872 5.66209 2.82112 5.65498C2.88003 5.6413 2.93009 5.62167 3.00965 5.61501C3.13929 5.60501 3.29842 5.60853 3.37499 5.57854C3.41916 5.56109 3.4869 5.54251 3.56941 5.54128C3.79926 5.5387 3.89645 5.50867 4.01427 5.48023C4.10263 5.45891 4.29125 5.46943 4.38846 5.44808C4.45326 5.4344 4.50038 5.41749 4.56519 5.40434C4.5917 5.39887 4.64768 5.39605 4.69188 5.39435C4.93351 5.38577 5.17808 5.37936 5.4197 5.37025C5.45801 5.36855 5.49335 5.36035 5.52281 5.35378C5.58467 5.33956 5.62294 5.31995 5.69954 5.31058C5.77614 5.30122 5.88517 5.30102 5.97947 5.29814C6.28297 5.28946 6.3095 5.29158 6.44497 5.2452C6.55688 5.20755 6.83098 5.23365 6.92226 5.19224C6.97526 5.16826 7.07247 5.14855 7.24632 5.14552C7.4909 5.14128 7.73252 5.13054 7.97709 5.12305C8.19515 5.11614 8.1922 5.11615 8.42785 5.06525C8.5339 5.04226 8.69008 5.04524 8.82857 5.04065C8.97591 5.03604 9.11145 5.02928 9.18212 5.00202C9.2528 4.9753 9.38244 4.96638 9.53272 4.96231C9.67122 4.95826 9.8274 4.9607 9.93639 4.93879C10.2015 4.88621 10.1986 4.88567 10.3842 4.87991C10.6759 4.87071 10.9676 4.8615 11.2594 4.85175C11.4538 4.84543 11.6572 4.84398 11.8398 4.83171C11.9724 4.82279 12.0313 4.79229 12.1167 4.77097C12.3584 4.7624 12.6 4.75382 12.8416 4.74579C13.1805 4.73433 13.5223 4.72395 13.8641 4.71302C14.0114 4.69213 14.0319 4.6465 14.2795 4.64389C14.4268 4.64254 14.5712 4.63522 14.7185 4.63062C14.9631 4.62258 15.2047 4.61238 15.4493 4.60814C15.6349 4.6051 15.6673 4.57573 15.7645 4.5571C15.7969 4.55053 15.8264 4.54125 15.8647 4.53955C16.2477 4.52367 16.6426 4.51971 17.0168 4.49678C17.0551 4.49454 17.0904 4.48308 17.0993 4.47492C17.1052 4.47057 17.055 4.46252 17.0226 4.45878C16.9843 4.4545 16.9342 4.45025 16.8929 4.45141C15.676 4.48995 14.459 4.52904 13.2421 4.56758C13.0711 4.57331 13.0711 4.57277 12.6558 4.63322C12.6204 4.63817 12.5792 4.64367 12.535 4.64538C12.3405 4.65224 12.1431 4.65639 11.9515 4.66488C11.7954 4.67167 11.6657 4.66539 11.5537 4.64605C11.4741 4.63208 11.3916 4.62788 11.2914 4.62915C11.1794 4.63098 11.1057 4.63708 11.0409 4.65185C10.9555 4.67209 10.9114 4.69822 10.7316 4.70397C9.9036 4.72879 9.0756 4.75632 8.25054 4.78277C8.1356 4.77537 8.07959 4.76408 8.10903 4.75045C8.1267 4.74228 8.16204 4.73136 8.1974 4.73021C8.53626 4.71821 8.87807 4.70783 9.21694 4.69636C9.26408 4.69465 9.32892 4.69562 9.35543 4.69015C9.48504 4.66549 9.53212 4.62578 9.7767 4.62263C9.91814 4.62075 10.0625 4.61235 10.1981 4.60451C10.2364 4.60227 10.2717 4.5908 10.2805 4.58265C10.2864 4.57775 10.2363 4.57024 10.2009 4.56651C10.0713 4.551 9.921 4.57026 9.79132 4.55964C9.74711 4.55592 9.68522 4.5506 9.67932 4.5441C9.67341 4.53814 9.72349 4.52828 9.75884 4.52224C9.79125 4.51676 9.83544 4.51179 9.87964 4.51009C10.2686 4.49691 10.6575 4.48318 11.0465 4.47272C11.2056 4.46863 11.3176 4.45486 11.3883 4.42977C11.4413 4.41122 11.5061 4.40133 11.6063 4.39844C12.2869 4.37714 12.9676 4.35367 13.6512 4.33399C13.8222 4.32934 13.9105 4.31127 13.9812 4.28781C14.0372 4.26925 14.102 4.26262 14.211 4.25917C15.1863 4.2292 16.1558 4.19599 17.1311 4.1671C17.3109 4.16189 17.3639 4.13846 17.4552 4.11821C17.4876 4.11164 17.5082 4.10238 17.5495 4.09796C17.5907 4.09355 17.6437 4.09399 17.6938 4.09282C18.4718 4.06809 19.2497 4.04173 20.0305 4.01862C20.2132 4.01341 20.2485 3.9862 20.3428 3.96704C20.3752 3.96101 20.4047 3.95119 20.443 3.94949C21.0264 3.92999 21.6098 3.91158 22.1933 3.89262C22.5822 3.87999 22.9712 3.86735 23.3601 3.85526C23.4878 3.85141 23.6381 3.83196 23.8109 3.79691C23.8404 3.79089 23.8816 3.78376 23.9199 3.78206C25.0396 3.74532 26.1564 3.71022 27.2761 3.67402C27.3704 3.67113 27.4382 3.65853 27.4853 3.63999C27.5324 3.62145 27.6002 3.60885 27.6915 3.60597C28.5667 3.57726 29.4418 3.5491 30.3199 3.52202C30.479 3.51739 30.591 3.50417 30.6617 3.47961C30.7147 3.46106 30.7795 3.45118 30.8797 3.44829C31.7548 3.42067 32.63 3.39142 33.5081 3.36488C33.676 3.35969 33.7585 3.34109 33.841 3.31923C33.8704 3.31158 33.894 3.29905 33.9294 3.29791C34.3655 3.28193 34.7986 3.26541 35.2377 3.25431C35.4204 3.24965 35.4822 3.22674 35.5558 3.20489C35.6147 3.18742 35.6825 3.18133 35.7945 3.17896C36.0391 3.17363 36.2807 3.16397 36.5193 3.15432C36.5547 3.15263 36.5989 3.14061 36.6018 3.133C36.6077 3.11888 36.5399 3.10923 36.4279 3.10455C35.261 3.14191 34.0912 3.17929 32.9243 3.21666C32.7967 3.22086 32.6464 3.24031 32.4736 3.275C32.4441 3.28102 32.4029 3.28815 32.3646 3.28985C31.2449 3.32605 30.1281 3.3617 29.0084 3.39789C28.9141 3.40078 28.8463 3.41338 28.7992 3.43192C28.7521 3.45046 28.6843 3.46307 28.593 3.46594C27.5233 3.50042 26.4537 3.53545 25.3811 3.5683C25.222 3.57293 25.1101 3.58561 25.0394 3.61071C24.9864 3.62926 24.9216 3.63915 24.8214 3.64204C23.7989 3.67426 22.7793 3.70811 21.7539 3.73926C21.6508 3.74215 21.5741 3.72655 21.58 3.71243C21.58 3.70483 21.6271 3.69226 21.6625 3.69111C22.1958 3.67224 22.7262 3.65284 23.2625 3.63831C23.4422 3.63365 23.4952 3.60967 23.5866 3.58942C23.616 3.58232 23.6396 3.57305 23.6779 3.56918C23.7191 3.56476 23.7722 3.56521 23.8223 3.56403C25.0864 3.52324 26.3505 3.48189 27.6175 3.44326C27.8002 3.43751 27.8356 3.41085 27.9298 3.39168C27.9622 3.38511 27.9917 3.37529 28.03 3.37413C28.4189 3.36041 28.8079 3.34832 29.1968 3.33622C29.8775 3.31438 30.5582 3.29253 31.2418 3.27069C31.3734 3.26647 31.5237 3.2472 31.6926 3.21289C31.722 3.20686 31.7633 3.19919 31.8016 3.19804C33.602 3.14 35.4024 3.08195 37.2028 3.02446C37.2971 3.02157 37.3648 3.00897 37.4119 2.99043C37.4591 2.97243 37.5239 2.95929 37.6182 2.95586C40.0521 2.87769 42.4831 2.79952 44.917 2.72244C45.0761 2.71727 45.1881 2.70567 45.2587 2.68003C45.3088 2.66149 45.3766 2.6516 45.4768 2.64816C48.1523 2.5625 50.8279 2.47684 53.5064 2.39063C55.3068 2.33313 57.1072 2.27455 58.9076 2.21814C59.0726 2.21296 59.1609 2.19597 59.2434 2.17357C59.2699 2.16592 59.2964 2.15339 59.3318 2.15224C59.7178 2.13798 60.1038 2.12481 60.4898 2.11163C60.6107 2.12607 60.7315 2.13997 60.8523 2.15441C60.9437 2.13362 61.032 2.11229 61.1233 2.0915C61.7068 2.07472 62.2814 2.04926 62.8707 2.04061C62.909 2.04054 62.9503 2.05024 62.9915 2.05559C63.2657 2.0893 63.4218 2.08631 63.5956 2.0404C63.6575 2.02401 63.7105 2.00926 63.8048 2.00637C64.0965 1.99608 64.3912 1.98904 64.6799 1.97713C64.8361 1.97088 64.9658 1.97662 65.0778 1.99541C65.1574 2.00938 65.2399 2.01521 65.3371 2.01178C65.8734 1.99453 66.4068 1.97784 66.9431 1.95951C66.9814 1.95836 67.0167 1.94907 67.0462 1.9425C67.108 1.92828 67.161 1.91298 67.2199 1.89822C67.2995 1.90731 67.3879 1.91421 67.4557 1.92603C67.5383 1.93999 67.6149 1.93985 67.7269 1.93585C69.8661 1.86635 72.0083 1.79847 74.1476 1.72843C74.3303 1.72267 74.4099 1.74533 74.5337 1.75705C74.5749 1.76131 74.6162 1.76667 74.6604 1.76768C74.7076 1.76868 74.7577 1.76533 74.8048 1.76362C76.4107 1.71189 78.0166 1.66071 79.6226 1.60899C79.764 1.6044 79.9398 1.61313 80.1501 1.63519C80.1884 1.63946 80.2385 1.64426 80.2798 1.64256C81.0105 1.62008 81.7413 1.59598 82.4691 1.57296C82.5634 1.57008 82.643 1.57862 82.7285 1.59095C82.8965 1.61508 82.9083 1.61506 83.032 1.57901C83.0909 1.56208 83.1527 1.55166 83.25 1.5466C83.3561 1.54098 83.4415 1.54246 83.524 1.55208C83.6419 1.56544 83.7274 1.58808 83.9072 1.58179C84.6851 1.55489 85.4659 1.53232 86.2409 1.50488C86.4177 1.4986 86.512 1.51688 86.6299 1.53024C86.6712 1.53505 86.7095 1.54258 86.7537 1.54413C86.7979 1.54568 86.851 1.54179 86.8981 1.54007C87.8705 1.50903 88.8458 1.47851 89.8153 1.4453C89.998 1.439 90.0776 1.4622 90.2014 1.47392C90.2426 1.47819 90.2898 1.4857 90.3281 1.48455C90.9115 1.46668 91.4979 1.44772 92.0814 1.42876C92.2906 1.42187 92.2906 1.42242 92.6089 1.45496C92.6472 1.45923 92.6973 1.46348 92.7386 1.46233C93.4192 1.44102 94.1029 1.41918 94.7835 1.39733C94.923 1.39274 95.1941 1.39949 95.5969 1.41759C95.6411 1.41968 95.6883 1.42286 95.7325 1.42169C96.5104 1.39696 97.2912 1.37277 98.0662 1.34641C98.2224 1.34125 98.352 1.3459 98.464 1.3647C98.5436 1.37867 98.6262 1.38449 98.7234 1.38106C99.5985 1.3529 100.477 1.32582 101.349 1.29603C101.517 1.2903 101.626 1.30205 101.744 1.31758C101.782 1.32294 101.82 1.33047 101.865 1.33256C101.909 1.33466 101.959 1.3324 102.006 1.33068C102.881 1.30252 103.759 1.27598 104.632 1.24565C104.808 1.23937 104.903 1.25765 105.021 1.27101C105.062 1.27582 105.106 1.28552 105.141 1.28491C105.483 1.27507 105.825 1.26632 106.164 1.25214C106.347 1.24422 106.426 1.26904 106.55 1.28076C106.591 1.28449 106.638 1.29255 106.677 1.29139C107.407 1.26892 108.138 1.24536 108.866 1.22126C108.969 1.21782 109.046 1.22256 109.128 1.23653C109.237 1.25533 109.364 1.2627 109.523 1.25645C109.862 1.24336 110.204 1.23406 110.543 1.22314C110.676 1.21892 110.947 1.22586 111.356 1.24394C111.4 1.24604 111.447 1.24921 111.492 1.24804C112.075 1.22963 112.662 1.21176 113.242 1.19172C113.398 1.18601 113.528 1.19121 113.64 1.21001C113.719 1.22398 113.802 1.2298 113.899 1.22637C114.435 1.20913 114.969 1.19189 115.505 1.17465C115.7 1.16833 115.894 1.15767 116.089 1.15732C116.23 1.15707 116.333 1.18348 116.46 1.19628C116.495 1.20002 116.554 1.19611 116.601 1.1944C117.282 1.17255 117.966 1.15233 118.643 1.12778C118.82 1.1215 118.915 1.13978 119.032 1.15314C119.074 1.15795 119.118 1.16764 119.153 1.1665C119.398 1.16009 119.639 1.15151 119.884 1.14402C120.176 1.13481 120.47 1.12777 120.759 1.11532C120.995 1.10512 121.083 1.15219 121.272 1.15348C121.416 1.15485 121.564 1.14536 121.708 1.14076C122 1.13155 122.292 1.12126 122.583 1.11314C122.686 1.11024 122.766 1.10141 122.798 1.08182C122.804 1.07801 122.754 1.06995 122.722 1.06513C122.46 1.02868 122.198 1.01468 121.935 1.02311C121.69 1.03115 121.449 1.03918 121.204 1.04613C121.163 1.04729 121.116 1.04303 121.074 1.03985C120.956 1.03083 120.968 1.01995 121.068 1.00023C121.169 0.980513 121.245 0.956493 121.331 0.934086C121.451 0.947982 121.569 0.961884 121.69 0.975781C121.787 0.972893 121.885 0.969462 121.982 0.966574C122.468 0.951593 122.954 0.936068 123.44 0.922171C123.476 0.921023 123.52 0.931799 123.561 0.937153C123.679 0.952684 123.785 0.966064 123.956 0.959788C124.392 0.943267 124.831 0.931083 125.267 0.916733C125.395 0.912525 125.571 0.921438 125.795 0.943473C125.833 0.947204 125.883 0.951456 125.925 0.950297C126.364 0.937028 126.8 0.922678 127.239 0.908866C127.333 0.905984 127.425 0.912876 127.492 0.928496C127.519 0.934962 127.513 0.945829 127.625 1.03465C127.973 1.10622 128.212 1.09819 128.453 1.09124C128.556 1.08835 128.648 1.08547 128.716 1.07449C128.751 1.06846 128.795 1.05969 128.795 1.05264C128.795 1.04721 128.73 1.03864 128.689 1.03763C128.397 1.0273 128.12 1.05059 127.834 1.05598C127.702 1.05839 127.587 1.0396 127.563 1.0087C127.557 1.00003 127.548 0.990817 127.54 0.982148L127.516 0.955594C127.401 0.953085 127.333 0.962977 127.283 0.981521C127.242 0.996793 127.183 1.01427 127.104 1.02255C127.024 1.03138 126.915 1.02995 126.818 1.03283C126.723 1.03572 126.62 1.04296 126.532 1.03932C126.443 1.03513 126.373 1.01952 126.29 1.00989C126.252 1.00508 126.205 0.998105 126.166 0.999259C125.828 1.00909 125.492 1.01892 125.156 1.03146C124.979 1.03829 124.893 1.01565 124.778 1.00174C124.69 0.991043 124.602 0.993915 124.587 1.01891C124.549 1.07869 124.684 1.10341 124.985 1.09148C125.232 1.08126 125.456 1.07923 125.651 1.1158C125.677 1.12063 125.739 1.12269 125.778 1.12154C126.019 1.11459 126.258 1.10603 126.5 1.09908C126.544 1.09792 126.591 1.1 126.632 1.1021C127.233 1.13034 127.233 1.13088 127.437 1.124C127.534 1.12057 127.628 1.11769 127.619 1.0352C127.805 0.946393 128.099 0.939895 128.385 0.926357C128.568 0.917888 128.65 0.941624 128.771 0.953892C128.813 0.958161 128.857 0.966766 128.895 0.965612C129.529 0.946567 130.159 0.926442 130.79 0.905231C130.896 0.901784 130.972 0.904904 131.055 0.918869C131.161 0.936592 131.279 0.94778 131.447 0.940966C131.783 0.927338 132.128 0.91858 132.467 0.907118C132.582 0.903292 132.757 0.912388 132.991 0.934405C133.029 0.938136 133.08 0.942389 133.121 0.94123C133.463 0.931391 133.801 0.919387 134.14 0.90901C134.235 0.906128 134.32 0.913574 134.394 0.928098C134.467 0.942621 134.556 0.950062 134.647 0.947185C134.989 0.936804 135.328 0.925342 135.667 0.914966C135.708 0.913806 135.758 0.917516 135.796 0.921247C136.036 0.943254 136.211 0.95235 136.321 0.948535C136.563 0.939961 136.81 0.935719 137.049 0.924436C137.282 0.913164 137.402 0.94443 137.562 0.961515C137.998 0.948251 138.437 0.937152 138.87 0.92118C139.047 0.91435 139.141 0.932094 139.262 0.94599C139.303 0.950802 139.344 0.961041 139.383 0.96043C139.53 0.957995 139.674 0.951766 139.819 0.947165C139.963 0.942565 140.111 0.937959 140.255 0.933359C140.42 0.948805 140.529 0.98552 140.765 0.972614C140.906 0.964762 141.057 0.962865 141.201 0.958264C141.345 0.953664 141.493 0.949058 141.637 0.944457C141.734 0.941569 141.834 0.939762 141.929 0.934708C142.103 0.926255 142.188 0.952699 142.312 0.96442C142.353 0.968145 142.4 0.974575 142.439 0.97342C142.73 0.9653 143.025 0.958259 143.311 0.945264C143.532 0.935099 143.682 0.951114 143.838 0.973632C143.871 0.978459 143.927 0.981073 143.968 0.979913C144.31 0.970075 144.649 0.95807 144.988 0.947694C145.079 0.944817 145.167 0.953343 145.241 0.967324C145.318 0.981843 145.403 0.988746 145.497 0.985863C145.836 0.975487 146.178 0.96402 146.517 0.953644C146.558 0.952485 146.608 0.956737 146.647 0.961011C146.977 0.994074 146.977 0.994074 147.171 0.987756C147.218 0.986043 147.268 0.984868 147.316 0.983155C147.557 0.975124 147.808 0.971962 148.043 0.958514C148.315 0.943374 148.512 0.961476 148.704 0.992072C148.945 0.985127 149.193 0.980884 149.428 0.969607C149.605 0.961149 149.7 0.981607 149.817 0.994966C149.859 0.999777 149.903 1.00947 149.938 1.00832C150.28 0.998481 150.622 0.989728 150.958 0.975557C151.141 0.967631 151.22 0.991915 151.344 1.00418C151.385 1.00845 151.429 1.01597 151.468 1.01481C151.662 1.01012 151.857 1.00326 152.051 0.996942C152.278 0.98948 152.278 0.990023 152.579 1.0226C152.72 1.03808 152.862 1.02535 153 1.0213C153.147 1.01669 153.286 1.01319 153.404 1.03523C153.478 1.04921 153.566 1.05774 153.657 1.05541C153.852 1.05017 154.049 1.04494 154.241 1.03645C154.394 1.02966 154.527 1.03377 154.639 1.05365C154.718 1.06762 154.801 1.07453 154.898 1.0711C155.334 1.05729 155.773 1.04294 156.209 1.02967C156.247 1.02852 156.301 1.03331 156.336 1.03813C156.418 1.04776 156.498 1.05847 156.578 1.06918C156.769 1.06395 156.967 1.06143 157.155 1.05349C157.356 1.04554 157.538 1.0425 157.694 1.07207C157.727 1.07853 157.777 1.08766 157.812 1.08706C157.96 1.08462 158.104 1.07894 158.248 1.07434C158.393 1.06974 158.54 1.06513 158.685 1.06053C158.853 1.0738 158.959 1.11269 159.194 1.09979C159.336 1.09193 159.486 1.09004 159.631 1.08544C159.775 1.08084 159.922 1.07569 160.067 1.07163C160.114 1.07046 160.167 1.06765 160.208 1.06975C160.252 1.07184 160.291 1.07937 160.329 1.08473C160.447 1.10026 160.556 1.11581 160.724 1.10628C160.865 1.09843 161.016 1.09653 161.16 1.09139C161.292 1.08717 161.466 1.09627 161.685 1.11867C161.817 1.13255 161.967 1.11382 162.094 1.12554C162.183 1.13352 162.253 1.14697 162.336 1.15605C162.371 1.15978 162.427 1.16131 162.468 1.16015C162.663 1.15492 162.86 1.14968 163.052 1.1412C163.208 1.1344 163.338 1.14069 163.447 1.16003C163.526 1.174 163.606 1.17983 163.706 1.17639C164.192 1.16033 164.679 1.14643 165.162 1.12874C165.327 1.12247 165.459 1.13146 165.551 1.15084C165.707 1.18421 165.928 1.1442 166.09 1.17105C166.19 1.18769 166.291 1.20705 166.473 1.19859C166.809 1.18387 167.151 1.17566 167.49 1.16529C167.611 1.17973 167.732 1.19416 167.855 1.2086C168.05 1.20228 168.244 1.19596 168.439 1.19019C168.583 1.18559 168.73 1.18044 168.875 1.17638C168.922 1.17521 168.972 1.17295 169.016 1.17558C169.061 1.17822 169.096 1.18521 169.137 1.19057C169.341 1.2168 169.341 1.21734 169.676 1.20589C169.821 1.20074 169.959 1.19724 170.08 1.21873C170.192 1.23862 170.325 1.24218 170.478 1.23593C170.767 1.22456 171.059 1.2159 171.353 1.20777C171.445 1.2049 171.53 1.21397 171.607 1.22795C171.722 1.24999 171.863 1.24757 172.007 1.24134C172.199 1.2334 172.388 1.22546 172.55 1.25557C172.582 1.26203 172.632 1.27116 172.668 1.27056C172.909 1.26578 173.154 1.26209 173.389 1.25135C173.625 1.24062 173.74 1.27407 173.902 1.29006C174.144 1.28257 174.389 1.27508 174.63 1.26759C174.677 1.26588 174.733 1.26089 174.775 1.26353C174.948 1.27462 175.049 1.31515 175.287 1.30224C175.426 1.29494 175.576 1.2925 175.721 1.29061C175.759 1.29054 175.809 1.29914 175.835 1.30615C175.85 1.30992 175.835 1.32026 175.818 1.32572C175.765 1.34101 175.7 1.35524 175.653 1.37106C175.647 1.37325 175.703 1.38292 175.735 1.3872C175.815 1.39683 175.906 1.39504 176.012 1.39051C176.104 1.38654 176.198 1.39397 176.263 1.41014C176.289 1.41661 176.281 1.42748 176.225 1.4634C176.225 1.49 176.287 1.47795 176.307 1.46054C176.34 1.43551 176.278 1.42748 176.16 1.44126C176.077 1.45118 176.036 1.46537 176.057 1.47673C176.069 1.48268 176.125 1.49018 176.225 1.4634C176.484 1.43037 176.678 1.42405 176.873 1.41773C176.923 1.41602 176.982 1.41048 177.017 1.41368C177.144 1.42648 177.262 1.44201 177.386 1.45644C177.527 1.45293 177.66 1.44455 177.798 1.46547C177.993 1.49498 178.002 1.49225 178.19 1.48594C178.288 1.48251 178.385 1.47962 178.482 1.47674C178.579 1.47385 178.656 1.48185 178.741 1.49418C178.915 1.51939 178.93 1.51936 179.045 1.48441C179.113 1.46312 179.16 1.45598 179.245 1.4656C179.528 1.49821 179.531 1.50037 179.773 1.49017C179.973 1.48167 180.162 1.47916 180.309 1.50984C180.409 1.53137 180.442 1.52643 180.524 1.50348C180.736 1.44285 180.834 1.44376 181.231 1.48648C181.417 1.50677 181.609 1.48417 181.797 1.48112C181.956 1.47867 182.068 1.49149 182.08 1.52567C182.089 1.54682 182.116 1.56197 182.222 1.56884C182.263 1.57148 182.313 1.57519 182.354 1.57403C182.599 1.56708 182.84 1.55905 183.085 1.55101C183.209 1.54699 183.277 1.52136 183.253 1.48775C183.226 1.45197 183.273 1.43886 183.45 1.42823C183.556 1.42207 183.642 1.423 183.727 1.43262C183.822 1.44331 183.795 1.45312 183.713 1.47281C183.515 1.52093 183.539 1.5502 183.792 1.58286C183.881 1.5941 183.952 1.60428 183.972 1.62107C183.984 1.62974 183.972 1.64116 183.999 1.64762C184.143 1.68373 184.344 1.70671 184.568 1.72368C184.783 1.70864 184.93 1.7328 185.095 1.75205C185.225 1.76702 185.378 1.75372 185.517 1.74804C185.673 1.74179 185.802 1.7459 185.914 1.76578C185.994 1.77975 186.076 1.78612 186.174 1.78323C186.368 1.77691 186.566 1.77276 186.757 1.76373C186.922 1.75584 187.046 1.76647 187.149 1.78474C187.279 1.80785 187.423 1.79185 187.559 1.79487C187.741 1.79834 187.833 1.84649 188.072 1.83303C188.213 1.82518 188.36 1.8222 188.508 1.81977C188.546 1.81916 188.593 1.8283 188.626 1.83476C188.782 1.86433 188.965 1.86237 189.165 1.85333C189.303 1.84711 189.439 1.84144 189.574 1.86183C189.799 1.89617 190.046 1.92612 190.282 1.95772C190.314 1.98263 190.291 2.01199 190.459 2.02634C190.547 2.03378 190.63 2.04503 190.698 2.0574C190.78 2.0719 190.857 2.07557 190.963 2.07158C191.154 2.06364 191.355 2.06165 191.543 2.05154C191.717 2.04255 191.826 2.06026 191.932 2.0769C192.018 2.09032 192.097 2.09669 192.201 2.08673C192.307 2.07732 192.383 2.08315 192.469 2.09765C192.59 2.11752 192.598 2.11533 192.999 2.12059C193.04 2.12106 193.091 2.12911 193.114 2.13612C193.126 2.1399 193.099 2.1508 193.079 2.15627C193.052 2.16283 193.011 2.1705 192.973 2.1722C192.537 2.18709 192.098 2.20036 191.661 2.21525C191.617 2.21696 191.57 2.22084 191.538 2.22633C191.502 2.23236 191.458 2.24059 191.458 2.24818C191.458 2.25361 191.517 2.26002 191.558 2.26375C191.688 2.276 191.841 2.25673 191.968 2.27061C192.054 2.27969 192.124 2.29259 192.21 2.30112C192.245 2.30486 192.301 2.30421 192.345 2.30305C192.493 2.29899 192.637 2.2933 192.784 2.28978C192.826 2.28916 192.873 2.29451 192.911 2.29878C193.194 2.33084 193.194 2.33084 193.439 2.32335C193.536 2.32046 193.639 2.31213 193.73 2.31523C193.819 2.31833 193.895 2.33285 193.975 2.34193C194.14 2.36118 194.296 2.37989 194.308 2.42221C194.314 2.43848 194.411 2.45242 194.509 2.45333C194.603 2.45425 194.703 2.4481 194.8 2.44467C194.953 2.44006 195.129 2.44861 195.328 2.47032C195.41 2.4794 195.499 2.48033 195.605 2.47471C195.646 2.47247 195.696 2.47455 195.74 2.47719C195.885 2.48507 195.885 2.49538 195.79 2.51509C195.658 2.5441 195.67 2.54679 196.041 2.57055C196.183 2.57953 196.292 2.5967 196.409 2.61169C196.601 2.63577 196.598 2.63578 196.471 2.66803C196.442 2.67514 196.416 2.68278 196.386 2.69044C196.301 2.71176 196.233 2.73468 196.056 2.73716C195.862 2.73968 195.667 2.74871 195.473 2.75503C195.284 2.76134 195.234 2.77446 195.252 2.81134C195.272 2.85581 195.311 2.86062 195.65 2.85948C195.747 2.8593 195.832 2.86349 195.906 2.87801C195.871 2.89545 195.806 2.90913 195.712 2.91256C195.47 2.92113 195.225 2.92863 194.984 2.93611C194.789 2.94243 194.595 2.94875 194.4 2.95507C194.28 2.95909 194.203 2.98745 194.235 3.01887C194.253 3.03675 194.268 3.05464 194.283 3.07252C194.315 3.10829 194.377 3.11741 194.575 3.11543C194.625 3.11534 194.672 3.11037 194.719 3.11137C194.91 3.11482 195.002 3.15971 195.232 3.15007C195.423 3.14213 195.624 3.14015 195.812 3.13004C195.986 3.12104 196.083 3.14041 196.204 3.15485C196.245 3.15966 196.29 3.1699 196.325 3.16929C196.57 3.16288 196.814 3.15647 197.053 3.14573C197.165 3.14119 197.233 3.14433 197.321 3.15719C197.533 3.1883 197.539 3.18666 197.854 3.17632C198.084 3.16831 198.087 3.16939 198.382 3.20198C198.464 3.21106 198.553 3.2109 198.659 3.20637C198.797 3.20069 198.942 3.19175 199.086 3.19963C199.13 3.20173 199.186 3.20814 199.201 3.21517C199.21 3.22004 199.169 3.23205 199.133 3.23592C198.874 3.26461 198.571 3.26026 198.288 3.27217C198.199 3.27558 198.111 3.26543 198.037 3.25145C197.961 3.23693 197.878 3.2311 197.778 3.234C197.583 3.24032 197.386 3.24447 197.194 3.2535C197.029 3.26139 196.915 3.24911 196.8 3.23249C196.761 3.22713 196.717 3.2169 196.679 3.21751C196.243 3.22914 195.804 3.24078 195.37 3.25676C195.197 3.26358 195.096 3.24639 194.978 3.23195C194.937 3.22714 194.896 3.2169 194.858 3.21751C194.71 3.21994 194.566 3.22617 194.419 3.23078C193.882 3.24802 193.349 3.26526 192.813 3.28141C192.777 3.28256 192.733 3.27124 192.692 3.26643C192.612 3.2568 192.53 3.24772 192.447 3.23864C192.3 3.24325 192.155 3.24894 192.008 3.25246C191.902 3.25482 191.808 3.26258 191.793 3.28324C191.784 3.29682 191.881 3.30913 191.985 3.30786C192.085 3.3066 192.185 3.29991 192.268 3.30681C192.677 3.34082 192.677 3.34136 192.934 3.33385C193.157 3.32694 193.134 3.32155 193.331 3.35105C193.417 3.36392 193.494 3.37139 193.591 3.36796C193.832 3.35992 194.077 3.35189 194.322 3.34494C194.36 3.34378 194.41 3.34912 194.448 3.3534C194.737 3.38545 194.737 3.38653 194.976 3.37796C195.288 3.36763 195.3 3.3649 195.509 3.39764C195.654 3.42017 195.786 3.4042 195.925 3.40286C196.084 3.42375 196.258 3.44243 196.402 3.46606C196.573 3.49398 196.753 3.48877 196.947 3.48028C197.092 3.47405 197.233 3.47163 197.351 3.49367C197.463 3.5141 197.599 3.51603 197.752 3.51033C197.89 3.50519 198.032 3.49463 198.176 3.50631C198.215 3.5095 198.273 3.51754 198.271 3.52243C198.268 3.53003 198.229 3.54095 198.191 3.54428C197.92 3.56702 197.622 3.56701 197.337 3.57783C197.298 3.57953 197.248 3.57365 197.21 3.56937C197.127 3.55975 197.048 3.5485 196.968 3.53832C196.824 3.54184 196.676 3.54319 196.535 3.54995C196.426 3.55504 196.343 3.55464 196.264 3.54176C196.19 3.52995 196.111 3.51543 196.022 3.51179C195.934 3.50815 195.831 3.51648 195.733 3.51991C195.636 3.52334 195.524 3.52191 195.448 3.53073C195.371 3.53955 195.324 3.55863 195.274 3.57392C195.218 3.59085 195.141 3.59641 195.029 3.59824C194.926 3.60005 194.844 3.59857 194.767 3.58297C194.734 3.57651 194.69 3.57171 194.646 3.56745C194.605 3.56372 194.558 3.55783 194.519 3.55899C194.08 3.57226 193.644 3.58661 193.205 3.60042C193.06 3.60502 192.837 3.59692 192.536 3.5761C192.495 3.57346 192.445 3.56975 192.404 3.57091C192.159 3.57786 191.917 3.58589 191.673 3.59393C191.425 3.60197 191.428 3.60088 191.007 3.56744C190.93 3.56106 190.818 3.56995 190.727 3.56902C190.535 3.56665 190.441 3.52123 190.214 3.53032C190.022 3.53826 189.822 3.54025 189.631 3.55036C189.457 3.55935 189.356 3.54054 189.239 3.52609C189.197 3.52128 189.153 3.5105 189.118 3.51165C188.679 3.52438 188.243 3.53873 187.659 3.5414C187.515 3.54166 187.58 3.55294 187.674 3.55657C187.809 3.5623 187.854 3.55082 187.78 3.52924C187.727 3.51414 187.65 3.50668 187.588 3.51059C187.556 3.51282 187.515 3.5232 187.659 3.5414C187.812 3.56175 187.804 3.57317 187.83 3.57963C187.895 3.59526 187.986 3.60161 188.081 3.59927C188.228 3.5952 188.372 3.58952 188.52 3.586C188.561 3.58484 188.611 3.58855 188.649 3.59282C188.974 3.6259 188.977 3.62806 189.321 3.61442C189.43 3.61042 189.51 3.61028 189.595 3.62044C189.713 3.63434 189.799 3.65807 189.978 3.65015C190.217 3.63941 190.462 3.63301 190.706 3.6266C190.745 3.62544 190.786 3.63514 190.83 3.6394C190.951 3.65221 191.039 3.67648 191.219 3.66585C191.358 3.65746 191.508 3.65502 191.655 3.65313C191.694 3.65306 191.752 3.66109 191.77 3.66812C191.806 3.68054 191.761 3.69527 191.661 3.70577C191.62 3.71018 191.564 3.7092 191.517 3.71091C191.322 3.71723 191.128 3.72409 190.933 3.72932C190.83 3.73222 190.733 3.74054 190.721 3.76064C190.712 3.77423 190.819 3.78598 190.919 3.78471C191.066 3.78282 191.213 3.77822 191.355 3.77091C191.605 3.75852 191.823 3.76138 192.027 3.79522C192.171 3.81884 192.162 3.81017 192.316 3.88046C192.354 3.89831 192.469 3.89973 192.569 3.89846C192.811 3.89532 192.923 3.90326 192.902 3.92012C192.876 3.9408 192.79 3.94746 192.681 3.95037C192.487 3.95506 192.292 3.96247 192.098 3.96878C192.051 3.9705 191.998 3.97385 191.953 3.97284C191.909 3.97184 191.868 3.9654 191.83 3.96058C191.747 3.95041 191.676 3.9348 191.588 3.93116C191.5 3.92752 191.396 3.93584 191.299 3.93927C191.202 3.94216 191.099 3.95049 191.01 3.94685C190.922 3.9432 190.848 3.92705 190.769 3.91742C190.73 3.91261 190.683 3.90509 190.645 3.9057C190.45 3.91039 190.256 3.9178 190.061 3.92357C189.902 3.92856 189.726 3.92001 189.534 3.89792C189.451 3.8883 189.366 3.88899 189.26 3.89352C189.024 3.90263 189.021 3.90101 188.591 3.8703C188.55 3.86711 188.5 3.8634 188.458 3.8651C188.019 3.87837 187.583 3.89272 187.147 3.90653C186.898 3.91458 186.704 3.93681 186.567 3.97325C186.413 4.01369 186.411 4.01369 186.561 4.03188C186.682 4.04686 186.791 4.06892 186.923 4.07682C187.047 4.0842 187.2 4.0595 187.333 4.08423C187.401 4.0966 187.489 4.11001 187.575 4.11148C187.71 4.11396 187.855 4.09796 187.984 4.12161C188.049 4.13343 188.146 4.14574 188.229 4.14614C188.373 4.14697 188.521 4.13802 188.665 4.13396C188.709 4.1328 188.759 4.13271 188.801 4.13535C188.845 4.13852 188.883 4.14497 188.921 4.15033C189.039 4.16857 189.166 4.17703 189.319 4.16753C189.57 4.15188 189.794 4.15908 189.988 4.19347C190.015 4.19831 190.08 4.19874 190.121 4.19649C190.227 4.19087 190.318 4.19017 190.395 4.20034C190.427 4.20463 190.475 4.21214 190.469 4.21704C190.46 4.2252 190.424 4.23612 190.386 4.2389C190.109 4.25785 189.812 4.26055 189.526 4.27083C189.487 4.27199 189.44 4.26502 189.402 4.2602C189.319 4.25003 189.249 4.23442 189.16 4.23078C189.072 4.22714 188.969 4.23438 188.872 4.23726C188.774 4.24015 188.671 4.24848 188.583 4.24538C188.494 4.24174 188.412 4.22832 188.341 4.2165C188.258 4.20308 188.179 4.20159 188.07 4.20722C187.928 4.21453 187.781 4.21587 187.637 4.21993C187.557 4.20976 187.478 4.19851 187.395 4.18888C187.357 4.18407 187.31 4.17818 187.268 4.1788C187.074 4.18349 186.879 4.19035 186.685 4.19667C186.49 4.20298 186.49 4.20298 186.16 4.16992C186.122 4.16619 186.072 4.16194 186.031 4.1631C185.786 4.17005 185.544 4.17862 185.3 4.18557C185.206 4.18845 185.12 4.18101 185.043 4.16649C184.97 4.15197 184.881 4.14398 184.79 4.14686C184.401 4.15895 184.012 4.17051 183.623 4.18477C183.467 4.19048 183.334 4.18529 183.225 4.16648C183.101 4.14445 182.963 4.15013 182.819 4.15473C182.492 4.16617 182.489 4.16563 182.279 4.13832C182.238 4.13297 182.197 4.12273 182.158 4.12334C181.82 4.13209 181.478 4.1403 181.142 4.15393C180.965 4.1613 180.871 4.14247 180.753 4.12857C180.712 4.12376 180.667 4.11352 180.632 4.11467C180.387 4.12108 180.143 4.12694 179.904 4.13823C179.666 4.14951 179.574 4.09919 179.394 4.10006C179.15 4.10104 178.908 4.11395 178.666 4.12198C178.472 4.1283 178.278 4.13462 178.083 4.14094C177.889 4.14726 177.694 4.15249 177.5 4.1599C177.396 4.16388 177.32 4.15913 177.234 4.14571C177.125 4.128 176.996 4.11412 176.878 4.09804C176.758 4.0827 176.625 4.07733 176.48 4.08193C176.433 4.08364 176.383 4.08482 176.335 4.08653C175.979 4.09911 175.979 4.09802 175.525 4.06464C175.504 4.06305 175.451 4.06911 175.431 4.07349C175.369 4.08771 175.313 4.10301 175.257 4.11777C175.177 4.10977 175.08 4.10451 175.027 4.09212C174.877 4.05711 174.638 4.10585 174.488 4.07138C174.432 4.05845 174.335 4.04723 174.246 4.04413C174.155 4.04103 174.052 4.04882 173.957 4.05224C173.713 4.06082 173.713 4.06028 173.504 4.10896C173.398 4.13303 173.244 4.12897 173.106 4.13464C172.961 4.14087 172.823 4.14437 172.702 4.12234C172.593 4.10245 172.46 4.0978 172.304 4.10459C172.113 4.11308 171.915 4.11831 171.721 4.12355C171.68 4.12471 171.629 4.12208 171.588 4.1189C171.137 4.08768 171.137 4.08714 170.919 4.09458C170.822 4.09802 170.722 4.09928 170.628 4.10433C170.468 4.1133 170.348 4.10212 170.233 4.08496C170.194 4.0796 170.15 4.06936 170.112 4.06997C169.917 4.07304 169.726 4.07826 169.534 4.08349C169.387 4.08755 169.24 4.08999 169.098 4.09784C168.862 4.11075 168.747 4.07567 168.585 4.05968C168.344 4.06717 168.099 4.07249 167.858 4.08269C167.746 4.08723 167.672 4.08574 167.586 4.07286C167.477 4.05677 167.377 4.0385 167.2 4.04695C166.965 4.05823 166.717 4.06247 166.475 4.06942C166.313 4.05288 166.195 4.0189 165.963 4.0318C165.821 4.03965 165.671 4.04155 165.527 4.04615C165.332 4.05247 165.138 4.05824 164.943 4.0651C164.734 4.07199 164.737 4.07036 164.416 4.03891C164.23 4.02024 164.038 4.04175 163.85 4.04535C163.702 4.04832 163.629 4.07342 163.664 4.10539C163.7 4.13735 163.62 4.16246 163.485 4.16704C163.146 4.17796 162.804 4.18943 162.465 4.19926C162.424 4.20042 162.374 4.19671 162.335 4.19298C162.094 4.17062 161.919 4.16134 161.811 4.16515C161.569 4.17372 161.322 4.17851 161.083 4.18925C160.918 4.1966 160.797 4.18542 160.691 4.16715C160.608 4.15319 160.532 4.15007 160.426 4.15351C159.259 4.19197 158.092 4.22771 156.928 4.26724C156.754 4.27298 156.654 4.25742 156.536 4.24297C156.495 4.23816 156.457 4.22792 156.415 4.22799C156.318 4.22817 156.221 4.23322 156.124 4.23666C155.687 4.25046 155.251 4.26698 154.812 4.27754C154.627 4.28221 154.577 4.30727 154.497 4.32804C154.435 4.34389 154.365 4.35053 154.253 4.3529C154.146 4.35526 154.07 4.35269 153.987 4.33872C153.881 4.32045 153.76 4.30927 153.595 4.31717C153.404 4.32619 153.206 4.33035 153.012 4.33666C152.912 4.33956 152.835 4.34947 152.803 4.36906C152.797 4.37233 152.859 4.38036 152.894 4.38518C153.012 4.40126 153.124 4.42005 153.257 4.43122C153.392 4.44237 153.54 4.42908 153.681 4.42557C153.731 4.4244 153.778 4.42106 153.825 4.42151C153.87 4.42144 153.923 4.4246 153.955 4.42942C154.108 4.45358 154.273 4.47011 154.483 4.45508C154.665 4.46181 154.76 4.50669 154.992 4.49433C155.134 4.48702 155.281 4.4835 155.429 4.48053C155.467 4.47992 155.508 4.48961 155.549 4.49442C155.667 4.50778 155.762 4.52933 155.938 4.51978C156.127 4.50967 156.327 4.50769 156.519 4.49975C156.625 4.49521 156.702 4.49888 156.784 4.51284C156.89 4.53056 157.011 4.54392 157.176 4.53494C157.318 4.52709 157.468 4.52519 157.612 4.52005C157.801 4.51374 157.801 4.51428 158.137 4.54733C158.175 4.55106 158.225 4.55532 158.266 4.55416C158.511 4.54721 158.753 4.53863 158.997 4.53168C159.092 4.5288 159.183 4.53569 159.248 4.55132C159.274 4.55778 159.265 4.56865 159.274 4.57787C158.788 4.59339 158.302 4.60674 157.819 4.62552C157.636 4.6329 157.553 4.6108 157.433 4.59853C157.391 4.59426 157.347 4.58511 157.309 4.58627C156.967 4.5961 156.628 4.60648 156.289 4.61903C156.183 4.62302 156.104 4.62099 156.024 4.60539C155.821 4.56396 155.573 4.5872 155.34 4.59359C155.164 4.59824 155.108 4.61517 155.131 4.65095C155.158 4.69324 155.264 4.70608 155.535 4.69745C155.632 4.69457 155.73 4.69059 155.827 4.68825C155.921 4.68591 156.007 4.69281 156.083 4.70733C156.157 4.72185 156.245 4.72929 156.337 4.72696C156.531 4.72173 156.729 4.71649 156.917 4.70801C157.073 4.70122 157.203 4.70641 157.312 4.7263C157.436 4.74833 157.574 4.7432 157.716 4.73806C158.046 4.72662 158.049 4.72716 158.255 4.75393C158.296 4.75928 158.338 4.76952 158.376 4.76891C158.715 4.76016 159.057 4.75249 159.39 4.73887C159.563 4.73205 159.661 4.74924 159.779 4.76314C159.82 4.76795 159.861 4.77874 159.899 4.77758C160.144 4.77117 160.389 4.76477 160.627 4.75403C160.739 4.74894 160.807 4.75208 160.895 4.76495C161.114 4.79658 161.119 4.79548 161.429 4.78462C161.523 4.78119 161.626 4.77504 161.715 4.77922C161.803 4.78341 161.874 4.79902 161.956 4.80864C161.995 4.81292 162.042 4.8188 162.083 4.81764C162.278 4.81295 162.472 4.80609 162.667 4.79977C162.849 4.79348 162.849 4.79402 163.191 4.82706C163.333 4.84092 163.474 4.82873 163.612 4.82414C163.763 4.81898 163.898 4.81874 164.013 4.8397C164.128 4.86067 164.267 4.85933 164.414 4.85473C164.553 4.85014 164.694 4.83794 164.835 4.85235C165.16 4.88542 165.16 4.88596 165.36 4.87909C165.652 4.86934 165.941 4.86014 166.235 4.85147C166.273 4.85032 166.324 4.85674 166.362 4.86102C166.444 4.87064 166.515 4.8868 166.604 4.89044C166.692 4.89462 166.795 4.88792 166.889 4.8845C167.193 4.87364 167.214 4.86981 167.417 4.90527C167.588 4.93427 167.8 4.89156 167.959 4.92492C168.051 4.94376 168.174 4.95874 168.345 4.9492C168.487 4.94135 168.634 4.93892 168.781 4.93431C169.014 4.92684 169.014 4.92738 169.309 4.95942C169.347 4.96369 169.397 4.96903 169.436 4.96788C169.63 4.96319 169.828 4.95904 170.016 4.94893C170.237 4.93714 170.379 4.95751 170.544 4.9773C170.673 4.99281 170.827 4.9795 170.962 4.97383C171.112 4.96814 171.248 4.96952 171.36 4.99049C171.478 5.01199 171.616 5.00903 171.764 5.00443C171.902 5.00038 172.044 4.98764 172.185 5.00259C172.489 5.0357 172.489 5.0357 172.71 5.02879C172.904 5.02247 173.099 5.01561 173.293 5.01092C173.331 5.00976 173.379 5.01674 173.417 5.02155C173.499 5.03118 173.57 5.04733 173.659 5.05098C173.747 5.05462 173.85 5.04738 173.947 5.04449C174.045 5.0416 174.148 5.03327 174.236 5.03637C174.325 5.03947 174.407 5.05289 174.478 5.06471C174.56 5.07867 174.637 5.08016 174.749 5.07454C174.89 5.06723 175.038 5.06534 175.182 5.06128C175.262 5.07145 175.344 5.08161 175.421 5.09288C175.5 5.10467 175.586 5.10344 175.695 5.09944C176.057 5.08577 176.06 5.08739 176.364 5.1205C176.502 5.13545 176.647 5.12271 176.785 5.11866C176.933 5.11406 177.071 5.11164 177.186 5.13314C177.298 5.15357 177.437 5.15603 177.584 5.14926C177.678 5.14475 177.778 5.14185 177.876 5.14005C177.92 5.13943 177.973 5.14151 178.005 5.14579C178.162 5.16831 178.315 5.18866 178.53 5.17362C178.718 5.17763 178.813 5.22197 179.04 5.21288C179.231 5.20493 179.432 5.20295 179.62 5.19284C179.794 5.18384 179.918 5.19882 180.006 5.21766C180.165 5.25103 180.389 5.20503 180.549 5.23786C180.64 5.2567 180.758 5.27168 180.935 5.26322C181.129 5.25419 181.191 5.26548 181.247 5.29958C181.279 5.31906 181.274 5.33481 181.215 5.35011C181.156 5.36596 181.091 5.36336 180.997 5.34562C180.888 5.32573 180.758 5.32216 180.602 5.32678C180.449 5.3314 180.354 5.30334 180.227 5.29271C180.101 5.28154 179.95 5.30081 179.818 5.28639C179.505 5.25275 179.505 5.25275 179.293 5.25965C179.149 5.26425 178.999 5.26669 178.857 5.27454C178.689 5.28407 178.58 5.26743 178.465 5.25244C178.424 5.24709 178.383 5.23685 178.347 5.23745C178.008 5.2462 177.667 5.25441 177.331 5.26858C177.154 5.27596 177.06 5.25658 176.942 5.24322C176.9 5.23841 176.856 5.22872 176.821 5.22987C176.529 5.23799 176.24 5.24828 175.949 5.25803C175.893 5.27278 175.831 5.28701 175.778 5.30284C175.722 5.31923 175.645 5.32642 175.533 5.32608C175.348 5.32641 175.165 5.34953 174.979 5.3211C174.788 5.29213 174.773 5.29378 174.587 5.30117C174.352 5.31082 174.101 5.3091 173.88 5.33066C173.842 5.33453 173.801 5.34492 173.801 5.35251C173.801 5.3574 173.86 5.36435 173.898 5.36862C174.028 5.38142 174.178 5.36215 174.307 5.37549C174.393 5.38402 174.464 5.39692 174.549 5.406C174.585 5.40973 174.638 5.4091 174.685 5.40847C174.735 5.40838 174.782 5.40395 174.829 5.40441C174.873 5.40488 174.92 5.40805 174.956 5.41287C175.118 5.43321 175.289 5.4519 175.433 5.47607C175.575 5.4997 175.707 5.48372 175.849 5.48184C176.415 5.51882 176.415 5.51936 176.795 5.50674C176.889 5.50386 176.986 5.50043 177.084 5.5008C177.125 5.50072 177.163 5.51043 177.204 5.51578C177.322 5.53185 177.434 5.54631 177.599 5.53733C177.741 5.52948 177.891 5.52758 178.035 5.52244C178.23 5.51612 178.23 5.51612 178.56 5.54972C178.643 5.55826 178.731 5.55702 178.837 5.55248C178.928 5.54852 179.023 5.5565 179.088 5.57212C179.114 5.57859 179.105 5.58946 179.114 5.59867C178.822 5.60788 178.528 5.61437 178.245 5.62791C178.062 5.63637 177.98 5.61318 177.859 5.60091C177.817 5.59665 177.773 5.5875 177.735 5.58865C177.446 5.59731 177.157 5.60705 176.869 5.61843C176.833 5.61957 176.789 5.63214 176.786 5.63974C176.78 5.65387 176.854 5.6673 176.96 5.66657C177.102 5.66632 177.24 5.6563 177.367 5.67833C177.473 5.69768 177.606 5.70613 177.762 5.69716C177.856 5.69211 177.956 5.69193 178.05 5.68688C178.301 5.6734 178.528 5.67571 178.716 5.71228C178.861 5.72179 179.002 5.71231 179.141 5.70718C179.244 5.7032 179.344 5.69922 179.418 5.7094C179.574 5.73083 179.727 5.75227 179.942 5.73723C180.175 5.75201 180.352 5.78372 180.547 5.80943C180.638 5.82175 180.709 5.82868 180.815 5.82035C180.859 5.81701 180.912 5.81692 180.959 5.8152C181.056 5.81231 181.16 5.80399 181.248 5.80709C181.336 5.81073 181.41 5.82634 181.49 5.83597C181.528 5.84078 181.572 5.84884 181.61 5.84823C181.758 5.84526 181.902 5.83957 182.047 5.83497C182.191 5.83091 182.335 5.82685 182.48 5.8228C182.601 5.83669 182.724 5.85058 182.845 5.86448C183.04 5.85816 183.234 5.85184 183.426 5.84607C183.641 5.83918 183.641 5.83972 183.95 5.87282C184.089 5.88777 184.236 5.87773 184.369 5.87044C184.59 5.85865 184.737 5.87901 184.893 5.90044C184.926 5.90473 184.985 5.90734 185.023 5.9051C185.176 5.89722 185.309 5.90296 185.421 5.92284C185.5 5.93681 185.58 5.94318 185.677 5.94029C186.016 5.92937 186.355 5.91791 186.694 5.90808C186.732 5.90692 186.782 5.91172 186.821 5.91599C187.121 5.94857 187.124 5.95019 187.345 5.94111C187.543 5.93316 187.725 5.92958 187.882 5.95915C187.914 5.9656 187.964 5.97474 187.999 5.97414C188.241 5.96828 188.486 5.96187 188.724 5.95221C188.833 5.94768 188.91 5.94917 188.995 5.9615C189.104 5.97705 189.202 5.99587 189.381 5.98849C189.879 5.96752 189.882 5.97077 190.472 6.00717C190.513 6.00981 190.569 6.00537 190.616 6.00311C190.716 5.9975 190.79 6.00497 190.879 6.0173C191.076 6.04517 191.082 6.04353 191.27 6.03722C191.415 6.03208 191.565 6.03073 191.707 6.02233C191.925 6.01 192.069 6.03091 192.231 6.0507C192.361 6.06621 192.511 6.05292 192.65 6.04778C192.8 6.04209 192.935 6.04347 193.047 6.0639C193.124 6.07787 193.207 6.08533 193.304 6.08244C193.643 6.07206 193.982 6.0606 194.32 6.05022C194.362 6.04906 194.412 6.05332 194.45 6.05705C194.786 6.0901 194.786 6.09173 195.119 6.07865C195.225 6.07466 195.314 6.07342 195.393 6.08467C195.47 6.09539 195.552 6.10556 195.632 6.11573C195.776 6.11167 195.924 6.11032 196.065 6.10356C196.174 6.09848 196.251 6.10051 196.336 6.11176C196.448 6.12621 196.54 6.15156 196.719 6.13875C196.811 6.13262 196.917 6.13406 197.008 6.12847C197.117 6.12121 197.191 6.12543 197.276 6.13939C197.382 6.15602 197.491 6.1732 197.662 6.16421C197.851 6.1541 198.051 6.15211 198.243 6.14417C198.349 6.13964 198.423 6.14385 198.508 6.15781C198.614 6.17553 198.735 6.18671 198.9 6.17936C199.236 6.16519 199.239 6.1679 199.566 6.20151C199.649 6.21005 199.737 6.20881 199.843 6.20427C199.934 6.20031 200.029 6.20828 200.094 6.22391C200.12 6.23037 200.111 6.24125 200.12 6.25046L200.161 6.2607ZM173.891 1.41275C173.794 1.41564 173.696 1.41907 173.555 1.3721C173.546 1.36398 173.552 1.3542 173.531 1.34718C173.484 1.3326 173.41 1.32242 173.322 1.32095C173.163 1.31907 172.971 1.33786 172.974 1.35197C172.977 1.36391 173.027 1.37413 173.125 1.38373C173.166 1.38745 173.198 1.39391 173.237 1.39818C173.349 1.41047 173.437 1.43473 173.599 1.42196C173.584 1.40516 173.569 1.38836 173.599 1.42196C173.584 1.44261 173.629 1.45719 173.735 1.46297C173.764 1.46455 173.808 1.46284 173.832 1.46008C173.923 1.44798 173.938 1.43167 173.87 1.38891C173.858 1.39599 173.87 1.40845 173.894 1.41166C173.92 1.41487 173.985 1.41204 174.017 1.40819C174.1 1.39772 174.141 1.38408 174.121 1.37272C174.109 1.36677 174.053 1.35927 174.017 1.35933C173.953 1.35945 173.897 1.37149 173.888 1.41276L173.891 1.41275ZM197.73 7.66437C197.515 7.67507 197.267 7.67171 197.052 7.69326C197.014 7.69713 196.976 7.70697 196.973 7.71457C196.973 7.71946 197.029 7.72641 197.064 7.73015C197.144 7.73869 197.232 7.73582 197.335 7.73292C197.491 7.72884 197.583 7.75365 197.704 7.76592C197.742 7.76965 197.792 7.77227 197.833 7.77111C198.072 7.76417 198.308 7.7567 198.546 7.74867C198.588 7.74697 198.632 7.74309 198.667 7.73814C198.785 7.72219 198.773 7.71135 198.658 7.70016C198.531 7.68736 198.431 7.66583 198.302 7.65575C198.119 7.64142 197.93 7.6613 197.733 7.66436L197.73 7.66437ZM180.996 8.09053C180.851 8.09513 180.71 8.09973 180.565 8.10433C180.518 8.10604 180.468 8.10667 180.424 8.10892C180.333 8.11288 180.265 8.1244 180.221 8.1424C180.289 8.15639 180.371 8.16438 180.462 8.16259C180.607 8.15907 180.748 8.15177 180.893 8.14988C181.049 8.14743 181.14 8.17169 181.261 8.18396C181.299 8.18769 181.347 8.18815 181.391 8.18861C181.609 8.19039 181.741 8.16193 181.7 8.12238C181.67 8.09149 181.558 8.07324 181.423 8.07728C181.279 8.08188 181.137 8.08648 180.993 8.09108L180.996 8.09053ZM198.736 6.86032C198.772 6.85103 198.81 6.84445 198.828 6.83627C198.881 6.80904 198.86 6.78791 198.763 6.76637C198.645 6.73998 198.5 6.75815 198.368 6.7611C198.335 6.76171 198.3 6.77317 198.282 6.78025C198.27 6.78516 198.271 6.79547 198.288 6.79816C198.436 6.8196 198.589 6.83941 198.739 6.86031L198.736 6.86032ZM173.173 5.30261C173.031 5.30721 172.887 5.31072 172.746 5.31695C172.71 5.31864 172.678 5.32901 172.657 5.3361C172.619 5.3492 172.66 5.36704 172.781 5.36845C172.919 5.37037 173.064 5.36089 173.208 5.35629C173.391 5.35053 173.497 5.33026 173.432 5.31301C173.367 5.29575 173.276 5.29266 173.173 5.30207L173.173 5.30261ZM18.0539 4.42002C18.1482 4.41714 18.2455 4.41479 18.3398 4.41083C18.4282 4.40687 18.4959 4.39481 18.5401 4.37681C18.4664 4.36283 18.3839 4.35538 18.2925 4.35717C18.1481 4.36069 18.0067 4.36528 17.8653 4.37097C17.7769 4.37438 17.6914 4.38647 17.6708 4.40497C17.6532 4.41857 17.8506 4.42636 18.0569 4.42002L18.0539 4.42002ZM160.711 4.08135C160.75 4.08617 160.788 4.09587 160.826 4.0958C160.921 4.09564 161.018 4.09221 161.106 4.08662C161.145 4.08438 161.174 4.07456 161.192 4.06693C161.204 4.06202 161.201 4.05334 161.183 4.04903C161.097 4.02313 160.756 4.03297 160.7 4.06292C160.691 4.06836 160.703 4.0754 160.709 4.08136L160.711 4.08135ZM151.409 1.12565C151.418 1.13432 151.421 1.143 151.433 1.15166C151.456 1.1679 151.521 1.17973 151.615 1.1877C151.689 1.174 151.727 1.15873 151.724 1.14245C151.724 1.13377 151.713 1.1251 151.701 1.11644C151.677 1.1002 151.612 1.08837 151.518 1.0804C151.444 1.0941 151.406 1.10937 151.409 1.12565ZM205.555 8.14106C205.528 8.14817 205.501 8.15527 205.472 8.16184C205.552 8.17744 205.625 8.18219 205.681 8.1734C205.717 8.16791 205.737 8.15974 205.764 8.15263C205.684 8.13703 205.613 8.13282 205.555 8.14106ZM203.722 8.21816C203.76 8.22298 203.795 8.22943 203.837 8.23261C203.904 8.23792 203.966 8.22858 204.013 8.20895C203.975 8.20414 203.94 8.19769 203.898 8.19451C203.831 8.1892 203.769 8.19854 203.722 8.21816ZM204.883 8.11675C204.862 8.12982 204.903 8.1406 205.012 8.14963C205.039 8.14253 205.074 8.13595 205.092 8.12832C205.121 8.11578 205.071 8.10448 204.965 8.09598C204.939 8.10308 204.912 8.11019 204.883 8.11675ZM198.661 7.54275C198.64 7.55581 198.682 7.56659 198.791 7.57562C198.817 7.56852 198.852 7.56194 198.87 7.55431C198.9 7.54178 198.849 7.53047 198.743 7.52197C198.717 7.52908 198.69 7.53618 198.661 7.54275ZM190.179 3.7171C190.152 3.72421 190.126 3.73131 190.096 3.73788C190.176 3.75347 190.25 3.75823 190.306 3.74944C190.341 3.74395 190.362 3.73577 190.388 3.72867C190.309 3.71307 190.238 3.70885 190.179 3.7171ZM182.06 1.69397C182.131 1.69764 182.189 1.68994 182.24 1.66977C182.201 1.66495 182.166 1.6585 182.125 1.65532C182.057 1.65001 181.995 1.65935 181.948 1.67897C181.986 1.68379 182.024 1.68861 182.06 1.69397ZM177.748 1.57467C177.722 1.58177 177.695 1.58887 177.666 1.59544C177.746 1.61104 177.819 1.61579 177.875 1.60701C177.911 1.60152 177.931 1.59334 177.958 1.58623C177.878 1.57063 177.807 1.56642 177.748 1.57467ZM148.512 1.13083C148.486 1.13793 148.459 1.14503 148.43 1.1516C148.509 1.1672 148.583 1.17195 148.639 1.16317C148.674 1.15768 148.695 1.1495 148.722 1.14239C148.642 1.1268 148.571 1.12258 148.512 1.13083ZM2.94516 5.80674C2.90684 5.80192 2.86852 5.7971 2.83315 5.79174C2.74772 5.80655 2.72123 5.82016 2.76839 5.83039C2.79787 5.83685 2.84208 5.84057 2.8804 5.84539C2.96583 5.83058 2.98938 5.81751 2.94516 5.80619L2.94516 5.80674Z" fill="black"/>
</svg>
