<svg width="356" height="10" viewBox="0 0 356 10" fill="none" xmlns="http://www.w3.org/2000/svg">
<path d="M334.844 6.84229C334.356 6.84752 333.863 6.85 333.384 6.85965C333.074 6.86559 332.941 6.84076 332.734 6.82681C332.665 6.82198 332.591 6.81277 332.527 6.81341C332.044 6.81867 331.56 6.82502 331.077 6.83137C330.929 6.85149 330.835 6.87905 330.608 6.88776C330.387 6.89596 330.125 6.89411 329.879 6.89725C329.553 6.90092 329.228 6.90459 328.902 6.90771C328.74 6.90927 328.607 6.91864 328.552 6.9378C328.542 6.94099 328.651 6.9499 328.71 6.9552C328.907 6.97288 329.099 6.99269 329.316 7.00671C329.523 7.02012 329.779 7.0024 330.001 7.01916C330.499 7.05688 330.504 7.05638 330.883 7.05255C331.209 7.04888 331.534 7.04467 331.86 7.04263C331.924 7.042 331.998 7.05067 332.067 7.0555C332.274 7.0689 332.407 7.09699 332.712 7.08884C332.944 7.08233 333.2 7.08252 333.442 7.07989C333.644 7.09706 333.836 7.11633 334.048 7.13032C334.25 7.14369 334.309 7.15334 334.201 7.16831C334.102 7.18227 333.964 7.18726 333.781 7.18705C333.619 7.18645 333.456 7.19018 333.293 7.19174C333.214 7.19281 333.131 7.1933 333.052 7.19437C332.741 7.19815 332.741 7.19815 332.174 7.15939C331.953 7.14425 331.701 7.16147 331.489 7.14694C331.346 7.13725 331.223 7.12335 331.085 7.11314C331.026 7.10893 330.932 7.10772 330.858 7.10828C330.612 7.11034 330.365 7.1113 330.129 7.11669C329.961 7.12038 329.862 7.13488 329.882 7.15022C329.887 7.15623 330.005 7.16575 330.074 7.16678C330.232 7.16898 330.399 7.16257 330.552 7.16745C330.7 7.1723 330.853 7.18424 330.961 7.19694C331.183 7.22348 331.435 7.20301 331.646 7.21102C331.868 7.21965 332.051 7.24265 332.262 7.25718C332.322 7.26085 332.42 7.25612 332.504 7.25509C332.746 7.253 332.987 7.25145 333.229 7.24936C333.431 7.26654 333.648 7.28218 333.83 7.30139C334.16 7.33629 334.515 7.35129 334.944 7.33858C335.186 7.33161 335.422 7.33654 335.614 7.35907C335.811 7.38218 336.038 7.38161 336.29 7.37905C336.521 7.37635 336.758 7.36608 336.995 7.38296C337.507 7.42024 337.512 7.4219 338.119 7.41317C338.301 7.41066 338.439 7.41055 338.577 7.42401C338.705 7.43632 338.843 7.44706 338.976 7.45886C339.218 7.45677 339.464 7.45472 339.706 7.45208C340.017 7.44831 340.189 7.45713 340.263 7.48805C340.307 7.50682 340.327 7.52379 340.435 7.53704C340.563 7.55314 340.701 7.55358 340.889 7.55056C341.066 7.54802 341.194 7.54296 341.268 7.52394C341.298 7.51601 341.357 7.50883 341.411 7.5027C341.456 7.49813 341.525 7.49102 341.564 7.49238C341.638 7.49508 341.737 7.50174 341.761 7.50897C342.003 7.57636 342.003 7.5769 342.249 7.59765C342.52 7.62073 342.801 7.64172 343.047 7.66735C343.269 7.69009 343.491 7.68243 343.732 7.68414C343.915 7.68543 344.033 7.70038 344.018 7.71439C344.008 7.72246 343.939 7.73391 343.88 7.73458C343.397 7.74202 342.909 7.74779 342.425 7.75197C342.366 7.75263 342.292 7.74234 342.223 7.73697C342.085 7.72622 341.962 7.71015 341.814 7.70584C341.666 7.70154 341.494 7.70846 341.331 7.71002C341.168 7.71159 340.996 7.71742 340.848 7.71203C340.7 7.70664 340.582 7.69006 340.444 7.67877C340.38 7.67344 340.291 7.66575 340.237 7.667C339.877 7.67747 339.611 7.65768 339.355 7.63252C339.3 7.62726 339.207 7.62334 339.138 7.62393C338.566 7.62911 337.999 7.63595 337.427 7.64222C337.195 7.64492 337.008 7.6246 336.959 7.59222C336.934 7.57414 336.885 7.55588 336.885 7.53797C336.885 7.5054 336.614 7.48557 336.417 7.48797C336.092 7.49109 335.761 7.4931 335.441 7.49897C335.179 7.50364 334.958 7.49555 334.78 7.47476C334.573 7.45104 334.337 7.4537 334.1 7.458C333.923 7.46108 333.873 7.47865 333.883 7.52377C333.892 7.5602 333.808 7.57101 333.488 7.57471C333.084 7.57945 332.674 7.58415 332.265 7.58722C332.201 7.58786 332.127 7.57811 332.063 7.57277C331.925 7.56202 331.802 7.54541 331.654 7.5411C331.506 7.53626 331.334 7.54318 331.171 7.54528C331.008 7.54684 330.835 7.55322 330.688 7.54838C330.54 7.54353 330.417 7.52637 330.284 7.51512C330.219 7.50978 330.141 7.50216 330.077 7.5028C329.751 7.50484 329.426 7.50904 329.1 7.51271C328.735 7.51664 328.735 7.51664 328.218 7.47933C327.981 7.46245 327.745 7.47272 327.513 7.47542C327.266 7.47802 327.035 7.47855 326.838 7.45544C326.71 7.44042 326.567 7.43073 326.414 7.43236C326.005 7.43598 325.6 7.44125 325.191 7.44487C325.122 7.44547 325.028 7.44209 324.974 7.43682C324.713 7.41218 324.457 7.39245 324.092 7.40127C323.776 7.4088 323.436 7.40694 323.12 7.41393C322.948 7.41759 322.869 7.4344 322.903 7.44822C322.923 7.45541 323.026 7.46429 323.095 7.46478C323.253 7.46644 323.426 7.45952 323.574 7.46382C323.879 7.4725 324.032 7.51917 324.431 7.50952C324.668 7.50359 324.914 7.50262 325.161 7.5022C325.225 7.50265 325.294 7.51291 325.363 7.51883C325.56 7.53488 325.733 7.5551 326.019 7.54735C326.255 7.54143 326.507 7.54103 326.748 7.5384C327.133 7.53407 327.133 7.53461 327.631 7.57125C327.867 7.58866 328.104 7.57785 328.336 7.57569C328.508 7.5742 328.671 7.56992 328.804 7.57847C329.016 7.59136 329.169 7.6185 329.43 7.61872C329.676 7.61884 329.918 7.61295 330.165 7.61198C330.317 7.61143 330.46 7.62113 330.583 7.63666C330.712 7.65222 330.85 7.65971 331.017 7.65764C331.259 7.65501 331.505 7.65133 331.752 7.65036C331.821 7.6503 331.9 7.65575 331.964 7.66054C332.102 7.67129 332.235 7.68363 332.368 7.69488C332.609 7.69334 332.856 7.694 333.093 7.68916C333.275 7.68557 333.403 7.68864 333.551 7.70055C333.738 7.71653 333.891 7.74366 334.197 7.73334C334.35 7.72845 334.527 7.73134 334.68 7.72699C334.867 7.72126 334.995 7.72488 335.128 7.74211C335.38 7.77483 335.695 7.7776 336.021 7.76797C336.376 7.75745 336.642 7.77453 336.908 7.8003C337.189 7.82726 337.189 7.82672 337.405 7.8885C337.469 7.90632 337.652 7.91576 337.804 7.91358C338.061 7.90997 338.283 7.91425 338.47 7.9362C338.667 7.95985 338.904 7.95882 339.145 7.95455C339.466 7.94868 339.786 7.94389 340.047 7.97722C340.175 7.99333 340.313 7.99811 340.486 7.99553C340.974 7.98921 341.467 7.98673 341.946 7.97818C342.236 7.97264 342.404 7.99119 342.601 8.00724C342.867 8.02921 343.153 8.04915 343.158 8.09206C343.158 8.09912 343.226 8.10775 343.286 8.11305C343.414 8.12536 343.552 8.1361 343.685 8.1479C343.882 8.16558 344.074 8.18051 344.345 8.17375C344.582 8.16837 344.833 8.16797 345.075 8.1648C345.317 8.16163 345.538 8.16048 345.755 8.18264C346.006 8.20776 346.273 8.2319 346.558 8.25129C346.76 8.26521 347.027 8.24592 347.244 8.26429C347.377 8.27554 347.505 8.28839 347.648 8.29809C347.707 8.3023 347.8 8.30025 347.879 8.29973C348.042 8.29871 348.21 8.29827 348.368 8.29395C348.55 8.28928 348.688 8.29134 348.826 8.3048C348.954 8.3171 349.082 8.33375 349.23 8.33806C349.452 8.34451 349.698 8.32455 349.92 8.35108C350.033 8.36437 350.176 8.37732 350.324 8.38217C350.472 8.38702 350.645 8.3801 350.802 8.38176C350.872 8.38224 350.955 8.39152 350.995 8.39886C351.019 8.40283 350.985 8.4129 350.95 8.41808C350.906 8.42428 350.842 8.43251 350.777 8.43315C350.289 8.43946 349.801 8.44415 349.313 8.44992C349.119 8.45217 348.827 8.44051 348.436 8.41494C348.298 8.40582 348.145 8.40637 347.972 8.40895C347.741 8.41219 347.504 8.41974 347.262 8.40826C346.947 8.36912 346.558 8.36311 346.143 8.37429C345.971 8.37904 345.813 8.37792 345.685 8.3667C345.414 8.34415 345.128 8.32313 344.887 8.297C344.699 8.27667 344.611 8.27442 344.532 8.29991C344.507 8.30788 344.482 8.31639 344.492 8.32406C344.521 8.35141 344.575 8.37839 344.605 8.40574C344.615 8.41341 344.575 8.42181 344.55 8.42978C344.471 8.45202 344.368 8.44965 344.195 8.42944C344.023 8.40922 343.816 8.39527 343.54 8.402C343.303 8.40792 343.047 8.40502 342.81 8.41149C342.445 8.42085 342.189 8.40166 341.928 8.37647C341.874 8.3712 341.78 8.36783 341.711 8.36842C340.976 8.37571 340.247 8.38465 339.512 8.39194C339.354 8.39354 339.211 8.38438 339.088 8.36886C338.96 8.35329 338.817 8.34468 338.659 8.34628C338.008 8.35307 337.358 8.35878 336.707 8.36828C336.44 8.37237 336.228 8.36381 336.046 8.34352C335.908 8.32843 335.78 8.32318 335.608 8.32359C335.42 8.32389 335.287 8.32838 335.193 8.34346C335.104 8.35803 335.168 8.36771 335.366 8.38104C335.577 8.39557 335.775 8.41379 335.977 8.43042C336.139 8.4294 336.302 8.42621 336.46 8.42787C336.529 8.42836 336.593 8.43858 336.662 8.4445C336.859 8.46164 337.041 8.47867 337.322 8.47197C337.559 8.46605 337.81 8.4662 338.052 8.46303C338.387 8.45943 338.387 8.45943 338.929 8.49746C339.067 8.50712 339.215 8.50763 339.393 8.504C339.546 8.50128 339.703 8.51 339.812 8.52705C339.856 8.53388 339.841 8.54463 339.747 8.57979C339.747 8.60638 339.851 8.59518 339.885 8.57805C339.94 8.55347 339.836 8.54459 339.639 8.55677C339.501 8.56556 339.432 8.57918 339.466 8.59082C339.486 8.59694 339.579 8.6052 339.747 8.57979C340.181 8.55029 340.512 8.54883 340.827 8.54238C341.015 8.53882 341.133 8.54183 341.281 8.55699C341.458 8.57507 341.635 8.59424 341.926 8.58761C342.242 8.58008 342.577 8.58136 342.898 8.57549C343.194 8.56999 343.346 8.59495 343.534 8.61039C343.76 8.62882 344.012 8.6116 344.219 8.62284C344.436 8.63414 344.588 8.65911 344.84 8.66523C345.205 8.65316 345.436 8.68194 345.712 8.7018C345.929 8.71691 346.185 8.70678 346.417 8.70245C346.678 8.69779 346.895 8.70584 347.078 8.72613C347.285 8.74985 347.516 8.7466 347.753 8.74339C348.305 8.73644 348.325 8.73496 348.645 8.76708C348.877 8.79043 349.099 8.78223 349.33 8.78115C349.532 8.79724 349.73 8.81438 349.941 8.8289C349.996 8.83255 350.099 8.82785 350.183 8.82682C350.425 8.82418 350.671 8.82159 350.913 8.81895C351.076 8.81739 351.248 8.81047 351.396 8.81478C351.544 8.81962 351.667 8.83623 351.8 8.84749C351.933 8.85875 352.071 8.87003 352.199 8.8818C352.396 8.89948 352.583 8.91437 352.86 8.90819C353.096 8.9028 353.343 8.90238 353.589 8.89924C353.9 8.89547 353.89 8.89702 354.467 8.93367C354.777 8.95378 355.098 8.93434 355.413 8.9344C355.571 8.93444 355.724 8.94149 355.832 8.958C355.877 8.96482 355.862 8.97558 355.876 8.98491C355.063 8.9938 354.244 9.00049 353.441 9.01272C353.13 9.01758 352.968 8.99688 352.8 8.97941C352.524 8.95141 352.159 8.98682 351.898 8.95186C351.74 8.93066 351.514 8.91766 351.242 8.92551C351.085 8.92982 350.917 8.92809 350.754 8.93182C350.34 8.94083 349.96 8.93869 349.63 8.8989C349.517 8.88507 349.354 8.87686 349.236 8.86354C349.098 8.84899 348.965 8.84045 348.802 8.84201C348.068 8.84984 347.338 8.8577 346.608 8.86665C346.544 8.86728 346.48 8.87497 346.426 8.88055C346.288 8.89477 346.332 8.90703 346.554 8.91837C346.628 8.92215 346.687 8.92963 346.756 8.93554C346.889 8.9468 347.012 8.96395 347.16 8.9688C347.308 8.97365 347.48 8.96727 347.643 8.96571C347.806 8.96414 347.978 8.95722 348.126 8.96153C348.274 8.96637 348.397 8.98299 348.535 8.99373C348.599 8.99907 348.678 9.00777 348.742 9.00768C349.068 9.00673 349.388 9.00303 349.713 9.00045C349.915 9.01653 350.088 9.03892 350.329 9.04552C350.482 9.04986 350.645 9.04504 350.803 9.04724C350.872 9.04827 350.965 9.05707 350.995 9.06434C351.015 9.06882 350.95 9.07922 350.901 9.0843C350.714 9.1036 350.457 9.09799 350.225 9.10286C349.974 9.10814 349.747 9.10436 349.555 9.08183C349.427 9.06681 349.284 9.0582 349.126 9.0598C348.717 9.06396 348.313 9.06924 347.903 9.07231C347.834 9.07291 347.751 9.06743 347.687 9.06318C347.169 9.0264 347.169 9.02532 346.804 9.02979C346.446 9.03413 346.147 9.02586 345.907 9.00499C345.838 8.99907 345.764 8.98823 345.705 8.98836C345.133 8.99299 344.566 8.99766 343.999 9.00613C343.812 9.00861 343.684 9.0077 343.546 8.99261C343.427 8.97983 343.289 8.96529 343.142 8.96098C342.989 8.95664 342.821 8.9636 342.658 8.96516C342.496 8.96672 342.323 8.97256 342.18 8.9672C342.032 8.96181 341.904 8.94571 341.776 8.93395C341.643 8.92161 341.5 8.92114 341.318 8.92419C340.755 8.93269 340.751 8.93103 340.194 8.89343C340.13 8.88918 340.046 8.88424 339.977 8.88484C339.568 8.88846 339.163 8.89374 338.754 8.89735C338.596 8.89895 338.443 8.89081 338.335 8.87431C338.291 8.86748 338.306 8.85673 338.276 8.83535C338.242 8.83022 338.276 8.83915 338.291 8.8474C338.365 8.84683 338.454 8.84855 338.508 8.84459C338.646 8.83525 338.715 8.82217 338.681 8.81053C338.661 8.80442 338.567 8.79616 338.508 8.79574C338.4 8.79497 338.306 8.80625 338.276 8.83535C337.965 8.85106 337.635 8.85252 337.315 8.85894C337.127 8.86304 337.009 8.85949 336.861 8.84433C336.684 8.82571 336.501 8.80759 336.211 8.81421C335.895 8.82175 335.56 8.82101 335.234 8.8263C334.859 8.83233 334.697 8.78233 334.382 8.78118C334.056 8.77997 333.731 8.78689 333.405 8.7911C333.119 8.7945 333.119 8.7945 332.528 8.75503C332.311 8.74047 332.055 8.75765 331.843 8.74258C331.7 8.73289 331.577 8.71899 331.439 8.70878C331.38 8.70457 331.286 8.7039 331.212 8.70447C330.803 8.70808 330.388 8.70949 329.994 8.71864C329.545 8.72958 329.205 8.71197 328.885 8.67768C328.481 8.68079 328.071 8.68115 327.672 8.68864C327.381 8.69418 327.214 8.67508 327.016 8.65903C326.948 8.65365 326.888 8.64509 326.814 8.6424C326.741 8.6397 326.652 8.64342 326.573 8.64449C326.247 8.64815 325.912 8.64849 325.597 8.65603C325.207 8.66576 325.059 8.6202 324.759 8.61265C324.556 8.63781 324.448 8.67341 324.048 8.6733C323.723 8.67317 323.397 8.67955 323.072 8.68321C322.909 8.68478 322.747 8.68688 322.584 8.68844C322.323 8.69148 322.199 8.71177 322.253 8.74472C322.283 8.76285 322.307 8.78093 322.332 8.79902C322.381 8.83139 322.257 8.85766 322.05 8.85999C321.478 8.86626 320.911 8.8731 320.339 8.87828C320.186 8.87991 320.039 8.86963 319.915 8.85411C319.787 8.83854 319.644 8.83102 319.487 8.83262C318.915 8.83888 318.348 8.84572 317.776 8.8509C317.712 8.85153 317.623 8.84548 317.564 8.84072C317.426 8.82997 317.293 8.81763 317.16 8.80637C316.834 8.80896 316.514 8.80994 316.193 8.81419C315.676 8.82029 315.676 8.82084 315.296 8.7883C315.227 8.78238 315.158 8.77158 315.094 8.77167C314.848 8.7721 314.606 8.77581 314.359 8.77895C313.635 8.78794 313.635 8.78793 313.423 8.77015C313.231 8.75359 313.058 8.73392 312.767 8.74054C312.452 8.74808 312.116 8.74896 311.791 8.75209C311.549 8.75417 311.308 8.75681 311.066 8.75618C311.002 8.75573 310.933 8.74547 310.864 8.73955C310.667 8.72133 310.475 8.7064 310.204 8.71371C310.046 8.71802 309.878 8.71792 309.715 8.71948C309.433 8.72255 309.06 8.71158 308.596 8.68659C308.528 8.68285 308.444 8.67845 308.375 8.67959C307.803 8.68531 307.236 8.69216 306.664 8.69734C306.595 8.69793 306.511 8.69408 306.442 8.69088C305.923 8.66622 305.387 8.657 304.835 8.66322C304.519 8.66641 304.509 8.66852 304.179 8.63741C304.031 8.62388 303.913 8.61707 303.736 8.61961C303.085 8.62803 302.429 8.63208 301.783 8.6427C301.492 8.64716 301.325 8.62969 301.128 8.61364C301.059 8.60826 300.985 8.59688 300.926 8.59701C300.275 8.60271 299.624 8.61059 298.973 8.6163C298.914 8.61696 298.84 8.60559 298.771 8.60021C298.638 8.5895 298.51 8.57394 298.362 8.56963C298.209 8.56529 298.041 8.57225 297.874 8.57378C297.465 8.57794 297.465 8.57739 296.991 8.54202C296.927 8.53722 296.844 8.53066 296.78 8.53129C296.129 8.53754 295.473 8.54213 294.827 8.5533C294.457 8.55936 294.206 8.54184 293.945 8.5172C293.89 8.51193 293.797 8.50909 293.728 8.50969C292.993 8.51697 292.263 8.52592 291.529 8.5332C291.376 8.53484 291.228 8.52456 291.105 8.50958C290.913 8.48596 290.676 8.487 290.43 8.49014C289.862 8.49753 289.858 8.49695 289.523 8.46852C289.454 8.46261 289.394 8.45513 289.32 8.45189C289.251 8.44869 289.163 8.44969 289.089 8.45025C288.763 8.45338 288.438 8.45704 288.112 8.46071C287.787 8.46438 287.457 8.4653 287.136 8.47226C286.742 8.48086 286.555 8.44426 286.279 8.42602C285.874 8.43021 285.46 8.43162 285.061 8.4402C284.755 8.44672 284.612 8.42182 284.41 8.40791C284.341 8.40308 284.267 8.39332 284.203 8.39396C283.468 8.4007 282.734 8.40853 282.004 8.41802C281.827 8.42002 281.708 8.41484 281.56 8.40076C281.23 8.36911 281.216 8.37009 280.663 8.37704C280.422 8.38022 280.19 8.38292 279.983 8.3592C279.801 8.33782 279.579 8.33137 279.318 8.33603C278.997 8.34191 278.667 8.34391 278.341 8.34703C278.016 8.3507 277.69 8.35654 277.365 8.35695C277.104 8.35781 276.946 8.33119 276.739 8.3167C276.675 8.31244 276.586 8.31127 276.512 8.31183C276.187 8.31441 275.852 8.31584 275.536 8.32283C275.151 8.33151 274.94 8.30016 274.669 8.28087C274.61 8.27665 274.511 8.27812 274.437 8.27923C273.865 8.28495 273.298 8.29179 272.726 8.29806C272.524 8.28197 272.317 8.26639 272.115 8.25031C271.79 8.25343 271.464 8.2571 271.139 8.26022C270.892 8.26282 270.641 8.26267 270.409 8.26917C270.108 8.2779 269.96 8.25134 269.758 8.23742C269.689 8.23259 269.615 8.22284 269.551 8.22348C269.142 8.22655 268.733 8.23017 268.329 8.23653C267.944 8.24304 267.791 8.1931 267.476 8.19141C267.151 8.18911 266.815 8.19434 266.5 8.20187C266.135 8.21069 265.878 8.19151 265.617 8.16632C265.563 8.16105 265.47 8.15767 265.4 8.15827C264.991 8.16188 264.587 8.16716 264.178 8.17078C264.109 8.17138 264.025 8.16807 263.956 8.16432C263.177 8.12679 263.177 8.12624 262.837 8.13035C262.595 8.13298 262.349 8.13666 262.102 8.13763C262.033 8.13823 261.949 8.13275 261.885 8.12796C261.373 8.09122 261.373 8.09067 261.003 8.09457C260.678 8.09824 260.352 8.1019 260.027 8.10557C259.825 8.08949 259.618 8.07391 259.416 8.05782C259.011 8.06202 258.597 8.06451 258.198 8.07146C258.01 8.07447 257.887 8.07197 257.744 8.05739C257.567 8.03985 257.39 8.0196 257.094 8.02673C256.778 8.03427 256.443 8.03298 256.122 8.03885C255.738 8.0459 255.58 7.99539 255.27 7.99373C254.944 7.99143 254.609 7.99666 254.293 8.00419C253.929 8.01301 253.672 7.99383 253.411 7.96864C253.357 7.96337 253.263 7.95999 253.194 7.96059C252.297 7.96998 251.404 7.9794 250.507 7.98988C250.139 7.99414 249.605 7.98403 248.905 7.95954C248.831 7.95684 248.752 7.95411 248.678 7.95467C248.353 7.95725 248.017 7.95868 247.702 7.96568C247.317 7.97435 247.105 7.94354 246.834 7.92371C246.775 7.91949 246.682 7.921 246.603 7.92207C246.356 7.92412 246.115 7.9273 245.868 7.9299C245.543 7.93356 245.217 7.93723 244.892 7.9409C244.69 7.92535 244.483 7.90923 244.281 7.89369C243.876 7.89788 243.462 7.89875 243.063 7.90732C242.757 7.91385 242.614 7.89004 242.412 7.87558C242.343 7.87075 242.269 7.861 242.205 7.86109C241.471 7.86783 240.736 7.87511 240.006 7.88514C239.705 7.88953 239.567 7.86413 239.365 7.85021C239.296 7.84592 239.218 7.83831 239.154 7.83894C238.665 7.84308 238.177 7.84886 237.689 7.85463C237.505 7.85694 237.213 7.84547 236.812 7.82019C236.743 7.8159 236.664 7.81155 236.595 7.81214C235.047 7.82832 233.503 7.84617 231.955 7.86235C231.797 7.86395 231.654 7.85479 231.531 7.83927C231.403 7.8237 231.26 7.81509 231.102 7.81669C230.452 7.82348 229.796 7.82915 229.15 7.83869C228.884 7.84278 228.672 7.83422 228.489 7.81393C228.351 7.79884 228.223 7.79251 228.051 7.79454C227.725 7.79875 227.4 7.80188 227.074 7.80554C226.749 7.80921 226.424 7.81288 226.098 7.81655C225.773 7.82021 225.442 7.82113 225.122 7.82809C224.727 7.8367 224.535 7.80168 224.264 7.78294C223.776 7.78763 223.288 7.79231 222.805 7.79758C222.154 7.80437 221.503 7.81225 220.852 7.81849C220.793 7.81916 220.719 7.80887 220.65 7.80349C220.448 7.78849 220.3 7.76845 220 7.77229C218.54 7.79073 217.071 7.80475 215.606 7.82261C215.301 7.82642 215.168 7.80214 214.961 7.78819C214.892 7.7839 214.813 7.77574 214.749 7.77637C213.935 7.78419 213.122 7.79363 212.308 7.80252C212.088 7.80494 211.794 7.79363 211.426 7.76859C211.362 7.76434 211.278 7.75886 211.209 7.75946C210.149 7.77041 209.094 7.78248 208.033 7.79398C207.876 7.79557 207.733 7.78696 207.605 7.7714C207.481 7.75587 207.334 7.74668 207.181 7.74832C206.205 7.75877 205.223 7.76866 204.252 7.78078C203.991 7.78436 203.774 7.77739 203.587 7.75707C203.453 7.74201 203.32 7.7351 203.153 7.73717C201.688 7.7534 200.224 7.76855 198.759 7.78641C198.478 7.78985 198.281 7.77814 198.104 7.75897C197.961 7.74385 197.838 7.74026 197.66 7.74117C197.473 7.74256 197.36 7.74773 197.256 7.76328C197.123 7.78351 197.039 7.80951 196.723 7.8089C196.398 7.80823 196.067 7.8124 195.747 7.81936C195.441 7.82643 195.298 7.80099 195.106 7.78497C194.963 7.77365 194.83 7.77108 194.648 7.77467C194.48 7.77783 194.376 7.78632 194.278 7.80299C194.06 7.83837 194.041 7.83823 193.775 7.813C193.632 7.79951 193.504 7.78883 193.346 7.78988C192.695 7.79613 192.044 7.80347 191.393 7.81134C191.019 7.81575 191.014 7.8168 190.733 7.78767C190.595 7.77312 190.462 7.76567 190.299 7.76777C188.509 7.78767 186.719 7.80648 184.93 7.82801C184.653 7.83148 184.466 7.81876 184.269 7.80108C184.205 7.7952 184.141 7.78715 184.067 7.78445C183.993 7.78176 183.909 7.78333 183.83 7.78386C182.529 7.79799 181.222 7.81099 179.925 7.82787C179.629 7.83174 179.472 7.81326 179.27 7.79772C179.201 7.79234 179.142 7.78433 179.068 7.78163C178.994 7.77948 178.905 7.78265 178.826 7.78372C177.524 7.79785 176.218 7.81085 174.921 7.82773C174.61 7.8315 174.477 7.80776 174.275 7.79439C174.206 7.78956 174.132 7.78089 174.068 7.78152C173.659 7.7846 173.255 7.78988 172.845 7.79404C171.869 7.80504 170.893 7.81496 169.917 7.8265C169.542 7.8309 169.38 7.78144 169.064 7.78138C168.655 7.7812 168.25 7.78919 167.841 7.7939C167.516 7.79756 167.19 7.80069 166.865 7.8049C166.651 7.80737 166.278 7.79622 165.746 7.77146C165.677 7.76826 165.593 7.76387 165.524 7.76447C164.385 7.77649 163.241 7.78847 162.107 7.80216C161.846 7.80519 161.629 7.80094 161.442 7.77953C161.309 7.76448 161.171 7.75645 161.008 7.75855C159.297 7.77738 157.591 7.79624 155.88 7.81453C155.816 7.81516 155.732 7.80914 155.668 7.80435C155.53 7.7936 155.397 7.78126 155.264 7.77C155.165 7.78179 155.037 7.79228 154.973 7.80594C154.884 7.82431 154.766 7.8289 154.578 7.83083C154.391 7.83276 154.273 7.83083 154.125 7.81568C153.947 7.79705 153.765 7.78219 153.474 7.78556C151.689 7.80712 149.894 7.82535 148.105 7.84634C147.809 7.84967 147.671 7.82481 147.464 7.81086C147.395 7.80658 147.316 7.80005 147.252 7.80068C146.517 7.80796 145.788 7.81637 145.053 7.82419C143.016 7.84669 140.98 7.86756 138.949 7.89226C138.579 7.8967 138.327 7.88135 138.066 7.85616C138.012 7.85089 137.918 7.84751 137.849 7.84811C134.999 7.87896 132.15 7.91035 129.304 7.94178C129.152 7.94341 129.004 7.93368 128.881 7.91869C128.753 7.90313 128.61 7.89506 128.452 7.89666C127.15 7.91079 125.848 7.92491 124.547 7.93958C124.221 7.94325 124.216 7.94376 123.881 7.91533C123.812 7.90941 123.738 7.89858 123.684 7.89928C123.571 7.90119 123.462 7.91399 123.383 7.93189C123.304 7.95087 123.181 7.95543 122.998 7.95793C122.811 7.96041 122.688 7.95791 122.545 7.94387C122.363 7.92629 122.195 7.90937 121.899 7.9127C118.157 7.95569 114.414 7.99596 110.672 8.03841C110.371 8.0417 110.233 8.01793 110.026 8.00398C109.957 7.99969 109.888 7.99378 109.814 7.99217C109.736 7.99052 109.652 7.99319 109.573 7.99426C103.469 8.06124 97.3643 8.12876 91.2601 8.19574C91.0168 8.19836 90.7636 8.21538 90.5004 8.24681C90.4511 8.25243 90.3869 8.26012 90.3179 8.26072C88.4491 8.28223 86.5755 8.30262 84.7018 8.32301C83.8882 8.33191 83.0746 8.34135 82.2611 8.3497C81.9702 8.35253 81.9702 8.35253 81.2746 8.40623C81.2154 8.41069 81.1463 8.41672 81.0773 8.41731C77.823 8.45344 74.5687 8.48957 71.3095 8.52458C71.0531 8.52711 70.846 8.53542 70.7275 8.56063C70.6435 8.57849 70.535 8.58858 70.3723 8.59068C68.0943 8.61581 65.8163 8.64148 63.5334 8.66549C63.2622 8.66846 63.0994 8.6825 62.9661 8.70436C62.9217 8.71164 62.8822 8.72005 62.818 8.72502C62.7588 8.72949 62.6701 8.73049 62.5961 8.73159C60.6435 8.75305 58.691 8.7756 56.7335 8.7954C56.4426 8.79822 56.3241 8.81747 56.181 8.83762C56.1316 8.84433 56.097 8.85386 56.0329 8.85829C55.9688 8.86218 55.8751 8.86151 55.7962 8.86204C54.1691 8.87983 52.5419 8.89817 50.9148 8.91596C50.5993 8.91102 50.53 8.94201 50.3771 8.95992C50.3228 8.96605 50.2833 8.97446 50.2192 8.97835C50.1501 8.9822 50.0614 8.98103 49.9776 8.98152C48.6759 8.99565 47.3741 9.0114 46.0724 9.0239C45.7717 9.02666 45.7123 9.05392 45.5495 9.07177C45.4952 9.07735 45.4409 9.0862 45.3768 9.08737C44.5632 9.09735 43.7496 9.10625 42.9361 9.1146C42.6649 9.11757 42.6649 9.11703 42.1863 9.16738C42.132 9.17296 42.0679 9.17902 41.9988 9.18016C40.7809 9.19434 39.5581 9.2074 38.3353 9.22099C38.1775 9.22259 38.064 9.23482 37.99 9.25275C37.9109 9.27064 37.7975 9.28178 37.6397 9.28338C36.6634 9.29438 35.6871 9.30592 34.7108 9.3153C34.4396 9.31772 34.2621 9.33003 34.1436 9.35362C34.0547 9.37145 33.9462 9.37991 33.7736 9.38194C32.7973 9.3924 31.821 9.40449 30.8398 9.41274C30.5538 9.41506 30.4058 9.43247 30.2873 9.45443C30.1935 9.47222 30.085 9.47796 29.9026 9.47993C28.1127 9.49874 26.3179 9.51752 24.533 9.53962C24.2322 9.54347 24.0795 9.52339 23.8824 9.50842C23.6015 9.48744 23.3404 9.46496 23.3407 9.42262C23.3407 9.41611 23.257 9.40792 23.1978 9.40207C22.7593 9.35826 22.7593 9.35826 22.6906 9.31435C22.6514 9.28747 22.6072 9.26002 22.5729 9.23263C22.5091 9.18767 22.3514 9.17516 21.8978 9.18009C21.7351 9.18165 21.5724 9.1843 21.4096 9.18532C21.168 9.18741 20.9858 9.1682 20.9416 9.13532C20.9171 9.11724 20.8876 9.09912 20.8631 9.08103C21.1097 9.07843 21.1047 9.07786 21.539 9.01525C21.7217 8.98886 21.7217 8.98886 21.3718 8.9587C21.2388 8.94744 21.1107 8.93514 20.9678 8.92436C20.9037 8.91956 20.8199 8.91625 20.7509 8.91685C20.3416 8.92047 19.9373 8.9252 19.533 8.92994C19.0991 8.93483 18.6621 8.91726 18.2219 8.87724C18.1677 8.87251 18.0839 8.86377 18.0938 8.8595C18.1482 8.8398 18.2814 8.83206 18.449 8.83108C18.6955 8.82956 18.9372 8.82585 19.1788 8.82321L19.6669 8.81799C19.8199 8.79844 19.9778 8.77947 20.1209 8.75932C20.3479 8.72836 20.3479 8.72727 20.0375 8.70228C19.8404 8.68623 19.6285 8.67061 19.4265 8.65507C19.1849 8.6577 18.9383 8.66084 18.6967 8.66293C18.391 8.66565 18.2678 8.65447 18.1892 8.61863C18.1204 8.5872 18.2044 8.5612 18.4411 8.55636C18.6827 8.55156 18.9095 8.54882 19.033 8.52201C19.1515 8.49625 19.3586 8.48741 19.615 8.48705C19.7777 8.48657 19.9404 8.48392 20.1032 8.48182C20.3152 8.47898 20.4288 8.4521 20.3846 8.42085C20.3601 8.40059 20.3109 8.38341 20.1187 8.37771C19.2659 8.35267 19.256 8.35315 18.8323 8.31324C18.7929 8.3097 18.7634 8.29972 18.7782 8.29494C18.8029 8.28698 18.8572 8.27542 18.9164 8.27421C19.4835 8.26628 20.0505 8.25944 20.6175 8.25531C20.8049 8.25392 20.9429 8.2511 21.0072 8.23147C21.0961 8.20442 21.0569 8.17863 20.8844 8.15841C20.8302 8.15205 20.7416 8.14383 20.6824 8.14395C20.0316 8.14911 19.3856 8.15703 18.7348 8.16219C18.6756 8.16286 18.5672 8.15286 18.5426 8.14563C18.4934 8.13226 18.5675 8.11541 18.7401 8.11066C18.9669 8.10412 19.1986 8.10522 19.3517 8.07917C19.5639 8.04213 19.8255 8.0087 20.0624 7.97346C20.1019 7.96723 20.1611 7.95516 20.1513 7.95401C20.0281 7.9412 19.8852 7.93096 19.7571 7.91865C19.5403 7.89812 19.5405 7.87152 19.59 7.84636C19.6296 7.82601 19.7775 7.81892 19.9599 7.82021C20.0388 7.82077 20.1374 7.82147 20.2015 7.81703C20.3692 7.80628 20.4236 7.79147 20.3399 7.77947C20.2906 7.77261 20.2019 7.76276 20.1428 7.76342C19.0876 7.77387 18.0275 7.78373 16.9772 7.79855C16.6666 7.80287 16.5237 7.78123 16.3365 7.76525C16.1936 7.75284 16.0605 7.74755 15.883 7.75444C15.7153 7.76085 15.5526 7.75536 15.4492 7.73671C15.3655 7.72146 15.5135 7.71003 15.913 7.69874C15.9869 7.69655 16.0708 7.69552 16.125 7.69047C16.6973 7.6359 16.6973 7.63536 17.0918 7.63055C17.4764 7.62622 17.4764 7.62567 17.6788 7.59562C17.7725 7.58163 17.8762 7.56771 17.965 7.55314C17.9996 7.54741 18.0588 7.53698 18.0391 7.53358C17.9308 7.51599 17.778 7.51111 17.6103 7.51372C17.2257 7.52022 16.7722 7.50941 16.5697 7.55955C16.4907 7.57853 16.3674 7.58308 16.1899 7.58508C14.4049 7.60393 12.62 7.62495 10.8302 7.64268C10.5393 7.6455 10.406 7.66464 10.2924 7.6861C10.1937 7.70385 10.0852 7.70851 9.89785 7.71044C9.71048 7.71237 9.56257 7.71295 9.45423 7.69428C9.39022 7.68297 9.44455 7.66815 9.59257 7.654C9.80471 7.63379 9.76546 7.60637 9.69662 7.58037C9.64744 7.5632 9.49469 7.55017 9.33199 7.55011C9.0904 7.55057 8.85864 7.5549 8.65666 7.53176C8.53843 7.51844 8.39059 7.50871 8.25755 7.49691C8.00134 7.47284 7.74514 7.44823 7.38514 7.46034C7.13867 7.45316 6.96625 7.4324 6.76916 7.41581C6.43902 7.3885 6.40946 7.38449 6.6463 7.35957C6.91766 7.33164 6.70595 7.29106 6.85406 7.26279C7.01204 7.23243 7.22916 7.20628 7.42165 7.17833C7.471 7.17108 7.51542 7.16434 7.56478 7.15709C7.45146 7.14543 7.34802 7.13113 7.21497 7.12259C7.04248 7.1116 6.95382 7.09903 6.96392 7.06545C6.92945 7.06032 6.94415 7.07291 6.98357 7.07644C7.02791 7.08001 7.1364 7.07807 7.19065 7.07465C7.32877 7.06532 7.39789 7.05223 7.36346 7.04059C7.34378 7.03448 7.25016 7.02622 7.191 7.0258C7.08254 7.02503 6.98878 7.03631 6.95899 7.06541C6.40666 7.08376 5.83469 7.09056 5.26274 7.0952C5.20357 7.09587 5.1297 7.08449 5.06071 7.07857C4.83406 7.05851 4.83405 7.05906 4.16853 7.04892C4.09951 7.04788 4.00589 7.03962 3.97144 7.03178C3.8287 6.99766 3.83388 6.96133 3.76511 6.92556C3.89346 6.90367 4.0218 6.88232 4.15507 6.86101C4.42161 6.81784 4.767 6.78066 4.97441 6.73274C4.93023 6.70583 4.87126 6.67881 5.08834 6.65864C5.70479 6.63586 5.69986 6.63582 5.86767 6.61096C6.34641 6.54052 6.82023 6.46951 7.31869 6.40031C7.45193 6.38225 7.45201 6.37194 7.21542 6.36212C7.14148 6.35943 7.0626 6.35833 6.98371 6.35885C6.73718 6.36091 6.49061 6.36893 6.24905 6.36505C6.00748 6.36171 5.83017 6.33657 5.63307 6.32052C5.43104 6.30389 5.22902 6.28672 5.027 6.26955C4.79527 6.26954 4.56345 6.2831 4.3319 6.25703C4.15456 6.23678 3.9328 6.22164 3.73077 6.20447C3.8839 6.1643 4.17007 6.13484 4.39218 6.10004C4.59455 6.06837 4.59948 6.06894 5.14197 6.04727C5.39842 6.03714 5.48759 5.97644 5.2708 5.95699C5.00965 5.93343 4.73371 5.91139 4.46763 5.88888C4.2359 5.88887 3.99915 5.90185 3.77747 5.87586C3.60505 5.85618 3.40793 5.8423 3.12194 5.84733C2.6387 5.85585 2.14565 5.85833 1.6575 5.86465C1.48985 5.86672 1.30745 5.86326 1.23363 5.84428C1.18442 5.8309 1.32752 5.814 1.49024 5.81136C1.73679 5.80767 1.95869 5.80273 2.08213 5.77646C2.20065 5.75016 2.41763 5.74356 2.67402 5.74157C2.74305 5.74097 2.82198 5.73502 2.85654 5.72875C3.03424 5.69852 3.23164 5.67278 3.61125 5.67655C3.76909 5.66682 3.853 5.65384 3.80379 5.64046C3.77426 5.6332 3.67079 5.62324 3.61162 5.62391C3.20239 5.62644 2.79315 5.62897 2.39374 5.63591C2.20637 5.63893 2.06339 5.639 1.94518 5.62188C1.86144 5.61043 1.90592 5.59609 2.06379 5.58147C2.20193 5.56887 2.24148 5.55341 2.23175 5.53489C2.20741 5.49183 2.05959 5.4783 1.58628 5.47767C1.24609 5.47743 1.16233 5.46978 1.08864 5.43235C1.06898 5.42352 1.01976 5.41123 1.05432 5.40551C1.26657 5.3701 1.40494 5.32548 1.8044 5.31094C1.96221 5.30554 2.12983 5.30673 2.22853 5.29332C2.32724 5.2799 2.41609 5.26425 2.51972 5.25141C2.64802 5.23603 2.73687 5.22146 2.67778 5.21073C2.57931 5.19158 2.42156 5.18883 2.2391 5.19406C2.0813 5.19837 1.91367 5.19772 1.75095 5.19983C1.46003 5.20374 1.22349 5.18795 1.18915 5.16383C1.09592 5.1002 0.99776 5.03708 0.914394 4.97353C0.904587 4.96586 0.929307 4.95626 0.968794 4.95003C1.107 4.92821 1.25506 4.90755 1.39819 4.8863C1.56599 4.86198 1.83218 4.86875 2.059 4.86547C2.37951 4.86068 2.3795 4.86122 2.80879 4.81215C2.97656 4.79272 3.26738 4.80292 3.44007 4.78568C3.49434 4.7801 3.57822 4.77092 3.56347 4.76539C3.5438 4.75819 3.44523 4.75207 3.3713 4.74829C3.30231 4.74454 3.21851 4.74232 3.14454 4.74342C2.24715 4.75281 1.35468 4.76332 0.457296 4.77217C0.304444 4.7738 0.136904 4.76067 0.0827923 4.74346C0.0286725 4.72734 0.0435973 4.70844 0.0338639 4.69046C0.176995 4.66922 0.339834 4.64975 0.463256 4.62674C0.557059 4.60895 0.665579 4.60157 0.85293 4.60181C1.09945 4.60193 1.34107 4.59713 1.61719 4.5942C2.13048 4.51858 2.63394 4.43909 3.18667 4.36376C3.40875 4.3333 3.35475 4.30035 3.39937 4.26647C3.44396 4.2353 3.77424 4.24253 3.99616 4.23541C4.1737 4.22907 4.23298 4.21212 4.16404 4.19969C4.12465 4.19236 4.03597 4.18359 3.96695 4.1831C3.80425 4.18195 3.64153 4.18568 3.47881 4.18724C3.3161 4.1888 3.12877 4.18585 2.99559 4.19413C2.86735 4.20191 2.7834 4.21977 2.69948 4.23492C2.61062 4.25166 2.48239 4.25672 2.29504 4.25648C2.05346 4.25586 1.81185 4.25903 1.57024 4.26112C1.30417 4.23807 1.02823 4.21549 0.772019 4.19142C0.722749 4.18673 0.712977 4.17418 0.717965 4.16607C0.727975 4.14497 0.654116 4.13142 0.491495 4.11996C0.353514 4.11029 0.240209 4.09701 0.112103 4.08524C0.210809 4.07129 0.319372 4.05794 0.398365 4.04276C0.571153 4.01087 0.788247 3.98853 1.16293 3.99226C1.31098 3.97214 1.42949 3.94693 1.62187 3.93363C1.80438 3.92081 2.11488 3.93712 2.25315 3.90608C2.32228 3.89082 2.42594 3.87364 2.5591 3.86807C2.77116 3.85926 3.04721 3.86664 3.17068 3.83712C3.24475 3.82028 3.35333 3.8053 3.49633 3.80197C3.65906 3.79824 3.82669 3.79834 3.94509 3.78886C4.00922 3.78389 4.0783 3.77569 4.07835 3.7681C4.07839 3.76267 3.97984 3.75491 3.91084 3.75117C3.84678 3.74692 3.76298 3.74361 3.68903 3.74417C3.4425 3.74568 3.20088 3.74994 2.95435 3.75145C2.88532 3.75205 2.80647 3.74769 2.73254 3.74391C2.51567 3.73369 2.53054 3.72294 2.70323 3.70462C2.87592 3.68685 2.99935 3.6633 3.14248 3.64205C3.30027 3.63937 3.49746 3.64239 3.606 3.63285C3.78853 3.61732 3.91689 3.5938 4.06494 3.57368C4.22766 3.57157 4.39529 3.57167 4.54816 3.56678C4.61227 3.56507 4.64193 3.55333 4.69622 3.54666C4.79491 3.53379 4.87886 3.51484 5.01202 3.50927C5.22902 3.50104 5.49522 3.50672 5.62361 3.47778C5.69768 3.46093 5.81121 3.44328 5.94926 3.44317C6.33382 3.44372 6.49673 3.41502 6.69413 3.38819C6.84218 3.36807 7.15763 3.38116 7.32048 3.36114C7.42904 3.34834 7.50804 3.33207 7.61659 3.31981C7.661 3.3147 7.75469 3.31265 7.82866 3.31154C8.23298 3.30627 8.64222 3.30319 9.04655 3.29737C9.11066 3.29619 9.16988 3.28847 9.21922 3.28231C9.32285 3.26893 9.38708 3.24984 9.51533 3.24152C9.64358 3.2332 9.82599 3.23449 9.98378 3.2329C10.4916 3.22835 10.536 3.23083 10.7631 3.1863C10.9507 3.15018 11.409 3.18002 11.5621 3.13985C11.6511 3.11659 11.8139 3.09821 12.1048 3.09755C12.514 3.09665 12.9184 3.0892 13.3276 3.08504C13.6925 3.08111 13.6875 3.08107 14.0823 3.03339C14.26 3.01185 14.5212 3.01695 14.753 3.01425C14.9995 3.01165 15.2263 3.00674 15.3449 2.98044C15.4634 2.95468 15.6804 2.94754 15.9318 2.94552C16.1636 2.94336 16.4248 2.94792 16.6074 2.9275C17.0515 2.87853 17.0466 2.87796 17.3572 2.87473C17.8453 2.8695 18.3335 2.86427 18.8216 2.8585C19.1471 2.85483 19.4872 2.85615 19.793 2.84637C20.0149 2.83926 20.1137 2.80956 20.2568 2.78941C20.6612 2.78413 21.0655 2.77885 21.4698 2.77411C22.0369 2.76727 22.6088 2.76155 23.1808 2.75528C23.4274 2.7364 23.4623 2.69105 23.8764 2.69181C24.1229 2.69247 24.3646 2.68712 24.6111 2.68453C25.0203 2.67983 25.4247 2.67292 25.8339 2.67201C26.1445 2.6715 26.199 2.64257 26.3618 2.62527C26.4161 2.61914 26.4654 2.61026 26.5295 2.60909C27.1706 2.59843 27.8312 2.59985 28.4575 2.58202C28.5216 2.58031 28.5808 2.56933 28.5957 2.56129C28.6056 2.55702 28.5218 2.54828 28.4676 2.5441C28.4036 2.5393 28.3198 2.53437 28.2508 2.53497C26.2144 2.55692 24.178 2.57941 22.1416 2.60137C21.8556 2.60477 21.8556 2.60423 21.16 2.65901C21.1008 2.66348 21.0318 2.66842 20.9578 2.66952C20.6324 2.67373 20.302 2.67519 19.9815 2.68107C19.7202 2.68573 19.5033 2.67768 19.3161 2.65682C19.1831 2.64176 19.0451 2.63644 18.8774 2.63634C18.6901 2.63664 18.5668 2.64174 18.4582 2.65563C18.3151 2.6747 18.241 2.70023 17.9402 2.70353C16.5547 2.71706 15.1691 2.73331 13.7885 2.7485C13.5963 2.73954 13.5027 2.72748 13.5521 2.71426C13.5817 2.70633 13.641 2.69589 13.7001 2.69523C14.2672 2.68784 14.8391 2.68212 15.4062 2.67528C15.4851 2.67421 15.5935 2.67606 15.6379 2.67095C15.855 2.64806 15.9342 2.60899 16.3434 2.60918C16.5801 2.60922 16.8217 2.60279 17.0485 2.5968C17.1127 2.59508 17.1719 2.5841 17.1867 2.57606C17.1966 2.57125 17.1129 2.56306 17.0537 2.55884C16.8369 2.54156 16.5854 2.55878 16.3685 2.54639C16.2946 2.54206 16.1911 2.5359 16.1813 2.52932C16.1715 2.52328 16.2553 2.5141 16.3146 2.50855C16.3688 2.50351 16.4428 2.49915 16.5168 2.49804C17.1676 2.49016 17.8185 2.48174 18.4693 2.47658C18.7356 2.47467 18.923 2.46242 19.0415 2.43829C19.1304 2.42047 19.2389 2.41146 19.4066 2.40994C20.5456 2.39792 21.6846 2.38372 22.8285 2.37337C23.1145 2.37105 23.2625 2.35418 23.381 2.33168C23.4748 2.31389 23.5833 2.30814 23.7657 2.30618C25.3978 2.28951 27.02 2.26951 28.6521 2.25392C28.9529 2.25116 29.0418 2.22845 29.1948 2.20945C29.249 2.20332 29.2836 2.19434 29.3527 2.19048C29.4217 2.18663 29.5104 2.1878 29.5943 2.18731C30.896 2.17318 32.1977 2.15743 33.5043 2.14497C33.81 2.14224 33.8694 2.11552 34.0273 2.09764C34.0816 2.09206 34.1309 2.08264 34.195 2.08146C35.1713 2.06992 36.1476 2.05946 37.1239 2.04846C37.7748 2.04112 38.4256 2.03379 39.0765 2.027C39.2901 2.02489 39.5417 2.00749 39.8312 1.9748C39.8805 1.96918 39.9496 1.96261 40.0137 1.96144C41.8874 1.93996 43.7561 1.92008 45.6298 1.89914C45.7876 1.89755 45.9011 1.88587 45.9801 1.86797C46.0591 1.85007 46.1726 1.83839 46.3254 1.83676C47.7899 1.81999 49.2543 1.80375 50.7237 1.78864C50.9899 1.78619 51.1774 1.77449 51.2959 1.7509C51.3847 1.73307 51.4933 1.72407 51.6609 1.72254C53.1253 1.70685 54.5898 1.68954 56.0591 1.67497C56.3402 1.67207 56.4783 1.6546 56.6165 1.63386C56.6659 1.62661 56.7054 1.61441 56.7646 1.61374C57.4943 1.60371 58.2192 1.5931 58.9538 1.58798C59.2595 1.58581 59.3632 1.56374 59.4866 1.5429C59.5854 1.52623 59.6988 1.52106 59.8862 1.52022C60.2954 1.51823 60.6997 1.51187 61.0991 1.50547C61.1583 1.50426 61.2323 1.49284 61.2373 1.48527C61.2473 1.47123 61.134 1.46066 60.9467 1.45445C58.9941 1.47591 57.0366 1.49733 55.084 1.51879C54.8703 1.52126 54.6188 1.53866 54.3293 1.57099C54.2799 1.57661 54.2109 1.58318 54.1468 1.58435C52.2731 1.60529 50.4043 1.62571 48.5307 1.64665C48.3729 1.64824 48.2594 1.65992 48.1804 1.67782C48.1014 1.69572 47.9879 1.7074 47.835 1.70903C46.0452 1.72893 44.2553 1.74937 42.4605 1.7676C42.1943 1.77006 42.0068 1.78122 41.8883 1.80535C41.7995 1.82318 41.6909 1.83218 41.5233 1.83371C39.8123 1.85199 38.1063 1.87194 36.3904 1.88911C36.2178 1.8906 36.0898 1.87395 36.0997 1.85991C36.0998 1.85231 36.1787 1.84038 36.2379 1.83972C37.1304 1.82812 38.0179 1.81595 38.9153 1.80873C39.2161 1.80652 39.305 1.78326 39.458 1.76426C39.5073 1.75756 39.5468 1.74861 39.6109 1.74526C39.68 1.74141 39.7687 1.74258 39.8526 1.74209C41.9678 1.71852 44.0831 1.69441 46.2033 1.67305C46.509 1.66979 46.5684 1.64361 46.7263 1.62573C46.7806 1.6196 46.8299 1.61018 46.894 1.60955C47.5449 1.60113 48.1958 1.59434 48.8466 1.58755C49.9856 1.57498 51.1246 1.56242 52.2686 1.54989C52.4888 1.54747 52.7404 1.53025 53.0233 1.49824C53.0726 1.49261 53.1417 1.4855 53.2058 1.48487C56.2185 1.45138 59.2311 1.41788 62.2438 1.38492C62.4016 1.38333 62.5151 1.37164 62.5941 1.35375C62.6731 1.3364 62.7817 1.32414 62.9395 1.322C67.0122 1.27701 71.0801 1.23198 75.1529 1.18807C75.4192 1.18507 75.6066 1.175 75.7251 1.15033C75.809 1.13247 75.9225 1.1235 76.0901 1.12143C80.5672 1.07224 85.0444 1.02306 89.5264 0.973363C92.5391 0.940408 95.5518 0.906368 98.5644 0.874499C98.8406 0.871568 98.9886 0.855789 99.1268 0.834512C99.1712 0.827227 99.2157 0.815058 99.2748 0.814391C99.9208 0.805393 100.567 0.797481 101.213 0.789569C101.415 0.805655 101.617 0.821198 101.819 0.837284C101.972 0.81774 102.12 0.797619 102.273 0.778075C103.249 0.769244 104.211 0.751624 105.197 0.751005C105.261 0.751459 105.33 0.761718 105.399 0.767634C105.857 0.805075 106.118 0.80421 106.409 0.760676C106.513 0.745125 106.602 0.731099 106.76 0.729502C107.248 0.723187 107.741 0.720163 108.224 0.712185C108.485 0.708064 108.702 0.71557 108.89 0.735893C109.023 0.750948 109.161 0.757896 109.323 0.755791C110.221 0.745859 111.113 0.736435 112.011 0.725418C112.075 0.724786 112.134 0.715977 112.183 0.709813C112.287 0.696434 112.376 0.681864 112.474 0.667907C112.607 0.678076 112.755 0.68618 112.869 0.698923C113.007 0.714013 113.135 0.71492 113.322 0.712447C116.902 0.672107 120.487 0.633431 124.066 0.592548C124.372 0.589284 124.505 0.613023 124.712 0.62643C124.781 0.631261 124.85 0.637177 124.924 0.638786C125.003 0.64043 125.086 0.637767 125.165 0.636697C127.853 0.606867 130.54 0.577579 133.227 0.547749C133.464 0.545082 133.758 0.556211 134.109 0.581135C134.174 0.585931 134.257 0.591409 134.326 0.59027C135.549 0.577756 136.772 0.563614 137.99 0.550523C138.148 0.548926 138.281 0.558553 138.424 0.572049C138.704 0.598463 138.724 0.598603 138.931 0.564245C139.03 0.548117 139.134 0.538537 139.296 0.534804C139.474 0.530632 139.617 0.533273 139.755 0.54402C139.952 0.558985 140.095 0.582794 140.396 0.578952C141.697 0.562655 143.004 0.550735 144.301 0.53386C144.597 0.529983 144.754 0.549555 144.951 0.56452C145.02 0.569894 145.084 0.577946 145.158 0.580098C145.232 0.58225 145.321 0.579079 145.4 0.578009C147.027 0.560215 148.659 0.542999 150.281 0.523C150.587 0.519193 150.72 0.543475 150.927 0.556882C150.996 0.561713 151.075 0.56987 151.139 0.569238C152.115 0.559322 153.096 0.548355 154.073 0.537353C154.423 0.533318 154.423 0.533861 154.955 0.570739C155.019 0.575535 155.103 0.580471 155.172 0.579874C156.311 0.567853 157.455 0.555324 158.594 0.54276C158.827 0.540069 159.281 0.550517 159.954 0.574103C160.028 0.576798 160.107 0.580613 160.181 0.580051C161.483 0.565924 162.79 0.552376 164.086 0.536586C164.348 0.533551 164.565 0.539972 164.752 0.560295C164.885 0.57535 165.023 0.582297 165.185 0.580192C166.65 0.563961 168.119 0.548851 169.579 0.530956C169.86 0.527518 170.042 0.54075 170.239 0.557887C170.303 0.563768 170.367 0.571821 170.441 0.574515C170.515 0.57721 170.599 0.575632 170.678 0.574562C172.142 0.558331 173.612 0.543763 175.071 0.525326C175.367 0.521449 175.525 0.54102 175.722 0.555986C175.791 0.561359 175.865 0.571653 175.924 0.571529C176.496 0.56635 177.068 0.562256 177.635 0.5527C177.941 0.547265 178.073 0.573175 178.28 0.586582C178.349 0.59087 178.428 0.59957 178.492 0.598938C179.715 0.586425 180.938 0.572826 182.156 0.558649C182.328 0.556614 182.457 0.562407 182.595 0.577496C182.777 0.597785 182.989 0.606884 183.255 0.602798C183.822 0.594327 184.394 0.589691 184.961 0.583392C185.185 0.580994 185.638 0.591622 186.322 0.615278C186.396 0.617973 186.474 0.621788 186.548 0.621226C187.525 0.610767 188.506 0.600885 189.477 0.588763C189.739 0.585185 189.955 0.592148 190.143 0.612472C190.276 0.627526 190.414 0.634474 190.576 0.632369C191.474 0.622437 192.366 0.612471 193.264 0.602539C193.589 0.598872 193.915 0.590862 194.24 0.593166C194.477 0.594841 194.649 0.622658 194.861 0.637186C194.92 0.641404 195.019 0.638303 195.098 0.637233C196.237 0.624669 197.38 0.613768 198.515 0.598455C198.81 0.594579 198.968 0.61415 199.165 0.629115C199.234 0.634489 199.308 0.644782 199.367 0.644116C199.776 0.641042 200.181 0.635762 200.59 0.631602C201.078 0.626373 201.571 0.623349 202.054 0.614828C202.449 0.60785 202.596 0.656119 202.912 0.659981C203.154 0.663319 203.4 0.655837 203.642 0.653205C204.13 0.647975 204.618 0.64166 205.106 0.637516C205.279 0.636024 205.412 0.628282 205.466 0.609125C205.476 0.605396 205.392 0.596661 205.338 0.591392C204.901 0.551389 204.463 0.533808 204.022 0.538651C203.613 0.543354 203.209 0.548091 202.799 0.551708C202.73 0.552305 202.651 0.547404 202.582 0.543659C202.385 0.533036 202.405 0.52232 202.573 0.503966C202.741 0.485613 202.869 0.462638 203.012 0.441396C203.214 0.456939 203.411 0.472447 203.613 0.48799C203.776 0.486428 203.939 0.484323 204.101 0.482761C204.915 0.474407 205.729 0.46551 206.542 0.458242C206.601 0.457575 206.675 0.468954 206.744 0.47487C206.941 0.492007 207.119 0.506833 207.405 0.502887C208.134 0.492311 208.869 0.486112 209.599 0.477708C209.812 0.47524 210.107 0.48655 210.481 0.511637C210.545 0.51589 210.629 0.520825 210.698 0.520228C211.433 0.512944 212.162 0.50454 212.897 0.496713C213.055 0.495116 213.208 0.503254 213.321 0.519797C213.365 0.526625 213.355 0.537411 213.542 0.627753C214.123 0.70406 214.523 0.699288 214.927 0.695637C215.1 0.694144 215.252 0.692512 215.366 0.682459C215.425 0.676908 215.499 0.668747 215.499 0.66169C215.499 0.656263 215.391 0.64681 215.322 0.645236C214.834 0.630926 214.37 0.650442 213.892 0.651942C213.67 0.652542 213.478 0.632184 213.439 0.600966C213.429 0.592212 213.414 0.58288 213.399 0.574091L213.36 0.547216C213.168 0.543141 213.054 0.552108 212.971 0.569969C212.901 0.584678 212.803 0.601349 212.67 0.608549C212.536 0.616291 212.354 0.613371 212.191 0.614934C212.033 0.616531 211.861 0.622366 211.713 0.617519C211.565 0.61213 211.447 0.595552 211.309 0.584804C211.245 0.579466 211.166 0.571851 211.102 0.572483C210.535 0.577697 209.973 0.582946 209.411 0.590908C209.115 0.595328 208.972 0.571519 208.78 0.556046C208.632 0.544143 208.484 0.54581 208.459 0.570603C208.395 0.629855 208.621 0.656429 209.124 0.64859C209.539 0.641751 209.913 0.642775 210.238 0.681988C210.283 0.687187 210.386 0.690091 210.45 0.689459C210.855 0.685807 211.254 0.680493 211.658 0.676841C211.732 0.676279 211.811 0.679008 211.88 0.681668C212.886 0.718098 212.886 0.71864 213.226 0.714535C213.389 0.71243 213.546 0.710833 213.532 0.628226C213.843 0.541951 214.336 0.539471 214.815 0.529829C215.121 0.523851 215.258 0.548711 215.46 0.562625C215.529 0.567456 215.603 0.576664 215.667 0.576032C216.728 0.565624 217.783 0.554095 218.838 0.541481C219.015 0.53948 219.144 0.543644 219.281 0.558734C219.459 0.577902 219.656 0.590696 219.937 0.586172C220.499 0.577124 221.076 0.573065 221.643 0.566223C221.837 0.563977 222.129 0.575456 222.52 0.60066C222.584 0.604913 222.668 0.609848 222.737 0.609251C223.309 0.604072 223.876 0.596687 224.443 0.590931C224.601 0.589334 224.744 0.597945 224.867 0.613472C224.99 0.629 225.138 0.637646 225.291 0.636013C225.863 0.630292 226.43 0.62345 226.997 0.617693C227.066 0.617096 227.15 0.621489 227.214 0.625742C227.615 0.651015 227.907 0.662494 228.091 0.660178C228.496 0.654898 228.91 0.65403 229.309 0.646002C229.699 0.637903 229.901 0.670815 230.167 0.690069C230.897 0.68275 231.631 0.677637 232.356 0.667569C232.652 0.66315 232.809 0.682178 233.012 0.697722C233.081 0.703095 233.149 0.713897 233.214 0.713807C233.46 0.713381 233.702 0.709121 233.943 0.706489C234.185 0.703856 234.431 0.701259 234.673 0.698627C234.949 0.716322 235.131 0.754522 235.526 0.74483C235.762 0.738906 236.014 0.739058 236.255 0.736426C236.497 0.733794 236.744 0.731196 236.985 0.728564C237.148 0.727002 237.316 0.72656 237.473 0.722792C237.764 0.716709 237.907 0.744317 238.114 0.757724C238.183 0.762012 238.262 0.769084 238.326 0.768452C238.814 0.764308 239.307 0.761285 239.785 0.752186C240.155 0.745034 240.407 0.763097 240.668 0.787743C240.722 0.793012 240.816 0.796389 240.885 0.795792C241.457 0.790613 242.024 0.783228 242.591 0.777471C242.744 0.775839 242.891 0.785571 243.014 0.800556C243.143 0.816118 243.286 0.824186 243.443 0.822589C244.01 0.816832 244.582 0.810025 245.149 0.804269C245.218 0.803672 245.302 0.808607 245.366 0.813403C245.918 0.850964 245.918 0.850964 246.244 0.847297C246.322 0.846227 246.406 0.845735 246.485 0.844665C246.889 0.839927 247.309 0.84018 247.703 0.829945C248.157 0.818501 248.487 0.839293 248.807 0.8725C249.211 0.868849 249.626 0.867981 250.02 0.859917C250.316 0.853869 250.474 0.875612 250.671 0.890577C250.74 0.895951 250.814 0.906244 250.873 0.905578C251.445 0.900399 252.017 0.896305 252.579 0.886714C252.884 0.881279 253.017 0.906646 253.224 0.920596C253.293 0.925427 253.367 0.933549 253.431 0.932917C253.757 0.930879 254.082 0.926669 254.408 0.923001C254.787 0.918632 254.787 0.919175 255.29 0.955844C255.527 0.97326 255.763 0.962451 255.995 0.960292C256.242 0.957695 256.473 0.956078 256.67 0.979728C256.793 0.994713 256.941 1.00444 257.094 1.00336C257.42 1.00077 257.75 0.998227 258.07 0.992354C258.327 0.987655 258.549 0.993568 258.736 1.01498C258.869 1.03003 259.007 1.03806 259.17 1.03596C259.899 1.0281 260.634 1.01973 261.364 1.01241C261.428 1.01178 261.517 1.01729 261.576 1.02259C261.714 1.03334 261.847 1.04514 261.98 1.05694C262.3 1.05432 262.631 1.05449 262.946 1.04912C263.281 1.0439 263.587 1.04335 263.848 1.07505C263.902 1.08195 263.986 1.09177 264.045 1.09164C264.292 1.09122 264.533 1.0875 264.775 1.08487C265.017 1.08223 265.263 1.07964 265.505 1.07701C265.786 1.09256 265.963 1.1329 266.357 1.12321C266.594 1.11728 266.846 1.11744 267.087 1.1148C267.329 1.11217 267.575 1.10903 267.817 1.10694C267.896 1.10642 267.985 1.10433 268.054 1.10699C268.128 1.10968 268.192 1.11774 268.256 1.12362C268.453 1.14075 268.635 1.15779 268.916 1.15055C269.153 1.14462 269.404 1.14478 269.646 1.1416C269.866 1.13918 270.159 1.15066 270.523 1.17604C270.745 1.19172 270.997 1.17505 271.208 1.18849C271.356 1.19768 271.475 1.21208 271.613 1.22229C271.672 1.22651 271.765 1.2288 271.834 1.2282C272.16 1.22562 272.49 1.22307 272.811 1.2172C273.072 1.21254 273.289 1.22058 273.471 1.24142C273.604 1.25647 273.737 1.26338 273.905 1.26131C274.718 1.25187 275.532 1.2446 276.341 1.2335C276.617 1.22949 276.839 1.24028 276.991 1.26091C277.252 1.29641 277.622 1.2594 277.893 1.28846C278.061 1.30647 278.228 1.3272 278.534 1.32122C279.096 1.31109 279.668 1.30754 280.235 1.30178C280.437 1.31787 280.639 1.33395 280.846 1.35007C281.172 1.34641 281.497 1.34274 281.822 1.33961C282.064 1.33698 282.311 1.33384 282.552 1.33175C282.631 1.33123 282.715 1.32965 282.789 1.33289C282.863 1.33612 282.922 1.3436 282.991 1.34951C283.331 1.37852 283.331 1.37906 283.893 1.37218C284.135 1.36901 284.366 1.36739 284.568 1.39053C284.755 1.41194 284.977 1.41731 285.234 1.41316C285.717 1.40572 286.205 1.40104 286.698 1.39693C286.851 1.39529 286.994 1.40553 287.122 1.42055C287.314 1.44417 287.551 1.44367 287.792 1.43941C288.113 1.43408 288.428 1.42872 288.699 1.46103C288.754 1.46793 288.837 1.47775 288.897 1.47762C289.301 1.47614 289.71 1.47578 290.105 1.46826C290.499 1.46074 290.691 1.49576 290.962 1.51396C291.366 1.50976 291.776 1.5056 292.18 1.50141C292.259 1.50034 292.353 1.49612 292.422 1.49932C292.712 1.51278 292.88 1.55467 293.279 1.54502C293.511 1.5396 293.762 1.53921 294.004 1.53929C294.068 1.53974 294.152 1.54902 294.196 1.55639C294.221 1.56037 294.196 1.5705 294.166 1.57572C294.078 1.59029 293.969 1.60364 293.89 1.61882C293.88 1.62092 293.974 1.63135 294.028 1.63608C294.161 1.64679 294.314 1.64625 294.491 1.64316C294.644 1.64044 294.802 1.64916 294.91 1.66621C294.955 1.67304 294.94 1.68379 294.846 1.71895C294.846 1.74554 294.949 1.73434 294.984 1.71721C295.038 1.69263 294.935 1.68375 294.737 1.69593C294.599 1.70472 294.53 1.71834 294.565 1.72999C294.584 1.7361 294.678 1.74436 294.846 1.71895C295.28 1.68945 295.605 1.68578 295.931 1.68212C296.015 1.68108 296.113 1.67635 296.172 1.68003C296.384 1.69456 296.581 1.71169 296.788 1.72781C297.025 1.72623 297.247 1.71966 297.478 1.74247C297.804 1.77463 297.818 1.77202 298.134 1.76828C298.297 1.76617 298.459 1.76461 298.622 1.76305C298.785 1.76149 298.913 1.77054 299.056 1.78403C299.347 1.8116 299.371 1.81178 299.564 1.7784C299.677 1.75803 299.756 1.75154 299.899 1.76232C300.372 1.79878 300.377 1.80098 300.781 1.79408C301.117 1.78831 301.432 1.78837 301.679 1.82105C301.846 1.84395 301.9 1.83945 302.038 1.81763C302.394 1.75989 302.557 1.76213 303.222 1.81027C303.532 1.83309 303.853 1.8131 304.168 1.81262C304.435 1.81234 304.622 1.82669 304.641 1.86102C304.656 1.8823 304.7 1.89781 304.878 1.90612C304.947 1.90932 305.031 1.91372 305.1 1.91312C305.509 1.9095 305.913 1.90477 306.322 1.90006C306.529 1.89773 306.643 1.87302 306.604 1.83909C306.56 1.80295 306.639 1.79049 306.935 1.78227C307.112 1.77755 307.255 1.77965 307.398 1.79043C307.556 1.8024 307.511 1.81186 307.373 1.83042C307.042 1.87585 307.082 1.90544 307.505 1.94155C307.653 1.954 307.771 1.96515 307.806 1.98222C307.825 1.99104 307.806 2.0023 307.85 2.00913C308.091 2.0472 308.426 2.07291 308.801 2.09294C309.161 2.08083 309.407 2.107 309.683 2.12849C309.9 2.14523 310.156 2.13401 310.388 2.13023C310.65 2.12611 310.866 2.13198 311.054 2.15339C311.187 2.16845 311.325 2.17594 311.487 2.17438C311.813 2.17071 312.143 2.16925 312.464 2.16283C312.74 2.15719 312.947 2.16951 313.119 2.18918C313.336 2.21406 313.578 2.20003 313.804 2.20489C314.11 2.21085 314.263 2.26024 314.662 2.25004C314.899 2.24412 315.145 2.24315 315.392 2.24272C315.456 2.24264 315.535 2.25242 315.589 2.25932C315.85 2.29102 316.156 2.29156 316.491 2.28524C316.723 2.28091 316.95 2.27709 317.176 2.29932C317.551 2.33671 317.964 2.37004 318.359 2.40486C318.413 2.43021 318.373 2.45924 318.654 2.47588C318.802 2.48453 318.94 2.4969 319.053 2.51019C319.191 2.52582 319.319 2.53053 319.497 2.52799C319.817 2.52266 320.153 2.5234 320.468 2.51587C320.759 2.50924 320.941 2.52844 321.119 2.54653C321.262 2.56111 321.395 2.56856 321.567 2.56001C321.745 2.55204 321.873 2.55892 322.016 2.57459C322.218 2.5961 322.233 2.59404 322.903 2.60475C322.972 2.60578 323.056 2.61452 323.095 2.62185C323.115 2.62579 323.07 2.63633 323.036 2.64152C322.991 2.64772 322.922 2.65483 322.858 2.656C322.129 2.66495 321.394 2.67223 320.664 2.68118C320.59 2.68229 320.511 2.68553 320.457 2.69057C320.398 2.69612 320.324 2.70374 320.324 2.71134C320.324 2.71677 320.422 2.72398 320.491 2.72827C320.708 2.74229 320.965 2.7251 321.176 2.74072C321.319 2.75096 321.438 2.76482 321.581 2.77452C321.64 2.77873 321.733 2.77886 321.807 2.77829C322.054 2.77624 322.295 2.77252 322.542 2.77101C322.611 2.77095 322.69 2.77694 322.754 2.78174C323.227 2.81765 323.227 2.81765 323.636 2.81349C323.799 2.81193 323.972 2.80501 324.124 2.80935C324.272 2.81365 324.4 2.82922 324.533 2.83939C324.809 2.86088 325.07 2.88173 325.09 2.9242C325.1 2.94056 325.262 2.95582 325.425 2.95806C325.583 2.96026 325.75 2.95548 325.913 2.95337C326.169 2.95084 326.464 2.96179 326.795 2.98621C326.933 2.99642 327.081 2.99855 327.259 2.99438C327.328 2.9927 327.412 2.99546 327.485 2.9987C327.727 3.00855 327.727 3.01886 327.569 3.03729C327.347 3.06448 327.367 3.06734 327.988 3.09616C328.224 3.10706 328.407 3.12572 328.604 3.14232C328.924 3.16901 328.919 3.16897 328.707 3.1995C328.657 3.20621 328.613 3.21349 328.564 3.22074C328.421 3.2409 328.307 3.26289 328.011 3.26297C327.686 3.26284 327.36 3.26922 327.035 3.27288C326.719 3.27662 326.635 3.28905 326.665 3.32617C326.699 3.37093 326.763 3.37626 327.33 3.37973C327.493 3.38089 327.636 3.38624 327.759 3.40177C327.699 3.41872 327.591 3.43152 327.433 3.43366C327.029 3.43894 326.62 3.4431 326.215 3.44729C325.89 3.45096 325.564 3.45463 325.239 3.4583C325.037 3.46066 324.908 3.48798 324.962 3.51985C324.992 3.53797 325.016 3.55605 325.041 3.57414C325.095 3.61035 325.198 3.62031 325.529 3.62102C325.612 3.62161 325.691 3.61728 325.77 3.61893C326.091 3.625 326.243 3.67113 326.628 3.66462C326.948 3.65929 327.284 3.66004 327.599 3.6525C327.89 3.64588 328.053 3.66657 328.255 3.68265C328.324 3.68803 328.398 3.69886 328.457 3.69874C328.866 3.69567 329.275 3.69259 329.675 3.68511C329.862 3.68209 329.975 3.68615 330.123 3.70022C330.478 3.73422 330.488 3.73266 331.015 3.72662C331.4 3.72174 331.405 3.72287 331.898 3.75946C332.036 3.76967 332.184 3.77072 332.361 3.76763C332.593 3.76384 332.835 3.75687 333.076 3.76672C333.15 3.76941 333.244 3.77659 333.268 3.78382C333.283 3.78881 333.214 3.80026 333.155 3.80364C332.721 3.8288 332.213 3.82032 331.739 3.82837C331.592 3.83058 331.444 3.81922 331.321 3.80423C331.192 3.78867 331.054 3.78172 330.887 3.78325C330.561 3.78692 330.231 3.78838 329.911 3.79479C329.634 3.80044 329.442 3.78659 329.25 3.76841C329.186 3.76252 329.112 3.75169 329.048 3.75178C328.318 3.75747 327.584 3.76312 326.859 3.77319C326.568 3.77765 326.4 3.75909 326.203 3.74304C326.134 3.73766 326.065 3.72686 326.001 3.72695C325.755 3.72738 325.513 3.73164 325.267 3.73424C324.369 3.74417 323.477 3.75414 322.579 3.76298C322.52 3.76365 322.446 3.75173 322.377 3.74635C322.244 3.73564 322.106 3.72544 321.968 3.71523C321.722 3.71783 321.48 3.72155 321.234 3.72306C321.056 3.72397 320.898 3.73046 320.873 3.75091C320.859 3.76437 321.021 3.77801 321.194 3.77814C321.361 3.77824 321.529 3.77292 321.667 3.78095C322.352 3.82054 322.352 3.82108 322.781 3.81706C323.156 3.8132 323.116 3.80749 323.447 3.83969C323.589 3.85372 323.718 3.86223 323.88 3.86013C324.285 3.85539 324.694 3.85069 325.103 3.84707C325.167 3.84644 325.251 3.85246 325.315 3.85725C325.798 3.89324 325.798 3.89433 326.197 3.88901C326.72 3.88294 326.74 3.88037 327.09 3.91595C327.331 3.94046 327.553 3.92629 327.785 3.92685C328.051 3.9499 328.341 3.97095 328.583 3.99655C328.869 4.0268 329.169 4.02404 329.495 4.0182C329.736 4.01394 329.973 4.01344 330.17 4.03709C330.357 4.05905 330.584 4.06282 330.84 4.05921C331.072 4.05596 331.309 4.04733 331.55 4.06098C331.615 4.06469 331.713 4.07353 331.708 4.07838C331.703 4.08594 331.639 4.09634 331.575 4.09915C331.121 4.11819 330.623 4.11412 330.145 4.12105C330.081 4.12223 329.997 4.11566 329.933 4.11087C329.795 4.10012 329.662 4.08778 329.529 4.07652C329.287 4.07807 329.041 4.07741 328.804 4.08225C328.622 4.08584 328.484 4.08432 328.351 4.07035C328.227 4.05754 328.094 4.04194 327.947 4.0371C327.799 4.03225 327.626 4.03917 327.463 4.04127C327.301 4.04338 327.113 4.04042 326.985 4.0482C326.857 4.05598 326.778 4.07442 326.694 4.08902C326.6 4.10519 326.472 4.10971 326.285 4.11001C326.112 4.11041 325.974 4.10781 325.846 4.09116C325.792 4.08426 325.718 4.07886 325.644 4.07399C325.575 4.0697 325.496 4.06317 325.432 4.0638C324.697 4.07109 323.967 4.07949 323.233 4.08732C322.99 4.08994 322.617 4.0788 322.114 4.05389C322.045 4.05068 321.961 4.04629 321.892 4.04689C321.483 4.05051 321.078 4.05524 320.669 4.05995C320.255 4.06461 320.26 4.06356 319.555 4.02438C319.427 4.01696 319.24 4.02431 319.087 4.02215C318.766 4.01716 318.609 3.97045 318.229 3.97645C317.909 3.98178 317.573 3.98104 317.253 3.98854C316.962 3.99516 316.795 3.97498 316.597 3.95893C316.528 3.95356 316.455 3.94218 316.395 3.94284C315.661 3.94958 314.931 3.95799 313.955 3.95271C313.713 3.951 313.822 3.96316 313.979 3.96808C314.206 3.97566 314.28 3.96478 314.157 3.9422C314.068 3.92637 313.94 3.91786 313.837 3.92093C313.782 3.92272 313.713 3.93254 313.955 3.95271C314.211 3.97515 314.196 3.98644 314.24 3.99327C314.349 4.00978 314.502 4.01737 314.659 4.01632C314.906 4.01426 315.148 4.01055 315.394 4.00903C315.463 4.00844 315.547 4.01283 315.611 4.01763C316.153 4.05512 316.158 4.05732 316.735 4.04838C316.917 4.04587 317.05 4.04681 317.193 4.05814C317.39 4.07365 317.533 4.09854 317.834 4.09307C318.233 4.08558 318.643 4.08251 319.052 4.07944C319.116 4.0788 319.185 4.08906 319.259 4.09393C319.461 4.10839 319.609 4.13386 319.909 4.12568C320.141 4.11917 320.393 4.11878 320.639 4.1189C320.703 4.11935 320.802 4.12819 320.831 4.13546C320.89 4.14836 320.816 4.16249 320.649 4.17162C320.58 4.17547 320.486 4.17372 320.407 4.17479C320.082 4.17846 319.756 4.18267 319.431 4.18525C319.258 4.18674 319.095 4.19373 319.076 4.21368C319.061 4.22714 319.238 4.24034 319.406 4.24044C319.652 4.24056 319.899 4.23796 320.135 4.23258C320.555 4.2236 320.919 4.22944 321.259 4.26605C321.501 4.29164 321.486 4.28285 321.742 4.35523C321.806 4.37359 321.998 4.37658 322.166 4.37668C322.57 4.37683 322.757 4.3863 322.723 4.40288C322.678 4.42319 322.535 4.42869 322.353 4.43012C322.027 4.43215 321.702 4.43691 321.376 4.44057C321.298 4.44164 321.209 4.44427 321.135 4.44266C321.061 4.44105 320.992 4.43405 320.928 4.42871C320.79 4.41742 320.672 4.40085 320.524 4.396C320.376 4.39115 320.203 4.39807 320.041 4.40018C319.878 4.40174 319.705 4.40866 319.557 4.40381C319.41 4.39897 319.286 4.38181 319.153 4.3711C319.089 4.36576 319.01 4.3576 318.946 4.35769C318.621 4.35973 318.296 4.36448 317.97 4.36761C317.704 4.37043 317.41 4.35948 317.088 4.33477C316.95 4.32402 316.807 4.32355 316.629 4.32664C316.235 4.33253 316.23 4.33086 315.51 4.29429C315.441 4.29054 315.358 4.28615 315.289 4.28729C314.554 4.29457 313.824 4.30298 313.094 4.31084C312.677 4.31548 312.353 4.33508 312.123 4.36964C311.866 4.40799 311.861 4.40796 312.112 4.42819C312.314 4.44482 312.497 4.46837 312.718 4.47808C312.925 4.48714 313.182 4.46453 313.404 4.49107C313.517 4.50436 313.665 4.51897 313.808 4.52161C314.035 4.52593 314.276 4.5119 314.493 4.53732C314.601 4.55003 314.764 4.56366 314.902 4.56518C315.144 4.56798 315.39 4.56104 315.632 4.55895C315.706 4.55839 315.79 4.55898 315.859 4.56219C315.932 4.56597 315.996 4.57293 316.061 4.57881C316.258 4.59866 316.47 4.60885 316.726 4.60144C317.145 4.58921 317.52 4.59946 317.845 4.6365C317.889 4.6417 317.998 4.64301 318.067 4.64132C318.244 4.63715 318.397 4.63769 318.525 4.64891C318.579 4.65364 318.658 4.6618 318.648 4.66661C318.633 4.67465 318.574 4.68509 318.51 4.68735C318.047 4.70252 317.549 4.70117 317.07 4.70755C317.006 4.70818 316.927 4.70057 316.863 4.69523C316.725 4.68394 316.607 4.66736 316.459 4.66251C316.311 4.65767 316.139 4.6635 315.976 4.66507C315.813 4.66663 315.641 4.67355 315.493 4.66924C315.345 4.6644 315.207 4.64985 315.089 4.63707C314.951 4.62253 314.818 4.61995 314.635 4.62409C314.399 4.62947 314.152 4.62881 313.911 4.6309C313.778 4.61965 313.644 4.60731 313.506 4.59656C313.442 4.59122 313.364 4.58469 313.295 4.58475C312.969 4.58678 312.644 4.591 312.318 4.59466C311.993 4.59833 311.993 4.59833 311.441 4.56077C311.377 4.55652 311.293 4.55158 311.224 4.55218C310.815 4.55579 310.41 4.56107 310.001 4.56469C309.843 4.56629 309.701 4.55768 309.572 4.54211C309.449 4.52659 309.301 4.5174 309.149 4.51903C308.498 4.52582 307.847 4.53207 307.196 4.54103C306.935 4.54461 306.713 4.53761 306.531 4.51732C306.324 4.4936 306.092 4.49739 305.85 4.50002C305.303 4.50701 305.298 4.50643 304.948 4.47627C304.879 4.47035 304.81 4.45955 304.746 4.45964C304.179 4.46377 303.607 4.46732 303.045 4.47637C302.749 4.48133 302.592 4.46122 302.395 4.44571C302.326 4.44033 302.252 4.4295 302.192 4.43016C301.783 4.43324 301.374 4.43577 300.975 4.4438C300.575 4.45183 300.423 4.40027 300.122 4.39868C299.713 4.39633 299.308 4.40595 298.904 4.41069C298.579 4.41435 298.253 4.41802 297.928 4.42169C297.602 4.42536 297.277 4.42794 296.952 4.43269C296.779 4.43527 296.651 4.42948 296.508 4.41489C296.326 4.39569 296.109 4.38004 295.912 4.36236C295.711 4.34538 295.49 4.33821 295.246 4.34083C295.167 4.3419 295.084 4.34239 295.005 4.34346C294.408 4.35118 294.408 4.35009 293.649 4.31052C293.615 4.30865 293.526 4.31399 293.491 4.31809C293.388 4.33147 293.294 4.346 293.2 4.36C293.067 4.35091 292.904 4.34433 292.816 4.33122C292.564 4.29416 292.165 4.33964 291.914 4.30312C291.82 4.28943 291.657 4.27688 291.51 4.27258C291.357 4.26824 291.184 4.27462 291.026 4.27676C290.617 4.282 290.617 4.28146 290.267 4.32729C290.089 4.34991 289.833 4.34376 289.601 4.34755C289.359 4.35181 289.128 4.35342 288.926 4.32974C288.743 4.30836 288.522 4.30191 288.26 4.30657C287.94 4.31245 287.609 4.31499 287.284 4.31757C287.215 4.31817 287.131 4.31486 287.062 4.31112C286.308 4.27375 286.308 4.27321 285.943 4.27769C285.78 4.27979 285.613 4.27969 285.455 4.28346C285.189 4.29026 284.987 4.27743 284.795 4.2587C284.73 4.25282 284.657 4.24198 284.592 4.24207C284.267 4.24248 283.947 4.2451 283.626 4.24771C283.38 4.24977 283.133 4.25019 282.896 4.25612C282.502 4.26581 282.31 4.22917 282.039 4.21097C281.634 4.21516 281.225 4.21715 280.821 4.22406C280.633 4.22707 280.51 4.22457 280.367 4.21053C280.185 4.19296 280.018 4.17332 279.722 4.17936C279.327 4.18743 278.913 4.1883 278.509 4.19195C278.238 4.1732 278.041 4.13761 277.651 4.14734C277.415 4.15326 277.163 4.15311 276.921 4.15574C276.596 4.15941 276.271 4.16253 275.945 4.16674C275.595 4.17078 275.6 4.16919 275.063 4.13336C274.752 4.11216 274.432 4.13106 274.116 4.13209C273.87 4.13305 273.746 4.15715 273.805 4.18959C273.864 4.22204 273.731 4.24606 273.504 4.2488C272.937 4.2551 272.365 4.2619 271.798 4.26712C271.729 4.26772 271.645 4.26332 271.581 4.25907C271.177 4.23341 270.885 4.22175 270.704 4.22409C270.299 4.22937 269.885 4.23078 269.486 4.23827C269.21 4.24337 269.008 4.23054 268.83 4.21083C268.692 4.19574 268.564 4.19158 268.387 4.19358C266.434 4.21612 264.482 4.23595 262.534 4.25962C262.243 4.26299 262.076 4.24606 261.878 4.23001C261.809 4.22464 261.745 4.21387 261.676 4.21338C261.514 4.21223 261.351 4.21596 261.188 4.21807C260.458 4.22593 259.729 4.23651 258.994 4.24108C258.683 4.24322 258.599 4.26759 258.466 4.28728C258.363 4.30229 258.244 4.30796 258.057 4.30881C257.879 4.30972 257.751 4.3061 257.613 4.29101C257.436 4.2713 257.234 4.25847 256.958 4.26412C256.637 4.27053 256.307 4.27199 255.981 4.27566C255.814 4.27719 255.685 4.28605 255.631 4.30521C255.621 4.30839 255.725 4.31727 255.784 4.32257C255.981 4.34025 256.168 4.36057 256.39 4.37354C256.617 4.38655 256.863 4.37526 257.1 4.37368C257.184 4.37319 257.263 4.37049 257.341 4.37159C257.415 4.37212 257.504 4.376 257.558 4.38127C257.815 4.40751 258.09 4.42629 258.441 4.41411C258.746 4.42333 258.904 4.4695 259.293 4.46032C259.53 4.45494 259.777 4.45342 260.023 4.45246C260.087 4.45237 260.156 4.46262 260.225 4.468C260.422 4.48296 260.58 4.50579 260.876 4.49866C261.191 4.49112 261.527 4.49187 261.847 4.48654C262.025 4.48345 262.153 4.48816 262.291 4.50325C262.468 4.52242 262.67 4.53742 262.946 4.53069C263.183 4.52476 263.434 4.52491 263.676 4.52174C263.991 4.518 263.991 4.51854 264.553 4.55617C264.617 4.56043 264.701 4.56536 264.77 4.56477C265.179 4.56115 265.584 4.55587 265.993 4.55225C266.151 4.55066 266.304 4.55879 266.412 4.5753C266.456 4.58213 266.441 4.59288 266.456 4.60221C265.643 4.61111 264.829 4.61783 264.02 4.63002C263.715 4.63492 263.577 4.61168 263.375 4.59777C263.306 4.59294 263.232 4.58319 263.168 4.58382C262.596 4.589 262.029 4.59476 261.462 4.60268C261.284 4.60523 261.151 4.60211 261.018 4.58543C260.678 4.54123 260.264 4.56109 259.874 4.56431C259.578 4.56655 259.485 4.58272 259.524 4.61882C259.568 4.66147 259.745 4.67575 260.199 4.67082C260.362 4.66926 260.524 4.66661 260.687 4.66559C260.845 4.66454 260.988 4.67261 261.116 4.68817C261.239 4.7037 261.387 4.71234 261.54 4.71125C261.865 4.70867 262.196 4.70613 262.511 4.70022C262.772 4.69555 262.989 4.70252 263.172 4.72389C263.379 4.74761 263.61 4.74437 263.847 4.74116C264.399 4.73421 264.404 4.73479 264.749 4.76437C264.818 4.77029 264.887 4.78109 264.951 4.781C265.518 4.77687 266.09 4.77386 266.647 4.76478C266.938 4.76032 267.101 4.77885 267.298 4.79435C267.367 4.79973 267.436 4.81107 267.5 4.81044C267.909 4.80737 268.318 4.80429 268.718 4.79681C268.905 4.79325 269.018 4.79731 269.166 4.81138C269.531 4.84599 269.541 4.84497 270.058 4.83832C270.216 4.83618 270.389 4.83143 270.537 4.83682C270.685 4.84221 270.803 4.85879 270.941 4.86954C271.005 4.87433 271.084 4.88086 271.153 4.88026C271.478 4.87823 271.804 4.87402 272.129 4.87035C272.435 4.86654 272.435 4.86708 273.006 4.90479C273.243 4.92057 273.48 4.91031 273.711 4.9076C273.963 4.9045 274.19 4.9061 274.382 4.92863C274.574 4.95116 274.806 4.95172 275.052 4.94912C275.284 4.94642 275.521 4.93615 275.757 4.95248C276.299 4.98997 276.299 4.99052 276.635 4.98638C277.123 4.98061 277.606 4.97534 278.099 4.97069C278.163 4.97006 278.247 4.97716 278.311 4.98196C278.449 4.99271 278.567 5.00983 278.715 5.01467C278.863 5.02006 279.035 5.01477 279.193 5.01263C279.701 5.00591 279.736 5.00236 280.076 5.04059C280.361 5.07192 280.717 5.0321 280.983 5.06764C281.135 5.08772 281.342 5.10438 281.628 5.09718C281.865 5.09125 282.111 5.09083 282.358 5.08823C282.748 5.08393 282.747 5.08447 283.24 5.12053C283.304 5.12533 283.388 5.13135 283.452 5.13071C283.778 5.12868 284.108 5.12721 284.424 5.11968C284.793 5.1109 285.03 5.1332 285.306 5.15523C285.523 5.17251 285.779 5.1613 286.006 5.15748C286.257 5.15383 286.484 5.15706 286.671 5.17956C286.868 5.20266 287.1 5.20159 287.347 5.19899C287.578 5.19683 287.815 5.18603 288.052 5.2029C288.559 5.24014 288.559 5.24015 288.929 5.23625C289.255 5.23258 289.58 5.22837 289.905 5.22633C289.969 5.2257 290.048 5.23332 290.112 5.23865C290.25 5.2494 290.369 5.26652 290.516 5.27137C290.664 5.27622 290.837 5.27038 291 5.26882C291.162 5.26726 291.335 5.26034 291.483 5.26464C291.631 5.26894 291.769 5.28349 291.887 5.29627C292.025 5.31136 292.153 5.31389 292.34 5.30979C292.577 5.30441 292.824 5.30453 293.065 5.30244C293.198 5.31369 293.336 5.32498 293.464 5.33729C293.597 5.35017 293.74 5.3501 293.923 5.34759C294.529 5.33886 294.534 5.34052 295.042 5.37777C295.273 5.39461 295.515 5.38383 295.747 5.38167C295.993 5.37907 296.225 5.37854 296.417 5.40162C296.604 5.42357 296.836 5.42792 297.083 5.42315C297.24 5.41993 297.408 5.4184 297.571 5.41792C297.645 5.4179 297.733 5.4207 297.788 5.42543C298.049 5.45008 298.305 5.47252 298.665 5.46041C298.98 5.46699 299.138 5.51261 299.518 5.50661C299.838 5.50128 300.173 5.50203 300.489 5.49449C300.78 5.48787 300.987 5.50453 301.135 5.52457C301.401 5.56011 301.776 5.51717 302.042 5.55216C302.194 5.57224 302.391 5.58884 302.687 5.58279C303.013 5.57641 303.116 5.58854 303.21 5.6234C303.264 5.64332 303.254 5.65899 303.155 5.67349C303.056 5.68853 302.948 5.68505 302.79 5.66602C302.608 5.64465 302.391 5.63931 302.13 5.64181C301.873 5.64433 301.716 5.61499 301.504 5.60264C301.292 5.58974 301.04 5.60696 300.819 5.59073C300.296 5.55284 300.296 5.55284 299.941 5.55684C299.7 5.55947 299.448 5.55986 299.211 5.56578C298.93 5.57302 298.748 5.5549 298.556 5.53834C298.487 5.53243 298.418 5.52163 298.359 5.52175C297.792 5.52588 297.22 5.52943 296.658 5.53902C296.362 5.54398 296.204 5.52333 296.007 5.50836C295.938 5.50299 295.864 5.49269 295.805 5.49336C295.317 5.4975 294.834 5.50385 294.346 5.50963C294.252 5.52362 294.148 5.537 294.059 5.55211C293.966 5.56773 293.837 5.57388 293.65 5.57201C293.339 5.56981 293.034 5.59045 292.723 5.55948C292.403 5.5279 292.378 5.52935 292.068 5.53421C291.673 5.54065 291.254 5.53551 290.884 5.55406C290.82 5.55741 290.751 5.56723 290.751 5.57483C290.751 5.57971 290.849 5.58747 290.913 5.59226C291.13 5.60683 291.382 5.58961 291.599 5.60471C291.742 5.61441 291.86 5.62828 292.003 5.63851C292.062 5.64273 292.151 5.64282 292.23 5.64283C292.313 5.64343 292.392 5.63964 292.471 5.64074C292.545 5.64181 292.624 5.64563 292.683 5.65093C292.954 5.67347 293.24 5.6945 293.481 5.72063C293.718 5.74619 293.94 5.73202 294.176 5.73207C295.123 5.77676 295.123 5.7773 295.759 5.76986C295.917 5.76827 296.079 5.76616 296.242 5.76786C296.311 5.76835 296.375 5.77857 296.444 5.78448C296.641 5.80216 296.828 5.81815 297.104 5.81142C297.341 5.80549 297.593 5.80564 297.834 5.80247C298.16 5.7988 298.16 5.7988 298.712 5.83691C298.85 5.84657 298.997 5.84653 299.175 5.84344C299.328 5.84072 299.486 5.84998 299.594 5.86649C299.638 5.87332 299.623 5.88407 299.638 5.8934C299.15 5.89863 298.657 5.90111 298.184 5.91079C297.878 5.91677 297.74 5.89245 297.538 5.87853C297.469 5.8737 297.395 5.86395 297.331 5.86458C296.848 5.86931 296.364 5.87511 295.881 5.88255C295.822 5.88322 295.748 5.89518 295.743 5.90274C295.733 5.91678 295.856 5.93123 296.034 5.93194C296.27 5.93361 296.502 5.92548 296.714 5.94924C296.891 5.97003 297.113 5.98029 297.374 5.97345C297.532 5.96969 297.7 5.97087 297.858 5.9671C298.277 5.95704 298.656 5.96245 298.972 6.00159C299.213 6.01307 299.45 6.00552 299.682 6.00227C299.854 5.99969 300.022 5.99708 300.145 6.00827C300.406 6.03183 300.662 6.05535 301.022 6.04325C301.412 6.0612 301.707 6.09532 302.033 6.12367C302.185 6.13724 302.304 6.14513 302.481 6.13825C302.555 6.13552 302.644 6.13614 302.723 6.13507C302.886 6.13351 303.058 6.12659 303.206 6.13089C303.354 6.13574 303.477 6.15235 303.61 6.16307C303.674 6.16841 303.748 6.17707 303.812 6.17698C304.059 6.17601 304.3 6.1723 304.542 6.16966C304.783 6.16757 305.025 6.16548 305.267 6.16339C305.469 6.17894 305.676 6.19452 305.878 6.21006C306.203 6.20639 306.529 6.20272 306.849 6.19957C307.209 6.1956 307.209 6.19614 307.726 6.23346C307.958 6.2503 308.205 6.24227 308.426 6.23679C308.796 6.22801 309.043 6.25038 309.304 6.27394C309.358 6.27866 309.457 6.28207 309.521 6.28036C309.777 6.27457 309.999 6.28211 310.186 6.30352C310.319 6.31858 310.452 6.32603 310.615 6.32447C311.182 6.31817 311.749 6.31133 312.316 6.30612C312.38 6.30548 312.464 6.31096 312.528 6.31576C313.031 6.35243 313.036 6.35409 313.405 6.34802C313.736 6.34276 314.041 6.34167 314.302 6.37337C314.357 6.38027 314.44 6.39009 314.5 6.38997C314.904 6.3874 315.313 6.38433 315.713 6.37793C315.895 6.37488 316.023 6.37741 316.166 6.39091C316.348 6.40794 316.511 6.42809 316.812 6.42316C317.645 6.40898 317.65 6.41227 318.636 6.4567C318.705 6.4599 318.798 6.45622 318.877 6.45461C319.045 6.45037 319.168 6.45884 319.316 6.47237C319.646 6.50293 319.656 6.50137 319.972 6.49764C320.213 6.49446 320.465 6.49516 320.701 6.48869C321.066 6.47933 321.308 6.50221 321.579 6.52421C321.795 6.54149 322.047 6.53024 322.279 6.527C322.53 6.52335 322.757 6.52658 322.944 6.54853C323.072 6.56355 323.21 6.57213 323.373 6.57057C323.94 6.56481 324.507 6.55797 325.074 6.55221C325.143 6.55162 325.227 6.55655 325.291 6.5608C325.853 6.59843 325.853 6.60006 326.41 6.59152C326.587 6.58898 326.735 6.58894 326.868 6.60128C326.996 6.61304 327.134 6.62433 327.267 6.63559C327.509 6.6335 327.756 6.63416 327.992 6.62932C328.175 6.62573 328.303 6.62881 328.446 6.64122C328.633 6.6572 328.786 6.68379 329.086 6.67344C329.239 6.66855 329.417 6.67143 329.57 6.66709C329.752 6.66132 329.875 6.66654 330.018 6.68166C330.196 6.69974 330.378 6.7184 330.664 6.71174C330.98 6.70421 331.315 6.70495 331.635 6.69962C331.813 6.69653 331.936 6.70175 332.079 6.71687C332.256 6.73604 332.458 6.74887 332.734 6.74377C333.297 6.73418 333.302 6.73693 333.849 6.775C333.986 6.78466 334.134 6.78462 334.312 6.78153C334.465 6.77881 334.622 6.78807 334.731 6.80458C334.775 6.81141 334.76 6.82216 334.775 6.83149L334.844 6.84229ZM290.941 1.63649C290.779 1.63805 290.616 1.64015 290.38 1.59126C290.365 1.58301 290.375 1.57331 290.34 1.56601C290.262 1.5508 290.139 1.53961 289.991 1.53694C289.724 1.53288 289.404 1.54907 289.409 1.56321C289.414 1.57519 289.497 1.5861 289.66 1.59702C289.729 1.60131 289.783 1.6082 289.847 1.613C290.034 1.62681 290.182 1.65228 290.453 1.64172C290.429 1.62472 290.404 1.60772 290.453 1.64172C290.429 1.66217 290.502 1.67735 290.68 1.68457C290.729 1.68655 290.803 1.68545 290.843 1.68301C290.995 1.67215 291.02 1.65604 290.907 1.61236C290.887 1.61928 290.907 1.6319 290.946 1.63544C290.991 1.63901 291.099 1.63706 291.154 1.63365C291.292 1.62431 291.361 1.61123 291.326 1.59959C291.307 1.59348 291.213 1.58521 291.154 1.5848C291.045 1.58403 290.952 1.59531 290.937 1.63645L290.941 1.63649ZM330.762 8.21275C330.402 8.22052 329.988 8.21379 329.628 8.23241C329.564 8.23575 329.499 8.24507 329.494 8.25263C329.494 8.25752 329.588 8.26524 329.647 8.26946C329.78 8.27908 329.928 8.27742 330.101 8.27592C330.362 8.27397 330.515 8.30002 330.717 8.31394C330.781 8.31819 330.865 8.3215 330.934 8.3209C331.333 8.31722 331.727 8.31295 332.127 8.30818C332.196 8.30704 332.27 8.30376 332.329 8.2993C332.526 8.28495 332.507 8.27396 332.315 8.2612C332.103 8.24667 331.935 8.22377 331.718 8.21192C331.413 8.1951 331.097 8.21241 330.767 8.21279L330.762 8.21275ZM302.761 8.41079C302.519 8.41342 302.283 8.41609 302.041 8.41872C301.962 8.41979 301.878 8.41974 301.804 8.42139C301.651 8.42411 301.538 8.4347 301.464 8.45209C301.577 8.46701 301.715 8.47612 301.868 8.47558C302.11 8.47403 302.346 8.46865 302.588 8.46873C302.849 8.46841 303.002 8.49392 303.204 8.50783C303.268 8.51209 303.347 8.51319 303.421 8.51425C303.786 8.51901 304.008 8.49235 303.939 8.45224C303.89 8.42095 303.703 8.40117 303.476 8.40337C303.234 8.406 302.998 8.40867 302.756 8.4113L302.761 8.41079ZM332.454 7.42246C332.513 7.41365 332.577 7.40759 332.607 7.39966C332.695 7.37315 332.661 7.35174 332.499 7.32887C332.302 7.30088 332.06 7.31708 331.838 7.31823C331.784 7.31839 331.725 7.32936 331.695 7.33621C331.675 7.34096 331.675 7.35127 331.705 7.35419C331.951 7.37765 332.207 7.39955 332.459 7.42249L332.454 7.42246ZM289.701 5.51637C289.464 5.51904 289.223 5.52059 288.986 5.52488C288.927 5.52609 288.873 5.53602 288.838 5.54283C288.774 5.55541 288.843 5.57381 289.045 5.57687C289.277 5.58068 289.518 5.57316 289.76 5.57053C290.066 5.56726 290.243 5.54844 290.135 5.5303C290.027 5.51217 289.874 5.50783 289.701 5.51583L289.701 5.51637ZM30.1934 2.51941C30.3512 2.51781 30.5139 2.51679 30.6717 2.51411C30.8196 2.51135 30.9331 2.50022 31.0072 2.48283C30.884 2.46784 30.746 2.45927 30.5932 2.45981C30.3516 2.46136 30.1149 2.46403 29.8782 2.46778C29.7303 2.46999 29.5873 2.48092 29.5526 2.49913C29.5229 2.51249 29.8532 2.52297 30.1984 2.51944L30.1934 2.51941ZM268.865 4.12531C268.93 4.13065 268.994 4.14088 269.058 4.14133C269.215 4.14245 269.378 4.14034 269.526 4.13596C269.59 4.13424 269.64 4.12482 269.669 4.11743C269.689 4.11269 269.684 4.10397 269.655 4.09942C269.512 4.07235 268.94 4.07753 268.846 4.10672C268.831 4.11204 268.851 4.11924 268.861 4.12528L268.865 4.12531ZM253.332 1.04295C253.347 1.05174 253.352 1.06046 253.371 1.06928C253.411 1.08584 253.519 1.09855 253.677 1.10781C253.8 1.09511 253.864 1.08037 253.859 1.06405C253.859 1.05537 253.84 1.04654 253.82 1.03772C253.781 1.02115 253.672 1.00845 253.515 0.999187C253.391 1.01188 253.327 1.02663 253.332 1.04295ZM343.848 8.79608C343.803 8.80282 343.759 8.80957 343.71 8.81573C343.843 8.83241 343.966 8.83817 344.06 8.83015C344.119 8.82514 344.153 8.81724 344.198 8.8105C344.065 8.79382 343.946 8.78864 343.848 8.79608ZM340.781 8.84819C340.845 8.85353 340.904 8.86046 340.973 8.86421C341.086 8.87044 341.19 8.86195 341.269 8.84296C341.205 8.83763 341.146 8.83069 341.077 8.82695C340.963 8.82072 340.86 8.82921 340.781 8.84819ZM342.724 8.76261C342.689 8.7754 342.758 8.78674 342.941 8.79726C342.985 8.79052 343.044 8.78442 343.074 8.77703C343.123 8.7649 343.04 8.75291 342.862 8.74297C342.818 8.74971 342.773 8.75645 342.724 8.76261ZM332.321 8.10383C332.286 8.11661 332.355 8.12795 332.537 8.13847C332.582 8.13173 332.641 8.12563 332.67 8.11825C332.72 8.10611 332.636 8.09412 332.459 8.08418C332.414 8.09092 332.37 8.09766 332.321 8.10383ZM318.169 4.16275C318.124 4.16949 318.08 4.17623 318.031 4.1824C318.164 4.19908 318.287 4.20484 318.38 4.19682C318.44 4.19181 318.474 4.18391 318.519 4.17717C318.386 4.16048 318.267 4.15531 318.169 4.16275ZM304.606 2.02904C304.724 2.03368 304.823 2.02678 304.907 2.00729C304.843 2.00195 304.783 1.99502 304.714 1.99127C304.601 1.98504 304.497 1.99354 304.418 2.01252C304.482 2.01786 304.547 2.0232 304.606 2.02904ZM297.394 1.85097C297.349 1.85772 297.305 1.86446 297.256 1.87062C297.389 1.88731 297.512 1.89306 297.606 1.88504C297.665 1.88003 297.699 1.87214 297.744 1.86539C297.611 1.84871 297.492 1.84353 297.394 1.85097ZM248.486 1.00864C248.441 1.01538 248.397 1.02212 248.348 1.02829C248.481 1.04497 248.604 1.05073 248.697 1.04271C248.757 1.0377 248.791 1.0298 248.836 1.02306C248.703 1.00638 248.584 1.0012 248.486 1.00864ZM4.9022 3.70011C4.83815 3.69477 4.77409 3.68943 4.71497 3.68358C4.57189 3.69722 4.52742 3.71048 4.60623 3.72135C4.65549 3.72821 4.72941 3.73254 4.79347 3.73788C4.93655 3.72423 4.97608 3.71148 4.90221 3.69956L4.9022 3.70011Z" fill="#014EFF"/>
</svg>
