<svg width="152" height="10" viewBox="0 0 152 10" fill="none" xmlns="http://www.w3.org/2000/svg">
<path d="M142.223 7.1939C142.017 7.19895 141.809 7.20125 141.606 7.21071C141.475 7.21653 141.419 7.19166 141.332 7.17764C141.303 7.17278 141.272 7.16355 141.245 7.16415C141.041 7.16924 140.837 7.17541 140.633 7.18158C140.57 7.20164 140.53 7.22916 140.434 7.23778C140.34 7.2459 140.23 7.24395 140.126 7.247C139.988 7.25055 139.851 7.25409 139.713 7.25709C139.644 7.2586 139.588 7.26791 139.565 7.28705C139.561 7.29023 139.606 7.29918 139.631 7.3045C139.714 7.32226 139.795 7.34214 139.886 7.35624C139.973 7.36972 140.082 7.35209 140.175 7.36894C140.385 7.40684 140.387 7.40634 140.548 7.40265C140.685 7.39911 140.822 7.39502 140.96 7.3931C140.987 7.3925 141.018 7.40119 141.047 7.40604C141.134 7.41953 141.19 7.44765 141.319 7.43962C141.417 7.4332 141.526 7.43349 141.628 7.43095C141.713 7.44819 141.793 7.46753 141.883 7.48159C141.968 7.49504 141.993 7.50471 141.947 7.51964C141.905 7.53356 141.846 7.5385 141.769 7.53822C141.701 7.53755 141.632 7.54123 141.563 7.54273C141.53 7.54377 141.494 7.54423 141.461 7.54527C141.33 7.54892 141.33 7.54892 141.091 7.50997C140.998 7.49475 140.891 7.51187 140.802 7.49726C140.742 7.48751 140.69 7.47357 140.632 7.46332C140.607 7.45908 140.567 7.45783 140.536 7.45837C140.432 7.46033 140.328 7.46121 140.228 7.4665C140.157 7.47014 140.115 7.4846 140.123 7.49994C140.125 7.50595 140.175 7.51551 140.204 7.51657C140.271 7.51883 140.342 7.51248 140.406 7.51742C140.468 7.52232 140.533 7.53431 140.578 7.54706C140.672 7.57368 140.778 7.5533 140.867 7.56139C140.961 7.5701 141.038 7.59317 141.127 7.60777C141.152 7.61147 141.194 7.60678 141.229 7.60577C141.331 7.60377 141.433 7.60232 141.535 7.60032C141.62 7.61756 141.711 7.63329 141.788 7.65256C141.927 7.68758 142.077 7.70271 142.258 7.69017C142.36 7.68328 142.46 7.6883 142.541 7.7109C142.624 7.73408 142.719 7.7336 142.826 7.73113C142.924 7.72851 143.024 7.71834 143.123 7.7353C143.339 7.77277 143.341 7.77443 143.597 7.76592C143.675 7.76349 143.733 7.76343 143.791 7.77694C143.845 7.78929 143.903 7.80009 143.959 7.81193C144.061 7.80994 144.165 7.80797 144.267 7.80543C144.398 7.80178 144.471 7.81066 144.502 7.8416C144.52 7.86038 144.528 7.87736 144.574 7.89065C144.628 7.9068 144.686 7.90728 144.765 7.90434C144.84 7.90186 144.894 7.89685 144.926 7.87786C144.939 7.86994 144.964 7.86278 144.987 7.85667C145.005 7.85212 145.035 7.84504 145.051 7.84642C145.083 7.84914 145.124 7.85584 145.134 7.86308C145.235 7.93055 145.235 7.93109 145.339 7.95192C145.453 7.97511 145.571 7.9962 145.675 8.02191C145.768 8.04473 145.862 8.03716 145.964 8.03896C146.041 8.04032 146.091 8.05531 146.084 8.06931C146.08 8.07738 146.051 8.0888 146.026 8.08945C145.821 8.0967 145.615 8.10229 145.411 8.10629C145.386 8.10693 145.355 8.09661 145.326 8.09122C145.268 8.08042 145.216 8.0643 145.154 8.05995C145.091 8.05559 145.018 8.06244 144.95 8.06394C144.881 8.06544 144.808 8.07121 144.746 8.06577C144.683 8.06033 144.634 8.04371 144.575 8.03237C144.548 8.027 144.511 8.01929 144.488 8.02051C144.336 8.03086 144.224 8.01096 144.116 7.98572C144.093 7.98043 144.054 7.97647 144.025 7.97704C143.783 7.98201 143.544 7.98864 143.302 7.99469C143.204 7.9973 143.125 7.97691 143.105 7.94453C143.095 7.92643 143.074 7.90816 143.075 7.89025C143.075 7.85768 142.961 7.83776 142.878 7.84008C142.74 7.84309 142.601 7.84497 142.465 7.85072C142.355 7.85529 142.261 7.84712 142.187 7.82626C142.1 7.80247 142 7.80505 141.9 7.80925C141.825 7.81227 141.804 7.82981 141.807 7.87493C141.811 7.91137 141.775 7.92214 141.64 7.92572C141.469 7.93031 141.296 7.93485 141.123 7.93778C141.096 7.93838 141.065 7.92861 141.038 7.92324C140.98 7.91245 140.928 7.89579 140.866 7.89143C140.803 7.88653 140.73 7.89339 140.662 7.89543C140.593 7.89693 140.52 7.90324 140.458 7.89834C140.395 7.89344 140.343 7.87624 140.287 7.86494C140.26 7.85958 140.227 7.85193 140.2 7.85254C140.063 7.85446 139.925 7.85855 139.788 7.86209C139.634 7.86589 139.634 7.86589 139.416 7.82838C139.316 7.81142 139.216 7.8216 139.118 7.82421C139.014 7.82672 138.916 7.82716 138.833 7.80399C138.779 7.78892 138.719 7.77917 138.655 7.78075C138.482 7.78421 138.311 7.78934 138.138 7.7928C138.109 7.79337 138.069 7.78996 138.047 7.78467C137.937 7.75993 137.829 7.74011 137.675 7.74879C137.541 7.75621 137.398 7.75422 137.264 7.76109C137.191 7.76469 137.158 7.78147 137.172 7.79529C137.18 7.8025 137.224 7.81141 137.253 7.81192C137.319 7.81364 137.392 7.80679 137.455 7.81114C137.584 7.81993 137.647 7.86666 137.816 7.85715C137.916 7.85132 138.02 7.85044 138.125 7.85011C138.152 7.85059 138.181 7.86087 138.21 7.86681C138.293 7.88293 138.365 7.90321 138.486 7.89557C138.586 7.88974 138.692 7.88944 138.794 7.8869C138.957 7.88271 138.957 7.88325 139.166 7.92007C139.266 7.93757 139.366 7.92685 139.464 7.92478C139.537 7.92335 139.606 7.91914 139.662 7.92773C139.751 7.9407 139.815 7.96789 139.925 7.96821C140.03 7.96842 140.132 7.96262 140.236 7.96174C140.3 7.96125 140.361 7.971 140.412 7.98658C140.466 8.00218 140.524 8.00972 140.595 8.00772C140.697 8.00518 140.801 8.00159 140.905 8.00071C140.935 8.00068 140.968 8.00615 140.995 8.01097C141.053 8.02177 141.109 8.03416 141.165 8.04546C141.267 8.044 141.371 8.04476 141.471 8.04001C141.548 8.03648 141.602 8.03961 141.665 8.05156C141.743 8.06761 141.807 8.0948 141.937 8.0846C142.001 8.07977 142.076 8.08272 142.141 8.07843C142.22 8.07277 142.274 8.07644 142.33 8.09371C142.436 8.12652 142.569 8.12941 142.706 8.1199C142.856 8.10952 142.969 8.1267 143.081 8.15256C143.199 8.17962 143.199 8.17908 143.289 8.24093C143.316 8.25878 143.393 8.26828 143.457 8.26616C143.566 8.26264 143.659 8.26701 143.738 8.28903C143.821 8.31275 143.921 8.3118 144.023 8.30763C144.158 8.30187 144.294 8.29721 144.404 8.33063C144.457 8.34678 144.516 8.35161 144.589 8.3491C144.795 8.34296 145.003 8.34067 145.205 8.33229C145.328 8.32686 145.399 8.34548 145.482 8.3616C145.594 8.38366 145.714 8.4037 145.715 8.44661C145.715 8.45367 145.744 8.46232 145.769 8.46765C145.823 8.48 145.881 8.4908 145.937 8.50264C146.02 8.5204 146.101 8.5354 146.216 8.52873C146.316 8.52344 146.422 8.52314 146.524 8.52006C146.626 8.51697 146.72 8.51591 146.811 8.53815C146.917 8.56336 147.029 8.5876 147.149 8.6071C147.234 8.62108 147.347 8.6019 147.438 8.62034C147.494 8.63165 147.548 8.64454 147.608 8.65429C147.633 8.65853 147.673 8.65651 147.706 8.65602C147.775 8.65506 147.846 8.65468 147.912 8.65043C147.989 8.64582 148.048 8.64793 148.106 8.66144C148.16 8.67379 148.214 8.69049 148.276 8.69484C148.369 8.70138 148.474 8.68151 148.567 8.70813C148.615 8.72146 148.675 8.73446 148.737 8.73936C148.8 8.74426 148.873 8.73741 148.939 8.73912C148.968 8.73964 149.004 8.74895 149.02 8.7563C149.031 8.76028 149.016 8.77033 149.001 8.7755C148.982 8.78168 148.955 8.78989 148.928 8.7905C148.722 8.79663 148.516 8.80114 148.309 8.80672C148.227 8.8089 148.104 8.79713 147.939 8.77142C147.881 8.76225 147.817 8.76274 147.744 8.76526C147.646 8.76841 147.546 8.77588 147.444 8.76431C147.311 8.72505 147.147 8.71889 146.972 8.72992C146.899 8.7346 146.832 8.73343 146.779 8.72216C146.664 8.69952 146.544 8.67839 146.442 8.65217C146.364 8.63178 146.326 8.62949 146.293 8.65495C146.282 8.66291 146.271 8.67141 146.275 8.67908C146.287 8.70644 146.31 8.73343 146.322 8.76079C146.326 8.76846 146.309 8.77685 146.299 8.78481C146.265 8.80701 146.221 8.80461 146.149 8.78433C146.076 8.76405 145.989 8.75003 145.872 8.75665C145.772 8.76249 145.664 8.75949 145.564 8.76587C145.41 8.77509 145.302 8.75581 145.192 8.73053C145.169 8.72524 145.13 8.72183 145.1 8.7224C144.79 8.72941 144.482 8.73808 144.171 8.74509C144.105 8.74663 144.045 8.73742 143.993 8.72185C143.939 8.70624 143.879 8.69758 143.812 8.69912C143.537 8.70567 143.262 8.71113 142.987 8.72039C142.875 8.72438 142.785 8.71574 142.709 8.69539C142.651 8.68025 142.597 8.67495 142.524 8.6753C142.445 8.67553 142.388 8.67996 142.349 8.695C142.311 8.70954 142.338 8.71924 142.421 8.73265C142.51 8.74726 142.593 8.76555 142.678 8.78225C142.747 8.78129 142.816 8.77816 142.882 8.77988C142.911 8.7804 142.938 8.79064 142.967 8.79658C143.05 8.81379 143.127 8.83089 143.246 8.8243C143.346 8.81846 143.452 8.81871 143.554 8.81563C143.696 8.81215 143.696 8.81215 143.924 8.85038C143.982 8.8601 144.045 8.86066 144.12 8.85709C144.184 8.85443 144.251 8.86321 144.296 8.8803C144.315 8.88714 144.308 8.89788 144.268 8.933C144.268 8.9596 144.312 8.94843 144.326 8.93132C144.35 8.90676 144.306 8.89785 144.223 8.90995C144.164 8.91869 144.135 8.93228 144.149 8.94394C144.157 8.95005 144.197 8.95835 144.268 8.933C144.452 8.90368 144.591 8.90234 144.725 8.89601C144.804 8.89252 144.854 8.89557 144.916 8.91078C144.991 8.92893 145.065 8.94816 145.188 8.94164C145.322 8.93423 145.463 8.93564 145.599 8.92989C145.724 8.92449 145.788 8.94951 145.866 8.96502C145.962 8.98353 146.068 8.96641 146.156 8.97772C146.247 8.9891 146.311 9.01412 146.417 9.02034C146.572 9.0084 146.669 9.03727 146.785 9.05723C146.876 9.07242 146.985 9.06239 147.083 9.05814C147.193 9.05358 147.285 9.06171 147.361 9.08206C147.448 9.10585 147.546 9.1027 147.646 9.09958C147.88 9.09284 147.888 9.09135 148.023 9.12359C148.12 9.14703 148.214 9.13891 148.312 9.13792C148.397 9.15408 148.48 9.17129 148.569 9.1859C148.592 9.18956 148.636 9.1849 148.671 9.1839C148.773 9.18135 148.877 9.17885 148.979 9.17631C149.048 9.17481 149.121 9.16795 149.184 9.17231C149.246 9.17721 149.298 9.19387 149.354 9.20517C149.41 9.21647 149.468 9.22781 149.522 9.23962C149.605 9.25737 149.684 9.27234 149.8 9.26625C149.9 9.26096 150.004 9.26063 150.109 9.25758C150.24 9.25393 150.236 9.25548 150.479 9.29234C150.609 9.31256 150.745 9.29324 150.878 9.29342C150.945 9.29351 151.009 9.30062 151.055 9.31717C151.073 9.32401 151.067 9.33476 151.073 9.34409C150.729 9.35268 150.384 9.35907 150.044 9.37099C149.913 9.37573 149.845 9.35498 149.774 9.33745C149.658 9.30935 149.503 9.34462 149.394 9.30956C149.327 9.28831 149.232 9.27522 149.117 9.28297C149.05 9.28722 148.98 9.28543 148.911 9.2891C148.736 9.29796 148.576 9.29567 148.437 9.25576C148.389 9.24189 148.321 9.23362 148.271 9.22026C148.213 9.20566 148.157 9.19707 148.088 9.19858C147.778 9.20613 147.469 9.21372 147.161 9.22239C147.134 9.223 147.107 9.23066 147.084 9.23623C147.025 9.25039 147.044 9.26266 147.137 9.27408C147.168 9.27789 147.193 9.28539 147.222 9.29133C147.278 9.30263 147.33 9.31983 147.392 9.32473C147.455 9.32963 147.528 9.32332 147.597 9.32182C147.665 9.32032 147.738 9.31347 147.801 9.31782C147.863 9.32272 147.915 9.33938 147.973 9.35018C148 9.35554 148.033 9.36427 148.06 9.3642C148.198 9.36337 148.333 9.35979 148.47 9.35733C148.555 9.37349 148.628 9.39594 148.73 9.40262C148.794 9.40702 148.863 9.40226 148.93 9.40452C148.959 9.40558 148.998 9.41442 149.011 9.42169C149.019 9.42618 148.992 9.43656 148.971 9.44162C148.891 9.46085 148.783 9.45514 148.685 9.45992C148.579 9.46511 148.483 9.46124 148.402 9.43865C148.348 9.42358 148.288 9.41492 148.222 9.41646C148.049 9.42046 147.878 9.42559 147.705 9.42851C147.676 9.42908 147.641 9.42357 147.614 9.4193C147.396 9.38233 147.396 9.38125 147.241 9.38559C147.09 9.38979 146.964 9.38141 146.863 9.36045C146.834 9.35451 146.803 9.34364 146.778 9.34375C146.536 9.34817 146.297 9.35263 146.057 9.36088C145.978 9.36329 145.924 9.36233 145.866 9.34719C145.816 9.33437 145.758 9.31978 145.696 9.31542C145.631 9.31102 145.56 9.31791 145.492 9.31942C145.423 9.32092 145.35 9.32669 145.29 9.32128C145.227 9.31584 145.174 9.29968 145.12 9.28788C145.064 9.27549 145.003 9.27496 144.926 9.27795C144.689 9.28624 144.687 9.28458 144.452 9.24678C144.425 9.2425 144.39 9.23753 144.361 9.23811C144.188 9.24157 144.017 9.2467 143.844 9.25016C143.777 9.2517 143.713 9.2435 143.667 9.22696C143.649 9.22012 143.655 9.20937 143.643 9.18799C143.629 9.18284 143.643 9.19178 143.649 9.20004C143.68 9.1995 143.718 9.20125 143.741 9.19731C143.799 9.18803 143.829 9.17497 143.814 9.16332C143.806 9.1572 143.767 9.14891 143.742 9.14847C143.696 9.14766 143.656 9.1589 143.643 9.18799C143.512 9.20358 143.372 9.20492 143.237 9.21121C143.158 9.21524 143.108 9.21165 143.045 9.19644C142.971 9.17775 142.894 9.15956 142.771 9.16608C142.638 9.1735 142.496 9.17263 142.359 9.1778C142.2 9.18369 142.133 9.13364 141.999 9.13237C141.862 9.13103 141.724 9.13783 141.587 9.14192C141.466 9.14522 141.466 9.14522 141.217 9.10554C141.126 9.09089 141.017 9.10798 140.928 9.09283C140.868 9.08308 140.816 9.06914 140.758 9.05888C140.733 9.05464 140.693 9.05395 140.662 9.05448C140.489 9.05794 140.314 9.0592 140.148 9.0682C139.958 9.07897 139.815 9.06124 139.68 9.02683C139.509 9.02979 139.336 9.03 139.167 9.03733C139.045 9.04276 138.974 9.0236 138.891 9.00748C138.862 9.00208 138.837 8.9935 138.806 8.99078C138.775 8.98806 138.737 8.99174 138.704 8.99278C138.567 8.99632 138.425 8.99654 138.292 9.00396C138.127 9.01354 138.065 8.96793 137.938 8.96026C137.853 8.98535 137.806 9.02091 137.638 9.02064C137.5 9.02039 137.363 9.02665 137.225 9.03019C137.156 9.03169 137.088 9.03374 137.019 9.03524C136.909 9.03818 136.856 9.05842 136.878 9.09139C136.891 9.10952 136.901 9.12761 136.911 9.14571C136.931 9.17809 136.879 9.20431 136.791 9.20657C136.549 9.21262 136.31 9.21925 136.068 9.22421C136.004 9.22579 135.941 9.21546 135.89 9.19989C135.836 9.18428 135.776 9.1767 135.709 9.17824C135.467 9.18429 135.228 9.19092 134.986 9.19588C134.959 9.19649 134.922 9.1904 134.897 9.18562C134.839 9.17482 134.783 9.16243 134.727 9.15113C134.589 9.15359 134.454 9.15446 134.318 9.15858C134.1 9.1645 134.1 9.16504 133.94 9.13236C133.911 9.12642 133.882 9.11559 133.855 9.11566C133.751 9.11599 133.649 9.11962 133.545 9.12267C133.238 9.13138 133.238 9.13138 133.149 9.11352C133.068 9.09689 132.996 9.07715 132.873 9.08367C132.739 9.09109 132.598 9.09184 132.46 9.09485C132.358 9.09685 132.256 9.09939 132.154 9.09867C132.127 9.09819 132.098 9.08791 132.069 9.08197C131.986 9.06368 131.905 9.04868 131.791 9.05588C131.724 9.06013 131.653 9.05997 131.584 9.06147C131.465 9.06443 131.308 9.05333 131.112 9.02817C131.083 9.0244 131.048 9.01997 131.019 9.02109C130.777 9.0266 130.538 9.03323 130.296 9.03819C130.267 9.03876 130.232 9.03488 130.203 9.03165C129.984 9.0068 129.758 8.99738 129.524 9.0034C129.391 9.00647 129.387 9.00857 129.248 8.97734C129.186 8.96376 129.136 8.95691 129.061 8.95938C128.786 8.96756 128.509 8.97136 128.236 8.98174C128.113 8.98609 128.043 8.96856 127.96 8.95244C127.931 8.94704 127.9 8.93563 127.875 8.93573C127.6 8.9412 127.325 8.94883 127.05 8.95429C127.025 8.95494 126.994 8.94353 126.965 8.93813C126.909 8.92737 126.855 8.91176 126.792 8.9074C126.728 8.90301 126.657 8.9099 126.586 8.91137C126.413 8.91537 126.413 8.91483 126.214 8.87928C126.187 8.87446 126.152 8.86787 126.125 8.86848C125.85 8.87448 125.573 8.87882 125.3 8.88975C125.144 8.89568 125.038 8.87807 124.928 8.85332C124.905 8.84804 124.866 8.84517 124.836 8.84574C124.526 8.85275 124.218 8.86142 123.907 8.86843C123.843 8.87 123.781 8.85968 123.729 8.84465C123.648 8.82096 123.548 8.82191 123.444 8.82496C123.204 8.83213 123.202 8.83156 123.061 8.80301C123.032 8.79707 123.007 8.78957 122.976 8.78631C122.947 8.78308 122.91 8.78404 122.878 8.78458C122.741 8.78758 122.603 8.79113 122.466 8.79467C122.328 8.79822 122.189 8.79901 122.054 8.80585C121.887 8.81431 121.808 8.77764 121.692 8.7593C121.521 8.76334 121.346 8.7646 121.178 8.77302C121.048 8.77942 120.988 8.75448 120.903 8.74049C120.874 8.73564 120.843 8.72586 120.816 8.72647C120.506 8.73293 120.195 8.74048 119.887 8.7497C119.812 8.75163 119.762 8.74641 119.7 8.73228C119.561 8.70052 119.555 8.70149 119.322 8.70823C119.22 8.71132 119.122 8.71393 119.035 8.69014C118.958 8.6687 118.864 8.66216 118.754 8.66673C118.619 8.67248 118.479 8.67436 118.342 8.67736C118.204 8.68091 118.067 8.68662 117.929 8.68691C117.819 8.68768 117.753 8.661 117.665 8.64643C117.638 8.64215 117.601 8.64095 117.57 8.64148C117.432 8.64394 117.291 8.64524 117.157 8.65212C116.995 8.66065 116.906 8.62922 116.792 8.60983C116.767 8.60559 116.725 8.60703 116.694 8.60811C116.452 8.61361 116.213 8.62024 115.971 8.62629C115.886 8.61014 115.799 8.59448 115.714 8.57832C115.576 8.58133 115.439 8.58487 115.301 8.58787C115.197 8.59038 115.091 8.59013 114.993 8.59655C114.866 8.60516 114.804 8.57855 114.719 8.56456C114.69 8.55971 114.659 8.54993 114.632 8.55054C114.459 8.55346 114.286 8.55692 114.115 8.56314C113.953 8.5695 113.889 8.51951 113.756 8.51771C113.618 8.51528 113.477 8.52038 113.343 8.5278C113.189 8.53648 113.081 8.5172 112.971 8.49192C112.948 8.48663 112.909 8.48322 112.88 8.48379C112.707 8.48725 112.536 8.49238 112.363 8.49584C112.334 8.49641 112.299 8.49308 112.27 8.48931C111.941 8.45148 111.941 8.45094 111.798 8.45492C111.696 8.45746 111.591 8.46105 111.487 8.46193C111.458 8.4625 111.423 8.45699 111.396 8.45217C111.18 8.41524 111.18 8.4147 111.024 8.41846C110.886 8.422 110.749 8.42555 110.611 8.42909C110.526 8.41293 110.439 8.39728 110.354 8.38112C110.183 8.38517 110.008 8.38751 109.84 8.3943C109.76 8.39725 109.708 8.3947 109.648 8.38007C109.574 8.36246 109.499 8.34215 109.374 8.34917C109.241 8.35658 109.099 8.35517 108.964 8.36093C108.801 8.36783 108.735 8.31727 108.604 8.3155C108.467 8.31307 108.325 8.31817 108.192 8.32559C108.038 8.33427 107.93 8.31499 107.82 8.28971C107.797 8.28442 107.758 8.28101 107.728 8.28158C107.349 8.29063 106.972 8.29972 106.593 8.30986C106.438 8.31399 106.212 8.30368 105.917 8.27892C105.886 8.2762 105.853 8.27344 105.821 8.27398C105.684 8.27644 105.542 8.27774 105.409 8.28461C105.246 8.29315 105.157 8.26226 105.043 8.24233C105.018 8.23809 104.979 8.23956 104.945 8.2406C104.841 8.24257 104.739 8.24565 104.635 8.24816C104.498 8.2517 104.36 8.25525 104.223 8.25879C104.138 8.24317 104.05 8.22698 103.965 8.21136C103.795 8.21541 103.62 8.21612 103.451 8.22454C103.322 8.23095 103.262 8.20709 103.177 8.19256C103.148 8.1877 103.117 8.17792 103.089 8.17799C102.779 8.18445 102.469 8.19146 102.16 8.20122C102.033 8.20549 101.976 8.18004 101.89 8.16605C101.861 8.16174 101.828 8.1541 101.801 8.15471C101.595 8.15867 101.389 8.16426 101.183 8.16985C101.105 8.17209 100.981 8.16051 100.813 8.13509C100.783 8.13077 100.75 8.12639 100.721 8.12696C100.067 8.14256 99.4151 8.15982 98.7611 8.17542C98.6944 8.17696 98.6342 8.16776 98.5824 8.15219C98.5286 8.13658 98.4684 8.12791 98.4017 8.12945C98.1268 8.136 97.8498 8.14143 97.5769 8.15072C97.4644 8.15471 97.375 8.14607 97.2983 8.12572C97.2403 8.11058 97.1863 8.1042 97.1134 8.10617C96.9759 8.11026 96.8384 8.11326 96.701 8.11681C96.5635 8.12035 96.426 8.1239 96.2885 8.12744C96.1511 8.13099 96.0116 8.13178 95.8761 8.13862C95.7094 8.14708 95.6288 8.112 95.5147 8.09315C95.3085 8.09766 95.1023 8.10216 94.8981 8.10724C94.6232 8.11379 94.3482 8.12143 94.0733 8.12743C94.0483 8.12808 94.0173 8.11776 93.9882 8.11236C93.9031 8.09728 93.841 8.07719 93.714 8.08092C93.0974 8.09881 92.4767 8.11228 91.8581 8.12959C91.7289 8.13328 91.6731 8.10896 91.5859 8.09493C91.5569 8.09062 91.5237 8.08243 91.4966 8.08304C91.153 8.09055 90.8093 8.09968 90.4656 8.10827C90.3726 8.11061 90.2485 8.09919 90.0935 8.07402C90.0665 8.06974 90.0312 8.06423 90.0021 8.0648C89.5543 8.07536 89.1085 8.08703 88.6607 8.09813C88.594 8.09967 88.5338 8.09101 88.48 8.0754C88.4282 8.05983 88.3659 8.05058 88.3013 8.05216C87.8889 8.06225 87.4744 8.07177 87.0641 8.08352C86.9537 8.087 86.8622 8.07996 86.7834 8.05957C86.7275 8.04447 86.6714 8.03751 86.6006 8.03951C85.9819 8.0552 85.3633 8.06979 84.7447 8.0871C84.6259 8.09044 84.5429 8.07865 84.4683 8.05942C84.4082 8.04425 84.3562 8.04062 84.2812 8.04146C84.2021 8.04278 84.1541 8.04791 84.1101 8.06342C84.0535 8.08359 84.0177 8.10956 83.8844 8.10884C83.7471 8.10804 83.6075 8.11209 83.472 8.11893C83.3428 8.12588 83.2829 8.10039 83.202 8.0843C83.1418 8.07293 83.0856 8.07031 83.0085 8.07383C82.9377 8.07693 82.8938 8.08538 82.8519 8.10201C82.7597 8.1373 82.7514 8.13715 82.6394 8.11183C82.5792 8.09829 82.5253 8.08756 82.4586 8.08856C82.1837 8.09456 81.9088 8.10165 81.6338 8.10929C81.4755 8.11355 81.4734 8.1146 81.3552 8.08537C81.2972 8.07077 81.2411 8.06327 81.1724 8.06531C80.4163 8.08454 79.6602 8.10268 78.9041 8.12354C78.7874 8.12691 78.7086 8.11412 78.6256 8.09636C78.5986 8.09046 78.5717 8.08238 78.5405 8.07966C78.5093 8.07694 78.4739 8.07849 78.4406 8.07899C77.8907 8.09262 77.3388 8.10514 76.7909 8.12153C76.6659 8.12529 76.5996 8.10675 76.5146 8.09114C76.4855 8.08574 76.4607 8.0777 76.4295 8.07498C76.3983 8.0728 76.3607 8.07593 76.3274 8.07698C75.7775 8.09061 75.2256 8.10313 74.6777 8.11952C74.5465 8.12317 74.4907 8.09939 74.4056 8.08594C74.3765 8.08109 74.3455 8.0724 74.3184 8.073C74.1455 8.07592 73.9747 8.08105 73.8018 8.08506C73.3894 8.09569 72.977 8.10525 72.5646 8.11642C72.4063 8.12069 72.3385 8.07117 72.2052 8.07099C72.0324 8.07066 71.8616 8.0785 71.6887 8.08305C71.5512 8.08659 71.4137 8.0896 71.2763 8.09369C71.186 8.09607 71.0286 8.08479 70.8042 8.05984C70.7751 8.05661 70.7398 8.05219 70.7107 8.05276C70.2295 8.06435 69.7463 8.07591 69.2672 8.08917C69.1568 8.09211 69.0653 8.08778 68.9866 8.0663C68.9306 8.0512 68.8725 8.04312 68.8037 8.04516C68.081 8.06335 67.3603 8.08157 66.6375 8.09922C66.6104 8.09982 66.5751 8.09377 66.5482 8.08895C66.4901 8.07816 66.4341 8.06577 66.3781 8.05446C66.3362 8.06621 66.2819 8.07665 66.2546 8.09029C66.2168 8.10862 66.1667 8.11316 66.0876 8.11502C66.0084 8.11689 65.9585 8.11492 65.8963 8.09971C65.8217 8.08102 65.7449 8.06609 65.622 8.06935C64.868 8.09024 64.1098 8.10781 63.3537 8.12812C63.2287 8.13134 63.1709 8.10643 63.0837 8.09241C63.0546 8.0881 63.0214 8.08154 62.9943 8.08215C62.684 8.08916 62.3757 8.09729 62.0654 8.10484C61.2051 8.12657 60.3449 8.14667 59.4867 8.17062C59.3305 8.17492 59.2246 8.15947 59.1147 8.13419C59.0919 8.1289 59.0524 8.12549 59.0232 8.12606C57.8193 8.15584 56.6154 8.18617 55.4136 8.21653C55.349 8.2181 55.2867 8.20832 55.2349 8.19329C55.1811 8.17768 55.1208 8.16956 55.0542 8.1711C54.5043 8.18474 53.9544 8.19838 53.4045 8.21256C53.2671 8.2161 53.265 8.21661 53.1239 8.18806C53.0949 8.18212 53.0638 8.17126 53.0409 8.17194C52.993 8.17381 52.947 8.18657 52.9133 8.20443C52.8797 8.22338 52.8276 8.22789 52.7505 8.23033C52.6713 8.23273 52.6193 8.23019 52.5592 8.2161C52.4825 8.19846 52.412 8.18147 52.287 8.18469C50.706 8.22628 49.1251 8.26515 47.5442 8.30619C47.4171 8.30938 47.3593 8.28555 47.2721 8.27153C47.243 8.26721 47.214 8.26127 47.1828 8.25964C47.1495 8.25796 47.114 8.2606 47.0807 8.26164C44.5021 8.32633 41.9234 8.39156 39.3448 8.45626C39.242 8.45879 39.1349 8.47571 39.0233 8.50704C39.0024 8.51264 38.9752 8.52031 38.946 8.52088C38.1566 8.54169 37.3651 8.56138 36.5736 8.58106C36.2299 8.58966 35.8862 8.59879 35.5425 8.60684C35.4196 8.60956 35.4196 8.60956 35.1251 8.66299C35.1001 8.66743 35.0708 8.67343 35.0417 8.674C33.6669 8.70891 32.2922 8.74382 30.9154 8.77761C30.8071 8.78004 30.7195 8.78827 30.6691 8.81344C30.6334 8.83127 30.5874 8.84131 30.5187 8.84336C29.5564 8.86763 28.5941 8.89245 27.6297 8.9156C27.5152 8.91846 27.4462 8.93245 27.3896 8.95425C27.3708 8.96152 27.3539 8.96991 27.3268 8.97486C27.3017 8.9793 27.2642 8.98027 27.233 8.98134C26.4082 9.00207 25.5833 9.02389 24.7564 9.04295C24.6335 9.04567 24.5832 9.06487 24.5225 9.08497C24.5016 9.09165 24.4868 9.10117 24.4597 9.10557C24.4326 9.10944 24.393 9.10874 24.3597 9.10924C23.6723 9.12642 22.985 9.14415 22.2976 9.16133C22.1645 9.15627 22.1348 9.18723 22.0699 9.20508C22.0469 9.21119 22.0301 9.21958 22.003 9.22345C21.9737 9.22727 21.9363 9.22607 21.9009 9.22653C21.351 9.24017 20.8011 9.25544 20.2512 9.26745C20.1242 9.27009 20.0987 9.29733 20.0297 9.31511C20.0067 9.32068 19.9836 9.3295 19.9566 9.33065C19.6129 9.34033 19.2692 9.34892 18.9255 9.35697C18.811 9.35983 18.811 9.35929 18.6081 9.40945C18.5851 9.41502 18.558 9.42105 18.5288 9.42217C18.0143 9.43589 17.4977 9.44849 16.9812 9.46163C16.9145 9.46317 16.8664 9.47535 16.8349 9.49325C16.8013 9.51111 16.7532 9.52221 16.6865 9.52374C16.2741 9.53438 15.8617 9.54556 15.4493 9.55457C15.3347 9.55689 15.2596 9.56913 15.2092 9.59267C15.1714 9.61046 15.1254 9.61888 15.0525 9.62085C14.6401 9.63094 14.2277 9.64267 13.8132 9.65055C13.6924 9.65276 13.6297 9.67011 13.5793 9.69203C13.5395 9.70978 13.4936 9.71548 13.4165 9.71738C12.6604 9.73552 11.9022 9.75363 11.1482 9.77506C11.0211 9.77879 10.9569 9.75866 10.8739 9.74362C10.7556 9.72253 10.6457 9.69996 10.6464 9.65763C10.6465 9.65112 10.6113 9.6429 10.5864 9.63703C10.4019 9.59306 10.4019 9.59306 10.3735 9.54913C10.3573 9.52224 10.3391 9.49477 10.325 9.46738C10.2987 9.4224 10.2323 9.40983 10.0407 9.41459C9.97196 9.41609 9.90321 9.41868 9.83449 9.41964C9.73244 9.42164 9.65575 9.40237 9.63759 9.36947C9.6275 9.35138 9.61533 9.33325 9.60524 9.31516C9.70938 9.31265 9.70731 9.31207 9.89162 9.24964C9.96912 9.22332 9.96912 9.22332 9.82183 9.19303C9.76582 9.18173 9.71191 9.16938 9.65172 9.15854C9.62474 9.15372 9.58941 9.15039 9.56025 9.15096C9.38738 9.15442 9.21658 9.15901 9.04578 9.16359C8.86248 9.16832 8.67819 9.15059 8.49291 9.11041C8.47009 9.10566 8.43485 9.09689 8.43909 9.09263C8.46234 9.07295 8.51869 9.06526 8.58949 9.06434C8.69362 9.06292 8.7957 9.05929 8.89776 9.05675L9.10396 9.0517C9.16885 9.03222 9.23581 9.01331 9.29654 8.99321C9.39285 8.96234 9.39287 8.96125 9.26215 8.93615C9.17916 8.92002 9.08991 8.90433 9.00482 8.88872C8.90276 8.89126 8.79861 8.89431 8.69656 8.8963C8.56743 8.89891 8.51558 8.88768 8.4829 8.85182C8.45431 8.82037 8.49016 8.7944 8.59018 8.78965C8.69228 8.78494 8.7881 8.78229 8.84062 8.75553C8.89104 8.72982 8.97864 8.72105 9.0869 8.72079C9.15562 8.72037 9.22437 8.71779 9.29311 8.71574C9.38268 8.71298 9.43104 8.68615 9.41286 8.65488C9.4028 8.63462 9.38229 8.61743 9.30119 8.61165C8.94146 8.5863 8.93728 8.58677 8.75894 8.54671C8.74235 8.54316 8.73003 8.53317 8.73636 8.52839C8.74691 8.52044 8.77002 8.5089 8.79502 8.50771C9.03459 8.5 9.27413 8.49337 9.51363 8.48945C9.59277 8.48814 9.65111 8.48536 9.67852 8.46576C9.71647 8.43875 9.70027 8.41294 9.62776 8.39266C9.60497 8.38629 9.56764 8.37803 9.54266 8.37813C9.26775 8.38305 8.99488 8.39072 8.71997 8.39564C8.69497 8.39629 8.64935 8.38625 8.63906 8.37901C8.61848 8.36562 8.65001 8.34881 8.72296 8.34412C8.81884 8.33767 8.91668 8.33885 8.98168 8.31286C9.07185 8.2759 9.18279 8.24258 9.28334 8.20744C9.30011 8.20122 9.3253 8.18917 9.32116 8.18802C9.26934 8.17516 9.20914 8.16487 9.15523 8.15252C9.06399 8.1319 9.06445 8.10531 9.08572 8.08017C9.10273 8.05984 9.16532 8.0528 9.24232 8.05416C9.27563 8.05475 9.31725 8.05548 9.3444 8.05108C9.41537 8.04039 9.43854 8.0256 9.40335 8.01358C9.38266 8.0067 9.34536 7.99681 9.32036 7.99745C8.87464 8.0075 8.42685 8.01697 7.98313 8.0314C7.85189 8.03559 7.7919 8.01391 7.71307 7.99786C7.65291 7.98539 7.59679 7.98006 7.52172 7.98688C7.45082 7.99323 7.38221 7.98767 7.33882 7.96899C7.30369 7.95372 7.36635 7.94234 7.53519 7.9312C7.56646 7.92904 7.60187 7.92803 7.62486 7.92301C7.86733 7.86866 7.86734 7.86812 8.03398 7.86346C8.19645 7.85927 8.19646 7.85873 8.28235 7.82875C8.32215 7.8148 8.36612 7.80092 8.40385 7.78638C8.41853 7.78067 8.44369 7.77026 8.43543 7.76685C8.38993 7.74922 8.32548 7.74428 8.25465 7.74683C8.09214 7.75319 7.90079 7.74222 7.81455 7.79227C7.7809 7.81122 7.72877 7.81573 7.65379 7.81766C6.89979 7.83584 6.14575 7.85619 5.3897 7.87325C5.26681 7.87596 5.21026 7.89505 5.162 7.91646C5.12004 7.93418 5.07416 7.93879 4.99501 7.94065C4.91586 7.94252 4.85339 7.94304 4.80792 7.92432C4.78106 7.91299 4.80422 7.8982 4.86693 7.88411C4.95681 7.86398 4.94064 7.83655 4.91195 7.81053C4.89143 7.79334 4.82712 7.78026 4.75842 7.78013C4.65639 7.7805 4.55847 7.78474 4.47351 7.76153C4.42378 7.74817 4.3615 7.73838 4.30549 7.72653C4.19766 7.70237 4.08983 7.67767 3.93763 7.68964C3.83366 7.68238 3.76116 7.66155 3.67818 7.64489C3.53917 7.61746 3.52675 7.61344 3.62712 7.58861C3.74212 7.56078 3.65331 7.52013 3.71627 7.49193C3.78343 7.46162 3.87549 7.43556 3.95718 7.40769C3.97813 7.40046 3.99699 7.39373 4.01793 7.3865C3.97026 7.3748 3.92679 7.36047 3.87073 7.35188C3.79805 7.34082 3.7608 7.32822 3.76555 7.29465C3.75107 7.2895 3.75709 7.3021 3.77369 7.30565C3.79236 7.30923 3.8382 7.30733 3.86116 7.30393C3.91962 7.29465 3.949 7.2816 3.93463 7.26994C3.92641 7.26383 3.887 7.25553 3.86202 7.25509C3.81623 7.25428 3.77648 7.26552 3.76347 7.29461C3.52997 7.31275 3.28835 7.31934 3.04676 7.32376C3.02176 7.32441 2.99073 7.313 2.96169 7.30706C2.86628 7.28692 2.86627 7.28746 2.58538 7.27707C2.55625 7.27602 2.51684 7.26772 2.50241 7.25987C2.44263 7.2257 2.44536 7.18937 2.41684 7.15358C2.47136 7.13174 2.52586 7.11045 2.58245 7.08919C2.69564 7.04612 2.84203 7.00908 2.93032 6.96124C2.91206 6.93431 2.88755 6.90728 2.97951 6.88719C3.24016 6.86464 3.23808 6.86461 3.3093 6.83981C3.51249 6.76956 3.71361 6.69873 3.92511 6.62972C3.98164 6.61172 3.98182 6.60141 3.88206 6.5915C3.85088 6.58878 3.81759 6.58765 3.78427 6.58815C3.68014 6.59011 3.5759 6.59804 3.47395 6.59407C3.37199 6.59065 3.29749 6.56544 3.21449 6.54932C3.12943 6.53262 3.04437 6.51537 2.95931 6.49813C2.86146 6.49803 2.76337 6.5115 2.66598 6.48535C2.59139 6.46503 2.49797 6.44981 2.41291 6.43257C2.47816 6.39246 2.59943 6.36312 2.69373 6.32841C2.77965 6.29681 2.78172 6.29739 3.01112 6.27592C3.11956 6.26589 3.15811 6.20523 3.06684 6.1857C2.95692 6.16205 2.84072 6.13991 2.72869 6.1173C2.63084 6.1172 2.53068 6.13009 2.43745 6.10402C2.36493 6.08428 2.28189 6.07033 2.16105 6.07525C1.95687 6.08359 1.74863 6.08589 1.54241 6.09202C1.47158 6.09403 1.39461 6.0905 1.36372 6.0715C1.34314 6.0581 1.40381 6.04126 1.47256 6.03867C1.57672 6.03508 1.6705 6.03022 1.72301 6.004C1.77344 5.97775 1.86516 5.97123 1.97346 5.96934C2.00262 5.96877 2.03603 5.96284 2.05072 5.95659C2.1262 5.92643 2.20993 5.90077 2.37018 5.90468C2.43697 5.895 2.47259 5.88206 2.45201 5.86867C2.43965 5.86139 2.3961 5.85139 2.37111 5.85204C2.19826 5.85442 2.02541 5.85679 1.85665 5.86359C1.77749 5.86653 1.71711 5.86655 1.66744 5.84939C1.63225 5.83791 1.65124 5.82359 1.71812 5.80903C1.77664 5.79649 1.79357 5.78104 1.78973 5.76252C1.78008 5.71946 1.71786 5.70587 1.51801 5.70506C1.37436 5.7047 1.3391 5.69702 1.30853 5.65956C1.30036 5.65073 1.27976 5.63843 1.29443 5.63271C1.38458 5.59739 1.44366 5.55283 1.61256 5.53844C1.67927 5.5331 1.75004 5.53435 1.79191 5.52097C1.83379 5.5076 1.87154 5.49198 1.91549 5.47918C1.96989 5.46386 2.00762 5.44932 1.98283 5.43857C1.94153 5.41938 1.87495 5.41658 1.79783 5.42173C1.73113 5.42598 1.66036 5.42528 1.59161 5.42732C1.46871 5.43112 1.36906 5.41525 1.35491 5.39111C1.31647 5.32746 1.27595 5.26432 1.24168 5.20074C1.23765 5.19307 1.24823 5.18348 1.26499 5.17726C1.32367 5.1555 1.3865 5.13489 1.44725 5.1137C1.51846 5.08945 1.63077 5.09631 1.7266 5.09312C1.86201 5.08845 1.862 5.08899 2.04399 5.04009C2.11512 5.02072 2.23778 5.03102 2.31095 5.01386C2.33395 5.00829 2.3695 4.99915 2.36336 4.99361C2.35515 4.98641 2.31362 4.98025 2.28246 4.97644C2.25338 4.97267 2.21803 4.97042 2.18678 4.97149C1.8077 4.98055 1.43068 4.99072 1.05161 4.99923C0.987041 5.00081 0.916487 4.98762 0.893889 4.97039C0.871272 4.95425 0.877851 4.93536 0.874005 4.91738C0.934756 4.89619 1.0038 4.87678 1.05626 4.85382C1.09613 4.83607 1.14206 4.82874 1.22117 4.82905C1.32527 4.82925 1.42737 4.82454 1.54401 4.82172C1.76186 4.7463 1.97563 4.66701 2.21013 4.59189C2.30436 4.56152 2.28204 4.52856 2.30137 4.4947C2.32066 4.46355 2.46002 4.4709 2.55384 4.46387C2.6289 4.45759 2.65418 4.44067 2.62525 4.42821C2.60873 4.42086 2.57141 4.41206 2.54227 4.41155C2.47359 4.41033 2.40482 4.41401 2.33608 4.41551C2.26735 4.41701 2.18829 4.41398 2.13193 4.42222C2.07766 4.42995 2.04195 4.44778 2.00629 4.46289C1.96852 4.47959 1.9143 4.48461 1.83519 4.4843C1.73319 4.48358 1.63112 4.48667 1.52907 4.48867C1.41705 4.46552 1.30086 4.44284 1.19302 4.41868C1.17228 4.41397 1.16834 4.40141 1.17057 4.39331C1.1751 4.37222 1.14411 4.35864 1.07561 4.34712C1.01749 4.3374 0.969837 4.32408 0.915914 4.31227C0.9578 4.29835 1.00384 4.28505 1.03742 4.2699C1.11085 4.23808 1.20285 4.21581 1.36101 4.21969C1.42382 4.19963 1.47423 4.17446 1.55567 4.16124C1.63292 4.14849 1.7638 4.16491 1.82264 4.13392C1.85206 4.1187 1.89608 4.10156 1.95239 4.09604C2.04207 4.08731 2.15853 4.09479 2.2111 4.06532C2.24263 4.0485 2.28869 4.03357 2.34913 4.03029C2.4179 4.02662 2.48868 4.02679 2.53882 4.01736C2.56597 4.01241 2.59526 4.00424 2.5954 3.99664C2.59549 3.99121 2.55399 3.98342 2.52491 3.97965C2.49792 3.97538 2.46258 3.97204 2.43134 3.97257C2.32722 3.97399 2.22513 3.97816 2.12101 3.97958C2.09185 3.98015 2.05861 3.97577 2.02745 3.97196C1.93603 3.96166 1.94246 3.95091 2.01565 3.93266C2.08883 3.91495 2.1413 3.89145 2.20205 3.87026C2.26872 3.86764 2.35194 3.87074 2.39792 3.86123C2.47522 3.84577 2.52977 3.8223 2.59258 3.80224C2.66132 3.8002 2.73211 3.80036 2.79673 3.79553C2.82383 3.79384 2.83653 3.78212 2.85955 3.77547C2.90141 3.76263 2.93714 3.74372 2.99345 3.7382C3.0852 3.73005 3.19753 3.73583 3.25217 3.70693C3.28369 3.69012 3.33189 3.67251 3.39019 3.67245C3.55257 3.67315 3.62178 3.64451 3.70553 3.61776C3.76834 3.5977 3.90136 3.6109 3.97042 3.59095C4.01644 3.57819 4.05004 3.56195 4.09606 3.54974C4.11489 3.54464 4.15448 3.54262 4.18573 3.54155C4.35654 3.53642 4.5294 3.5335 4.70022 3.52783C4.72731 3.52668 4.75243 3.51898 4.77336 3.51283C4.81731 3.49949 4.84471 3.48043 4.89899 3.47216C4.95327 3.46389 5.03028 3.46525 5.09693 3.46371C5.31145 3.45936 5.33014 3.46186 5.4267 3.41742C5.50645 3.38137 5.69954 3.41137 5.76479 3.37127C5.80268 3.34805 5.87171 3.32972 5.99455 3.32918C6.16737 3.32843 6.33822 3.32113 6.5111 3.31712C6.66523 3.31333 6.66315 3.31329 6.83055 3.26576C6.90588 3.24429 7.01613 3.24949 7.11403 3.24687C7.21817 3.24437 7.31403 3.23955 7.36446 3.21329C7.41488 3.18758 7.50661 3.18052 7.61283 3.17859C7.71072 3.17652 7.82098 3.18118 7.89837 3.16083C8.08661 3.11203 8.08454 3.11146 8.21576 3.10834C8.42196 3.1033 8.62817 3.09825 8.83438 3.09266C8.97186 3.08911 9.11549 3.09056 9.24474 3.0809C9.33855 3.07387 9.38072 3.04421 9.44145 3.02411C9.61226 3.01899 9.78307 3.01386 9.95388 3.00927C10.1934 3.00264 10.435 2.99713 10.6766 2.99108C10.7811 2.9723 10.7964 2.92697 10.9713 2.92788C11.0754 2.92863 11.1775 2.92338 11.2817 2.92087C11.4545 2.91633 11.6254 2.90957 11.7982 2.90882C11.9294 2.90842 11.9528 2.87952 12.0218 2.86228C12.0448 2.85617 12.0658 2.84731 12.0929 2.84616C12.3637 2.83574 12.6427 2.83741 12.9074 2.81982C12.9345 2.81813 12.9597 2.80717 12.966 2.79914C12.9703 2.79487 12.935 2.78611 12.9122 2.7819C12.8852 2.77708 12.8499 2.77212 12.8208 2.77269C11.9605 2.79388 11.1003 2.81561 10.2401 2.8368C10.1193 2.8401 10.1193 2.83956 9.82475 2.89407C9.79968 2.89852 9.77045 2.90343 9.7392 2.90451C9.60172 2.9086 9.4622 2.90993 9.32677 2.91569C9.21635 2.92025 9.12488 2.91212 9.04614 2.89119C8.99019 2.87609 8.93199 2.87072 8.86121 2.87055C8.78209 2.87079 8.72995 2.87584 8.6839 2.88968C8.62319 2.9087 8.59151 2.9342 8.46445 2.93738C7.87918 2.9504 7.29387 2.96612 6.71066 2.9808C6.62962 2.97177 6.59028 2.95968 6.61133 2.94648C6.62396 2.93856 6.64913 2.92814 6.67412 2.9275C6.91368 2.92033 7.15528 2.91482 7.39483 2.90819C7.42816 2.90715 7.47393 2.90904 7.49276 2.90395C7.58477 2.88114 7.61877 2.84211 7.79156 2.84245C7.8915 2.84258 7.99363 2.83624 8.0895 2.83033C8.1166 2.82864 8.14177 2.81768 8.14816 2.80965C8.15241 2.80484 8.11716 2.79662 8.09225 2.79238C8.00095 2.77502 7.89447 2.79215 7.80308 2.77968C7.77193 2.77533 7.72832 2.76913 7.72427 2.76254C7.72021 2.7565 7.75577 2.74735 7.78085 2.74182C7.80384 2.7368 7.83515 2.73247 7.86639 2.73139C8.14135 2.72376 8.41632 2.71558 8.69122 2.71066C8.80368 2.70885 8.88301 2.69667 8.9334 2.67259C8.97119 2.6548 9.01716 2.64584 9.08797 2.64438C9.56911 2.63278 10.0503 2.61902 10.5335 2.60909C10.6543 2.60688 10.717 2.59007 10.7674 2.56761C10.8073 2.54986 10.8532 2.54415 10.9302 2.54226C11.6197 2.5262 12.305 2.5068 12.9944 2.49183C13.1214 2.48918 13.1593 2.46651 13.2242 2.44757C13.2472 2.44146 13.2619 2.43249 13.2911 2.42866C13.3203 2.42484 13.3578 2.42604 13.3932 2.42558C13.9431 2.41194 14.493 2.39667 15.0449 2.3847C15.1741 2.38209 15.1995 2.3554 15.2664 2.33758C15.2895 2.33201 15.3104 2.32261 15.3375 2.32146C15.75 2.31028 16.1624 2.30019 16.5748 2.28955C16.8497 2.28246 17.1247 2.27537 17.3996 2.26883C17.4899 2.2668 17.5963 2.2495 17.7191 2.21692C17.74 2.21132 17.7692 2.20477 17.7963 2.20362C18.5879 2.18285 19.3773 2.16367 20.1688 2.14344C20.2354 2.1419 20.2835 2.13026 20.3171 2.1124C20.3508 2.09453 20.3989 2.08289 20.4634 2.08132C21.0821 2.06509 21.7007 2.04941 22.3214 2.03485C22.4338 2.03249 22.5132 2.02086 22.5635 1.99732C22.6013 1.97953 22.6473 1.97057 22.7181 1.96911C23.3367 1.95397 23.9554 1.9372 24.576 1.92318C24.6948 1.92039 24.7534 1.90297 24.812 1.88229C24.833 1.87506 24.8498 1.86287 24.8748 1.86223C25.1831 1.85247 25.4894 1.84213 25.7997 1.83729C25.9288 1.83523 25.9729 1.8132 26.0253 1.79241C26.0673 1.77578 26.1152 1.77066 26.1944 1.76988C26.3672 1.76805 26.538 1.76183 26.7068 1.75558C26.7318 1.75439 26.7632 1.74301 26.7654 1.73545C26.7698 1.72141 26.7221 1.71079 26.6431 1.70451C25.8183 1.72524 24.9914 1.74594 24.1666 1.76666C24.0763 1.76905 23.9698 1.78635 23.8471 1.81857C23.8262 1.82417 23.7969 1.83071 23.7698 1.83187C22.9783 1.8521 22.1889 1.87182 21.3974 1.89205C21.3308 1.89359 21.2827 1.90523 21.249 1.92309C21.2154 1.94096 21.1673 1.9526 21.1028 1.95417C20.3467 1.9734 19.5906 1.99317 18.8324 2.01073C18.7199 2.01309 18.6406 2.02418 18.5902 2.04826C18.5524 2.06605 18.5065 2.07501 18.4357 2.07647C17.7129 2.09412 16.9922 2.11343 16.2674 2.12995C16.1945 2.13138 16.1406 2.11469 16.1451 2.10065C16.1452 2.09305 16.1787 2.08116 16.2037 2.08051C16.5807 2.06925 16.9557 2.05741 17.3348 2.05053C17.4618 2.04843 17.4997 2.02521 17.5646 2.00627C17.5855 1.99958 17.6023 1.99065 17.6294 1.98733C17.6586 1.9835 17.6961 1.9847 17.7315 1.98424C18.6251 1.96147 19.5187 1.93815 20.4143 1.91759C20.5434 1.91444 20.5688 1.88829 20.6358 1.87047C20.6588 1.86436 20.6798 1.85496 20.7069 1.85435C20.9818 1.84617 21.2568 1.83963 21.5317 1.83308C22.0128 1.82094 22.494 1.8088 22.9772 1.7967C23.0703 1.79436 23.1768 1.77724 23.2967 1.74534C23.3176 1.73974 23.3469 1.73265 23.374 1.73205C24.6466 1.69968 25.9193 1.66731 27.1919 1.63548C27.2586 1.63394 27.3067 1.62231 27.3403 1.60444C27.3739 1.58712 27.4199 1.5749 27.4866 1.57282C29.2071 1.52936 30.9255 1.48586 32.6459 1.44348C32.7584 1.44057 32.8377 1.43057 32.8881 1.40595C32.9238 1.38812 32.9719 1.3792 33.0427 1.37719C34.9339 1.32968 36.8252 1.28217 38.7186 1.23416C39.9912 1.20233 41.2639 1.16942 42.5365 1.13868C42.6532 1.13585 42.7159 1.12013 42.7746 1.09891C42.7935 1.09164 42.8124 1.07949 42.8374 1.07885C43.1103 1.07009 43.3832 1.06242 43.656 1.05475C43.7411 1.07091 43.8262 1.08653 43.9113 1.10268C43.9762 1.0832 44.039 1.06314 44.1039 1.04365C44.5162 1.03519 44.9225 1.01793 45.3389 1.01768C45.366 1.01816 45.395 1.02844 45.424 1.03438C45.617 1.07199 45.7273 1.07122 45.8509 1.0278C45.8949 1.01229 45.9326 0.998299 45.9993 0.996761C46.2055 0.990629 46.4138 0.98779 46.6179 0.979993C46.7284 0.97597 46.8198 0.983556 46.8986 1.00395C46.9545 1.01905 47.0127 1.02605 47.0814 1.024C47.4605 1.01441 47.8375 1.00532 48.2166 0.994637C48.2437 0.994029 48.2689 0.985244 48.2898 0.979099C48.3337 0.96576 48.3715 0.951225 48.4134 0.937307C48.4694 0.947525 48.5317 0.955682 48.5794 0.968466C48.6374 0.983605 48.6915 0.984561 48.7707 0.982158C50.2829 0.943159 51.7971 0.905826 53.3093 0.866285C53.4385 0.863135 53.4943 0.886921 53.5815 0.900403C53.6105 0.905259 53.6396 0.9112 53.6708 0.912837C53.7041 0.91451 53.7395 0.911878 53.7728 0.910838C54.908 0.882015 56.0432 0.853734 57.1784 0.824911C57.2784 0.822332 57.4024 0.833569 57.5505 0.858622C57.5774 0.863441 57.6127 0.86895 57.6419 0.867836C58.1585 0.85578 58.675 0.842097 59.1895 0.829462C59.2561 0.827924 59.3122 0.837599 59.3723 0.851147C59.4905 0.877663 59.4989 0.877809 59.5869 0.843534C59.6288 0.827444 59.6727 0.817904 59.7415 0.814232C59.8165 0.810127 59.8768 0.812821 59.9349 0.823618C60.018 0.838655 60.0779 0.862514 60.205 0.858785C60.7549 0.842976 61.3068 0.831545 61.8547 0.815156C61.9797 0.811391 62.0459 0.831018 62.129 0.846055C62.158 0.851454 62.1849 0.859529 62.2161 0.861709C62.2473 0.863888 62.2848 0.86075 62.3182 0.85971C63.0055 0.842526 63.695 0.825921 64.3803 0.80653C64.5094 0.802838 64.5652 0.827166 64.6524 0.840649C64.6815 0.845505 64.7146 0.85369 64.7417 0.853082C65.1541 0.843532 65.5686 0.832933 65.981 0.822297C66.1289 0.818392 66.1289 0.818935 66.3531 0.856008C66.3801 0.860827 66.4154 0.865793 66.4446 0.865222C66.9257 0.853628 67.4089 0.841527 67.8901 0.82939C67.9887 0.826787 68.18 0.837403 68.4641 0.861237C68.4953 0.863959 68.5286 0.867803 68.5598 0.867268C69.1097 0.85363 69.6617 0.840571 70.2095 0.825267C70.3199 0.82233 70.4114 0.828831 70.4901 0.849222C70.5461 0.864324 70.6042 0.871322 70.673 0.869278C71.2916 0.853596 71.9123 0.839035 72.5289 0.821688C72.6476 0.818355 72.7244 0.831653 72.8074 0.848861C72.8343 0.854766 72.8613 0.862842 72.8924 0.865563C72.9236 0.868285 72.959 0.866739 72.9924 0.865698C73.611 0.850016 74.2317 0.835998 74.8482 0.818108C74.9732 0.814343 75.0395 0.83397 75.1225 0.849007C75.1516 0.854406 75.1826 0.864726 75.2076 0.864624C75.4492 0.859659 75.6908 0.85578 75.9304 0.846436C76.0596 0.841116 76.1153 0.867072 76.2025 0.880555C76.2316 0.884868 76.2647 0.893597 76.2918 0.892989C76.8084 0.880933 77.3249 0.867792 77.8394 0.854072C77.9123 0.852101 77.9664 0.857941 78.0244 0.87308C78.1011 0.893434 78.1904 0.902612 78.3029 0.898625C78.5425 0.890368 78.7841 0.885945 79.0236 0.879858C79.118 0.877544 79.3094 0.888341 79.5977 0.912248C79.6288 0.91497 79.6621 0.918814 79.6933 0.91828C80.1057 0.908187 80.5202 0.898673 80.9306 0.886915C81.041 0.883435 81.1325 0.890478 81.2112 0.910869C81.2672 0.925971 81.3253 0.932969 81.3941 0.930925C81.7732 0.92133 82.1502 0.911698 82.5293 0.902102C82.6667 0.898557 82.8043 0.89067 82.9417 0.893094C83.0416 0.894858 83.1139 0.922736 83.2032 0.937341C83.2281 0.94158 83.2698 0.938516 83.3031 0.937476C83.7843 0.925339 84.2675 0.914866 84.7466 0.899979C84.8716 0.896213 84.9379 0.915841 85.0209 0.930878C85.0499 0.936276 85.081 0.946596 85.106 0.945952C85.2788 0.943031 85.4497 0.937902 85.6225 0.933896C85.8287 0.92885 86.037 0.926011 86.2412 0.917671C86.4078 0.910841 86.4694 0.959159 86.6026 0.963138C86.7046 0.966566 86.8088 0.959177 86.9109 0.956635C87.1171 0.951588 87.3233 0.945456 87.5295 0.941495C87.6024 0.940067 87.6587 0.932376 87.682 0.913242C87.6862 0.909517 87.651 0.900752 87.6282 0.895463C87.4443 0.855302 87.2593 0.83756 87.0732 0.842238C86.9003 0.846787 86.7295 0.851373 86.5567 0.854837C86.5275 0.855408 86.4943 0.850478 86.4652 0.846708C86.3821 0.836012 86.3906 0.825305 86.4617 0.807016C86.5328 0.788728 86.5874 0.765804 86.6481 0.744618C86.7332 0.760235 86.8162 0.775815 86.9013 0.791431C86.97 0.78993 87.0388 0.787886 87.1075 0.786384C87.4512 0.778335 87.7949 0.769743 88.1385 0.76278C88.1635 0.762135 88.1945 0.77354 88.2236 0.779482C88.3065 0.79669 88.3812 0.81158 88.5021 0.807741C88.8104 0.797439 89.1207 0.791515 89.429 0.783384C89.5192 0.780996 89.6432 0.792414 89.801 0.817638C89.828 0.821915 89.8633 0.826881 89.8925 0.82631C90.2028 0.819301 90.5111 0.81117 90.8214 0.803618C90.8881 0.80208 90.9525 0.810274 91.0001 0.826858C91.0187 0.833701 91.0143 0.844481 91.0919 0.934882C91.3362 1.0114 91.5049 1.00677 91.6757 1.00327C91.7486 1.00185 91.8132 1.00027 91.8612 0.990262C91.8863 0.984733 91.9177 0.976601 91.9178 0.969545C91.9179 0.964118 91.8723 0.954627 91.8431 0.953027C91.6373 0.938536 91.4412 0.957877 91.2393 0.959198C91.1456 0.959716 91.0647 0.939288 91.0486 0.90806C91.0446 0.899303 91.0385 0.889967 91.0324 0.881174L91.0163 0.854287C90.9351 0.850141 90.8871 0.859064 90.8514 0.876892C90.822 0.891574 90.78 0.908206 90.7237 0.915355C90.6674 0.923046 90.5904 0.920059 90.5216 0.92156C90.455 0.923098 90.382 0.928868 90.3196 0.923966C90.2573 0.918523 90.2076 0.901903 90.1495 0.891105C90.1225 0.885743 90.0894 0.8781 90.0623 0.878708C89.8228 0.88371 89.5853 0.888748 89.3478 0.8965C89.2229 0.900808 89.1629 0.876949 89.082 0.861406C89.0197 0.84945 88.9572 0.851062 88.9464 0.875842C88.9183 0.935063 89.0136 0.961717 89.2261 0.954067C89.4011 0.947384 89.5593 0.948548 89.696 0.987877C89.7147 0.993092 89.7583 0.996034 89.7854 0.995426C89.9562 0.991926 90.1249 0.986761 90.2957 0.98326C90.3269 0.982726 90.3602 0.985485 90.3893 0.98817C90.8134 1.02497 90.8134 1.02551 90.9571 1.02153C91.0258 1.01949 91.0925 1.01795 91.0877 0.935351C91.2204 0.849204 91.4286 0.846907 91.6307 0.837446C91.7599 0.831582 91.8178 0.85649 91.9029 0.870479C91.932 0.875335 91.963 0.884569 91.9901 0.883961C92.4379 0.87395 92.8836 0.862816 93.3294 0.850597C93.4044 0.848663 93.4584 0.852875 93.5165 0.868014C93.5911 0.887245 93.6741 0.900112 93.7929 0.895693C94.0304 0.886856 94.274 0.883013 94.5136 0.876384C94.5955 0.87421 94.7188 0.885797 94.8836 0.911143C94.9106 0.91542 94.9459 0.920386 94.975 0.919815C95.2166 0.91485 95.4562 0.907678 95.6957 0.902133C95.7624 0.900595 95.8226 0.909258 95.8744 0.92483C95.9261 0.940401 95.9884 0.949101 96.053 0.947527C96.2946 0.942019 96.5341 0.935389 96.7737 0.929845C96.8028 0.929274 96.8382 0.933697 96.8651 0.937974C97.034 0.963394 97.1574 0.97498 97.2351 0.972734C97.4059 0.967605 97.5808 0.966892 97.7496 0.959013C97.9142 0.951061 97.999 0.984044 98.1111 1.00339C98.4193 0.996349 98.7296 0.991511 99.0359 0.981715C99.1609 0.977407 99.2272 0.996492 99.3122 1.01211C99.3413 1.01751 99.3702 1.02833 99.3973 1.02827C99.5014 1.02793 99.6035 1.02376 99.7056 1.02122C99.8076 1.01868 99.9118 1.01618 100.014 1.01363C100.13 1.03143 100.206 1.06969 100.373 1.06015C100.473 1.05431 100.579 1.05456 100.681 1.05202C100.784 1.04948 100.888 1.04697 100.99 1.04443C101.058 1.04293 101.129 1.04255 101.196 1.03884C101.319 1.03287 101.379 1.06053 101.466 1.07401C101.495 1.07832 101.528 1.08542 101.555 1.08481C101.762 1.08085 101.97 1.07801 102.172 1.06909C102.328 1.06208 102.434 1.08024 102.544 1.10498C102.567 1.11026 102.606 1.11368 102.635 1.11311C102.877 1.10814 103.117 1.10097 103.356 1.09542C103.421 1.09385 103.483 1.10363 103.535 1.11866C103.589 1.13427 103.649 1.14239 103.715 1.14085C103.955 1.13531 104.197 1.12872 104.436 1.12317C104.465 1.1226 104.501 1.12757 104.528 1.13239C104.76 1.17015 104.76 1.17015 104.898 1.1666C104.931 1.16556 104.966 1.1651 105 1.16406C105.17 1.15948 105.347 1.15988 105.514 1.1498C105.706 1.13853 105.845 1.15944 105.98 1.19276C106.15 1.18926 106.325 1.18855 106.492 1.18063C106.617 1.1747 106.683 1.19649 106.766 1.21153C106.795 1.21693 106.826 1.22725 106.851 1.2266C107.093 1.22164 107.335 1.21776 107.572 1.20838C107.701 1.20306 107.757 1.22847 107.844 1.2425C107.873 1.24735 107.904 1.2555 107.932 1.2549C108.069 1.25298 108.206 1.24889 108.344 1.24535C108.504 1.24112 108.504 1.24166 108.716 1.27851C108.816 1.29602 108.916 1.2853 109.014 1.28322C109.118 1.28072 109.216 1.27919 109.299 1.30291C109.35 1.31794 109.413 1.32772 109.477 1.32669C109.615 1.32423 109.754 1.32181 109.89 1.31606C109.998 1.31145 110.091 1.31745 110.17 1.33892C110.226 1.35403 110.284 1.36211 110.353 1.36007C110.661 1.35248 110.972 1.34438 111.28 1.33734C111.307 1.33673 111.344 1.34228 111.369 1.3476C111.427 1.3584 111.483 1.37024 111.539 1.38209C111.675 1.37959 111.814 1.37988 111.948 1.37464C112.089 1.36954 112.218 1.3691 112.328 1.4009C112.351 1.40781 112.386 1.41766 112.411 1.41756C112.515 1.41723 112.617 1.4136 112.719 1.41106C112.821 1.40852 112.926 1.40601 113.028 1.40347C113.146 1.41913 113.22 1.45953 113.387 1.44999C113.487 1.44415 113.593 1.4444 113.695 1.44186C113.797 1.43931 113.902 1.43627 114.004 1.43427C114.037 1.43377 114.074 1.43172 114.103 1.4344C114.135 1.43713 114.162 1.4452 114.189 1.45111C114.272 1.46831 114.348 1.48541 114.467 1.47828C114.567 1.47244 114.673 1.47269 114.775 1.46961C114.868 1.46727 114.992 1.47885 115.145 1.50436C115.239 1.52013 115.345 1.50355 115.434 1.51707C115.497 1.52631 115.547 1.54076 115.605 1.55102C115.63 1.55526 115.669 1.55758 115.698 1.55701C115.836 1.55455 115.975 1.55213 116.111 1.54637C116.221 1.54181 116.313 1.54994 116.389 1.57083C116.445 1.58594 116.501 1.5929 116.572 1.59089C116.916 1.58176 117.259 1.57479 117.601 1.56399C117.718 1.56008 117.811 1.57096 117.875 1.59164C117.985 1.62723 118.142 1.59037 118.256 1.61952C118.326 1.6376 118.397 1.65838 118.526 1.65252C118.763 1.6426 119.005 1.63926 119.245 1.63372C119.33 1.64988 119.415 1.66604 119.502 1.68223C119.639 1.67869 119.777 1.67514 119.914 1.67214C120.016 1.6696 120.12 1.66655 120.223 1.66455C120.256 1.66405 120.291 1.66251 120.322 1.66577C120.354 1.66903 120.378 1.67653 120.407 1.68247C120.551 1.7116 120.551 1.71214 120.788 1.70548C120.89 1.70239 120.988 1.70086 121.073 1.72408C121.152 1.74555 121.245 1.751 121.354 1.74694C121.558 1.73969 121.764 1.73519 121.972 1.73126C122.037 1.72969 122.097 1.73998 122.151 1.75504C122.232 1.77873 122.332 1.77832 122.434 1.77415C122.569 1.76894 122.702 1.76369 122.816 1.79611C122.839 1.80302 122.874 1.81287 122.899 1.81277C123.07 1.81144 123.243 1.81123 123.41 1.80386C123.576 1.79649 123.657 1.83157 123.771 1.84987C123.942 1.84583 124.115 1.84182 124.286 1.83778C124.319 1.83674 124.359 1.83255 124.388 1.83578C124.51 1.84934 124.58 1.8913 124.749 1.88179C124.847 1.87646 124.953 1.87616 125.055 1.87634C125.082 1.87681 125.118 1.88612 125.136 1.89351C125.146 1.89749 125.136 1.90762 125.123 1.91282C125.086 1.92736 125.04 1.94066 125.006 1.95581C125.002 1.95791 125.041 1.96838 125.064 1.97312C125.12 1.98388 125.184 1.98339 125.259 1.98037C125.324 1.97771 125.391 1.98649 125.436 2.00358C125.455 2.01042 125.448 2.02116 125.408 2.05628C125.408 2.08288 125.452 2.07171 125.466 2.0546C125.49 2.03004 125.446 2.02113 125.363 2.03322C125.304 2.04196 125.275 2.05556 125.289 2.06722C125.297 2.07333 125.337 2.08163 125.408 2.05628C125.592 2.02695 125.729 2.02341 125.867 2.01986C125.902 2.01886 125.944 2.01417 125.969 2.01786C126.058 2.03247 126.141 2.04968 126.228 2.06587C126.328 2.06438 126.422 2.05789 126.519 2.08078C126.656 2.11306 126.663 2.11045 126.796 2.10684C126.865 2.10479 126.933 2.10329 127.002 2.10179C127.071 2.10029 127.125 2.10938 127.185 2.12293C127.307 2.15061 127.318 2.15079 127.399 2.11749C127.448 2.09717 127.481 2.0907 127.541 2.10153C127.741 2.13817 127.743 2.14037 127.913 2.13362C128.055 2.12798 128.188 2.12816 128.292 2.16093C128.362 2.18388 128.385 2.1794 128.444 2.15764C128.595 2.10004 128.663 2.10234 128.944 2.15072C129.074 2.17365 129.21 2.15379 129.343 2.15343C129.456 2.15324 129.535 2.16766 129.542 2.202C129.548 2.22327 129.567 2.2388 129.642 2.24718C129.671 2.25041 129.706 2.25483 129.735 2.25426C129.908 2.2508 130.079 2.24621 130.252 2.24166C130.339 2.2394 130.387 2.21474 130.371 2.1808C130.353 2.14465 130.387 2.13221 130.512 2.12411C130.587 2.11946 130.647 2.12161 130.707 2.13244C130.774 2.14447 130.755 2.15391 130.696 2.17242C130.556 2.21772 130.572 2.24732 130.751 2.28358C130.813 2.29608 130.863 2.30727 130.877 2.32436C130.885 2.33319 130.876 2.34444 130.895 2.35128C130.996 2.38944 131.138 2.41527 131.295 2.43543C131.448 2.42346 131.551 2.44972 131.667 2.47132C131.759 2.48813 131.867 2.47701 131.965 2.47331C132.076 2.46929 132.167 2.47525 132.246 2.49672C132.302 2.51183 132.36 2.51937 132.429 2.51787C132.566 2.51432 132.706 2.51298 132.841 2.50669C132.958 2.50115 133.045 2.51354 133.118 2.53328C133.209 2.55823 133.311 2.54429 133.407 2.54924C133.536 2.55532 133.599 2.60476 133.768 2.59471C133.868 2.58887 133.972 2.588 134.076 2.58766C134.103 2.5876 134.137 2.59741 134.159 2.60433C134.269 2.63612 134.398 2.63677 134.54 2.63059C134.638 2.62634 134.734 2.62261 134.829 2.64492C134.987 2.68244 135.161 2.71592 135.327 2.75088C135.349 2.77625 135.332 2.80526 135.451 2.82201C135.513 2.83071 135.571 2.84313 135.619 2.85646C135.677 2.87214 135.731 2.8769 135.806 2.87442C135.941 2.86921 136.083 2.87008 136.216 2.86266C136.339 2.85615 136.416 2.87542 136.49 2.89356C136.55 2.90819 136.606 2.9157 136.679 2.90722C136.755 2.89931 136.809 2.90624 136.869 2.92196C136.954 2.94354 136.96 2.94148 137.243 2.95245C137.272 2.9535 137.307 2.96227 137.324 2.96962C137.332 2.97356 137.313 2.98409 137.298 2.98926C137.28 2.99544 137.25 3.00252 137.223 3.00367C136.915 3.01235 136.605 3.01936 136.296 3.02803C136.265 3.02911 136.232 3.03232 136.209 3.03734C136.184 3.04287 136.152 3.05046 136.152 3.05806C136.152 3.06349 136.194 3.07073 136.223 3.07505C136.314 3.08914 136.423 3.07206 136.512 3.08775C136.572 3.09804 136.622 3.11195 136.682 3.1217C136.707 3.12594 136.746 3.12609 136.778 3.12556C136.882 3.12359 136.984 3.11997 137.088 3.11855C137.117 3.11852 137.15 3.12453 137.177 3.12935C137.377 3.16544 137.377 3.16544 137.549 3.16144C137.618 3.15994 137.691 3.15308 137.756 3.15748C137.818 3.16183 137.872 3.17744 137.928 3.18766C138.044 3.20925 138.154 3.2302 138.162 3.27267C138.165 3.28903 138.234 3.30435 138.303 3.30665C138.369 3.30891 138.44 3.30419 138.509 3.30215C138.617 3.29971 138.741 3.31077 138.881 3.33531C138.939 3.34557 139.001 3.34776 139.076 3.34365C139.106 3.34199 139.141 3.34479 139.172 3.34805C139.274 3.358 139.274 3.36831 139.207 3.38667C139.113 3.41378 139.121 3.41664 139.383 3.44569C139.483 3.45668 139.559 3.47541 139.642 3.49207C139.777 3.51888 139.775 3.51884 139.685 3.54928C139.664 3.55597 139.645 3.56324 139.624 3.57047C139.563 3.59057 139.515 3.61252 139.39 3.61249C139.253 3.61223 139.115 3.61849 138.978 3.62204C138.845 3.62565 138.809 3.63805 138.821 3.67518C138.835 3.71994 138.862 3.7253 139.101 3.72898C139.17 3.73019 139.23 3.7356 139.282 3.75117C139.256 3.7681 139.21 3.78086 139.144 3.78294C138.973 3.78807 138.8 3.79207 138.629 3.79612C138.492 3.79966 138.354 3.80321 138.217 3.80675C138.131 3.80905 138.077 3.83631 138.099 3.86819C138.111 3.88632 138.121 3.90442 138.131 3.92251C138.154 3.95873 138.197 3.96873 138.337 3.96956C138.372 3.97019 138.405 3.96589 138.439 3.96756C138.574 3.97375 138.638 4.01993 138.8 4.01357C138.936 4.00836 139.077 4.00923 139.211 4.00181C139.333 3.9953 139.402 4.01605 139.487 4.03221C139.516 4.03761 139.547 4.04847 139.572 4.04837C139.745 4.04545 139.918 4.04253 140.086 4.03519C140.166 4.03224 140.213 4.03634 140.276 4.05047C140.425 4.08459 140.429 4.08304 140.652 4.0772C140.815 4.07247 140.817 4.07359 141.024 4.11037C141.082 4.12062 141.145 4.12173 141.22 4.11871C141.318 4.11501 141.42 4.10812 141.522 4.11806C141.553 4.12079 141.592 4.128 141.602 4.13523C141.609 4.14023 141.579 4.15165 141.554 4.15501C141.371 4.18 141.156 4.17133 140.956 4.1792C140.894 4.18136 140.832 4.16994 140.78 4.15492C140.726 4.13931 140.668 4.13231 140.597 4.13377C140.459 4.13732 140.32 4.13866 140.184 4.14495C140.068 4.15049 139.987 4.13658 139.906 4.11832C139.879 4.11242 139.848 4.10155 139.821 4.10162C139.513 4.10704 139.202 4.11242 138.896 4.12221C138.773 4.12656 138.703 4.10794 138.62 4.09182C138.591 4.08642 138.562 4.0756 138.535 4.07566C138.431 4.07599 138.328 4.08016 138.224 4.08267C137.845 4.09226 137.468 4.1019 137.089 4.11041C137.064 4.11105 137.033 4.0991 137.004 4.09371C136.948 4.08294 136.89 4.07269 136.832 4.06244C136.728 4.06494 136.626 4.06857 136.522 4.06999C136.447 4.07084 136.38 4.07726 136.369 4.0977C136.363 4.11115 136.431 4.12485 136.504 4.12505C136.575 4.12521 136.646 4.11995 136.704 4.12803C136.992 4.16787 136.992 4.16842 137.174 4.16456C137.332 4.16084 137.315 4.15511 137.454 4.18742C137.514 4.20152 137.568 4.21007 137.637 4.20802C137.808 4.20344 137.981 4.19889 138.154 4.19543C138.181 4.19482 138.216 4.20087 138.243 4.20569C138.446 4.24185 138.446 4.24294 138.615 4.23777C138.836 4.2319 138.844 4.22933 138.991 4.26504C139.093 4.28964 139.187 4.27555 139.285 4.27619C139.397 4.29934 139.519 4.3205 139.621 4.34618C139.741 4.37654 139.868 4.37389 140.006 4.36818C140.108 4.36401 140.208 4.3636 140.291 4.38732C140.369 4.40934 140.465 4.4132 140.573 4.40968C140.671 4.40652 140.771 4.39797 140.873 4.41171C140.9 4.41545 140.942 4.42432 140.939 4.42917C140.937 4.43673 140.91 4.44711 140.883 4.44989C140.691 4.46876 140.481 4.46451 140.279 4.47125C140.252 4.47241 140.216 4.46581 140.189 4.46099C140.131 4.45019 140.075 4.43781 140.019 4.4265C139.917 4.42796 139.813 4.42721 139.713 4.43196C139.636 4.43548 139.578 4.43391 139.522 4.41989C139.47 4.40704 139.414 4.39139 139.352 4.38649C139.289 4.38159 139.216 4.38844 139.147 4.39049C139.079 4.39253 139 4.38951 138.945 4.39724C138.891 4.40496 138.857 4.42337 138.822 4.43794C138.782 4.45407 138.728 4.45854 138.649 4.45877C138.576 4.45911 138.518 4.45646 138.464 4.43976C138.441 4.43285 138.41 4.42741 138.379 4.42252C138.35 4.41821 138.316 4.41165 138.289 4.41226C137.979 4.41927 137.671 4.4274 137.36 4.43495C137.258 4.43748 137.1 4.4262 136.888 4.4011C136.859 4.39787 136.824 4.39345 136.795 4.39402C136.622 4.39749 136.451 4.40207 136.278 4.40662C136.103 4.41113 136.105 4.41008 135.808 4.37064C135.754 4.36317 135.675 4.37046 135.611 4.36824C135.475 4.36313 135.41 4.31637 135.249 4.32223C135.114 4.32744 134.972 4.32657 134.837 4.33395C134.714 4.34046 134.643 4.32022 134.56 4.3041C134.531 4.2987 134.5 4.28729 134.475 4.28794C134.165 4.2944 133.857 4.30253 133.445 4.29689C133.343 4.29509 133.388 4.30729 133.455 4.31227C133.55 4.31993 133.582 4.30908 133.53 4.28646C133.493 4.2706 133.439 4.26205 133.395 4.26507C133.372 4.26684 133.343 4.27664 133.445 4.29689C133.552 4.31942 133.546 4.33071 133.565 4.33755C133.61 4.3541 133.674 4.36175 133.741 4.36076C133.845 4.35879 133.947 4.35517 134.051 4.35375C134.081 4.35318 134.116 4.3576 134.143 4.36242C134.371 4.40011 134.373 4.40231 134.617 4.39359C134.694 4.39115 134.75 4.39214 134.81 4.40352C134.894 4.4191 134.953 4.44404 135.081 4.43868C135.249 4.43135 135.422 4.42843 135.595 4.42551C135.622 4.4249 135.651 4.43518 135.682 4.44007C135.767 4.4546 135.829 4.48013 135.956 4.47206C136.054 4.46564 136.161 4.46535 136.265 4.46556C136.292 4.46603 136.333 4.47491 136.346 4.48218C136.37 4.49511 136.339 4.50921 136.268 4.51827C136.239 4.5221 136.199 4.52032 136.166 4.52136C136.028 4.5249 135.891 4.52899 135.753 4.53145C135.681 4.53288 135.612 4.53981 135.603 4.55974C135.597 4.5732 135.671 4.58646 135.742 4.58662C135.846 4.58683 135.95 4.58433 136.05 4.57903C136.227 4.57022 136.381 4.57619 136.524 4.61292C136.626 4.6386 136.62 4.6298 136.727 4.70226C136.754 4.72065 136.835 4.72371 136.906 4.72388C137.076 4.72417 137.155 4.73371 137.14 4.75028C137.121 4.77057 137.061 4.77602 136.984 4.77737C136.846 4.77929 136.709 4.78392 136.571 4.78746C136.538 4.7885 136.5 4.7911 136.469 4.78946C136.438 4.78783 136.409 4.7808 136.382 4.77544C136.324 4.7641 136.274 4.74748 136.212 4.74258C136.15 4.73768 136.077 4.74453 136.008 4.74657C135.939 4.74808 135.866 4.75493 135.804 4.75003C135.741 4.74513 135.69 4.72793 135.634 4.71717C135.607 4.71181 135.573 4.70362 135.546 4.70369C135.409 4.7056 135.271 4.71023 135.134 4.71324C135.021 4.71596 134.897 4.7049 134.762 4.68007C134.704 4.66927 134.643 4.66875 134.568 4.67177C134.402 4.67751 134.4 4.67585 134.096 4.63901C134.067 4.63524 134.032 4.63081 134.003 4.63193C133.692 4.63894 133.384 4.64707 133.076 4.65466C132.9 4.65914 132.763 4.67862 132.665 4.71309C132.556 4.75134 132.554 4.7513 132.66 4.77163C132.745 4.78833 132.821 4.81194 132.915 4.82173C133.002 4.83087 133.111 4.80836 133.204 4.83498C133.252 4.84831 133.314 4.86297 133.374 4.86567C133.47 4.87007 133.572 4.85613 133.663 4.88163C133.709 4.89438 133.777 4.90807 133.836 4.90964C133.937 4.91253 134.042 4.90568 134.144 4.90368C134.175 4.90315 134.21 4.90377 134.239 4.907C134.271 4.91081 134.298 4.9178 134.325 4.9237C134.407 4.94362 134.497 4.95389 134.605 4.94657C134.782 4.9345 134.94 4.94489 135.077 4.98204C135.096 4.98726 135.142 4.98861 135.171 4.98695C135.246 4.98285 135.31 4.98345 135.364 4.99471C135.387 4.99946 135.42 5.00764 135.416 5.01245C135.41 5.02048 135.384 5.0309 135.357 5.03313C135.161 5.04813 134.951 5.04659 134.749 5.0528C134.722 5.05341 134.689 5.04576 134.662 5.0404C134.604 5.02906 134.554 5.01244 134.492 5.00754C134.429 5.00264 134.356 5.00841 134.288 5.00991C134.219 5.01141 134.146 5.01827 134.084 5.01391C134.021 5.00901 133.963 4.99441 133.913 4.98159C133.855 4.96699 133.799 4.96437 133.722 4.96844C133.622 4.97373 133.518 4.97298 133.416 4.97498C133.36 4.96368 133.304 4.95129 133.246 4.94049C133.219 4.93513 133.186 4.92857 133.156 4.9286C133.019 4.93052 132.882 4.93461 132.744 4.93815C132.607 4.9417 132.607 4.9417 132.374 4.90393C132.347 4.89966 132.312 4.89469 132.283 4.89526C132.11 4.89873 131.939 4.90385 131.766 4.90732C131.699 4.90886 131.639 4.90019 131.585 4.88459C131.534 4.86901 131.471 4.85977 131.407 4.86135C131.132 4.86789 130.857 4.8739 130.582 4.88262C130.471 4.8861 130.378 4.87902 130.301 4.85866C130.214 4.83487 130.116 4.83857 130.014 4.84111C129.783 4.84789 129.781 4.84731 129.634 4.81702C129.605 4.81108 129.576 4.80026 129.549 4.80032C129.309 4.80424 129.068 4.80757 128.83 4.81641C128.705 4.82126 128.639 4.80109 128.556 4.78551C128.527 4.78011 128.496 4.76925 128.471 4.7699C128.298 4.77282 128.125 4.77519 127.956 4.78307C127.787 4.79095 127.724 4.73934 127.597 4.73764C127.424 4.73514 127.253 4.74461 127.082 4.74919C126.945 4.75274 126.807 4.75628 126.67 4.75983C126.532 4.76337 126.395 4.76583 126.257 4.77046C126.185 4.77298 126.131 4.76714 126.07 4.7525C125.994 4.73324 125.902 4.71751 125.819 4.69976C125.735 4.68271 125.642 4.67545 125.539 4.67798C125.505 4.67902 125.47 4.67948 125.437 4.68052C125.185 4.68801 125.185 4.68693 124.865 4.64708C124.85 4.64519 124.813 4.6505 124.798 4.65459C124.754 4.66793 124.714 4.68242 124.674 4.69638C124.618 4.68725 124.55 4.68061 124.513 4.66746C124.407 4.63031 124.238 4.67564 124.132 4.63903C124.093 4.62531 124.024 4.6127 123.962 4.60834C123.897 4.60395 123.824 4.61026 123.758 4.61234C123.585 4.61743 123.585 4.61689 123.436 4.66258C123.361 4.68514 123.253 4.67889 123.155 4.68259C123.053 4.68676 122.955 4.68829 122.87 4.66453C122.793 4.64309 122.7 4.63655 122.589 4.64112C122.454 4.64687 122.314 4.64929 122.177 4.65175C122.148 4.65233 122.112 4.64899 122.083 4.64522C121.765 4.60758 121.765 4.60703 121.611 4.61137C121.543 4.61341 121.472 4.61325 121.405 4.61696C121.292 4.62366 121.207 4.61076 121.126 4.59196C121.1 4.58605 121.068 4.57519 121.041 4.57526C120.904 4.57554 120.769 4.57804 120.633 4.58054C120.529 4.5825 120.425 4.58283 120.325 4.58867C120.158 4.59821 120.078 4.5615 119.964 4.5432C119.793 4.54724 119.62 4.54908 119.449 4.55584C119.37 4.55878 119.318 4.55624 119.258 4.54215C119.181 4.52451 119.111 4.5048 118.986 4.51074C118.819 4.51866 118.644 4.51937 118.473 4.52287C118.359 4.50403 118.276 4.46837 118.112 4.47795C118.012 4.48378 117.905 4.48353 117.803 4.48608C117.666 4.48962 117.528 4.49262 117.391 4.49671C117.243 4.50062 117.245 4.49903 117.019 4.463C116.888 4.44169 116.752 4.46047 116.619 4.46138C116.515 4.46225 116.463 4.4863 116.487 4.51876C116.511 4.55122 116.455 4.57519 116.359 4.57784C116.119 4.58393 115.878 4.59052 115.638 4.59553C115.609 4.5961 115.574 4.59167 115.547 4.5874C115.377 4.56159 115.253 4.54982 115.177 4.55209C115.006 4.55722 114.831 4.55848 114.662 4.56581C114.546 4.57081 114.461 4.55791 114.386 4.53814C114.328 4.523 114.274 4.51879 114.199 4.52072C113.374 4.54253 112.549 4.56163 111.726 4.58457C111.604 4.58783 111.533 4.57084 111.45 4.55472C111.421 4.54932 111.394 4.53853 111.365 4.53802C111.296 4.53681 111.228 4.54048 111.159 4.54252C110.851 4.55011 110.542 4.56041 110.232 4.56471C110.101 4.56674 110.065 4.59108 110.008 4.61071C109.964 4.62567 109.914 4.6313 109.835 4.63208C109.76 4.63293 109.706 4.62926 109.648 4.61412C109.574 4.59435 109.488 4.58144 109.372 4.58698C109.236 4.59328 109.097 4.59462 108.959 4.59816C108.888 4.59963 108.834 4.60844 108.811 4.62757C108.807 4.63076 108.85 4.63967 108.875 4.64499C108.958 4.66274 109.037 4.68314 109.13 4.69618C109.226 4.70927 109.33 4.69808 109.43 4.69659C109.466 4.69613 109.499 4.69346 109.532 4.69459C109.563 4.69514 109.601 4.69906 109.624 4.70435C109.731 4.73068 109.848 4.74956 109.996 4.73752C110.125 4.74685 110.19 4.79307 110.355 4.78403C110.455 4.77874 110.559 4.77732 110.663 4.77644C110.69 4.77638 110.719 4.78666 110.748 4.79206C110.831 4.8071 110.898 4.82998 111.023 4.82296C111.156 4.81554 111.298 4.81641 111.433 4.8112C111.508 4.80818 111.562 4.81294 111.62 4.82808C111.695 4.84731 111.78 4.86238 111.897 4.85575C111.997 4.84992 112.103 4.85017 112.205 4.84708C112.338 4.84346 112.338 4.84401 112.575 4.88184C112.602 4.88612 112.637 4.89108 112.666 4.89051C112.839 4.88705 113.01 4.88192 113.183 4.87846C113.249 4.87692 113.314 4.88511 113.359 4.90166C113.378 4.9085 113.372 4.91925 113.378 4.92858C113.034 4.93717 112.69 4.9436 112.349 4.95548C112.22 4.96026 112.162 4.93698 112.077 4.92299C112.047 4.91813 112.016 4.90836 111.989 4.90896C111.748 4.91393 111.508 4.91947 111.269 4.92719C111.194 4.92967 111.138 4.9265 111.082 4.90977C110.939 4.86545 110.763 4.88516 110.599 4.88823C110.474 4.89036 110.434 4.90649 110.45 4.9426C110.468 4.98526 110.543 4.99961 110.734 4.99485C110.803 4.99335 110.872 4.99076 110.941 4.9898C111.007 4.98881 111.068 4.99693 111.121 5.01254C111.173 5.02811 111.235 5.03681 111.3 5.03578C111.437 5.03332 111.577 5.03089 111.71 5.0251C111.821 5.02054 111.912 5.02758 111.989 5.04902C112.076 5.07281 112.174 5.06966 112.274 5.06654C112.507 5.0598 112.509 5.06038 112.654 5.09008C112.683 5.09602 112.712 5.10685 112.74 5.10678C112.979 5.10287 113.221 5.10007 113.456 5.0912C113.579 5.08685 113.647 5.10543 113.73 5.12101C113.759 5.12641 113.788 5.13778 113.815 5.13717C113.988 5.13425 114.161 5.13133 114.33 5.124C114.409 5.12051 114.457 5.12461 114.519 5.13873C114.672 5.17347 114.677 5.17246 114.895 5.16601C114.962 5.16393 115.035 5.15924 115.097 5.16469C115.16 5.17013 115.209 5.18675 115.268 5.19755C115.294 5.20237 115.328 5.20892 115.357 5.20835C115.494 5.20644 115.632 5.20235 115.769 5.1988C115.898 5.19511 115.898 5.19565 116.139 5.23356C116.239 5.24944 116.339 5.23926 116.437 5.23664C116.543 5.23363 116.639 5.23532 116.72 5.25792C116.8 5.28052 116.898 5.28116 117.002 5.27866C117.1 5.27604 117.2 5.26586 117.3 5.28228C117.528 5.31997 117.528 5.32051 117.67 5.3165C117.876 5.31091 118.08 5.30582 118.289 5.30136C118.316 5.30075 118.351 5.30789 118.378 5.31271C118.436 5.3235 118.486 5.34067 118.548 5.34557C118.611 5.35101 118.684 5.34578 118.75 5.3437C118.965 5.33718 118.979 5.33363 119.122 5.37199C119.243 5.40342 119.393 5.36374 119.505 5.39937C119.569 5.4195 119.656 5.43624 119.777 5.42915C119.877 5.42331 119.981 5.42298 120.085 5.42047C120.25 5.41632 120.25 5.41686 120.458 5.4531C120.485 5.45792 120.52 5.46397 120.547 5.46336C120.684 5.46144 120.824 5.46011 120.957 5.45269C121.114 5.44405 121.213 5.46643 121.329 5.48857C121.421 5.50592 121.529 5.49481 121.625 5.49107C121.731 5.48752 121.827 5.49084 121.906 5.5134C121.988 5.53658 122.086 5.53559 122.19 5.53308C122.288 5.53101 122.388 5.52029 122.488 5.53725C122.702 5.57468 122.702 5.57468 122.858 5.57093C122.996 5.56738 123.133 5.56329 123.27 5.56138C123.298 5.56077 123.331 5.56841 123.358 5.57377C123.416 5.58457 123.465 5.60173 123.528 5.60663C123.59 5.61154 123.663 5.60577 123.732 5.60426C123.801 5.60276 123.874 5.59591 123.936 5.60027C123.998 5.60463 124.056 5.61922 124.106 5.63204C124.164 5.64718 124.218 5.64976 124.297 5.64573C124.398 5.64044 124.502 5.64065 124.604 5.63865C124.66 5.64995 124.718 5.66129 124.772 5.67365C124.828 5.68658 124.888 5.68656 124.965 5.68412C125.221 5.67561 125.223 5.67728 125.437 5.71471C125.535 5.73163 125.637 5.72095 125.735 5.71888C125.839 5.71637 125.937 5.71593 126.018 5.73907C126.096 5.76109 126.194 5.76553 126.298 5.76085C126.365 5.75768 126.436 5.75622 126.505 5.7558C126.536 5.75581 126.573 5.75864 126.596 5.76339C126.706 5.78813 126.814 5.81066 126.966 5.79869C127.099 5.80538 127.165 5.85106 127.325 5.84521C127.461 5.84 127.602 5.84087 127.736 5.83345C127.859 5.82693 127.946 5.84367 128.008 5.86377C128.12 5.8994 128.279 5.85661 128.39 5.89169C128.455 5.91183 128.538 5.92849 128.663 5.92256C128.8 5.9163 128.844 5.92847 128.883 5.96335C128.905 5.9833 128.901 5.99896 128.859 6.01342C128.817 6.02843 128.771 6.0249 128.705 6.00582C128.628 5.98438 128.537 5.97897 128.426 5.98136C128.318 5.98379 128.252 5.95439 128.163 5.94196C128.073 5.92898 127.967 5.94611 127.873 5.9298C127.653 5.89171 127.653 5.89172 127.503 5.89558C127.401 5.89812 127.295 5.89842 127.195 5.90426C127.076 5.91139 127 5.89321 126.919 5.87658C126.89 5.87064 126.861 5.85981 126.836 5.85991C126.596 5.86383 126.355 5.86716 126.117 5.87654C125.992 5.8814 125.926 5.86068 125.843 5.84565C125.814 5.84025 125.783 5.82993 125.758 5.83057C125.552 5.83453 125.348 5.8407 125.141 5.84629C125.101 5.86025 125.058 5.87359 125.02 5.88866C124.98 5.90425 124.926 5.91035 124.847 5.90841C124.716 5.90609 124.586 5.92661 124.455 5.89553C124.321 5.86384 124.31 5.86528 124.179 5.87002C124.012 5.87631 123.835 5.87102 123.679 5.88943C123.652 5.89275 123.623 5.90255 123.622 5.91014C123.622 5.91503 123.664 5.92282 123.691 5.92764C123.782 5.94228 123.889 5.92516 123.98 5.94034C124.04 5.95009 124.09 5.964 124.15 5.97429C124.175 5.97853 124.212 5.97865 124.246 5.97869C124.281 5.97932 124.315 5.97556 124.348 5.97669C124.379 5.97779 124.412 5.98163 124.437 5.98696C124.551 6.0096 124.672 6.03072 124.773 6.05695C124.873 6.08259 124.967 6.0685 125.067 6.06864C125.466 6.11368 125.466 6.11422 125.734 6.10702C125.801 6.10548 125.87 6.10344 125.938 6.1052C125.967 6.10571 125.994 6.11596 126.023 6.1219C126.106 6.13965 126.185 6.1557 126.302 6.14907C126.402 6.14324 126.508 6.14348 126.61 6.1404C126.748 6.13685 126.748 6.13685 126.98 6.17516C127.038 6.18487 127.101 6.18489 127.176 6.18187C127.24 6.17921 127.307 6.18852 127.352 6.20507C127.371 6.21191 127.364 6.22266 127.371 6.23199C127.164 6.23704 126.956 6.23934 126.756 6.24883C126.627 6.2547 126.569 6.23033 126.484 6.21634C126.455 6.21149 126.424 6.20171 126.397 6.20232C126.193 6.20686 125.988 6.21248 125.784 6.21974C125.759 6.22038 125.728 6.23231 125.726 6.23988C125.721 6.25391 125.773 6.2684 125.848 6.26918C125.948 6.27094 126.046 6.2629 126.135 6.28673C126.21 6.30759 126.303 6.31793 126.414 6.31119C126.48 6.30748 126.551 6.30873 126.618 6.30502C126.795 6.29512 126.955 6.30066 127.088 6.33992C127.189 6.35149 127.289 6.34402 127.387 6.34086C127.46 6.33835 127.531 6.3358 127.583 6.34703C127.693 6.37069 127.801 6.3943 127.953 6.38233C128.117 6.40043 128.241 6.43465 128.378 6.46313C128.443 6.47675 128.492 6.48469 128.568 6.47787C128.599 6.47516 128.636 6.47583 128.67 6.47479C128.738 6.47328 128.811 6.46643 128.874 6.47079C128.936 6.47569 128.988 6.49234 129.044 6.50311C129.071 6.50847 129.102 6.51716 129.129 6.51709C129.233 6.51622 129.335 6.51259 129.437 6.51005C129.539 6.50805 129.641 6.50605 129.743 6.50405C129.828 6.51967 129.916 6.53532 130.001 6.55094C130.138 6.54739 130.276 6.54385 130.411 6.54081C130.563 6.53698 130.563 6.53752 130.781 6.57502C130.879 6.59195 130.983 6.58402 131.077 6.57861C131.233 6.56997 131.337 6.59243 131.447 6.61609C131.469 6.62083 131.511 6.62428 131.538 6.62259C131.646 6.6169 131.74 6.62452 131.819 6.646C131.875 6.6611 131.931 6.66861 131.999 6.6671C132.239 6.66102 132.478 6.65439 132.718 6.64939C132.745 6.64878 132.78 6.65429 132.807 6.65911C133.019 6.69596 133.021 6.69762 133.177 6.69169C133.317 6.68656 133.446 6.68558 133.556 6.71737C133.579 6.72429 133.614 6.73414 133.639 6.73404C133.81 6.73163 133.982 6.7287 134.151 6.72245C134.228 6.71947 134.282 6.72205 134.343 6.7356C134.419 6.7527 134.488 6.77291 134.615 6.76809C134.967 6.75422 134.969 6.75751 135.384 6.80231C135.413 6.80554 135.453 6.80189 135.486 6.80031C135.557 6.79613 135.609 6.80465 135.671 6.81823C135.81 6.84891 135.815 6.84736 135.948 6.84374C136.05 6.84066 136.156 6.84144 136.256 6.83507C136.41 6.82584 136.512 6.84881 136.626 6.87091C136.717 6.88827 136.824 6.87711 136.922 6.87396C137.028 6.8704 137.124 6.87372 137.202 6.89574C137.256 6.91081 137.314 6.91943 137.383 6.91793C137.623 6.91239 137.862 6.90576 138.102 6.90021C138.131 6.89964 138.166 6.90461 138.193 6.90888C138.43 6.94672 138.43 6.94835 138.665 6.94002C138.74 6.93754 138.803 6.93756 138.859 6.94994C138.913 6.96175 138.971 6.97309 139.027 6.9844C139.129 6.9824 139.233 6.98315 139.333 6.9784C139.41 6.97488 139.464 6.978 139.524 6.99046C139.603 7.00651 139.667 7.03316 139.794 7.02292C139.859 7.01809 139.934 7.02104 139.998 7.01675C140.076 7.01105 140.128 7.01631 140.188 7.03149C140.262 7.04963 140.339 7.06836 140.46 7.06181C140.593 7.05439 140.735 7.05526 140.87 7.05005C140.945 7.04703 140.997 7.05229 141.057 7.06747C141.132 7.0867 141.217 7.0996 141.334 7.0946C141.571 7.08522 141.573 7.08797 141.804 7.12624C141.862 7.13595 141.924 7.13597 141.999 7.13295C142.064 7.13029 142.13 7.13961 142.176 7.15615C142.194 7.163 142.188 7.17374 142.194 7.18308L142.223 7.1939ZM123.761 1.97238C123.692 1.97388 123.623 1.97592 123.524 1.92694C123.518 1.91869 123.522 1.909 123.508 1.90168C123.475 1.88644 123.423 1.87521 123.361 1.87248C123.248 1.86833 123.113 1.88439 123.114 1.89854C123.116 1.91052 123.152 1.92145 123.22 1.93243C123.249 1.93675 123.272 1.94366 123.299 1.94848C123.378 1.96236 123.44 1.98788 123.554 1.97742C123.544 1.96042 123.534 1.94341 123.554 1.97742C123.544 1.99786 123.575 2.01307 123.649 2.02036C123.67 2.02235 123.701 2.02128 123.718 2.01886C123.783 2.00806 123.794 1.99196 123.746 1.94824C123.738 1.95515 123.746 1.96778 123.763 1.97133C123.781 1.97491 123.827 1.97301 123.85 1.96961C123.909 1.96033 123.938 1.94728 123.924 1.93562C123.915 1.92951 123.876 1.92121 123.851 1.92077C123.805 1.91996 123.766 1.9312 123.759 1.97234L123.761 1.97238ZM140.479 8.56266C140.327 8.57029 140.152 8.56341 140 8.58189C139.973 8.58521 139.946 8.5945 139.943 8.60207C139.943 8.60695 139.983 8.6147 140.008 8.61894C140.064 8.62862 140.126 8.62701 140.199 8.62558C140.309 8.62373 140.374 8.64983 140.459 8.66382C140.486 8.6681 140.521 8.67143 140.55 8.67086C140.719 8.66733 140.885 8.66321 141.054 8.65859C141.083 8.65747 141.115 8.65422 141.14 8.64978C141.223 8.63551 141.215 8.62451 141.134 8.61168C141.045 8.59708 140.974 8.57412 140.883 8.56219C140.754 8.54526 140.621 8.56245 140.481 8.5627L140.479 8.56266ZM128.652 8.75022C128.55 8.75277 128.45 8.75534 128.348 8.75789C128.315 8.75893 128.279 8.75884 128.248 8.76046C128.184 8.76312 128.136 8.77368 128.104 8.79103C128.152 8.80599 128.21 8.81516 128.274 8.81467C128.376 8.81321 128.476 8.80792 128.578 8.80809C128.689 8.80787 128.753 8.83343 128.838 8.84742C128.865 8.8517 128.898 8.85283 128.929 8.85392C129.083 8.85881 129.178 8.83224 129.149 8.79211C129.129 8.76081 129.05 8.74096 128.954 8.74307C128.852 8.74561 128.752 8.74819 128.65 8.75073L128.652 8.75022ZM141.205 7.7731C141.23 7.76432 141.257 7.75828 141.27 7.75036C141.308 7.72389 141.294 7.70247 141.226 7.67954C141.143 7.65148 141.04 7.66759 140.947 7.66865C140.924 7.66879 140.899 7.67975 140.886 7.68658C140.878 7.69132 140.877 7.70163 140.89 7.70456C140.994 7.72811 141.101 7.7501 141.207 7.77314L141.205 7.7731ZM123.18 5.8513C123.08 5.85388 122.978 5.85534 122.878 5.85955C122.853 5.86073 122.83 5.87064 122.815 5.87744C122.788 5.88999 122.817 5.90841 122.902 5.91154C123 5.91544 123.102 5.90801 123.204 5.90547C123.333 5.90232 123.408 5.88357 123.363 5.86539C123.317 5.84722 123.253 5.84282 123.18 5.85076L123.18 5.8513ZM13.6413 2.75786C13.708 2.75632 13.7767 2.75536 13.8434 2.75274C13.9059 2.75004 13.954 2.73895 13.9855 2.72159C13.9337 2.70656 13.8756 2.69793 13.811 2.69842C13.709 2.69988 13.609 2.70246 13.509 2.70612C13.4465 2.70827 13.3859 2.71915 13.371 2.73734C13.3583 2.75069 13.4976 2.76129 13.6434 2.75789L13.6413 2.75786ZM114.402 4.45264C114.429 4.45801 114.456 4.46825 114.483 4.46873C114.55 4.46991 114.618 4.46786 114.681 4.46354C114.708 4.46184 114.729 4.45244 114.742 4.44506C114.75 4.44033 114.748 4.43161 114.736 4.42704C114.676 4.39993 114.434 4.40489 114.394 4.43405C114.388 4.43936 114.396 4.44656 114.4 4.45261L114.402 4.45264ZM107.888 1.36487C107.894 1.37367 107.896 1.38239 107.904 1.39122C107.92 1.40779 107.966 1.42054 108.033 1.42986C108.085 1.41721 108.112 1.40249 108.11 1.38617C108.11 1.37749 108.102 1.36866 108.094 1.35983C108.078 1.34325 108.032 1.3305 107.966 1.32119C107.913 1.33384 107.886 1.34856 107.888 1.36487ZM145.996 9.1508C145.978 9.15753 145.959 9.16425 145.938 9.1704C145.994 9.18713 146.046 9.19293 146.085 9.18494C146.11 9.17996 146.125 9.17208 146.144 9.16535C146.088 9.14862 146.038 9.1434 145.996 9.1508ZM144.701 9.20176C144.728 9.20712 144.752 9.21408 144.781 9.21785C144.829 9.22412 144.873 9.21566 144.907 9.19672C144.88 9.19135 144.855 9.1844 144.826 9.18063C144.778 9.17436 144.734 9.18281 144.701 9.20176ZM145.522 9.11692C145.508 9.12969 145.537 9.14106 145.613 9.15164C145.632 9.14492 145.657 9.13885 145.67 9.13147C145.691 9.11935 145.656 9.10733 145.581 9.09733C145.562 9.10405 145.543 9.11077 145.522 9.11692ZM141.139 8.45433C141.124 8.4671 141.153 8.47847 141.23 8.48905C141.249 8.48233 141.274 8.47626 141.287 8.46888C141.308 8.45677 141.272 8.44474 141.198 8.43474C141.179 8.44146 141.16 8.44819 141.139 8.45433ZM135.221 4.50848C135.202 4.5152 135.183 4.52193 135.162 4.52807C135.218 4.5448 135.27 4.5506 135.31 4.54262C135.335 4.53763 135.35 4.52975 135.368 4.52303C135.313 4.50629 135.263 4.50107 135.221 4.50848ZM129.525 2.36998C129.575 2.37466 129.616 2.3678 129.652 2.34834C129.625 2.34298 129.6 2.33603 129.571 2.33226C129.524 2.32599 129.48 2.33444 129.446 2.35339C129.473 2.35875 129.5 2.36411 129.525 2.36998ZM126.482 2.18924C126.463 2.19597 126.444 2.20269 126.423 2.20884C126.479 2.22557 126.531 2.23137 126.571 2.22339C126.596 2.2184 126.611 2.21052 126.63 2.20379C126.574 2.18706 126.524 2.18184 126.482 2.18924ZM105.842 1.32876C105.823 1.33549 105.804 1.34221 105.783 1.34836C105.839 1.36509 105.891 1.37089 105.931 1.36291C105.956 1.35792 105.971 1.35004 105.99 1.34331C105.934 1.32658 105.884 1.32136 105.842 1.32876ZM2.94428 3.92897C2.91731 3.9236 2.89034 3.91824 2.86546 3.91237C2.80484 3.92596 2.78587 3.9392 2.81899 3.9501C2.83969 3.95698 2.87084 3.96133 2.89781 3.96669C2.95843 3.9531 2.97531 3.94037 2.94429 3.92842L2.94428 3.92897Z" fill="#014EFF"/>
</svg>
