<svg width="222" height="10" viewBox="0 0 222 10" fill="none" xmlns="http://www.w3.org/2000/svg">
<path d="M208.542 7.15083C208.238 7.15415 207.931 7.1547 207.633 7.16247C207.439 7.1672 207.357 7.14186 207.228 7.1271C207.185 7.122 207.139 7.1125 207.099 7.11288C206.798 7.11626 206.497 7.12072 206.196 7.12518C206.104 7.14472 206.045 7.17191 205.904 7.17973C205.766 7.18706 205.603 7.18419 205.449 7.18636C205.247 7.18876 205.044 7.19115 204.841 7.193C204.74 7.19393 204.657 7.20278 204.623 7.22172C204.616 7.22487 204.684 7.2342 204.721 7.23973C204.843 7.25818 204.963 7.27875 205.097 7.29361C205.226 7.30783 205.386 7.29111 205.524 7.30874C205.833 7.3484 205.836 7.34792 206.073 7.34557C206.276 7.34318 206.478 7.34024 206.681 7.33948C206.721 7.3391 206.767 7.34805 206.81 7.35315C206.938 7.36736 207.021 7.39596 207.211 7.38901C207.356 7.38342 207.515 7.38461 207.666 7.38292C207.791 7.40088 207.911 7.4209 208.043 7.43571C208.168 7.44987 208.205 7.45975 208.137 7.4743C208.075 7.48787 207.989 7.49232 207.876 7.4914C207.774 7.49015 207.673 7.49325 207.572 7.49418C207.523 7.49494 207.47 7.4951 207.421 7.49586C207.228 7.49842 207.228 7.49842 206.875 7.45746C206.737 7.44145 206.581 7.45768 206.449 7.44233C206.36 7.43207 206.283 7.41769 206.198 7.40695C206.161 7.4025 206.103 7.40093 206.057 7.4012C205.903 7.40229 205.749 7.4023 205.602 7.40675C205.498 7.40979 205.436 7.42391 205.448 7.43932C205.451 7.44534 205.524 7.45533 205.567 7.45663C205.666 7.45945 205.77 7.45369 205.865 7.45917C205.957 7.46459 206.052 7.47713 206.119 7.49026C206.257 7.51766 206.414 7.49817 206.546 7.50702C206.684 7.51651 206.797 7.54022 206.929 7.55558C206.966 7.55948 207.027 7.55514 207.079 7.55443C207.23 7.55329 207.38 7.55269 207.531 7.55154C207.656 7.5695 207.791 7.586 207.904 7.60591C208.109 7.6421 208.33 7.65848 208.598 7.64746C208.748 7.64143 208.895 7.64729 209.015 7.67057C209.137 7.69444 209.278 7.69476 209.435 7.69318C209.579 7.69139 209.727 7.68205 209.874 7.69985C210.193 7.73913 210.196 7.74081 210.573 7.73445C210.687 7.73265 210.773 7.73309 210.859 7.74709C210.938 7.75989 211.024 7.77118 211.107 7.78349C211.257 7.78235 211.411 7.78126 211.561 7.77957C211.755 7.77701 211.862 7.78651 211.908 7.81771C211.935 7.83665 211.947 7.85369 212.014 7.86737C212.094 7.88397 212.18 7.88495 212.296 7.88266C212.407 7.88082 212.487 7.87625 212.533 7.85753C212.552 7.84971 212.589 7.84277 212.623 7.83685C212.65 7.83245 212.694 7.82561 212.718 7.82713C212.764 7.83012 212.825 7.83717 212.841 7.84449C212.99 7.91282 212.99 7.91336 213.143 7.93506C213.311 7.95921 213.486 7.98129 213.639 8.00788C213.777 8.03148 213.915 8.0247 214.066 8.02735C214.179 8.02935 214.253 8.04477 214.243 8.05871C214.237 8.06675 214.194 8.07793 214.157 8.07836C213.856 8.08391 213.552 8.08777 213.251 8.09006C213.214 8.09049 213.168 8.07991 213.125 8.07427C213.039 8.06298 212.963 8.04643 212.871 8.04155C212.779 8.03667 212.671 8.04291 212.57 8.04384C212.469 8.04477 212.361 8.04992 212.269 8.04396C212.177 8.03799 212.104 8.02095 212.018 8.00912C211.978 8.00353 211.923 7.9955 211.889 7.99654C211.665 8.00561 211.499 7.98477 211.34 7.95862C211.307 7.95314 211.248 7.94885 211.205 7.94918C210.849 7.95212 210.496 7.95674 210.14 7.96077C209.995 7.96257 209.879 7.94151 209.849 7.90895C209.834 7.89077 209.803 7.87232 209.804 7.85441C209.804 7.82185 209.636 7.80096 209.513 7.80259C209.31 7.80444 209.105 7.80515 208.905 7.80977C208.742 7.81342 208.604 7.80447 208.494 7.78298C208.365 7.75845 208.218 7.76019 208.071 7.76356C207.96 7.76595 207.929 7.78332 207.934 7.82847C207.94 7.86494 207.887 7.87542 207.688 7.87787C207.436 7.88102 207.181 7.88412 206.926 7.8856C206.886 7.88598 206.84 7.87594 206.801 7.87035C206.715 7.85907 206.638 7.84197 206.546 7.83709C206.454 7.83167 206.347 7.83791 206.245 7.83938C206.144 7.84031 206.036 7.84601 205.944 7.84058C205.852 7.83516 205.776 7.81752 205.693 7.80575C205.653 7.80016 205.604 7.79224 205.564 7.79262C205.362 7.79339 205.159 7.79632 204.956 7.79872C204.729 7.80122 204.729 7.80122 204.407 7.76188C204.26 7.74409 204.113 7.75343 203.968 7.75522C203.815 7.75685 203.671 7.75648 203.548 7.7326C203.469 7.71708 203.38 7.70683 203.285 7.70786C203.03 7.70988 202.778 7.71358 202.523 7.71559C202.48 7.71592 202.422 7.71218 202.388 7.7067C202.226 7.68103 202.066 7.66031 201.839 7.66769C201.642 7.674 201.431 7.6708 201.234 7.67656C201.127 7.67955 201.077 7.69605 201.098 7.70999C201.111 7.71727 201.175 7.72654 201.218 7.7273C201.316 7.72958 201.424 7.72333 201.516 7.72822C201.706 7.73809 201.8 7.78535 202.049 7.77726C202.197 7.77226 202.35 7.77226 202.504 7.7728C202.543 7.7735 202.586 7.78403 202.629 7.79021C202.752 7.80703 202.859 7.82792 203.037 7.8213C203.184 7.8163 203.341 7.81689 203.492 7.81521C203.731 7.81238 203.731 7.81292 204.04 7.8515C204.188 7.86983 204.335 7.85995 204.479 7.8587C204.587 7.85788 204.688 7.85424 204.771 7.8633C204.903 7.87703 204.998 7.90476 205.16 7.906C205.314 7.90708 205.464 7.90214 205.618 7.90214C205.713 7.90219 205.802 7.91244 205.878 7.92845C205.958 7.94451 206.044 7.95254 206.148 7.95113C206.299 7.94944 206.452 7.94672 206.606 7.94672C206.649 7.94693 206.698 7.95268 206.738 7.95773C206.823 7.96901 206.906 7.98187 206.989 7.99365C207.139 7.99305 207.293 7.99467 207.44 7.99076C207.554 7.98788 207.634 7.99146 207.725 8.00394C207.842 8.02065 207.937 8.04838 208.127 8.03926C208.222 8.03496 208.333 8.03854 208.428 8.0348C208.545 8.0298 208.625 8.03392 208.707 8.05167C208.863 8.08536 209.06 8.08937 209.262 8.08101C209.484 8.07188 209.649 8.09001 209.814 8.11681C209.989 8.14486 209.989 8.14432 210.123 8.20695C210.163 8.22502 210.276 8.23516 210.371 8.23358C210.531 8.23097 210.669 8.23613 210.785 8.25881C210.908 8.28323 211.055 8.28311 211.206 8.2798C211.405 8.27518 211.605 8.27164 211.767 8.30599C211.847 8.3226 211.932 8.32791 212.04 8.32601C212.344 8.3216 212.651 8.32105 212.949 8.31437C213.13 8.30997 213.234 8.32917 213.357 8.346C213.522 8.369 213.7 8.39005 213.702 8.43298C213.702 8.44004 213.745 8.44894 213.782 8.45447C213.861 8.46728 213.947 8.47856 214.03 8.49088C214.152 8.50933 214.272 8.52501 214.441 8.5193C214.588 8.51485 214.745 8.51544 214.895 8.51321C215.046 8.51098 215.184 8.51071 215.319 8.53371C215.475 8.55981 215.64 8.58499 215.818 8.6055C215.943 8.6202 216.11 8.60196 216.244 8.62117C216.327 8.63294 216.407 8.64629 216.496 8.65655C216.532 8.66099 216.591 8.65931 216.64 8.65909C216.741 8.65871 216.846 8.65892 216.944 8.65523C217.058 8.65126 217.143 8.65387 217.229 8.66787C217.309 8.68067 217.388 8.69782 217.48 8.7027C217.618 8.71002 217.772 8.69102 217.91 8.71842C217.98 8.73215 218.069 8.74566 218.161 8.75109C218.253 8.75651 218.361 8.75027 218.459 8.75254C218.502 8.7533 218.554 8.76291 218.578 8.7704C218.594 8.77447 218.572 8.7844 218.55 8.78945C218.523 8.79547 218.483 8.80345 218.443 8.80383C218.139 8.80824 217.835 8.81101 217.531 8.81488C217.41 8.81636 217.228 8.80356 216.985 8.77647C216.899 8.76681 216.804 8.76676 216.696 8.76866C216.552 8.771 216.404 8.77763 216.254 8.7652C216.058 8.72483 215.816 8.71729 215.558 8.72685C215.45 8.73093 215.352 8.72919 215.272 8.71747C215.104 8.69387 214.926 8.67173 214.776 8.64466C214.66 8.6236 214.605 8.621 214.555 8.64619C214.54 8.65406 214.524 8.66247 214.53 8.67017C214.548 8.69763 214.581 8.72482 214.599 8.75228C214.605 8.75999 214.581 8.76824 214.565 8.77611C214.516 8.79804 214.451 8.79527 214.344 8.77438C214.237 8.75349 214.108 8.73873 213.936 8.74438C213.789 8.74938 213.629 8.74548 213.482 8.75102C213.254 8.75895 213.095 8.73876 212.933 8.71255C212.899 8.70707 212.841 8.70333 212.798 8.70366C212.34 8.70807 211.886 8.71416 211.428 8.71857C211.33 8.71955 211.241 8.70984 211.164 8.69383C211.085 8.67777 210.996 8.6686 210.898 8.66958C210.492 8.67383 210.087 8.67699 209.682 8.68395C209.516 8.68699 209.384 8.6776 209.271 8.65661C209.185 8.64098 209.105 8.63523 208.998 8.63496C208.881 8.63453 208.798 8.63849 208.74 8.6532C208.684 8.66742 208.724 8.67735 208.846 8.69146C208.978 8.70682 209.101 8.72581 209.226 8.74322C209.327 8.74284 209.429 8.74029 209.527 8.74256C209.57 8.74332 209.61 8.75379 209.653 8.75998C209.775 8.77789 209.888 8.79563 210.064 8.79003C210.211 8.78504 210.368 8.78617 210.518 8.78394C210.727 8.78165 210.727 8.78165 211.064 8.8218C211.15 8.83201 211.242 8.83309 211.352 8.83015C211.448 8.82803 211.546 8.83737 211.613 8.85484C211.641 8.86184 211.631 8.87253 211.572 8.90732C211.572 8.93391 211.636 8.92311 211.658 8.90612C211.692 8.88175 211.628 8.87248 211.505 8.88388C211.419 8.89213 211.376 8.90548 211.397 8.91726C211.409 8.92344 211.467 8.93207 211.572 8.90732C211.843 8.87953 212.049 8.87936 212.245 8.87414C212.362 8.87131 212.436 8.87479 212.527 8.89052C212.638 8.9093 212.748 8.92915 212.929 8.92367C213.126 8.91737 213.334 8.91996 213.534 8.91535C213.718 8.911 213.813 8.93656 213.93 8.95273C214.07 8.97204 214.227 8.95581 214.356 8.96785C214.491 8.98001 214.586 9.00557 214.742 9.01267C214.97 9.00203 215.113 9.03171 215.285 9.05265C215.42 9.0686 215.58 9.05948 215.724 9.05606C215.887 9.05242 216.022 9.06131 216.135 9.08231C216.263 9.10684 216.408 9.1045 216.555 9.10222C216.899 9.09743 216.911 9.09602 217.11 9.12939C217.254 9.15364 217.393 9.14631 217.537 9.14614C217.663 9.16302 217.785 9.18092 217.917 9.19628C217.951 9.20013 218.015 9.19584 218.067 9.19514C218.218 9.19345 218.371 9.19182 218.522 9.19013C218.623 9.1892 218.731 9.18296 218.823 9.18784C218.915 9.19326 218.991 9.21036 219.074 9.22213C219.157 9.23391 219.242 9.24573 219.322 9.258C219.445 9.27644 219.561 9.29207 219.733 9.28696C219.88 9.28251 220.034 9.28305 220.188 9.28087C220.381 9.27832 220.375 9.27983 220.733 9.31874C220.926 9.34006 221.126 9.32187 221.323 9.32317C221.421 9.32382 221.516 9.33147 221.583 9.3484C221.611 9.3554 221.601 9.36609 221.611 9.37548C221.104 9.38119 220.594 9.38468 220.093 9.39376C219.9 9.3974 219.799 9.37608 219.695 9.35795C219.523 9.32887 219.296 9.36285 219.134 9.32687C219.036 9.30506 218.895 9.29117 218.726 9.29796C218.627 9.30165 218.523 9.29927 218.422 9.30236C218.164 9.30975 217.927 9.30612 217.722 9.26505C217.652 9.25078 217.551 9.24193 217.477 9.22815C217.392 9.21306 217.309 9.204 217.207 9.20493C216.75 9.20988 216.295 9.21489 215.841 9.22098C215.801 9.22136 215.761 9.2288 215.727 9.23417C215.641 9.24785 215.668 9.26028 215.806 9.27249C215.852 9.27655 215.889 9.28426 215.932 9.29045C216.014 9.30222 216.091 9.31986 216.183 9.32528C216.275 9.3307 216.382 9.325 216.484 9.32408C216.585 9.32315 216.693 9.31691 216.785 9.32179C216.877 9.32721 216.953 9.34431 217.039 9.35559C217.079 9.36118 217.128 9.37019 217.168 9.37035C217.37 9.37067 217.57 9.36822 217.773 9.36691C217.898 9.38379 218.005 9.40685 218.156 9.41439C218.251 9.41932 218.352 9.41514 218.45 9.41796C218.493 9.41926 218.551 9.42843 218.57 9.43581C218.582 9.44037 218.542 9.45052 218.511 9.4554C218.394 9.47397 218.234 9.46735 218.09 9.47132C217.933 9.47561 217.792 9.47095 217.673 9.44767C217.593 9.43215 217.504 9.42298 217.406 9.42396C217.151 9.42652 216.899 9.43022 216.645 9.43169C216.602 9.43202 216.549 9.42621 216.51 9.42171C216.188 9.38292 216.188 9.38183 215.961 9.38488C215.738 9.38781 215.551 9.37838 215.402 9.35656C215.359 9.35038 215.314 9.33925 215.277 9.33915C214.921 9.34155 214.567 9.344 214.214 9.35025C214.097 9.35199 214.018 9.35058 213.932 9.33496C213.859 9.32172 213.773 9.30663 213.681 9.30175C213.586 9.29681 213.481 9.30311 213.38 9.30404C213.278 9.30496 213.171 9.31012 213.082 9.30421C212.99 9.29824 212.91 9.28164 212.831 9.26938C212.748 9.25652 212.659 9.25549 212.545 9.25783C212.195 9.26413 212.192 9.26245 211.846 9.22268C211.806 9.21818 211.754 9.21291 211.711 9.21324C211.456 9.21526 211.204 9.21895 210.949 9.22097C210.851 9.22195 210.756 9.21322 210.689 9.19629C210.661 9.18929 210.671 9.17859 210.653 9.1571C210.631 9.15184 210.653 9.1609 210.662 9.1692C210.708 9.16893 210.763 9.17099 210.797 9.16725C210.883 9.15845 210.926 9.14564 210.905 9.13387C210.893 9.12768 210.835 9.11905 210.798 9.1184C210.73 9.11721 210.672 9.12812 210.653 9.1571C210.459 9.1716 210.253 9.17177 210.054 9.17693C209.937 9.1803 209.863 9.17628 209.771 9.16055C209.661 9.14123 209.548 9.1224 209.367 9.12789C209.17 9.13419 208.961 9.13214 208.759 9.13616C208.525 9.14072 208.425 9.09009 208.228 9.08771C208.026 9.08522 207.823 9.09087 207.62 9.09381C207.442 9.09609 207.442 9.09609 207.074 9.05432C206.94 9.03891 206.78 9.05508 206.648 9.03919C206.559 9.02893 206.482 9.01455 206.397 9.00381C206.36 8.99936 206.302 8.99833 206.256 8.99861C206.001 9.00062 205.743 9.00041 205.497 9.00802C205.217 9.0172 205.006 8.99826 204.807 8.96272C204.555 8.96425 204.3 8.96301 204.051 8.96893C203.87 8.97333 203.766 8.95358 203.644 8.93676C203.601 8.93112 203.564 8.92233 203.518 8.91935C203.472 8.91636 203.417 8.91973 203.368 8.92049C203.165 8.92288 202.956 8.92191 202.759 8.92821C202.517 8.93642 202.425 8.89029 202.238 8.88156C202.112 8.90593 202.044 8.9411 201.795 8.93942C201.593 8.93802 201.39 8.94313 201.187 8.94552C201.086 8.94645 200.984 8.94792 200.883 8.94884C200.72 8.95085 200.643 8.97067 200.676 9.00382C200.694 9.02206 200.71 9.04024 200.725 9.05842C200.755 9.09098 200.677 9.11676 200.548 9.11829C200.192 9.12231 199.839 9.12694 199.483 9.12988C199.388 9.13091 199.296 9.12006 199.219 9.10405C199.14 9.08799 199.051 9.07991 198.952 9.08089C198.596 9.08491 198.243 9.08954 197.887 9.09248C197.847 9.09286 197.792 9.08646 197.755 9.08147C197.669 9.07018 197.587 9.05732 197.504 9.04555C197.301 9.04686 197.102 9.04659 196.902 9.04958C196.579 9.05366 196.579 9.05421 196.344 9.02018C196.301 9.014 196.258 9.00293 196.218 9.00277C196.065 9.00223 195.914 9.005 195.76 9.00718C195.309 9.01332 195.309 9.01332 195.177 8.99471C195.058 8.97741 194.951 8.95706 194.769 8.96254C194.573 8.96884 194.364 8.96842 194.161 8.97027C194.011 8.97141 193.86 8.9731 193.71 8.97153C193.67 8.97083 193.627 8.9603 193.584 8.95411C193.462 8.93512 193.342 8.91944 193.173 8.92569C193.075 8.92938 192.971 8.92862 192.869 8.92955C192.693 8.93151 192.461 8.91909 192.173 8.89229C192.13 8.88827 192.078 8.88355 192.035 8.88442C191.679 8.88791 191.326 8.89253 190.969 8.89547C190.926 8.8958 190.874 8.89162 190.831 8.88815C190.508 8.86146 190.175 8.85015 189.831 8.85421C189.634 8.85617 189.628 8.85823 189.423 8.82584C189.331 8.81173 189.258 8.80446 189.147 8.80631C188.742 8.81218 188.333 8.81366 187.931 8.82176C187.75 8.82508 187.646 8.80695 187.523 8.79013C187.48 8.78449 187.434 8.77282 187.398 8.77271C186.992 8.77587 186.587 8.78121 186.181 8.78437C186.145 8.7848 186.099 8.77313 186.056 8.76749C185.973 8.75626 185.894 8.7402 185.802 8.73532C185.706 8.73038 185.602 8.73668 185.498 8.73755C185.243 8.74011 185.243 8.73957 184.949 8.70235C184.909 8.6973 184.857 8.69041 184.817 8.69079C184.411 8.69449 184.003 8.69651 183.601 8.70516C183.37 8.70978 183.214 8.69127 183.052 8.66561C183.018 8.66013 182.96 8.65693 182.917 8.65726C182.459 8.66167 182.005 8.66776 181.547 8.67217C181.452 8.6732 181.36 8.66235 181.283 8.64689C181.164 8.62252 181.017 8.62263 180.863 8.62481C180.51 8.62998 180.507 8.62938 180.299 8.59965C180.256 8.59346 180.219 8.58576 180.173 8.58223C180.13 8.57876 180.075 8.57941 180.029 8.57968C179.826 8.58153 179.623 8.58393 179.421 8.58632C179.218 8.58872 179.012 8.58834 178.813 8.59405C178.567 8.60111 178.451 8.56378 178.279 8.54446C178.027 8.54707 177.769 8.54686 177.521 8.55387C177.33 8.5592 177.241 8.53375 177.116 8.51904C177.073 8.51394 177.027 8.5039 176.987 8.50429C176.53 8.50815 176.072 8.51311 175.617 8.51974C175.507 8.52105 175.433 8.51541 175.341 8.50075C175.136 8.46782 175.127 8.46874 174.783 8.47353C174.633 8.47576 174.488 8.47755 174.36 8.45303C174.247 8.43094 174.108 8.42362 173.946 8.42726C173.746 8.43188 173.54 8.43259 173.338 8.43444C173.135 8.43684 172.932 8.4414 172.73 8.44054C172.567 8.44038 172.469 8.41314 172.34 8.39784C172.3 8.39334 172.245 8.39182 172.199 8.39209C171.996 8.3934 171.788 8.39352 171.591 8.39928C171.351 8.40645 171.22 8.37427 171.051 8.35392C171.015 8.34947 170.953 8.35056 170.907 8.35138C170.551 8.35486 170.198 8.35948 169.842 8.36351C169.716 8.34664 169.587 8.33025 169.462 8.31338C169.259 8.31523 169.056 8.31762 168.854 8.31947C168.7 8.32111 168.543 8.31997 168.399 8.32557C168.212 8.33311 168.12 8.30598 167.994 8.29128C167.951 8.28618 167.906 8.27614 167.866 8.27652C167.611 8.27799 167.356 8.28001 167.104 8.28479C166.864 8.28979 166.77 8.23927 166.574 8.23635C166.371 8.23277 166.162 8.23668 165.966 8.24299C165.738 8.25037 165.579 8.23019 165.417 8.20398C165.383 8.1985 165.325 8.19476 165.282 8.19509C165.027 8.1971 164.775 8.2008 164.52 8.20282C164.477 8.20314 164.425 8.19951 164.382 8.19549C163.898 8.15491 163.898 8.15437 163.686 8.15715C163.535 8.15883 163.382 8.16155 163.228 8.16156C163.185 8.16188 163.133 8.15608 163.093 8.15103C162.775 8.11229 162.775 8.11175 162.544 8.1142C162.342 8.11659 162.139 8.11899 161.936 8.12138C161.811 8.10451 161.682 8.08812 161.556 8.07125C161.305 8.07386 161.047 8.07474 160.798 8.08012C160.681 8.0824 160.604 8.07942 160.516 8.06428C160.405 8.04605 160.295 8.0251 160.111 8.03108C159.914 8.03738 159.706 8.03478 159.506 8.0394C159.266 8.04494 159.169 7.99382 158.976 7.99095C158.773 7.98738 158.564 7.99129 158.367 7.99759C158.14 8.00498 157.981 7.98479 157.819 7.95859C157.785 7.95311 157.727 7.94936 157.684 7.94969C157.125 7.95557 156.569 7.9615 156.01 7.96847C155.781 7.9713 155.448 7.95909 155.013 7.93186C154.967 7.92888 154.917 7.92584 154.871 7.92612C154.669 7.92742 154.46 7.92754 154.263 7.9333C154.024 7.94047 153.892 7.90883 153.724 7.88794C153.687 7.8835 153.629 7.88464 153.579 7.8854C153.426 7.88649 153.275 7.88872 153.122 7.89035C152.919 7.89275 152.716 7.89514 152.514 7.89753C152.388 7.8812 152.26 7.86427 152.134 7.84794C151.882 7.85055 151.624 7.8498 151.375 7.85681C151.185 7.86214 151.096 7.83777 150.971 7.82252C150.928 7.81742 150.882 7.80739 150.842 7.80722C150.384 7.81109 149.927 7.8155 149.472 7.82268C149.285 7.82589 149.199 7.79995 149.074 7.78524C149.031 7.78069 148.982 7.77277 148.942 7.77315C148.638 7.77538 148.334 7.77924 148.03 7.78311C147.915 7.7847 147.733 7.77208 147.484 7.74524C147.441 7.74068 147.392 7.73602 147.349 7.73635C146.385 7.74647 145.423 7.75828 144.459 7.7684C144.361 7.76938 144.272 7.75967 144.195 7.74366C144.116 7.7276 144.027 7.71843 143.929 7.71941C143.523 7.72366 143.115 7.72676 142.713 7.73378C142.547 7.73682 142.415 7.72743 142.302 7.70643C142.216 7.69081 142.136 7.68397 142.029 7.68533C141.826 7.68827 141.623 7.69012 141.421 7.69251C141.218 7.69491 141.015 7.6973 140.813 7.6997C140.61 7.70209 140.404 7.70172 140.204 7.70742C139.959 7.71448 139.84 7.67872 139.671 7.65892C139.367 7.6617 139.063 7.66447 138.762 7.66785C138.357 7.67209 137.951 7.67743 137.546 7.68113C137.509 7.68156 137.463 7.67098 137.42 7.66534C137.295 7.64955 137.203 7.62893 137.016 7.6316C136.106 7.64432 135.191 7.6526 134.279 7.66473C134.089 7.66734 134.006 7.64254 133.878 7.62779C133.835 7.62323 133.786 7.61476 133.746 7.61514C133.239 7.61977 132.732 7.62603 132.226 7.63174C132.088 7.6333 131.905 7.62084 131.677 7.59437C131.637 7.58986 131.585 7.58406 131.542 7.58439C130.881 7.59119 130.224 7.59913 129.564 7.60648C129.466 7.60746 129.377 7.59829 129.297 7.58223C129.221 7.56622 129.129 7.55646 129.034 7.55749C128.426 7.56413 127.814 7.57017 127.209 7.5785C127.047 7.58105 126.912 7.57324 126.795 7.55219C126.713 7.53661 126.63 7.52918 126.525 7.5306C125.613 7.5411 124.701 7.55052 123.789 7.56265C123.614 7.56498 123.491 7.55251 123.381 7.53265C123.293 7.51696 123.216 7.5129 123.105 7.51312C122.989 7.51377 122.918 7.5185 122.853 7.53364C122.77 7.55334 122.717 7.57901 122.521 7.57717C122.318 7.57523 122.112 7.57811 121.913 7.58382C121.722 7.58968 121.634 7.56369 121.514 7.54692C121.425 7.53504 121.342 7.53195 121.229 7.53483C121.124 7.53733 121.06 7.54542 120.998 7.5617C120.862 7.59622 120.85 7.596 120.685 7.56974C120.596 7.55569 120.516 7.54451 120.418 7.54495C120.013 7.54865 119.607 7.55344 119.202 7.55877C118.968 7.56171 118.965 7.56274 118.791 7.53252C118.705 7.51743 118.622 7.50946 118.521 7.51093C117.406 7.52382 116.291 7.53563 115.177 7.55016C115.005 7.55255 114.888 7.53909 114.766 7.52065C114.726 7.51452 114.686 7.50621 114.64 7.50323C114.594 7.50025 114.542 7.5015 114.493 7.50171C113.682 7.51075 112.868 7.51864 112.06 7.53044C111.876 7.53316 111.778 7.51406 111.653 7.49773C111.61 7.49209 111.573 7.48384 111.527 7.48086C111.481 7.47842 111.426 7.48124 111.377 7.482C110.566 7.49104 109.752 7.49893 108.944 7.51073C108.751 7.51329 108.668 7.48903 108.543 7.47487C108.5 7.46977 108.454 7.46082 108.414 7.4612C108.159 7.46267 107.907 7.46637 107.652 7.46893C107.044 7.47611 106.436 7.48221 105.828 7.48993C105.595 7.49287 105.494 7.44278 105.298 7.44149C105.043 7.4397 104.791 7.44612 104.536 7.44922C104.333 7.45161 104.131 7.45346 103.928 7.4564C103.795 7.45803 103.563 7.44543 103.232 7.41859C103.189 7.41512 103.137 7.4104 103.094 7.41073C102.384 7.41829 101.672 7.42581 100.965 7.43505C100.803 7.43707 100.668 7.43197 100.551 7.40983C100.469 7.39426 100.383 7.38568 100.281 7.38715C99.2158 7.39929 98.1532 7.41148 97.0875 7.42307C97.0476 7.42345 96.9955 7.4171 96.9557 7.41206C96.8699 7.40077 96.7873 7.38791 96.7046 7.37614C96.643 7.38754 96.5629 7.39752 96.5228 7.41093C96.4672 7.42895 96.3934 7.43308 96.2767 7.43427C96.16 7.43547 96.0864 7.43309 95.9945 7.41735C95.8843 7.39803 95.771 7.38246 95.5898 7.38469C94.478 7.39927 93.3602 7.41049 92.2454 7.42447C92.0611 7.42664 91.9756 7.40125 91.8469 7.38649C91.804 7.38193 91.755 7.3751 91.715 7.37548C91.2575 7.37989 90.8029 7.38544 90.3453 7.39039C89.077 7.40492 87.8086 7.41782 86.5433 7.43458C86.3129 7.43757 86.1566 7.42124 85.9944 7.39503C85.9607 7.38955 85.9024 7.38581 85.8594 7.38613C84.0843 7.40583 82.3092 7.42608 80.5372 7.44637C80.442 7.44741 80.3501 7.4371 80.2736 7.42164C80.194 7.40557 80.1051 7.39695 80.0069 7.39793C79.1961 7.40696 78.3853 7.416 77.5745 7.42557C77.3718 7.42797 77.3688 7.42846 77.1605 7.39872C77.1176 7.39254 77.0718 7.38141 77.038 7.3819C76.9673 7.38337 76.8996 7.39574 76.8501 7.41333C76.8007 7.432 76.7238 7.43607 76.6102 7.43787C76.4935 7.43961 76.4168 7.43662 76.328 7.42203C76.2147 7.40374 76.1106 7.38616 75.9263 7.38834C73.5953 7.41669 71.2644 7.44232 68.9334 7.47012C68.7461 7.47225 68.6605 7.44793 68.5318 7.43318C68.4889 7.42862 68.446 7.42243 68.4 7.42054C68.3509 7.41858 68.2987 7.42092 68.2495 7.42168C64.4475 7.46478 60.6455 7.50842 56.8434 7.55152C56.6919 7.55319 56.534 7.56922 56.3697 7.59962C56.3389 7.60505 56.2989 7.61249 56.2559 7.61281C55.0919 7.62701 53.9249 7.64007 52.7579 7.65313C52.2512 7.65885 51.7444 7.66511 51.2377 7.67028C51.0565 7.67197 51.0565 7.67197 50.6227 7.72294C50.5858 7.72717 50.5427 7.73293 50.4997 7.73325C48.4727 7.75665 46.4458 7.78005 44.4158 7.80231C44.2561 7.80384 44.127 7.81133 44.0529 7.83608C44.0004 7.85361 43.9327 7.86327 43.8313 7.86474C42.4125 7.88096 40.9936 7.89772 39.5717 7.91279C39.4028 7.9147 39.3012 7.92811 39.218 7.94944C39.1902 7.95655 39.1655 7.9648 39.1255 7.96952C39.0886 7.97375 39.0333 7.97441 38.9872 7.97522C37.7711 7.98905 36.5549 8.00395 35.3357 8.01609C35.1545 8.01778 35.0805 8.03656 34.9911 8.05616C34.9603 8.06267 34.9386 8.07206 34.8986 8.07624C34.8586 8.07988 34.8003 8.07885 34.7512 8.07906C33.7377 8.09049 32.7242 8.10246 31.7108 8.11389C31.5144 8.10771 31.4708 8.13843 31.3754 8.15574C31.3415 8.16166 31.3168 8.16991 31.2768 8.17355C31.2337 8.17713 31.1785 8.17562 31.1263 8.17578C30.3155 8.18481 29.5047 8.19548 28.694 8.20288C28.5067 8.20446 28.4693 8.23149 28.3677 8.2487C28.3338 8.25407 28.2999 8.2627 28.26 8.26362C27.7532 8.27042 27.2465 8.27614 26.7398 8.28131C26.5709 8.28321 26.5709 8.28267 26.2722 8.33114C26.2383 8.33652 26.1983 8.34233 26.1553 8.3432C25.3967 8.35261 24.6351 8.36088 23.8734 8.36969C23.7752 8.37067 23.7043 8.38245 23.658 8.40009C23.6085 8.41768 23.5377 8.42837 23.4395 8.42935C22.8314 8.43654 22.2233 8.44426 21.6152 8.44981C21.4463 8.45118 21.3356 8.46279 21.2615 8.48592C21.2059 8.50339 21.1382 8.51143 21.0307 8.51279C20.4226 8.51943 19.8145 8.5277 19.2034 8.53211C19.0253 8.53331 18.9329 8.55014 18.8588 8.57163C18.8002 8.58905 18.7326 8.59437 18.6189 8.59562C17.5041 8.60743 16.3863 8.61919 15.2745 8.63431C15.0871 8.63698 14.9923 8.61631 14.8698 8.60057C14.6951 8.57849 14.5328 8.55499 14.5336 8.51266C14.5337 8.50615 14.4816 8.49763 14.4449 8.49155C14.1724 8.44603 14.1724 8.44603 14.1302 8.40185C14.1061 8.37483 14.079 8.3472 14.058 8.31969C14.0189 8.27448 13.9208 8.26135 13.6383 8.26451C13.5369 8.26543 13.4356 8.26745 13.3343 8.26783C13.1838 8.26897 13.0705 8.24906 13.0435 8.21601C13.0284 8.19783 13.0103 8.17959 12.9953 8.16141C13.1489 8.15978 13.1458 8.15918 13.4171 8.09828C13.5311 8.07261 13.5311 8.07261 13.3137 8.04109C13.231 8.02931 13.1514 8.01651 13.0625 8.00517C13.0227 8.00012 12.9706 7.99649 12.9276 7.99681C12.6727 7.99883 12.4209 8.00198 12.169 8.00514C11.8988 8.00833 11.6269 7.98906 11.3533 7.94731C11.3196 7.94237 11.2676 7.93331 11.2738 7.92908C11.3079 7.90959 11.3909 7.90237 11.4953 7.90205C11.6489 7.9015 11.7994 7.89873 11.9499 7.89704L12.2539 7.89372C12.3494 7.87478 12.448 7.85643 12.5374 7.83683C12.6792 7.80676 12.6792 7.80568 12.4862 7.77947C12.3637 7.76265 12.2319 7.74621 12.1063 7.72988C11.9559 7.73157 11.8023 7.73374 11.6518 7.73489C11.4614 7.73641 11.3849 7.72475 11.3364 7.6886C11.2939 7.65691 11.3466 7.63124 11.4941 7.62733C11.6446 7.62347 11.7859 7.62162 11.8631 7.5953C11.9372 7.57 12.0663 7.56197 12.226 7.56261C12.3273 7.56277 12.4287 7.56076 12.53 7.55929C12.6621 7.55728 12.7332 7.53085 12.7061 7.49943C12.6911 7.47908 12.6607 7.46171 12.5411 7.45526C12.0104 7.42689 12.0042 7.42732 11.7409 7.38576C11.7164 7.38207 11.6981 7.37198 11.7074 7.36725C11.7229 7.35938 11.7569 7.34804 11.7938 7.34706C12.147 7.34135 12.5002 7.33673 12.8533 7.33482C12.97 7.33416 13.056 7.33188 13.0963 7.31251C13.152 7.2858 13.1279 7.25986 13.0208 7.23897C12.9871 7.23241 12.932 7.22383 12.8952 7.22373C12.4898 7.22634 12.0875 7.23173 11.6821 7.23435C11.6453 7.23478 11.5779 7.22436 11.5627 7.21704C11.5322 7.20347 11.5786 7.18692 11.6861 7.18284C11.8275 7.17719 11.9717 7.1792 12.0674 7.15374C12.2001 7.11754 12.3634 7.08513 12.5113 7.05083C12.536 7.04475 12.5731 7.03292 12.567 7.03173C12.4904 7.01843 12.4016 7.00763 12.322 6.99483C12.1872 6.97345 12.1877 6.94686 12.2189 6.92189C12.2438 6.9017 12.336 6.89519 12.4496 6.89719C12.4987 6.89806 12.5601 6.89914 12.6001 6.89496C12.7046 6.88486 12.7387 6.87026 12.6867 6.85795C12.6561 6.85089 12.601 6.84069 12.5642 6.84113C11.907 6.84744 11.2467 6.85316 10.5925 6.86387C10.399 6.86697 10.3104 6.84478 10.194 6.82807C10.1052 6.8151 10.0224 6.80929 9.91173 6.81548C9.80723 6.82124 9.70601 6.81511 9.64187 6.79606C9.58994 6.78049 9.68225 6.76963 9.93113 6.75991C9.97722 6.75801 10.0294 6.7573 10.0633 6.75247C10.4204 6.70014 10.4204 6.6996 10.6661 6.69634C10.9056 6.69351 10.9057 6.69296 11.0321 6.66371C11.0906 6.65008 11.1554 6.63657 11.2109 6.62235C11.2325 6.61676 11.2695 6.60655 11.2573 6.60308C11.19 6.58506 11.095 6.57959 10.9905 6.58154C10.7509 6.58654 10.4687 6.57396 10.3419 6.6233C10.2925 6.64197 10.2156 6.64604 10.1051 6.64735C8.99334 6.65921 7.88157 6.67325 6.7668 6.68397C6.58561 6.68566 6.50238 6.70428 6.43138 6.72528C6.36967 6.74265 6.30204 6.74689 6.18534 6.74809C6.06864 6.74928 5.97653 6.74929 5.90931 6.73018C5.8696 6.71863 5.90364 6.70403 5.99599 6.69046C6.12836 6.67108 6.10429 6.64351 6.06176 6.61724C6.03136 6.59988 5.93642 6.58626 5.83511 6.58556C5.68466 6.58507 5.54029 6.58849 5.41482 6.56457C5.34137 6.55078 5.24944 6.54047 5.16675 6.52816C5.00753 6.50309 4.84832 6.47748 4.62398 6.48818C4.4706 6.48004 4.36351 6.45861 4.241 6.44124C4.03578 6.41265 4.01743 6.40853 4.16524 6.38453C4.33459 6.35766 4.20329 6.31626 4.29589 6.28858C4.39467 6.25884 4.53022 6.23354 4.65045 6.20635C4.68128 6.19929 4.70903 6.19272 4.73986 6.18567C4.66945 6.17357 4.60523 6.15886 4.52249 6.1498C4.41522 6.13814 4.36018 6.12522 4.36692 6.09168C4.34552 6.08642 4.3545 6.09906 4.379 6.10275C4.40657 6.1065 4.47415 6.10497 4.50798 6.10177C4.59411 6.09298 4.63732 6.08017 4.61604 6.06839C4.60386 6.0622 4.54568 6.05358 4.50884 6.05293C4.44131 6.05174 4.38278 6.06265 4.36385 6.09163C4.01967 6.10781 3.66341 6.11238 3.30719 6.11478C3.27034 6.11522 3.22449 6.10355 3.18161 6.09736C3.04073 6.07642 3.04073 6.07696 2.62643 6.06422C2.58347 6.06292 2.52528 6.05429 2.50393 6.04632C2.4155 6.01164 2.41921 5.97533 2.37686 5.9393C2.45707 5.91791 2.53727 5.89707 2.62054 5.87628C2.78709 5.83416 3.00266 5.79834 3.13245 5.75123C3.10529 5.72414 3.06893 5.6969 3.20437 5.67758C3.58854 5.65721 3.58547 5.65716 3.69029 5.63295C3.98934 5.5644 4.28533 5.49525 4.59664 5.428C4.67985 5.41046 4.68003 5.40015 4.53284 5.38941C4.48683 5.38643 4.43773 5.38502 4.3886 5.38524C4.23505 5.38633 4.0814 5.39339 3.93104 5.38856C3.78066 5.38428 3.67058 5.35845 3.54805 5.34163C3.42247 5.32421 3.2969 5.30625 3.17132 5.28829C3.02703 5.28738 2.88249 5.30002 2.73865 5.27306C2.62849 5.25211 2.4906 5.23611 2.36502 5.21815C2.46091 5.17858 2.63949 5.15024 2.77827 5.11632C2.9047 5.08544 2.90776 5.08603 3.24586 5.06649C3.40569 5.05736 3.46202 4.99701 3.32728 4.97672C3.16497 4.95214 2.99344 4.92903 2.82804 4.90548C2.68375 4.90456 2.53615 4.91661 2.39845 4.88975C2.29135 4.8694 2.16878 4.85475 1.99063 4.85867C1.6896 4.8653 1.38254 4.86585 1.07849 4.87025C0.974066 4.87167 0.860531 4.86749 0.814814 4.84823C0.784348 4.83466 0.873681 4.81832 0.975043 4.81631C1.12862 4.81359 1.26686 4.80952 1.34408 4.78374C1.41822 4.7579 1.55343 4.75215 1.71311 4.75117C1.7561 4.75084 1.80533 4.74519 1.82693 4.73906C1.93799 4.70953 2.06125 4.68456 2.29759 4.68982C2.396 4.6807 2.44842 4.66805 2.41796 4.65449C2.39967 4.64711 2.33537 4.63674 2.29851 4.63718C2.04365 4.63811 1.78878 4.63904 1.53998 4.64442C1.42326 4.6467 1.33422 4.64622 1.26084 4.62864C1.20885 4.61686 1.23673 4.60269 1.33524 4.58869C1.42142 4.57664 1.44626 4.56133 1.44044 4.54277C1.42585 4.49963 1.33399 4.48552 1.03926 4.48303C0.827428 4.48147 0.775371 4.47349 0.729979 4.43577C0.717854 4.42687 0.687369 4.41439 0.708961 4.4088C0.841603 4.37423 0.928354 4.33016 1.17729 4.31718C1.27563 4.3124 1.38 4.31424 1.44164 4.30121C1.50328 4.28819 1.55882 4.27288 1.62352 4.26045C1.70361 4.24558 1.75913 4.23136 1.72248 4.2204C1.66141 4.20086 1.56322 4.1975 1.44953 4.20201C1.35121 4.2057 1.24683 4.2044 1.14548 4.20587C0.964274 4.20864 0.817186 4.19193 0.79612 4.16767C0.73891 4.10369 0.678621 4.04019 0.62755 3.97632C0.621545 3.96861 0.637066 3.95912 0.661737 3.95304C0.748086 3.93176 0.840555 3.91168 0.929964 3.891C1.03478 3.86733 1.20045 3.87514 1.34173 3.87275C1.54138 3.86921 1.54137 3.86976 1.80934 3.82237C1.91406 3.80359 2.09502 3.81493 2.20278 3.79837C2.23665 3.793 2.28901 3.78415 2.27989 3.77856C2.26774 3.77129 2.20645 3.76478 2.16046 3.76071C2.11754 3.75669 2.06539 3.75414 2.01932 3.75496C1.46039 3.76084 0.904503 3.76786 0.34558 3.77319C0.250377 3.77423 0.146223 3.76044 0.112755 3.74302C0.0792682 3.72669 0.0888121 3.70786 0.0829891 3.68984C0.172398 3.66916 0.274057 3.65033 0.351217 3.6278C0.409863 3.61038 0.477537 3.60343 0.594198 3.6044C0.747704 3.60548 0.898226 3.60163 1.07021 3.59977C1.39084 3.52617 1.70539 3.44867 2.05058 3.3755C2.18927 3.34592 2.15608 3.31276 2.18431 3.27905C2.21249 3.24806 2.41807 3.25658 2.55635 3.25033C2.66699 3.24469 2.70413 3.22797 2.66136 3.21527C2.63693 3.20778 2.58182 3.19867 2.53885 3.19791C2.43756 3.19612 2.33618 3.19922 2.23483 3.20014C2.13349 3.20107 2.01688 3.19738 1.93384 3.20514C1.85388 3.21242 1.80137 3.22995 1.74891 3.24477C1.69335 3.26116 1.61344 3.26572 1.49678 3.26475C1.34635 3.26318 1.19586 3.26541 1.04538 3.26655C0.880001 3.24246 0.708471 3.2188 0.549248 3.19374C0.518629 3.18885 0.512711 3.17626 0.515924 3.16818C0.522436 3.14712 0.476623 3.13328 0.375511 3.12118C0.289717 3.11098 0.219338 3.09725 0.139722 3.08499C0.201371 3.07142 0.26915 3.0585 0.31854 3.04363C0.426558 3.01242 0.562039 2.99093 0.795304 2.99613C0.887764 2.97659 0.961893 2.95184 1.08186 2.9393C1.19568 2.92719 1.38882 2.94472 1.47533 2.91421C1.51858 2.89923 1.58336 2.88246 1.66635 2.87741C1.79852 2.86943 1.97032 2.87789 2.04759 2.84885C2.09394 2.8323 2.16175 2.81775 2.25084 2.81498C2.35222 2.81189 2.45661 2.81264 2.53046 2.80363C2.57046 2.79891 2.61358 2.79098 2.61372 2.78339C2.61381 2.77796 2.55255 2.76982 2.50963 2.7658C2.4698 2.7613 2.41766 2.75767 2.3716 2.75794C2.21806 2.75849 2.06755 2.7618 1.91402 2.76235C1.87103 2.76268 1.82198 2.75801 1.77599 2.75394C1.64109 2.74288 1.65049 2.73218 1.75827 2.71454C1.86604 2.69744 1.94321 2.67438 2.03261 2.6537C2.13091 2.65163 2.25366 2.65543 2.32137 2.64631C2.43524 2.63149 2.51548 2.60847 2.60794 2.58893C2.70929 2.58746 2.81367 2.58822 2.90894 2.58393C2.94888 2.58246 2.96751 2.57085 3.00139 2.56439C3.06302 2.55191 3.11555 2.53329 3.19854 2.52824C3.33378 2.52085 3.49946 2.52758 3.5798 2.49914C3.62615 2.48258 3.69707 2.46538 3.78304 2.46581C4.0225 2.46787 4.12432 2.4398 4.2476 2.41375C4.34006 2.39421 4.53632 2.40853 4.63799 2.38915C4.70576 2.37678 4.75517 2.36082 4.82293 2.34899C4.85065 2.34405 4.90902 2.34236 4.95509 2.34155C5.20693 2.33785 5.46181 2.33638 5.71367 2.33214C5.7536 2.33121 5.79058 2.32372 5.82139 2.31775C5.8861 2.30478 5.92634 2.28595 6.00631 2.27813C6.08629 2.27031 6.19986 2.27231 6.29813 2.27133C6.61444 2.26877 6.64202 2.27143 6.78404 2.22779C6.90134 2.19241 7.18634 2.22404 7.28222 2.18447C7.33789 2.16157 7.43953 2.14382 7.62068 2.1443C7.87552 2.145 8.12741 2.13913 8.3823 2.13657C8.60956 2.13407 8.60649 2.13401 8.85295 2.08788C8.96385 2.06703 9.12648 2.07316 9.27082 2.07136C9.42438 2.06973 9.56569 2.06571 9.63984 2.03987C9.71398 2.01458 9.84919 2.00828 10.0058 2.00725C10.1501 2.00599 10.3128 2.01158 10.4267 1.99188C10.7039 1.94465 10.7008 1.94405 10.8943 1.94204C11.1984 1.93872 11.5024 1.9354 11.8064 1.93154C12.0091 1.92914 12.221 1.9318 12.4115 1.92322C12.5498 1.91697 12.6117 1.88766 12.7011 1.86807C12.9529 1.86437 13.2048 1.86067 13.4566 1.85752C13.8098 1.85289 14.166 1.84941 14.5223 1.84538C14.6761 1.82747 14.6984 1.78226 14.9563 1.78464C15.1098 1.78626 15.2603 1.78186 15.4139 1.78023C15.6688 1.77713 15.9206 1.7718 16.1755 1.7725C16.3689 1.7732 16.4032 1.74449 16.5048 1.72782C16.5387 1.72191 16.5696 1.71322 16.6095 1.7123C17.0088 1.70415 17.4202 1.70815 17.8104 1.69278C17.8503 1.69131 17.8874 1.68057 17.8967 1.67259C17.9029 1.66835 17.8509 1.65929 17.8172 1.6549C17.7774 1.64985 17.7253 1.64459 17.6823 1.64492C16.4139 1.6589 15.1456 1.67343 13.8772 1.68742C13.6991 1.6897 13.6991 1.68916 13.2652 1.74122C13.2283 1.74545 13.1852 1.75012 13.1392 1.75094C12.9365 1.75387 12.7307 1.75404 12.5311 1.75866C12.3683 1.7623 12.2333 1.75341 12.117 1.73181C12.0344 1.71624 11.9485 1.71038 11.8441 1.70962C11.7275 1.70919 11.6506 1.71381 11.5828 1.72727C11.4935 1.74578 11.447 1.77102 11.2596 1.77314C10.3967 1.78125 9.53367 1.79208 8.67376 1.80187C8.55419 1.79216 8.49607 1.77974 8.527 1.76671C8.54556 1.75889 8.58259 1.74869 8.61944 1.74826C8.97264 1.74309 9.32888 1.7396 9.68207 1.73498C9.73121 1.73422 9.79872 1.7365 9.82644 1.73156C9.96193 1.70952 10.0117 1.67077 10.2666 1.67255C10.4139 1.67352 10.5645 1.66804 10.7058 1.66293C10.7458 1.66146 10.7828 1.65072 10.7921 1.64274C10.7984 1.63796 10.7463 1.62945 10.7096 1.625C10.5748 1.60687 10.4179 1.62311 10.283 1.60987C10.237 1.60526 10.1727 1.59869 10.1667 1.59207C10.1606 1.58599 10.213 1.57714 10.2499 1.57182C10.2838 1.56699 10.3299 1.56292 10.376 1.56211C10.7814 1.55678 11.1868 1.5509 11.5921 1.54828C11.758 1.54741 11.8748 1.5359 11.9489 1.51224C12.0045 1.49476 12.0722 1.48618 12.1766 1.48531C12.8861 1.47775 13.5955 1.46801 14.308 1.46213C14.4861 1.46093 14.5785 1.44464 14.6526 1.42261C14.7112 1.40518 14.7789 1.39986 14.8925 1.39861C15.909 1.38832 16.9194 1.37467 17.9359 1.36547C18.1232 1.36389 18.1789 1.34153 18.2744 1.32313C18.3083 1.31721 18.33 1.30836 18.373 1.30478C18.4161 1.3012 18.4713 1.30271 18.5235 1.30255C19.3343 1.29352 20.1451 1.28285 20.9589 1.2755C21.1493 1.27398 21.1866 1.24749 21.2851 1.23023C21.319 1.22486 21.3499 1.21563 21.3898 1.2147C21.9979 1.20698 22.606 1.20034 23.2141 1.19316C23.6195 1.18837 24.0248 1.18358 24.4302 1.17934C24.5633 1.17806 24.7202 1.16165 24.9009 1.1301C24.9317 1.12467 24.9748 1.11837 25.0147 1.11745C26.1817 1.1033 27.3457 1.09073 28.5127 1.07713C28.611 1.07615 28.6818 1.06491 28.7312 1.04732C28.7807 1.02974 28.8515 1.0185 28.9467 1.01747C29.8588 1.00642 30.7709 0.995921 31.6861 0.986558C31.8519 0.985142 31.9688 0.974176 32.0429 0.951054C32.0985 0.933577 32.1662 0.925 32.2706 0.924129C33.1827 0.914169 34.0949 0.902581 35.01 0.893761C35.1851 0.891965 35.2713 0.87503 35.3577 0.854838C35.3885 0.847782 35.4133 0.835733 35.4501 0.835298C35.9047 0.82812 36.3562 0.820345 36.8137 0.818106C37.0041 0.817123 37.069 0.795467 37.1461 0.775113C37.2078 0.75883 37.2785 0.754107 37.3952 0.753995C37.65 0.753607 37.9019 0.748823 38.1507 0.743985C38.1876 0.743007 38.2338 0.73188 38.237 0.724337C38.2434 0.710335 38.173 0.69932 38.0564 0.692377C36.8403 0.706199 35.621 0.719967 34.4049 0.733789C34.2718 0.735421 34.1149 0.751834 33.9342 0.783028C33.9034 0.788456 33.8603 0.794752 33.8204 0.795676C32.6534 0.80928 31.4894 0.822395 30.3224 0.835999C30.2241 0.836978 30.1533 0.848215 30.1039 0.8658C30.0544 0.883385 29.9836 0.894622 29.8884 0.895656C28.7736 0.908552 27.6588 0.921992 26.5409 0.933206C26.3751 0.934622 26.2582 0.945046 26.1841 0.96871C26.1285 0.986187 26.0608 0.994764 25.9564 0.995635C24.8908 1.00723 23.8281 1.0205 22.7594 1.03096C22.6519 1.03177 22.5724 1.01463 22.5788 1.00062C22.5789 0.993026 22.6283 0.98141 22.6651 0.980975C23.221 0.972872 23.7739 0.964171 24.3328 0.960464C24.5201 0.959427 24.5757 0.936523 24.6713 0.918122C24.7021 0.911609 24.7268 0.902816 24.7668 0.899721C24.8098 0.896138 24.8651 0.897656 24.9173 0.897492C26.2348 0.882201 27.5523 0.866367 28.8728 0.853302C29.0632 0.851233 29.1005 0.825291 29.1991 0.80803C29.233 0.802113 29.2639 0.792886 29.3038 0.792505C29.7092 0.786631 30.1146 0.782386 30.5199 0.77814C31.2294 0.770032 31.9388 0.761923 32.6513 0.753869C32.7885 0.752309 32.9453 0.736077 33.1219 0.705174C33.1527 0.699746 33.1958 0.692906 33.2358 0.692525C35.1122 0.670813 36.9887 0.649102 38.8651 0.627932C38.9634 0.626952 39.0342 0.615716 39.0836 0.598131C39.1331 0.581088 39.2008 0.569255 39.2991 0.567733C41.8358 0.538674 44.3695 0.509561 46.9062 0.481587C47.0721 0.479628 47.1889 0.47029 47.263 0.446083C47.3155 0.428552 47.3863 0.420029 47.4907 0.418615C50.2793 0.386943 53.0679 0.355272 55.8595 0.323111C57.736 0.301942 59.6124 0.279688 61.4888 0.259604C61.6608 0.257753 61.7532 0.242554 61.8395 0.22182C61.8673 0.21471 61.8951 0.202715 61.932 0.20228C62.3343 0.195809 62.7367 0.190424 63.139 0.185039C63.2646 0.201914 63.3902 0.218245 63.5158 0.235119C63.6113 0.216176 63.7038 0.196636 63.7993 0.177692C64.4073 0.17268 65.0063 0.158823 65.6204 0.16206C65.6603 0.162764 65.7031 0.173292 65.7459 0.179477C66.0308 0.218706 66.1935 0.218864 66.3754 0.176473C66.4402 0.161329 66.4957 0.147652 66.594 0.146672C66.898 0.142266 67.2051 0.141171 67.5061 0.135084C67.6689 0.131985 67.8039 0.140339 67.9202 0.161392C68.0028 0.176965 68.0886 0.184452 68.19 0.182984C68.7489 0.176563 69.3048 0.17063 69.8638 0.163123C69.9037 0.162742 69.9407 0.154166 69.9715 0.148195C70.0362 0.135223 70.0917 0.121002 70.1534 0.107432C70.2361 0.118121 70.328 0.126802 70.3984 0.139987C70.4841 0.155615 70.5639 0.157023 70.6807 0.155283C72.9103 0.128947 75.143 0.104294 77.3726 0.0774151C77.563 0.0753469 77.6455 0.0996034 77.7742 0.113818C77.8171 0.118919 77.86 0.125104 77.906 0.127002C77.9551 0.128954 78.0073 0.126619 78.0565 0.125858C79.7302 0.10654 81.404 0.0877649 83.0777 0.0684472C83.2252 0.0667059 83.4081 0.0789835 83.6267 0.10528C83.6665 0.110326 83.7186 0.116131 83.7616 0.115262C84.5233 0.107532 85.2849 0.0981738 86.0435 0.0898469C86.1417 0.0888671 86.2245 0.0990133 86.3133 0.113067C86.4878 0.140577 86.5001 0.140793 86.6296 0.10725C86.6913 0.0915094 86.7559 0.0823356 86.8573 0.079239C86.9679 0.0757623 87.0569 0.0789614 87.1427 0.0902471C87.2652 0.105982 87.3538 0.130347 87.5412 0.127682C88.352 0.116477 89.1658 0.109668 89.9735 0.0978663C90.1578 0.0951471 90.2557 0.115333 90.3783 0.131068C90.4212 0.13671 90.4609 0.145013 90.5069 0.147453C90.553 0.149894 90.6083 0.14707 90.6574 0.146309C91.6709 0.134881 92.6874 0.12405 93.6978 0.110397C93.8882 0.107786 93.9707 0.132585 94.0994 0.1468C94.1423 0.1519 94.1913 0.160365 94.2312 0.159984C94.8393 0.153887 95.4504 0.146758 96.0585 0.139576C96.2766 0.13691 96.2766 0.137453 96.6075 0.176409C96.6473 0.181455 96.6994 0.186717 96.7424 0.18639C97.4518 0.178825 98.1643 0.170771 98.8738 0.162663C99.0191 0.160885 99.3014 0.173106 99.7206 0.199323C99.7666 0.202307 99.8156 0.20643 99.8617 0.206157C100.672 0.197123 101.486 0.188686 102.294 0.17797C102.457 0.175957 102.592 0.183225 102.708 0.204279C102.791 0.219852 102.877 0.227338 102.978 0.22587C103.89 0.215368 104.805 0.206005 105.714 0.19382C105.889 0.191481 106.003 0.205425 106.125 0.223331C106.165 0.229462 106.205 0.237764 106.251 0.240748C106.297 0.243731 106.349 0.242482 106.398 0.24172C107.31 0.231218 108.225 0.222398 109.134 0.20967C109.319 0.206951 109.417 0.227137 109.539 0.242872C109.582 0.248514 109.628 0.259096 109.665 0.259203C110.021 0.256262 110.377 0.254405 110.73 0.247068C110.921 0.242829 111.003 0.269256 111.132 0.283471C111.175 0.288029 111.224 0.297036 111.264 0.296655C112.025 0.288925 112.787 0.28011 113.546 0.270697C113.653 0.269337 113.733 0.27563 113.819 0.291258C113.932 0.312257 114.064 0.322184 114.23 0.31914C114.583 0.312888 114.939 0.310489 115.292 0.306408C115.431 0.304884 115.714 0.317285 116.139 0.343612C116.185 0.346595 116.234 0.350718 116.28 0.350446C116.888 0.343806 117.499 0.337763 118.104 0.329441C118.267 0.326885 118.402 0.334696 118.518 0.355749C118.601 0.371323 118.687 0.378809 118.788 0.377341C119.347 0.37092 119.903 0.364444 120.462 0.358023C120.665 0.355629 120.867 0.348893 121.07 0.352469C121.217 0.355069 121.324 0.383558 121.456 0.398913C121.493 0.403362 121.554 0.400646 121.603 0.399885C122.313 0.391777 123.025 0.385351 123.732 0.374475C123.916 0.371756 124.014 0.391941 124.136 0.407676C124.179 0.413319 124.225 0.4239 124.262 0.423465C124.517 0.421992 124.769 0.418294 125.024 0.415735C125.328 0.412415 125.635 0.41132 125.936 0.40469C126.182 0.399255 126.273 0.448096 126.469 0.453191C126.62 0.457474 126.773 0.450957 126.924 0.44927C127.228 0.44595 127.532 0.441545 127.836 0.43931C127.943 0.438493 128.026 0.431272 128.06 0.412331C128.067 0.40864 128.015 0.399579 127.981 0.394098C127.709 0.35239 127.437 0.333097 127.162 0.336217C126.907 0.339318 126.655 0.342473 126.401 0.344489C126.358 0.344816 126.309 0.339608 126.266 0.335593C126.143 0.3242 126.155 0.313562 126.26 0.295867C126.365 0.278171 126.445 0.255701 126.535 0.235021C126.66 0.251352 126.783 0.26763 126.908 0.283962C127.01 0.283036 127.111 0.281567 127.212 0.280642C127.719 0.27547 128.226 0.269756 128.732 0.26567C128.769 0.265235 128.815 0.276902 128.858 0.283087C128.981 0.300993 129.091 0.316511 129.269 0.313683C129.723 0.305963 130.181 0.302638 130.636 0.297089C130.769 0.295456 130.952 0.307915 131.185 0.334464C131.224 0.338968 131.276 0.34423 131.319 0.343903C131.777 0.339493 132.232 0.333943 132.689 0.328991C132.787 0.328011 132.882 0.336746 132.953 0.35373C132.98 0.36073 132.974 0.371476 133.089 0.462539C133.45 0.541112 133.699 0.537902 133.951 0.535832C134.058 0.535015 134.153 0.533981 134.224 0.524373C134.261 0.519053 134.307 0.511182 134.307 0.504127C134.307 0.4987 134.24 0.488825 134.197 0.486981C133.893 0.470763 133.604 0.488465 133.307 0.488094C133.168 0.487827 133.049 0.466719 133.025 0.435351C133.019 0.42656 133.01 0.417171 133.001 0.408325L132.977 0.381299C132.857 0.376473 132.786 0.384995 132.734 0.402526C132.691 0.416964 132.629 0.433247 132.546 0.439925C132.463 0.447145 132.349 0.443513 132.248 0.444439C132.15 0.445418 132.042 0.450577 131.95 0.445153C131.858 0.439186 131.785 0.422148 131.699 0.410862C131.659 0.405273 131.61 0.397351 131.57 0.397732C131.217 0.400728 130.867 0.403778 130.517 0.409542C130.333 0.412803 130.244 0.388438 130.125 0.372215C130.033 0.359736 129.941 0.360824 129.925 0.385518C129.884 0.444511 130.025 0.471968 130.338 0.466097C130.596 0.460879 130.829 0.463369 131.031 0.503848C131.059 0.50922 131.123 0.512529 131.163 0.512148C131.415 0.510078 131.664 0.506325 131.915 0.504255C131.961 0.503983 132.011 0.50702 132.053 0.509949C132.679 0.550308 132.679 0.55085 132.891 0.548076C132.992 0.546607 133.091 0.545628 133.083 0.462973C133.278 0.377925 133.585 0.377373 133.883 0.369603C134.073 0.364821 134.159 0.390217 134.285 0.404921C134.327 0.410021 134.373 0.419517 134.413 0.419136C135.073 0.412874 135.731 0.405473 136.388 0.396987C136.498 0.395681 136.578 0.400346 136.664 0.415973C136.774 0.435833 136.897 0.449397 137.072 0.445972C137.422 0.439123 137.781 0.437321 138.134 0.432697C138.255 0.43121 138.437 0.443832 138.68 0.470562C138.72 0.475065 138.772 0.480327 138.815 0.480001C139.171 0.477059 139.525 0.471892 139.878 0.468354C139.976 0.467374 140.065 0.476543 140.141 0.49255C140.218 0.508558 140.31 0.517781 140.405 0.516747C140.761 0.513263 141.114 0.508639 141.468 0.5051C141.511 0.504773 141.563 0.509493 141.603 0.513997C141.852 0.540835 142.034 0.553456 142.149 0.551861C142.4 0.548163 142.658 0.548914 142.907 0.542449C143.15 0.535874 143.275 0.569572 143.441 0.589865C143.895 0.585401 144.353 0.583161 144.804 0.575929C144.988 0.572667 145.086 0.592311 145.212 0.608642C145.255 0.614285 145.298 0.625355 145.337 0.625517C145.491 0.626055 145.641 0.622739 145.792 0.621052C145.942 0.619365 146.096 0.617732 146.246 0.616045C146.418 0.634818 146.531 0.673727 146.777 0.665578C146.924 0.660581 147.081 0.661716 147.231 0.660029C147.382 0.658342 147.535 0.656709 147.686 0.655022C147.787 0.654096 147.892 0.65431 147.99 0.651159C148.171 0.646215 148.26 0.674379 148.388 0.688594C148.431 0.693151 148.48 0.700531 148.52 0.700149C148.824 0.697915 149.131 0.69682 149.429 0.689593C149.66 0.683887 149.816 0.702931 149.978 0.728596C150.012 0.734077 150.07 0.73782 150.113 0.737493C150.469 0.734551 150.823 0.729384 151.176 0.725846C151.271 0.724812 151.363 0.73512 151.439 0.750585C151.519 0.766647 151.608 0.775274 151.706 0.774294C152.059 0.770755 152.416 0.766185 152.769 0.762647C152.812 0.76232 152.864 0.767583 152.904 0.772628C153.247 0.812344 153.247 0.812344 153.449 0.80995C153.499 0.809189 153.551 0.809024 153.6 0.808263C153.852 0.805107 154.113 0.806999 154.359 0.798308C154.641 0.788639 154.847 0.810721 155.046 0.845177C155.297 0.843107 155.555 0.843859 155.801 0.837339C155.985 0.832448 156.083 0.854805 156.206 0.87054C156.249 0.876183 156.294 0.886764 156.331 0.886329C156.688 0.883387 157.044 0.881531 157.394 0.874139C157.584 0.8699 157.667 0.895785 157.796 0.910543C157.838 0.915642 157.884 0.924053 157.924 0.923672C158.127 0.922906 158.33 0.919969 158.532 0.917575C158.769 0.914691 158.769 0.915234 159.081 0.953865C159.228 0.972204 159.376 0.962322 159.52 0.96107C159.674 0.959437 159.818 0.958727 159.941 0.983145C160.017 0.99861 160.109 1.00892 160.204 1.00843C160.407 1.00712 160.613 1.00586 160.812 1.00124C160.972 0.997549 161.11 1.00433 161.226 1.02647C161.309 1.04204 161.395 1.05061 161.496 1.04914C161.951 1.04414 162.408 1.03864 162.863 1.03418C162.903 1.0338 162.958 1.03966 162.995 1.04519C163.08 1.05648 163.163 1.06879 163.246 1.08111C163.445 1.07975 163.651 1.08121 163.848 1.07708C164.056 1.07316 164.247 1.07381 164.409 1.10653C164.443 1.11364 164.495 1.12378 164.531 1.12389C164.685 1.12443 164.835 1.12166 164.986 1.11997C165.136 1.11828 165.29 1.11665 165.441 1.11496C165.615 1.13162 165.725 1.17264 165.971 1.1645C166.118 1.1595 166.275 1.16063 166.425 1.15895C166.576 1.15726 166.729 1.15508 166.88 1.15394C166.929 1.15372 166.984 1.15198 167.027 1.15491C167.073 1.15789 167.113 1.1662 167.153 1.17233C167.275 1.19023 167.389 1.20798 167.564 1.20184C167.711 1.19684 167.868 1.19798 168.018 1.19575C168.155 1.19419 168.337 1.20681 168.564 1.23361C168.702 1.25016 168.859 1.23447 168.991 1.24874C169.083 1.2585 169.156 1.27337 169.242 1.28412C169.279 1.28856 169.337 1.29122 169.38 1.29089C169.583 1.28959 169.788 1.28833 169.988 1.28371C170.151 1.28007 170.286 1.28897 170.399 1.31051C170.482 1.32608 170.564 1.33352 170.669 1.3321C171.176 1.32584 171.682 1.32176 172.186 1.31382C172.358 1.31088 172.496 1.32255 172.591 1.34376C172.753 1.38028 172.984 1.34473 173.152 1.37484C173.256 1.39351 173.36 1.41489 173.551 1.41011C173.901 1.40217 174.257 1.40086 174.61 1.39732C174.736 1.4142 174.861 1.43107 174.99 1.448C175.193 1.4456 175.395 1.44321 175.598 1.44136C175.749 1.43967 175.902 1.4375 176.053 1.43635C176.102 1.43613 176.154 1.43488 176.2 1.43841C176.246 1.44194 176.283 1.44964 176.326 1.45583C176.537 1.48616 176.537 1.4867 176.887 1.48202C177.037 1.47979 177.182 1.47908 177.307 1.50301C177.424 1.52515 177.562 1.53139 177.721 1.52824C178.022 1.52269 178.326 1.51991 178.633 1.51773C178.729 1.5167 178.817 1.5275 178.897 1.54302C179.016 1.56738 179.164 1.56781 179.314 1.56449C179.514 1.56042 179.71 1.55629 179.879 1.58966C179.912 1.59677 179.964 1.60691 180.001 1.60702C180.253 1.60712 180.508 1.60836 180.754 1.60238C180.999 1.59641 181.119 1.63217 181.287 1.65143C181.539 1.64882 181.794 1.64626 182.046 1.64364C182.095 1.64288 182.153 1.63903 182.196 1.6425C182.377 1.65709 182.481 1.69964 182.729 1.69154C182.874 1.68704 183.03 1.68763 183.181 1.68865C183.221 1.68936 183.273 1.69896 183.3 1.70651C183.316 1.71058 183.3 1.72062 183.282 1.72572C183.226 1.73994 183.158 1.75286 183.109 1.76773C183.103 1.76979 183.161 1.78059 183.195 1.78553C183.277 1.79676 183.372 1.79681 183.483 1.79442C183.578 1.7923 183.676 1.80163 183.744 1.8191C183.771 1.8261 183.762 1.8368 183.703 1.87159C183.702 1.89818 183.767 1.88738 183.789 1.87039C183.823 1.84602 183.759 1.83674 183.636 1.84814C183.549 1.85639 183.506 1.86975 183.528 1.88152C183.54 1.88771 183.598 1.89634 183.703 1.87159C183.973 1.84379 184.176 1.8414 184.379 1.839C184.431 1.83829 184.492 1.83395 184.529 1.83786C184.661 1.85321 184.784 1.87112 184.912 1.88805C185.06 1.88739 185.198 1.88169 185.342 1.9054C185.544 1.93882 185.553 1.93627 185.75 1.93377C185.851 1.9323 185.952 1.93138 186.054 1.93045C186.155 1.92953 186.235 1.93907 186.323 1.95313C186.504 1.98183 186.519 1.9821 186.64 1.94948C186.711 1.92956 186.76 1.92337 186.849 1.93471C187.143 1.97302 187.146 1.97525 187.398 1.96992C187.607 1.96546 187.803 1.96676 187.956 2.0004C188.06 2.02395 188.094 2.01966 188.18 1.99839C188.402 1.94205 188.504 1.94492 188.917 1.99565C189.11 2.01969 189.31 2.00096 189.507 2.00171C189.672 2.00247 189.789 2.01755 189.801 2.05196C189.809 2.07328 189.837 2.08897 189.947 2.09797C189.99 2.10145 190.042 2.10617 190.085 2.10584C190.34 2.10382 190.592 2.10067 190.847 2.09757C190.976 2.09604 191.047 2.07178 191.023 2.0377C190.996 2.00139 191.045 1.98924 191.23 1.98217C191.34 1.97815 191.429 1.98081 191.518 1.99215C191.616 2.00474 191.588 2.01402 191.502 2.03204C191.295 2.07617 191.32 2.10591 191.583 2.14367C191.675 2.1567 191.748 2.16831 191.769 2.18551C191.782 2.19441 191.769 2.20559 191.797 2.21259C191.946 2.25161 192.155 2.27863 192.388 2.30011C192.612 2.28941 192.765 2.31654 192.937 2.33912C193.071 2.3567 193.231 2.34649 193.376 2.34361C193.538 2.34051 193.673 2.34723 193.79 2.36937C193.872 2.38495 193.958 2.39297 194.059 2.39205C194.262 2.38965 194.468 2.38949 194.668 2.38432C194.84 2.37976 194.968 2.39289 195.075 2.41324C195.21 2.43896 195.361 2.42587 195.502 2.43162C195.692 2.43878 195.786 2.48876 196.035 2.48012C196.183 2.47513 196.336 2.47512 196.49 2.47566C196.53 2.47582 196.579 2.48591 196.612 2.49302C196.775 2.52574 196.965 2.52747 197.174 2.52247C197.318 2.51905 197.459 2.51612 197.6 2.53923C197.833 2.57808 198.09 2.61302 198.335 2.64938C198.369 2.67494 198.343 2.70381 198.518 2.72155C198.61 2.73078 198.696 2.74369 198.766 2.75742C198.852 2.77359 198.932 2.7788 199.042 2.77695C199.242 2.77287 199.451 2.77493 199.647 2.76862C199.829 2.76314 199.942 2.78305 200.052 2.80183C200.141 2.81696 200.224 2.82494 200.331 2.81707C200.442 2.80979 200.522 2.81717 200.61 2.83339C200.736 2.8557 200.745 2.85369 201.162 2.86703C201.205 2.86833 201.257 2.87739 201.282 2.88488C201.294 2.88889 201.266 2.89926 201.245 2.90431C201.217 2.91033 201.174 2.91717 201.134 2.9181C200.679 2.92419 200.222 2.9286 199.767 2.93469C199.721 2.93551 199.672 2.93844 199.638 2.94327C199.601 2.94859 199.555 2.95592 199.555 2.96351C199.555 2.96894 199.616 2.97654 199.659 2.98109C199.794 2.99596 199.954 2.97978 200.085 2.99622C200.174 3.00702 200.248 3.02135 200.337 3.0316C200.373 3.03605 200.432 3.03654 200.478 3.03626C200.631 3.03517 200.782 3.0324 200.935 3.03185C200.978 3.03207 201.027 3.03836 201.067 3.04341C201.361 3.08117 201.361 3.08117 201.616 3.07861C201.717 3.07769 201.825 3.07144 201.92 3.07638C202.012 3.08126 202.092 3.09732 202.174 3.10801C202.346 3.13058 202.508 3.15245 202.52 3.195C202.526 3.21139 202.627 3.22728 202.728 3.23016C202.826 3.23298 202.931 3.22885 203.032 3.22738C203.192 3.22586 203.375 3.23795 203.581 3.26367C203.667 3.27441 203.759 3.27712 203.869 3.27365C203.912 3.27224 203.965 3.27533 204.011 3.27885C204.161 3.28965 204.161 3.29996 204.062 3.31776C203.924 3.34409 203.936 3.34702 204.322 3.37827C204.469 3.39009 204.583 3.40947 204.705 3.42683C204.904 3.45477 204.901 3.45472 204.768 3.48441C204.738 3.49092 204.71 3.49803 204.679 3.50509C204.59 3.52468 204.519 3.54623 204.334 3.54515C204.132 3.54375 203.929 3.54885 203.726 3.55125C203.53 3.55375 203.477 3.56585 203.495 3.60308C203.516 3.64796 203.556 3.65355 203.909 3.65924C204.01 3.66103 204.099 3.66694 204.175 3.68295C204.138 3.69967 204.071 3.71204 203.972 3.71356C203.72 3.71726 203.466 3.71982 203.214 3.72243C203.011 3.72483 202.808 3.72722 202.606 3.72962C202.48 3.73119 202.399 3.75801 202.433 3.79008C202.451 3.80831 202.466 3.82649 202.481 3.84467C202.514 3.88109 202.578 3.89145 202.784 3.89345C202.836 3.89437 202.885 3.89036 202.934 3.89231C203.134 3.89963 203.228 3.94635 203.468 3.94135C203.667 3.93728 203.876 3.93933 204.073 3.93303C204.254 3.92755 204.355 3.94887 204.481 3.96575C204.523 3.97139 204.569 3.98251 204.606 3.98262C204.861 3.98115 205.116 3.97967 205.365 3.97375C205.481 3.97147 205.552 3.97597 205.644 3.99062C205.864 4.026 205.87 4.02448 206.199 4.02051C206.439 4.01713 206.442 4.01827 206.748 4.0568C206.834 4.06754 206.926 4.06916 207.037 4.06677C207.181 4.06389 207.331 4.05786 207.482 4.06866C207.528 4.07164 207.586 4.07918 207.601 4.08651C207.61 4.09156 207.567 4.10274 207.53 4.10589C207.26 4.12934 206.943 4.11888 206.649 4.12507C206.556 4.1267 206.465 4.11477 206.388 4.0993C206.309 4.08324 206.223 4.07575 206.118 4.07662C205.916 4.07902 205.71 4.07919 205.51 4.08435C205.338 4.08891 205.219 4.07432 205.099 4.05538C205.059 4.04925 205.014 4.03813 204.974 4.03796C204.519 4.0408 204.062 4.04358 203.61 4.05081C203.429 4.05413 203.325 4.03492 203.202 4.0181C203.159 4.01246 203.117 4.00139 203.077 4.00123C202.923 4.00069 202.773 4.004 202.619 4.00564C202.06 4.01206 201.504 4.01853 200.945 4.02387C200.909 4.0243 200.863 4.0121 200.82 4.00645C200.737 3.99522 200.651 3.98448 200.566 3.97373C200.412 3.97537 200.262 3.97814 200.108 3.97869C199.997 3.97891 199.899 3.98477 199.883 4.00512C199.874 4.01853 199.975 4.0328 200.082 4.03361C200.187 4.03437 200.291 4.0297 200.377 4.03827C200.803 4.08053 200.803 4.08108 201.07 4.07873C201.304 4.07634 201.279 4.07048 201.484 4.10396C201.573 4.11855 201.653 4.12756 201.754 4.12609C202.006 4.12294 202.261 4.11983 202.516 4.11782C202.556 4.11744 202.608 4.12378 202.648 4.12883C202.948 4.1667 202.948 4.16779 203.197 4.16404C203.522 4.16001 203.535 4.15751 203.752 4.19446C203.902 4.21991 204.04 4.20661 204.185 4.20807C204.35 4.23216 204.531 4.25436 204.681 4.28089C204.858 4.31225 205.046 4.31067 205.248 4.30611C205.399 4.30279 205.546 4.30322 205.669 4.32764C205.785 4.35032 205.926 4.35498 206.086 4.35237C206.23 4.35004 206.378 4.34233 206.528 4.35692C206.568 4.36088 206.629 4.3701 206.626 4.37494C206.623 4.38248 206.582 4.39263 206.543 4.39518C206.26 4.41245 205.95 4.40643 205.652 4.41149C205.612 4.41241 205.56 4.40552 205.52 4.40048C205.434 4.38919 205.351 4.37633 205.269 4.36456C205.118 4.36516 204.965 4.36354 204.817 4.36745C204.704 4.37033 204.618 4.36827 204.535 4.35378C204.459 4.34049 204.376 4.32437 204.284 4.31895C204.192 4.31352 204.084 4.31977 203.983 4.32123C203.882 4.3227 203.765 4.31902 203.685 4.32629C203.605 4.33357 203.556 4.35169 203.503 4.36597C203.445 4.38176 203.365 4.38578 203.248 4.38535C203.141 4.38508 203.055 4.38194 202.975 4.36479C202.942 4.35768 202.896 4.35198 202.85 4.34683C202.807 4.34227 202.758 4.33544 202.718 4.33582C202.26 4.34023 201.806 4.34578 201.348 4.35073C201.197 4.3524 200.964 4.3398 200.652 4.31292C200.609 4.30945 200.557 4.30473 200.514 4.30506C200.259 4.30708 200.007 4.31023 199.752 4.31333C199.494 4.31638 199.497 4.31535 199.059 4.27341C198.979 4.26549 198.862 4.27211 198.767 4.26935C198.568 4.26311 198.47 4.21579 198.234 4.2203C198.034 4.22438 197.825 4.22233 197.626 4.22857C197.444 4.23406 197.34 4.21322 197.218 4.1964C197.175 4.19076 197.129 4.17909 197.092 4.17953C196.635 4.1834 196.18 4.18895 195.572 4.17985C195.422 4.17719 195.489 4.18978 195.587 4.19531C195.729 4.20378 195.775 4.19319 195.698 4.17013C195.643 4.15396 195.564 4.14495 195.499 4.14761C195.465 4.14919 195.422 4.15874 195.572 4.17985C195.732 4.20329 195.722 4.21452 195.75 4.22152C195.817 4.23845 195.912 4.24664 196.01 4.24621C196.164 4.24512 196.314 4.24234 196.468 4.2418C196.511 4.24147 196.563 4.24619 196.603 4.25124C196.94 4.29084 196.943 4.29307 197.302 4.28638C197.416 4.28459 197.499 4.28605 197.588 4.29793C197.71 4.31421 197.799 4.33966 197.986 4.33537C198.235 4.32944 198.49 4.32797 198.745 4.3265C198.785 4.32612 198.827 4.33664 198.873 4.3418C198.999 4.35704 199.091 4.38309 199.278 4.37608C199.422 4.37049 199.579 4.37108 199.733 4.37216C199.772 4.37287 199.834 4.38209 199.852 4.38947C199.889 4.4026 199.842 4.41644 199.738 4.42491C199.695 4.4285 199.636 4.42638 199.587 4.42714C199.385 4.42954 199.182 4.43247 198.979 4.43378C198.872 4.4346 198.77 4.44095 198.758 4.46082C198.748 4.47422 198.859 4.48811 198.963 4.48887C199.116 4.48995 199.27 4.48832 199.417 4.48386C199.679 4.47653 199.906 4.48379 200.117 4.52172C200.267 4.54826 200.258 4.53941 200.416 4.61278C200.456 4.63139 200.575 4.63513 200.68 4.63589C200.932 4.63762 201.048 4.64782 201.026 4.66426C200.998 4.6844 200.909 4.68934 200.795 4.69005C200.593 4.69081 200.39 4.69429 200.187 4.69669C200.138 4.69745 200.083 4.69973 200.037 4.69783C199.991 4.69593 199.948 4.68866 199.908 4.68307C199.822 4.67125 199.749 4.65421 199.657 4.64878C199.565 4.64336 199.457 4.6496 199.356 4.65107C199.255 4.652 199.147 4.65824 199.055 4.65282C198.963 4.64739 198.887 4.62976 198.804 4.61853C198.764 4.61294 198.715 4.60447 198.675 4.60431C198.473 4.60508 198.27 4.60856 198.067 4.61041C197.901 4.61219 197.718 4.60009 197.518 4.57412C197.432 4.56283 197.343 4.5618 197.233 4.5642C196.987 4.56854 196.984 4.56686 196.537 4.52748C196.494 4.52346 196.441 4.51874 196.398 4.51961C195.941 4.52402 195.486 4.52957 195.032 4.53458C194.772 4.53759 194.57 4.55592 194.426 4.58957C194.266 4.62692 194.263 4.62686 194.419 4.64808C194.544 4.66549 194.658 4.68975 194.796 4.70033C194.924 4.7102 195.084 4.6886 195.222 4.716C195.292 4.72973 195.384 4.74492 195.473 4.74812C195.614 4.75333 195.765 4.74024 195.9 4.7665C195.967 4.77964 196.068 4.79391 196.154 4.79597C196.305 4.79971 196.458 4.79373 196.609 4.79259C196.655 4.79231 196.707 4.79324 196.75 4.79671C196.796 4.80078 196.836 4.80799 196.875 4.81412C196.998 4.83474 197.13 4.84576 197.289 4.83935C197.551 4.82876 197.784 4.84047 197.986 4.87878C198.013 4.88415 198.081 4.88589 198.124 4.88447C198.234 4.881 198.33 4.88213 198.409 4.89385C198.443 4.89879 198.492 4.90726 198.486 4.91203C198.476 4.92001 198.439 4.93022 198.399 4.93222C198.11 4.94558 197.8 4.94228 197.502 4.9468C197.463 4.94718 197.414 4.93926 197.374 4.93367C197.288 4.92184 197.215 4.9048 197.123 4.89938C197.031 4.89395 196.923 4.89911 196.822 4.90004C196.72 4.90096 196.613 4.90721 196.521 4.90233C196.429 4.8969 196.343 4.88182 196.27 4.86858C196.184 4.85349 196.101 4.8504 195.987 4.85382C195.84 4.85828 195.686 4.85665 195.536 4.8578C195.453 4.84602 195.37 4.83317 195.285 4.82188C195.245 4.81629 195.196 4.80945 195.153 4.80924C194.95 4.81 194.748 4.81294 194.545 4.81534C194.342 4.81773 194.342 4.81773 193.999 4.77801C193.959 4.77351 193.907 4.76825 193.864 4.76857C193.609 4.77059 193.357 4.77429 193.102 4.7763C193.004 4.77728 192.915 4.76812 192.836 4.75205C192.759 4.73605 192.667 4.72628 192.572 4.72731C192.167 4.73156 191.761 4.73526 191.356 4.74168C191.193 4.74424 191.055 4.73637 190.942 4.71537C190.813 4.69084 190.669 4.69373 190.518 4.69541C190.178 4.70025 190.175 4.69966 189.957 4.66813C189.914 4.66195 189.871 4.65088 189.831 4.65071C189.478 4.65263 189.122 4.65394 188.772 4.66079C188.588 4.66459 188.49 4.64386 188.367 4.62759C188.324 4.62194 188.279 4.61082 188.242 4.61125C187.987 4.61273 187.732 4.61366 187.483 4.62012C187.234 4.62659 187.14 4.57444 186.953 4.57168C186.698 4.56772 186.446 4.57576 186.194 4.57892C185.992 4.58131 185.789 4.58371 185.586 4.5861C185.383 4.58849 185.181 4.5898 184.978 4.59328C184.871 4.59519 184.791 4.58889 184.702 4.57375C184.589 4.55384 184.454 4.53735 184.331 4.5189C184.207 4.50114 184.069 4.49309 183.917 4.49476C183.868 4.49552 183.816 4.49569 183.767 4.49645C183.395 4.50183 183.395 4.50075 182.923 4.45821C182.902 4.4562 182.846 4.4612 182.825 4.46516C182.76 4.47813 182.702 4.4923 182.643 4.50592C182.56 4.49632 182.459 4.48911 182.404 4.47565C182.248 4.43761 181.999 4.48152 181.843 4.44403C181.785 4.42997 181.683 4.41679 181.591 4.41191C181.496 4.40697 181.389 4.41267 181.29 4.41419C181.036 4.41784 181.036 4.4173 180.817 4.46175C180.706 4.48368 180.546 4.47652 180.402 4.4794C180.251 4.48272 180.107 4.48343 179.982 4.45895C179.868 4.43687 179.73 4.42955 179.568 4.43319C179.368 4.43781 179.162 4.43906 178.96 4.44037C178.917 4.4407 178.864 4.43706 178.821 4.43305C178.352 4.39274 178.352 4.3922 178.125 4.39524C178.024 4.39671 177.919 4.39595 177.821 4.39911C177.655 4.40486 177.53 4.39125 177.41 4.37177C177.37 4.36563 177.324 4.35451 177.285 4.35435C177.082 4.35349 176.882 4.35485 176.683 4.35621C176.529 4.3573 176.376 4.35676 176.228 4.36176C175.982 4.36991 175.863 4.33252 175.695 4.31326C175.443 4.31587 175.188 4.31626 174.936 4.32159C174.819 4.32387 174.743 4.32089 174.654 4.30629C174.541 4.28801 174.437 4.26771 174.252 4.2726C174.007 4.27912 173.749 4.27837 173.497 4.28044C173.328 4.26064 173.206 4.22428 172.963 4.23248C172.816 4.23748 172.659 4.23634 172.509 4.23803C172.306 4.24043 172.104 4.24228 171.901 4.24521C171.683 4.24788 171.686 4.24631 171.352 4.20838C171.159 4.18597 170.959 4.20362 170.762 4.20341C170.609 4.20341 170.532 4.22702 170.568 4.25969C170.604 4.29236 170.521 4.31586 170.38 4.31771C170.026 4.32179 169.67 4.32636 169.317 4.32936C169.274 4.32969 169.222 4.32497 169.182 4.32046C168.931 4.29323 168.749 4.28042 168.636 4.28206C168.384 4.28575 168.126 4.28554 167.878 4.29147C167.706 4.29549 167.58 4.28187 167.47 4.26147C167.384 4.24584 167.304 4.24118 167.194 4.24248C165.978 4.25739 164.762 4.26958 163.548 4.28563C163.367 4.28786 163.263 4.27028 163.141 4.25346C163.098 4.24782 163.058 4.2368 163.015 4.23604C162.914 4.23426 162.812 4.23735 162.711 4.23882C162.256 4.24383 161.802 4.25155 161.344 4.25325C161.151 4.25417 161.098 4.27822 161.015 4.29738C160.95 4.31198 160.877 4.31719 160.76 4.3173C160.649 4.31752 160.57 4.3134 160.484 4.29777C160.374 4.27737 160.248 4.26375 160.076 4.26832C159.876 4.27348 159.671 4.27365 159.468 4.27604C159.363 4.27691 159.283 4.28527 159.249 4.30422C159.243 4.30736 159.307 4.31664 159.344 4.32218C159.467 4.34062 159.583 4.36168 159.721 4.37551C159.862 4.3894 160.016 4.37909 160.163 4.37843C160.215 4.37827 160.264 4.37588 160.314 4.37729C160.36 4.3781 160.415 4.38233 160.448 4.38781C160.608 4.41505 160.779 4.43491 160.997 4.4241C161.188 4.43451 161.285 4.48129 161.528 4.47363C161.675 4.46918 161.829 4.46863 161.982 4.46863C162.022 4.46879 162.065 4.47932 162.108 4.48496C162.23 4.50069 162.328 4.52413 162.513 4.51816C162.709 4.51186 162.918 4.51391 163.118 4.50984C163.228 4.50745 163.308 4.51265 163.394 4.52828C163.504 4.54814 163.629 4.56393 163.801 4.55828C163.949 4.55328 164.106 4.55442 164.256 4.55219C164.453 4.54968 164.453 4.55023 164.802 4.59005C164.842 4.59456 164.894 4.59982 164.937 4.59949C165.192 4.59747 165.444 4.59378 165.698 4.59176C165.797 4.59078 165.892 4.59952 165.959 4.61645C165.987 4.62345 165.977 4.63414 165.986 4.64353C165.479 4.64924 164.973 4.65278 164.469 4.66181C164.279 4.6655 164.193 4.64174 164.067 4.62703C164.025 4.62193 163.979 4.61189 163.939 4.61228C163.582 4.61522 163.229 4.61876 162.876 4.62446C162.766 4.62631 162.683 4.62268 162.6 4.60548C162.389 4.55995 162.131 4.57819 161.888 4.57988C161.704 4.58098 161.645 4.59677 161.669 4.63302C161.696 4.67584 161.806 4.69082 162.089 4.68766C162.19 4.68673 162.292 4.68472 162.393 4.68434C162.491 4.6839 162.58 4.69253 162.66 4.70859C162.736 4.7246 162.828 4.73382 162.923 4.73333C163.126 4.73202 163.332 4.73077 163.528 4.72609C163.691 4.72245 163.826 4.73026 163.939 4.75235C164.068 4.77687 164.212 4.77454 164.36 4.77225C164.704 4.76747 164.707 4.76806 164.921 4.79899C164.964 4.80518 165.007 4.81625 165.047 4.81641C165.4 4.8145 165.756 4.81373 166.103 4.80682C166.284 4.80351 166.385 4.82266 166.508 4.83894C166.551 4.84458 166.593 4.85619 166.633 4.85581C166.888 4.85434 167.143 4.85287 167.392 4.84694C167.509 4.84412 167.579 4.84862 167.671 4.86327C167.898 4.8993 167.904 4.89832 168.226 4.8937C168.325 4.89218 168.432 4.8881 168.524 4.89407C168.616 4.90004 168.69 4.91708 168.775 4.92836C168.815 4.93341 168.864 4.94025 168.907 4.93992C169.11 4.93915 169.313 4.93621 169.515 4.93382C169.706 4.93121 169.706 4.93175 170.061 4.97168C170.208 4.9884 170.356 4.97906 170.5 4.97726C170.657 4.97514 170.798 4.97763 170.917 5.00091C171.037 5.02419 171.181 5.02565 171.334 5.02402C171.479 5.02222 171.626 5.01288 171.773 5.03014C172.11 5.06974 172.11 5.07029 172.319 5.06746C172.623 5.0636 172.924 5.06022 173.231 5.0575C173.271 5.05712 173.323 5.06455 173.363 5.0696C173.449 5.08088 173.522 5.09846 173.614 5.10389C173.706 5.10985 173.814 5.10524 173.912 5.10372C174.229 5.09898 174.25 5.09556 174.461 5.13512C174.639 5.16757 174.861 5.12914 175.026 5.16571C175.121 5.18639 175.249 5.20386 175.427 5.19777C175.575 5.19278 175.728 5.19332 175.882 5.19168C176.125 5.18891 176.125 5.18945 176.431 5.22743C176.471 5.23248 176.523 5.23882 176.563 5.23844C176.765 5.23768 176.971 5.23751 177.168 5.23121C177.398 5.22387 177.545 5.2471 177.717 5.27021C177.851 5.28833 178.011 5.27812 178.153 5.27519C178.309 5.27253 178.45 5.27665 178.567 5.29987C178.689 5.32375 178.833 5.32358 178.987 5.32194C179.131 5.32069 179.279 5.31081 179.426 5.32861C179.741 5.36783 179.741 5.36783 179.972 5.36539C180.175 5.36299 180.377 5.36005 180.58 5.35929C180.62 5.35891 180.669 5.36683 180.709 5.37242C180.794 5.3837 180.868 5.40129 180.96 5.40671C181.052 5.41213 181.159 5.40697 181.261 5.40605C181.362 5.40512 181.47 5.39888 181.562 5.40376C181.654 5.40864 181.739 5.42373 181.813 5.43697C181.899 5.45259 181.978 5.45563 182.095 5.45226C182.243 5.44781 182.396 5.44889 182.546 5.44774C182.629 5.45952 182.715 5.47135 182.795 5.48415C182.877 5.49755 182.966 5.49804 183.08 5.49625C183.458 5.48988 183.461 5.49157 183.776 5.53079C183.92 5.54854 184.071 5.53871 184.215 5.53746C184.369 5.53582 184.513 5.5362 184.632 5.56002C184.749 5.5827 184.893 5.58796 185.047 5.58416C185.145 5.58155 185.249 5.58068 185.351 5.58084C185.397 5.58111 185.452 5.58425 185.486 5.58919C185.648 5.61486 185.807 5.6383 186.031 5.6276C186.228 5.63541 186.325 5.68164 186.562 5.67713C186.761 5.67305 186.97 5.67511 187.167 5.66881C187.348 5.66332 187.477 5.68079 187.568 5.70141C187.734 5.73799 187.968 5.69652 188.133 5.73255C188.228 5.75322 188.35 5.77058 188.534 5.76569C188.737 5.76059 188.801 5.77312 188.859 5.80834C188.893 5.82847 188.886 5.8441 188.825 5.85822C188.763 5.87287 188.695 5.86897 188.597 5.84932C188.484 5.82724 188.349 5.82106 188.187 5.82253C188.027 5.82405 187.929 5.7941 187.797 5.78091C187.665 5.76719 187.509 5.78342 187.371 5.76633C187.046 5.72639 187.046 5.72639 186.825 5.72901C186.674 5.73069 186.518 5.7301 186.37 5.7351C186.195 5.74124 186.082 5.72241 185.962 5.7051C185.92 5.69891 185.877 5.68784 185.84 5.68774C185.487 5.68965 185.131 5.69096 184.78 5.69835C184.596 5.70216 184.498 5.68089 184.376 5.66515C184.333 5.65951 184.287 5.64893 184.25 5.64936C183.946 5.6516 183.645 5.65606 183.341 5.65992C183.282 5.67354 183.218 5.68651 183.162 5.70128C183.104 5.71653 183.024 5.72218 182.907 5.71957C182.714 5.71616 182.523 5.7356 182.33 5.70342C182.131 5.67059 182.116 5.67195 181.922 5.67559C181.677 5.68048 181.416 5.67371 181.185 5.69081C181.145 5.6939 181.102 5.70346 181.102 5.71106C181.102 5.71594 181.163 5.72408 181.203 5.72912C181.338 5.74453 181.494 5.7283 181.629 5.74425C181.718 5.75451 181.792 5.76883 181.88 5.77963C181.917 5.78408 181.972 5.78451 182.022 5.78484C182.074 5.78576 182.123 5.78228 182.172 5.78369C182.218 5.78505 182.267 5.78917 182.304 5.7947C182.472 5.81831 182.65 5.84044 182.8 5.86752C182.947 5.894 183.085 5.8807 183.233 5.88167C183.821 5.93006 183.821 5.93061 184.218 5.92566C184.316 5.92468 184.417 5.92321 184.519 5.92554C184.561 5.9263 184.601 5.93677 184.644 5.94295C184.767 5.9614 184.883 5.97811 185.055 5.97247C185.202 5.96747 185.359 5.9686 185.51 5.96637C185.712 5.96398 185.712 5.96398 186.055 6.00424C186.141 6.01444 186.233 6.01498 186.344 6.01259C186.439 6.01047 186.537 6.02034 186.604 6.03727C186.632 6.04427 186.623 6.05496 186.632 6.06435C186.328 6.06767 186.021 6.06822 185.726 6.07605C185.535 6.08083 185.45 6.05598 185.324 6.04127C185.281 6.03617 185.235 6.02613 185.195 6.02651C184.894 6.02935 184.593 6.03326 184.292 6.03881C184.256 6.03924 184.209 6.05091 184.206 6.05846C184.2 6.07246 184.276 6.08738 184.387 6.08879C184.534 6.09139 184.678 6.08417 184.81 6.10875C184.92 6.13023 185.058 6.14136 185.221 6.13554C185.319 6.13239 185.424 6.13423 185.522 6.13108C185.783 6.12266 186.019 6.12955 186.215 6.16992C186.366 6.18234 186.513 6.17572 186.657 6.17338C186.765 6.17148 186.869 6.16952 186.946 6.18119C187.108 6.20577 187.267 6.23029 187.492 6.21959C187.734 6.23907 187.918 6.27434 188.12 6.30397C188.215 6.31813 188.288 6.32648 188.399 6.32029C188.445 6.31785 188.5 6.31882 188.549 6.31806C188.651 6.31714 188.758 6.31089 188.85 6.31577C188.942 6.3212 189.019 6.33829 189.101 6.34952C189.141 6.35511 189.187 6.36406 189.227 6.36423C189.381 6.36422 189.531 6.36145 189.682 6.35976C189.832 6.35862 189.983 6.35747 190.133 6.35633C190.259 6.37266 190.387 6.38905 190.513 6.40538C190.716 6.40298 190.918 6.40059 191.118 6.39868C191.342 6.39613 191.342 6.39667 191.664 6.43601C191.808 6.45375 191.961 6.44669 192.1 6.44207C192.33 6.43474 192.483 6.45807 192.645 6.48265C192.679 6.48759 192.741 6.49138 192.78 6.48992C192.94 6.48514 193.078 6.49354 193.195 6.51568C193.277 6.53126 193.36 6.53923 193.461 6.53831C193.814 6.53422 194.168 6.5296 194.521 6.5266C194.561 6.52622 194.613 6.53203 194.653 6.53707C194.965 6.57571 194.968 6.57739 195.199 6.57277C195.404 6.5688 195.595 6.5689 195.757 6.60162C195.791 6.60873 195.843 6.61888 195.879 6.61899C196.131 6.618 196.386 6.61653 196.635 6.61169C196.748 6.60935 196.828 6.61239 196.917 6.62644C197.03 6.64419 197.131 6.66497 197.319 6.66122C197.838 6.65029 197.841 6.6536 198.454 6.70189C198.497 6.70536 198.555 6.70205 198.605 6.70074C198.709 6.69716 198.786 6.70611 198.877 6.72022C199.083 6.75207 199.089 6.75055 199.285 6.74804C199.436 6.74582 199.592 6.74749 199.74 6.74195C199.967 6.73402 200.117 6.75784 200.286 6.7809C200.421 6.79902 200.577 6.78876 200.722 6.78642C200.878 6.78376 201.019 6.78788 201.136 6.81056C201.215 6.82608 201.301 6.8352 201.402 6.83427C201.756 6.83073 202.109 6.82611 202.462 6.82257C202.505 6.82224 202.557 6.8275 202.597 6.83201C202.946 6.87183 202.946 6.87346 203.293 6.8671C203.404 6.86525 203.496 6.86579 203.579 6.87865C203.658 6.89091 203.744 6.90274 203.827 6.91452C203.977 6.91337 204.131 6.915 204.278 6.91108C204.392 6.9082 204.472 6.91178 204.56 6.92475C204.677 6.94146 204.771 6.96865 204.959 6.95947C205.054 6.95518 205.165 6.95876 205.26 6.95501C205.374 6.94996 205.45 6.95566 205.539 6.97134C205.649 6.99011 205.763 7.00949 205.941 7.00394C206.137 6.99764 206.346 6.9997 206.546 6.99562C206.656 6.99323 206.733 6.99893 206.822 7.01461C206.932 7.03447 207.058 7.04809 207.23 7.04406C207.58 7.03667 207.583 7.03944 207.923 7.07964C208.009 7.08985 208.101 7.09039 208.211 7.08799C208.307 7.08587 208.405 7.09575 208.472 7.11268C208.499 7.11968 208.49 7.13037 208.499 7.13976L208.542 7.15083ZM181.273 1.77386C181.171 1.77479 181.07 1.77626 180.923 1.72644C180.914 1.71814 180.921 1.70848 180.899 1.70104C180.85 1.68552 180.774 1.67386 180.682 1.67061C180.516 1.66551 180.316 1.68044 180.319 1.6946C180.322 1.7066 180.374 1.71783 180.475 1.72939C180.518 1.73394 180.552 1.74105 180.591 1.7461C180.708 1.76064 180.8 1.78669 180.969 1.77718C180.954 1.76009 180.938 1.74299 180.969 1.77718C180.953 1.79754 180.999 1.813 181.109 1.82092C181.14 1.82309 181.186 1.82228 181.21 1.82C181.306 1.80974 181.321 1.79373 181.252 1.74961C181.239 1.75644 181.251 1.76914 181.276 1.77283C181.303 1.77658 181.371 1.77506 181.405 1.77185C181.491 1.76306 181.534 1.75025 181.513 1.73847C181.501 1.73229 181.442 1.72366 181.406 1.72301C181.338 1.72182 181.279 1.73273 181.27 1.77381L181.273 1.77386ZM205.982 8.50518C205.758 8.51154 205.5 8.50319 205.275 8.5204C205.235 8.52349 205.195 8.53256 205.192 8.5401C205.192 8.54499 205.25 8.55307 205.287 8.55752C205.37 8.56767 205.462 8.56658 205.569 8.56576C205.732 8.56483 205.827 8.59148 205.952 8.60618C205.992 8.61069 206.044 8.61432 206.087 8.61399C206.336 8.61187 206.582 8.60915 206.831 8.60594C206.874 8.60507 206.92 8.60208 206.957 8.59785C207.08 8.58428 207.068 8.5732 206.948 8.55969C206.816 8.54434 206.712 8.52079 206.577 8.50809C206.387 8.49008 206.191 8.50615 205.985 8.50524L205.982 8.50518ZM188.543 8.59369C188.392 8.59538 188.245 8.59712 188.095 8.59881C188.045 8.59957 187.993 8.59919 187.947 8.60055C187.852 8.60267 187.781 8.61282 187.735 8.62992C187.805 8.64527 187.891 8.65493 187.986 8.65498C188.137 8.65438 188.284 8.64993 188.434 8.65095C188.597 8.65165 188.692 8.67775 188.818 8.69246C188.857 8.69696 188.906 8.69837 188.952 8.69973C189.18 8.70591 189.318 8.68012 189.276 8.63975C189.246 8.60827 189.129 8.58776 188.988 8.58907C188.838 8.59075 188.69 8.5925 188.54 8.59418L188.543 8.59369ZM207.046 7.72159C207.083 7.71301 207.123 7.7072 207.141 7.69939C207.197 7.67323 207.176 7.65168 207.075 7.62819C206.953 7.59943 206.802 7.61468 206.664 7.61496C206.63 7.6149 206.593 7.62565 206.574 7.63238C206.562 7.63705 206.562 7.64736 206.58 7.6504C206.733 7.67482 206.893 7.69771 207.049 7.72164L207.046 7.72159ZM180.449 5.6485C180.301 5.65024 180.151 5.65084 180.004 5.65421C179.967 5.65519 179.933 5.66491 179.911 5.67158C179.871 5.6839 179.914 5.70257 180.039 5.70642C180.184 5.71114 180.334 5.70457 180.485 5.70288C180.675 5.70081 180.786 5.68268 180.719 5.66412C180.652 5.64557 180.556 5.64063 180.449 5.64796L180.449 5.6485ZM18.8922 1.63695C18.9905 1.63597 19.0918 1.63559 19.1901 1.63353C19.2822 1.63135 19.3531 1.62066 19.3994 1.60356C19.3229 1.5881 19.2371 1.57898 19.1419 1.57893C18.9915 1.57953 18.844 1.58127 18.6966 1.5841C18.6045 1.58573 18.5152 1.5961 18.4934 1.61417C18.4748 1.62742 18.6803 1.63919 18.8953 1.63701L18.8922 1.63695ZM167.493 4.1761C167.533 4.18169 167.572 4.19216 167.612 4.19287C167.711 4.1946 167.812 4.19313 167.904 4.18933C167.944 4.18786 167.975 4.17864 167.993 4.17136C168.006 4.16669 168.003 4.15796 167.984 4.15329C167.896 4.12567 167.54 4.12861 167.481 4.15743C167.472 4.1627 167.484 4.16997 167.49 4.17605L167.493 4.1761ZM157.861 1.0333C157.87 1.04215 157.873 1.05088 157.885 1.05978C157.909 1.0765 157.977 1.08963 158.075 1.09951C158.152 1.08729 158.192 1.0728 158.189 1.05646C158.189 1.04778 158.177 1.03888 158.165 1.02998C158.141 1.01327 158.073 1.00014 157.975 0.990261C157.898 1.00247 157.858 1.01697 157.861 1.0333ZM214.123 9.13963C214.095 9.1462 214.067 9.15276 214.036 9.15874C214.119 9.17594 214.196 9.18218 214.254 9.17452C214.291 9.16974 214.313 9.16198 214.34 9.15542C214.258 9.13821 214.184 9.13257 214.123 9.13963ZM212.212 9.17974C212.252 9.18533 212.289 9.19249 212.332 9.19651C212.402 9.20318 212.467 9.19509 212.516 9.17642C212.476 9.17083 212.44 9.16367 212.397 9.15965C212.326 9.15298 212.262 9.16107 212.212 9.17974ZM213.423 9.10177C213.402 9.11442 213.444 9.12603 213.558 9.13726C213.586 9.13069 213.622 9.12483 213.641 9.11756C213.672 9.10562 213.62 9.0933 213.51 9.08266C213.482 9.08923 213.454 9.0958 213.423 9.10177ZM206.954 8.40236C206.932 8.41501 206.975 8.42662 207.088 8.43785C207.116 8.43128 207.153 8.42542 207.172 8.41815C207.202 8.40621 207.151 8.39389 207.04 8.38326C207.012 8.38983 206.985 8.39639 206.954 8.40236ZM198.194 4.40635C198.166 4.41291 198.138 4.41948 198.107 4.42545C198.19 4.44265 198.267 4.44889 198.325 4.44124C198.362 4.43646 198.384 4.4287 198.411 4.42213C198.329 4.40493 198.255 4.39929 198.194 4.40635ZM189.776 2.21982C189.85 2.22492 189.911 2.2184 189.964 2.19924C189.924 2.19365 189.887 2.18649 189.844 2.18248C189.774 2.1758 189.709 2.18389 189.66 2.20256C189.7 2.20815 189.739 2.21374 189.776 2.21982ZM185.288 2.01356C185.26 2.02013 185.232 2.0267 185.201 2.03267C185.284 2.04987 185.361 2.05611 185.419 2.04846C185.456 2.04368 185.478 2.03592 185.505 2.02935C185.423 2.01215 185.349 2.00651 185.288 2.01356ZM154.844 0.980046C154.816 0.986614 154.788 0.993181 154.757 0.999152C154.84 1.01635 154.916 1.02259 154.975 1.01494C155.012 1.01016 155.034 1.0024 155.061 0.995832C154.979 0.978631 154.905 0.972989 154.844 0.980046ZM3.12763 2.71862C3.08782 2.71304 3.048 2.70745 3.01126 2.70137C2.92198 2.71445 2.89412 2.72753 2.94305 2.73871C2.97363 2.74576 3.01961 2.75038 3.05942 2.75596C3.1487 2.74288 3.17348 2.73029 3.12764 2.71808L3.12763 2.71862Z" fill="#014EFF"/>
</svg>
